<?xml version="1.0" encoding="utf-8" standalone="no"?>
<!DOCTYPE svg PUBLIC "-//W3C//DTD SVG 1.1//EN"
  "http://www.w3.org/Graphics/SVG/1.1/DTD/svg11.dtd">
<svg xmlns:xlink="http://www.w3.org/1999/xlink" width="432pt" height="288pt" viewBox="0 0 432 288" xmlns="http://www.w3.org/2000/svg" version="1.1">
 <metadata>
  <rdf:RDF xmlns:dc="http://purl.org/dc/elements/1.1/" xmlns:cc="http://creativecommons.org/ns#" xmlns:rdf="http://www.w3.org/1999/02/22-rdf-syntax-ns#">
   <cc:Work>
    <dc:type rdf:resource="http://purl.org/dc/dcmitype/StillImage"/>
    <dc:date>2024-01-17T09:11:11.168026</dc:date>
    <dc:format>image/svg+xml</dc:format>
    <dc:creator>
     <cc:Agent>
      <dc:title>Matplotlib v3.5.1, https://matplotlib.org/</dc:title>
     </cc:Agent>
    </dc:creator>
   </cc:Work>
  </rdf:RDF>
 </metadata>
 <defs>
  <style type="text/css">*{stroke-linejoin: round; stroke-linecap: butt}</style>
 </defs>
 <g id="figure_1">
  <g id="patch_1">
   <path d="M 0 288 
L 432 288 
L 432 0 
L 0 0 
L 0 288 
z
" style="fill: none"/>
  </g>
  <g id="axes_1">
   <g id="patch_2">
    <path d="M 54 252 
L 388.8 252 
L 388.8 34.56 
L 54 34.56 
z
" style="fill: #ffffff"/>
   </g>
   <g id="matplotlib.axis_1">
    <g id="xtick_1">
     <g id="line2d_1">
      <path d="M 54 252 
L 54 34.56 
" clip-path="url(#p0e4fd19bf0)" style="fill: none; stroke: #b0b0b0; stroke-width: 0.8; stroke-linecap: square"/>
     </g>
     <g id="line2d_2">
      <defs>
       <path id="mcf5488e235" d="M 0 0 
L 0 3.5 
" style="stroke: #000000; stroke-width: 0.8"/>
      </defs>
      <g>
       <use xlink:href="#mcf5488e235" x="54" y="252" style="stroke: #000000; stroke-width: 0.8"/>
      </g>
     </g>
     <g id="text_1">
      <!-- $\mathdefault{2^{2}}$ -->
      <g transform="translate(48.4 266.598437)scale(0.1 -0.1)">
       <defs>
        <path id="DejaVuSans-32" d="M 1228 531 
L 3431 531 
L 3431 0 
L 469 0 
L 469 531 
Q 828 903 1448 1529 
Q 2069 2156 2228 2338 
Q 2531 2678 2651 2914 
Q 2772 3150 2772 3378 
Q 2772 3750 2511 3984 
Q 2250 4219 1831 4219 
Q 1534 4219 1204 4116 
Q 875 4013 500 3803 
L 500 4441 
Q 881 4594 1212 4672 
Q 1544 4750 1819 4750 
Q 2544 4750 2975 4387 
Q 3406 4025 3406 3419 
Q 3406 3131 3298 2873 
Q 3191 2616 2906 2266 
Q 2828 2175 2409 1742 
Q 1991 1309 1228 531 
z
" transform="scale(0.015625)"/>
       </defs>
       <use xlink:href="#DejaVuSans-32" transform="translate(0 0.765625)"/>
       <use xlink:href="#DejaVuSans-32" transform="translate(64.580078 39.046875)scale(0.7)"/>
      </g>
     </g>
    </g>
    <g id="xtick_2">
     <g id="line2d_3">
      <path d="M 75.6 252 
L 75.6 34.56 
" clip-path="url(#p0e4fd19bf0)" style="fill: none; stroke: #b0b0b0; stroke-width: 0.8; stroke-linecap: square"/>
     </g>
     <g id="line2d_4">
      <g>
       <use xlink:href="#mcf5488e235" x="75.6" y="252" style="stroke: #000000; stroke-width: 0.8"/>
      </g>
     </g>
     <g id="text_2">
      <!-- $\mathdefault{2^{4}}$ -->
      <g transform="translate(70 266.598437)scale(0.1 -0.1)">
       <defs>
        <path id="DejaVuSans-34" d="M 2419 4116 
L 825 1625 
L 2419 1625 
L 2419 4116 
z
M 2253 4666 
L 3047 4666 
L 3047 1625 
L 3713 1625 
L 3713 1100 
L 3047 1100 
L 3047 0 
L 2419 0 
L 2419 1100 
L 313 1100 
L 313 1709 
L 2253 4666 
z
" transform="scale(0.015625)"/>
       </defs>
       <use xlink:href="#DejaVuSans-32" transform="translate(0 0.684375)"/>
       <use xlink:href="#DejaVuSans-34" transform="translate(64.580078 38.965625)scale(0.7)"/>
      </g>
     </g>
    </g>
    <g id="xtick_3">
     <g id="line2d_5">
      <path d="M 97.2 252 
L 97.2 34.56 
" clip-path="url(#p0e4fd19bf0)" style="fill: none; stroke: #b0b0b0; stroke-width: 0.8; stroke-linecap: square"/>
     </g>
     <g id="line2d_6">
      <g>
       <use xlink:href="#mcf5488e235" x="97.2" y="252" style="stroke: #000000; stroke-width: 0.8"/>
      </g>
     </g>
     <g id="text_3">
      <!-- $\mathdefault{2^{6}}$ -->
      <g transform="translate(91.6 266.598437)scale(0.1 -0.1)">
       <defs>
        <path id="DejaVuSans-36" d="M 2113 2584 
Q 1688 2584 1439 2293 
Q 1191 2003 1191 1497 
Q 1191 994 1439 701 
Q 1688 409 2113 409 
Q 2538 409 2786 701 
Q 3034 994 3034 1497 
Q 3034 2003 2786 2293 
Q 2538 2584 2113 2584 
z
M 3366 4563 
L 3366 3988 
Q 3128 4100 2886 4159 
Q 2644 4219 2406 4219 
Q 1781 4219 1451 3797 
Q 1122 3375 1075 2522 
Q 1259 2794 1537 2939 
Q 1816 3084 2150 3084 
Q 2853 3084 3261 2657 
Q 3669 2231 3669 1497 
Q 3669 778 3244 343 
Q 2819 -91 2113 -91 
Q 1303 -91 875 529 
Q 447 1150 447 2328 
Q 447 3434 972 4092 
Q 1497 4750 2381 4750 
Q 2619 4750 2861 4703 
Q 3103 4656 3366 4563 
z
" transform="scale(0.015625)"/>
       </defs>
       <use xlink:href="#DejaVuSans-32" transform="translate(0 0.765625)"/>
       <use xlink:href="#DejaVuSans-36" transform="translate(64.580078 39.046875)scale(0.7)"/>
      </g>
     </g>
    </g>
    <g id="xtick_4">
     <g id="line2d_7">
      <path d="M 118.8 252 
L 118.8 34.56 
" clip-path="url(#p0e4fd19bf0)" style="fill: none; stroke: #b0b0b0; stroke-width: 0.8; stroke-linecap: square"/>
     </g>
     <g id="line2d_8">
      <g>
       <use xlink:href="#mcf5488e235" x="118.8" y="252" style="stroke: #000000; stroke-width: 0.8"/>
      </g>
     </g>
     <g id="text_4">
      <!-- $\mathdefault{2^{8}}$ -->
      <g transform="translate(113.2 266.598437)scale(0.1 -0.1)">
       <defs>
        <path id="DejaVuSans-38" d="M 2034 2216 
Q 1584 2216 1326 1975 
Q 1069 1734 1069 1313 
Q 1069 891 1326 650 
Q 1584 409 2034 409 
Q 2484 409 2743 651 
Q 3003 894 3003 1313 
Q 3003 1734 2745 1975 
Q 2488 2216 2034 2216 
z
M 1403 2484 
Q 997 2584 770 2862 
Q 544 3141 544 3541 
Q 544 4100 942 4425 
Q 1341 4750 2034 4750 
Q 2731 4750 3128 4425 
Q 3525 4100 3525 3541 
Q 3525 3141 3298 2862 
Q 3072 2584 2669 2484 
Q 3125 2378 3379 2068 
Q 3634 1759 3634 1313 
Q 3634 634 3220 271 
Q 2806 -91 2034 -91 
Q 1263 -91 848 271 
Q 434 634 434 1313 
Q 434 1759 690 2068 
Q 947 2378 1403 2484 
z
M 1172 3481 
Q 1172 3119 1398 2916 
Q 1625 2713 2034 2713 
Q 2441 2713 2670 2916 
Q 2900 3119 2900 3481 
Q 2900 3844 2670 4047 
Q 2441 4250 2034 4250 
Q 1625 4250 1398 4047 
Q 1172 3844 1172 3481 
z
" transform="scale(0.015625)"/>
       </defs>
       <use xlink:href="#DejaVuSans-32" transform="translate(0 0.765625)"/>
       <use xlink:href="#DejaVuSans-38" transform="translate(64.580078 39.046875)scale(0.7)"/>
      </g>
     </g>
    </g>
    <g id="xtick_5">
     <g id="line2d_9">
      <path d="M 140.4 252 
L 140.4 34.56 
" clip-path="url(#p0e4fd19bf0)" style="fill: none; stroke: #b0b0b0; stroke-width: 0.8; stroke-linecap: square"/>
     </g>
     <g id="line2d_10">
      <g>
       <use xlink:href="#mcf5488e235" x="140.4" y="252" style="stroke: #000000; stroke-width: 0.8"/>
      </g>
     </g>
     <g id="text_5">
      <!-- $\mathdefault{2^{10}}$ -->
      <g transform="translate(132.55 266.598437)scale(0.1 -0.1)">
       <defs>
        <path id="DejaVuSans-31" d="M 794 531 
L 1825 531 
L 1825 4091 
L 703 3866 
L 703 4441 
L 1819 4666 
L 2450 4666 
L 2450 531 
L 3481 531 
L 3481 0 
L 794 0 
L 794 531 
z
" transform="scale(0.015625)"/>
        <path id="DejaVuSans-30" d="M 2034 4250 
Q 1547 4250 1301 3770 
Q 1056 3291 1056 2328 
Q 1056 1369 1301 889 
Q 1547 409 2034 409 
Q 2525 409 2770 889 
Q 3016 1369 3016 2328 
Q 3016 3291 2770 3770 
Q 2525 4250 2034 4250 
z
M 2034 4750 
Q 2819 4750 3233 4129 
Q 3647 3509 3647 2328 
Q 3647 1150 3233 529 
Q 2819 -91 2034 -91 
Q 1250 -91 836 529 
Q 422 1150 422 2328 
Q 422 3509 836 4129 
Q 1250 4750 2034 4750 
z
" transform="scale(0.015625)"/>
       </defs>
       <use xlink:href="#DejaVuSans-32" transform="translate(0 0.765625)"/>
       <use xlink:href="#DejaVuSans-31" transform="translate(64.580078 39.046875)scale(0.7)"/>
       <use xlink:href="#DejaVuSans-30" transform="translate(109.116211 39.046875)scale(0.7)"/>
      </g>
     </g>
    </g>
    <g id="xtick_6">
     <g id="line2d_11">
      <path d="M 162 252 
L 162 34.56 
" clip-path="url(#p0e4fd19bf0)" style="fill: none; stroke: #b0b0b0; stroke-width: 0.8; stroke-linecap: square"/>
     </g>
     <g id="line2d_12">
      <g>
       <use xlink:href="#mcf5488e235" x="162" y="252" style="stroke: #000000; stroke-width: 0.8"/>
      </g>
     </g>
     <g id="text_6">
      <!-- $\mathdefault{2^{12}}$ -->
      <g transform="translate(154.15 266.598437)scale(0.1 -0.1)">
       <use xlink:href="#DejaVuSans-32" transform="translate(0 0.765625)"/>
       <use xlink:href="#DejaVuSans-31" transform="translate(64.580078 39.046875)scale(0.7)"/>
       <use xlink:href="#DejaVuSans-32" transform="translate(109.116211 39.046875)scale(0.7)"/>
      </g>
     </g>
    </g>
    <g id="xtick_7">
     <g id="line2d_13">
      <path d="M 183.6 252 
L 183.6 34.56 
" clip-path="url(#p0e4fd19bf0)" style="fill: none; stroke: #b0b0b0; stroke-width: 0.8; stroke-linecap: square"/>
     </g>
     <g id="line2d_14">
      <g>
       <use xlink:href="#mcf5488e235" x="183.6" y="252" style="stroke: #000000; stroke-width: 0.8"/>
      </g>
     </g>
     <g id="text_7">
      <!-- $\mathdefault{2^{14}}$ -->
      <g transform="translate(175.75 266.598437)scale(0.1 -0.1)">
       <use xlink:href="#DejaVuSans-32" transform="translate(0 0.684375)"/>
       <use xlink:href="#DejaVuSans-31" transform="translate(64.580078 38.965625)scale(0.7)"/>
       <use xlink:href="#DejaVuSans-34" transform="translate(109.116211 38.965625)scale(0.7)"/>
      </g>
     </g>
    </g>
    <g id="xtick_8">
     <g id="line2d_15">
      <path d="M 205.2 252 
L 205.2 34.56 
" clip-path="url(#p0e4fd19bf0)" style="fill: none; stroke: #b0b0b0; stroke-width: 0.8; stroke-linecap: square"/>
     </g>
     <g id="line2d_16">
      <g>
       <use xlink:href="#mcf5488e235" x="205.2" y="252" style="stroke: #000000; stroke-width: 0.8"/>
      </g>
     </g>
     <g id="text_8">
      <!-- $\mathdefault{2^{16}}$ -->
      <g transform="translate(197.35 266.598437)scale(0.1 -0.1)">
       <use xlink:href="#DejaVuSans-32" transform="translate(0 0.765625)"/>
       <use xlink:href="#DejaVuSans-31" transform="translate(64.580078 39.046875)scale(0.7)"/>
       <use xlink:href="#DejaVuSans-36" transform="translate(109.116211 39.046875)scale(0.7)"/>
      </g>
     </g>
    </g>
    <g id="xtick_9">
     <g id="line2d_17">
      <path d="M 226.8 252 
L 226.8 34.56 
" clip-path="url(#p0e4fd19bf0)" style="fill: none; stroke: #b0b0b0; stroke-width: 0.8; stroke-linecap: square"/>
     </g>
     <g id="line2d_18">
      <g>
       <use xlink:href="#mcf5488e235" x="226.8" y="252" style="stroke: #000000; stroke-width: 0.8"/>
      </g>
     </g>
     <g id="text_9">
      <!-- $\mathdefault{2^{18}}$ -->
      <g transform="translate(218.95 266.598437)scale(0.1 -0.1)">
       <use xlink:href="#DejaVuSans-32" transform="translate(0 0.765625)"/>
       <use xlink:href="#DejaVuSans-31" transform="translate(64.580078 39.046875)scale(0.7)"/>
       <use xlink:href="#DejaVuSans-38" transform="translate(109.116211 39.046875)scale(0.7)"/>
      </g>
     </g>
    </g>
    <g id="xtick_10">
     <g id="line2d_19">
      <path d="M 248.4 252 
L 248.4 34.56 
" clip-path="url(#p0e4fd19bf0)" style="fill: none; stroke: #b0b0b0; stroke-width: 0.8; stroke-linecap: square"/>
     </g>
     <g id="line2d_20">
      <g>
       <use xlink:href="#mcf5488e235" x="248.4" y="252" style="stroke: #000000; stroke-width: 0.8"/>
      </g>
     </g>
     <g id="text_10">
      <!-- $\mathdefault{2^{20}}$ -->
      <g transform="translate(240.55 266.598437)scale(0.1 -0.1)">
       <use xlink:href="#DejaVuSans-32" transform="translate(0 0.765625)"/>
       <use xlink:href="#DejaVuSans-32" transform="translate(64.580078 39.046875)scale(0.7)"/>
       <use xlink:href="#DejaVuSans-30" transform="translate(109.116211 39.046875)scale(0.7)"/>
      </g>
     </g>
    </g>
    <g id="xtick_11">
     <g id="line2d_21">
      <path d="M 270 252 
L 270 34.56 
" clip-path="url(#p0e4fd19bf0)" style="fill: none; stroke: #b0b0b0; stroke-width: 0.8; stroke-linecap: square"/>
     </g>
     <g id="line2d_22">
      <g>
       <use xlink:href="#mcf5488e235" x="270" y="252" style="stroke: #000000; stroke-width: 0.8"/>
      </g>
     </g>
     <g id="text_11">
      <!-- $\mathdefault{2^{22}}$ -->
      <g transform="translate(262.15 266.598437)scale(0.1 -0.1)">
       <use xlink:href="#DejaVuSans-32" transform="translate(0 0.765625)"/>
       <use xlink:href="#DejaVuSans-32" transform="translate(64.580078 39.046875)scale(0.7)"/>
       <use xlink:href="#DejaVuSans-32" transform="translate(109.116211 39.046875)scale(0.7)"/>
      </g>
     </g>
    </g>
    <g id="xtick_12">
     <g id="line2d_23">
      <path d="M 291.6 252 
L 291.6 34.56 
" clip-path="url(#p0e4fd19bf0)" style="fill: none; stroke: #b0b0b0; stroke-width: 0.8; stroke-linecap: square"/>
     </g>
     <g id="line2d_24">
      <g>
       <use xlink:href="#mcf5488e235" x="291.6" y="252" style="stroke: #000000; stroke-width: 0.8"/>
      </g>
     </g>
     <g id="text_12">
      <!-- $\mathdefault{2^{24}}$ -->
      <g transform="translate(283.75 266.598437)scale(0.1 -0.1)">
       <use xlink:href="#DejaVuSans-32" transform="translate(0 0.765625)"/>
       <use xlink:href="#DejaVuSans-32" transform="translate(64.580078 39.046875)scale(0.7)"/>
       <use xlink:href="#DejaVuSans-34" transform="translate(109.116211 39.046875)scale(0.7)"/>
      </g>
     </g>
    </g>
    <g id="xtick_13">
     <g id="line2d_25">
      <path d="M 313.2 252 
L 313.2 34.56 
" clip-path="url(#p0e4fd19bf0)" style="fill: none; stroke: #b0b0b0; stroke-width: 0.8; stroke-linecap: square"/>
     </g>
     <g id="line2d_26">
      <g>
       <use xlink:href="#mcf5488e235" x="313.2" y="252" style="stroke: #000000; stroke-width: 0.8"/>
      </g>
     </g>
     <g id="text_13">
      <!-- $\mathdefault{2^{26}}$ -->
      <g transform="translate(305.35 266.598437)scale(0.1 -0.1)">
       <use xlink:href="#DejaVuSans-32" transform="translate(0 0.765625)"/>
       <use xlink:href="#DejaVuSans-32" transform="translate(64.580078 39.046875)scale(0.7)"/>
       <use xlink:href="#DejaVuSans-36" transform="translate(109.116211 39.046875)scale(0.7)"/>
      </g>
     </g>
    </g>
    <g id="xtick_14">
     <g id="line2d_27">
      <path d="M 334.8 252 
L 334.8 34.56 
" clip-path="url(#p0e4fd19bf0)" style="fill: none; stroke: #b0b0b0; stroke-width: 0.8; stroke-linecap: square"/>
     </g>
     <g id="line2d_28">
      <g>
       <use xlink:href="#mcf5488e235" x="334.8" y="252" style="stroke: #000000; stroke-width: 0.8"/>
      </g>
     </g>
     <g id="text_14">
      <!-- $\mathdefault{2^{28}}$ -->
      <g transform="translate(326.95 266.598437)scale(0.1 -0.1)">
       <use xlink:href="#DejaVuSans-32" transform="translate(0 0.765625)"/>
       <use xlink:href="#DejaVuSans-32" transform="translate(64.580078 39.046875)scale(0.7)"/>
       <use xlink:href="#DejaVuSans-38" transform="translate(109.116211 39.046875)scale(0.7)"/>
      </g>
     </g>
    </g>
    <g id="xtick_15">
     <g id="line2d_29">
      <path d="M 356.4 252 
L 356.4 34.56 
" clip-path="url(#p0e4fd19bf0)" style="fill: none; stroke: #b0b0b0; stroke-width: 0.8; stroke-linecap: square"/>
     </g>
     <g id="line2d_30">
      <g>
       <use xlink:href="#mcf5488e235" x="356.4" y="252" style="stroke: #000000; stroke-width: 0.8"/>
      </g>
     </g>
     <g id="text_15">
      <!-- $\mathdefault{2^{30}}$ -->
      <g transform="translate(348.55 266.598437)scale(0.1 -0.1)">
       <defs>
        <path id="DejaVuSans-33" d="M 2597 2516 
Q 3050 2419 3304 2112 
Q 3559 1806 3559 1356 
Q 3559 666 3084 287 
Q 2609 -91 1734 -91 
Q 1441 -91 1130 -33 
Q 819 25 488 141 
L 488 750 
Q 750 597 1062 519 
Q 1375 441 1716 441 
Q 2309 441 2620 675 
Q 2931 909 2931 1356 
Q 2931 1769 2642 2001 
Q 2353 2234 1838 2234 
L 1294 2234 
L 1294 2753 
L 1863 2753 
Q 2328 2753 2575 2939 
Q 2822 3125 2822 3475 
Q 2822 3834 2567 4026 
Q 2313 4219 1838 4219 
Q 1578 4219 1281 4162 
Q 984 4106 628 3988 
L 628 4550 
Q 988 4650 1302 4700 
Q 1616 4750 1894 4750 
Q 2613 4750 3031 4423 
Q 3450 4097 3450 3541 
Q 3450 3153 3228 2886 
Q 3006 2619 2597 2516 
z
" transform="scale(0.015625)"/>
       </defs>
       <use xlink:href="#DejaVuSans-32" transform="translate(0 0.765625)"/>
       <use xlink:href="#DejaVuSans-33" transform="translate(64.580078 39.046875)scale(0.7)"/>
       <use xlink:href="#DejaVuSans-30" transform="translate(109.116211 39.046875)scale(0.7)"/>
      </g>
     </g>
    </g>
    <g id="xtick_16">
     <g id="line2d_31">
      <path d="M 378 252 
L 378 34.56 
" clip-path="url(#p0e4fd19bf0)" style="fill: none; stroke: #b0b0b0; stroke-width: 0.8; stroke-linecap: square"/>
     </g>
     <g id="line2d_32">
      <g>
       <use xlink:href="#mcf5488e235" x="378" y="252" style="stroke: #000000; stroke-width: 0.8"/>
      </g>
     </g>
     <g id="text_16">
      <!-- $\mathdefault{2^{32}}$ -->
      <g transform="translate(370.15 266.598437)scale(0.1 -0.1)">
       <use xlink:href="#DejaVuSans-32" transform="translate(0 0.765625)"/>
       <use xlink:href="#DejaVuSans-33" transform="translate(64.580078 39.046875)scale(0.7)"/>
       <use xlink:href="#DejaVuSans-32" transform="translate(109.116211 39.046875)scale(0.7)"/>
      </g>
     </g>
    </g>
    <g id="text_17">
     <!-- Eingabegröße -->
     <g transform="translate(186.791406 280.276563)scale(0.1 -0.1)">
      <defs>
       <path id="DejaVuSans-45" d="M 628 4666 
L 3578 4666 
L 3578 4134 
L 1259 4134 
L 1259 2753 
L 3481 2753 
L 3481 2222 
L 1259 2222 
L 1259 531 
L 3634 531 
L 3634 0 
L 628 0 
L 628 4666 
z
" transform="scale(0.015625)"/>
       <path id="DejaVuSans-69" d="M 603 3500 
L 1178 3500 
L 1178 0 
L 603 0 
L 603 3500 
z
M 603 4863 
L 1178 4863 
L 1178 4134 
L 603 4134 
L 603 4863 
z
" transform="scale(0.015625)"/>
       <path id="DejaVuSans-6e" d="M 3513 2113 
L 3513 0 
L 2938 0 
L 2938 2094 
Q 2938 2591 2744 2837 
Q 2550 3084 2163 3084 
Q 1697 3084 1428 2787 
Q 1159 2491 1159 1978 
L 1159 0 
L 581 0 
L 581 3500 
L 1159 3500 
L 1159 2956 
Q 1366 3272 1645 3428 
Q 1925 3584 2291 3584 
Q 2894 3584 3203 3211 
Q 3513 2838 3513 2113 
z
" transform="scale(0.015625)"/>
       <path id="DejaVuSans-67" d="M 2906 1791 
Q 2906 2416 2648 2759 
Q 2391 3103 1925 3103 
Q 1463 3103 1205 2759 
Q 947 2416 947 1791 
Q 947 1169 1205 825 
Q 1463 481 1925 481 
Q 2391 481 2648 825 
Q 2906 1169 2906 1791 
z
M 3481 434 
Q 3481 -459 3084 -895 
Q 2688 -1331 1869 -1331 
Q 1566 -1331 1297 -1286 
Q 1028 -1241 775 -1147 
L 775 -588 
Q 1028 -725 1275 -790 
Q 1522 -856 1778 -856 
Q 2344 -856 2625 -561 
Q 2906 -266 2906 331 
L 2906 616 
Q 2728 306 2450 153 
Q 2172 0 1784 0 
Q 1141 0 747 490 
Q 353 981 353 1791 
Q 353 2603 747 3093 
Q 1141 3584 1784 3584 
Q 2172 3584 2450 3431 
Q 2728 3278 2906 2969 
L 2906 3500 
L 3481 3500 
L 3481 434 
z
" transform="scale(0.015625)"/>
       <path id="DejaVuSans-61" d="M 2194 1759 
Q 1497 1759 1228 1600 
Q 959 1441 959 1056 
Q 959 750 1161 570 
Q 1363 391 1709 391 
Q 2188 391 2477 730 
Q 2766 1069 2766 1631 
L 2766 1759 
L 2194 1759 
z
M 3341 1997 
L 3341 0 
L 2766 0 
L 2766 531 
Q 2569 213 2275 61 
Q 1981 -91 1556 -91 
Q 1019 -91 701 211 
Q 384 513 384 1019 
Q 384 1609 779 1909 
Q 1175 2209 1959 2209 
L 2766 2209 
L 2766 2266 
Q 2766 2663 2505 2880 
Q 2244 3097 1772 3097 
Q 1472 3097 1187 3025 
Q 903 2953 641 2809 
L 641 3341 
Q 956 3463 1253 3523 
Q 1550 3584 1831 3584 
Q 2591 3584 2966 3190 
Q 3341 2797 3341 1997 
z
" transform="scale(0.015625)"/>
       <path id="DejaVuSans-62" d="M 3116 1747 
Q 3116 2381 2855 2742 
Q 2594 3103 2138 3103 
Q 1681 3103 1420 2742 
Q 1159 2381 1159 1747 
Q 1159 1113 1420 752 
Q 1681 391 2138 391 
Q 2594 391 2855 752 
Q 3116 1113 3116 1747 
z
M 1159 2969 
Q 1341 3281 1617 3432 
Q 1894 3584 2278 3584 
Q 2916 3584 3314 3078 
Q 3713 2572 3713 1747 
Q 3713 922 3314 415 
Q 2916 -91 2278 -91 
Q 1894 -91 1617 61 
Q 1341 213 1159 525 
L 1159 0 
L 581 0 
L 581 4863 
L 1159 4863 
L 1159 2969 
z
" transform="scale(0.015625)"/>
       <path id="DejaVuSans-65" d="M 3597 1894 
L 3597 1613 
L 953 1613 
Q 991 1019 1311 708 
Q 1631 397 2203 397 
Q 2534 397 2845 478 
Q 3156 559 3463 722 
L 3463 178 
Q 3153 47 2828 -22 
Q 2503 -91 2169 -91 
Q 1331 -91 842 396 
Q 353 884 353 1716 
Q 353 2575 817 3079 
Q 1281 3584 2069 3584 
Q 2775 3584 3186 3129 
Q 3597 2675 3597 1894 
z
M 3022 2063 
Q 3016 2534 2758 2815 
Q 2500 3097 2075 3097 
Q 1594 3097 1305 2825 
Q 1016 2553 972 2059 
L 3022 2063 
z
" transform="scale(0.015625)"/>
       <path id="DejaVuSans-72" d="M 2631 2963 
Q 2534 3019 2420 3045 
Q 2306 3072 2169 3072 
Q 1681 3072 1420 2755 
Q 1159 2438 1159 1844 
L 1159 0 
L 581 0 
L 581 3500 
L 1159 3500 
L 1159 2956 
Q 1341 3275 1631 3429 
Q 1922 3584 2338 3584 
Q 2397 3584 2469 3576 
Q 2541 3569 2628 3553 
L 2631 2963 
z
" transform="scale(0.015625)"/>
       <path id="DejaVuSans-f6" d="M 1959 3097 
Q 1497 3097 1228 2736 
Q 959 2375 959 1747 
Q 959 1119 1226 758 
Q 1494 397 1959 397 
Q 2419 397 2687 759 
Q 2956 1122 2956 1747 
Q 2956 2369 2687 2733 
Q 2419 3097 1959 3097 
z
M 1959 3584 
Q 2709 3584 3137 3096 
Q 3566 2609 3566 1747 
Q 3566 888 3137 398 
Q 2709 -91 1959 -91 
Q 1206 -91 779 398 
Q 353 888 353 1747 
Q 353 2609 779 3096 
Q 1206 3584 1959 3584 
z
M 2254 4850 
L 2888 4850 
L 2888 4219 
L 2254 4219 
L 2254 4850 
z
M 1032 4850 
L 1666 4850 
L 1666 4219 
L 1032 4219 
L 1032 4850 
z
" transform="scale(0.015625)"/>
       <path id="DejaVuSans-df" d="M 581 3553 
Q 581 4178 954 4520 
Q 1328 4863 2009 4863 
Q 2659 4863 3001 4500 
Q 3344 4138 3353 3438 
Q 2881 3413 2618 3233 
Q 2356 3053 2356 2753 
Q 2356 2606 2447 2479 
Q 2538 2353 2741 2222 
L 2919 2106 
Q 3438 1775 3588 1553 
Q 3738 1331 3738 1019 
Q 3738 481 3386 195 
Q 3034 -91 2375 -91 
Q 2175 -91 1962 -52 
Q 1750 -13 1522 63 
L 1522 575 
Q 1772 481 1990 436 
Q 2209 391 2413 391 
Q 2775 391 2962 539 
Q 3150 688 3150 972 
Q 3150 1169 3058 1300 
Q 2966 1431 2650 1625 
L 2363 1797 
Q 2063 1981 1927 2192 
Q 1791 2403 1791 2688 
Q 1791 3084 2052 3353 
Q 2313 3622 2784 3713 
Q 2759 4034 2554 4209 
Q 2350 4384 1997 4384 
Q 1591 4384 1378 4167 
Q 1166 3950 1166 3541 
L 1166 0 
L 581 0 
L 581 3553 
z
" transform="scale(0.015625)"/>
      </defs>
      <use xlink:href="#DejaVuSans-45"/>
      <use xlink:href="#DejaVuSans-69" x="63.183594"/>
      <use xlink:href="#DejaVuSans-6e" x="90.966797"/>
      <use xlink:href="#DejaVuSans-67" x="154.345703"/>
      <use xlink:href="#DejaVuSans-61" x="217.822266"/>
      <use xlink:href="#DejaVuSans-62" x="279.101562"/>
      <use xlink:href="#DejaVuSans-65" x="342.578125"/>
      <use xlink:href="#DejaVuSans-67" x="404.101562"/>
      <use xlink:href="#DejaVuSans-72" x="467.578125"/>
      <use xlink:href="#DejaVuSans-f6" x="506.441406"/>
      <use xlink:href="#DejaVuSans-df" x="567.623047"/>
      <use xlink:href="#DejaVuSans-65" x="630.611328"/>
     </g>
    </g>
   </g>
   <g id="matplotlib.axis_2">
    <g id="ytick_1">
     <g id="line2d_33">
      <path d="M 54 252 
L 388.8 252 
" clip-path="url(#p0e4fd19bf0)" style="fill: none; stroke: #b0b0b0; stroke-width: 0.8; stroke-linecap: square"/>
     </g>
     <g id="line2d_34">
      <defs>
       <path id="mac9caba4e4" d="M 0 0 
L -3.5 0 
" style="stroke: #000000; stroke-width: 0.8"/>
      </defs>
      <g>
       <use xlink:href="#mac9caba4e4" x="54" y="252" style="stroke: #000000; stroke-width: 0.8"/>
      </g>
     </g>
     <g id="text_18">
      <!-- $\mathdefault{10^{0}}$ -->
      <g transform="translate(29.4 255.799219)scale(0.1 -0.1)">
       <use xlink:href="#DejaVuSans-31" transform="translate(0 0.765625)"/>
       <use xlink:href="#DejaVuSans-30" transform="translate(63.623047 0.765625)"/>
       <use xlink:href="#DejaVuSans-30" transform="translate(128.203125 39.046875)scale(0.7)"/>
      </g>
     </g>
    </g>
    <g id="ytick_2">
     <g id="line2d_35">
      <path d="M 54 137.743711 
L 388.8 137.743711 
" clip-path="url(#p0e4fd19bf0)" style="fill: none; stroke: #b0b0b0; stroke-width: 0.8; stroke-linecap: square"/>
     </g>
     <g id="line2d_36">
      <g>
       <use xlink:href="#mac9caba4e4" x="54" y="137.743711" style="stroke: #000000; stroke-width: 0.8"/>
      </g>
     </g>
     <g id="text_19">
      <!-- $\mathdefault{10^{1}}$ -->
      <g transform="translate(29.4 141.54293)scale(0.1 -0.1)">
       <use xlink:href="#DejaVuSans-31" transform="translate(0 0.684375)"/>
       <use xlink:href="#DejaVuSans-30" transform="translate(63.623047 0.684375)"/>
       <use xlink:href="#DejaVuSans-31" transform="translate(128.203125 38.965625)scale(0.7)"/>
      </g>
     </g>
    </g>
    <g id="ytick_3">
     <g id="line2d_37">
      <path d="M 54 217.60543 
L 388.8 217.60543 
" clip-path="url(#p0e4fd19bf0)" style="fill: none; stroke: #b0b0b0; stroke-width: 0.8; stroke-linecap: square"/>
     </g>
     <g id="line2d_38">
      <defs>
       <path id="m4744945a83" d="M 0 0 
L -2 0 
" style="stroke: #000000; stroke-width: 0.6"/>
      </defs>
      <g>
       <use xlink:href="#m4744945a83" x="54" y="217.60543" style="stroke: #000000; stroke-width: 0.6"/>
      </g>
     </g>
    </g>
    <g id="ytick_4">
     <g id="line2d_39">
      <path d="M 54 197.485896 
L 388.8 197.485896 
" clip-path="url(#p0e4fd19bf0)" style="fill: none; stroke: #b0b0b0; stroke-width: 0.8; stroke-linecap: square"/>
     </g>
     <g id="line2d_40">
      <g>
       <use xlink:href="#m4744945a83" x="54" y="197.485896" style="stroke: #000000; stroke-width: 0.6"/>
      </g>
     </g>
    </g>
    <g id="ytick_5">
     <g id="line2d_41">
      <path d="M 54 183.210859 
L 388.8 183.210859 
" clip-path="url(#p0e4fd19bf0)" style="fill: none; stroke: #b0b0b0; stroke-width: 0.8; stroke-linecap: square"/>
     </g>
     <g id="line2d_42">
      <g>
       <use xlink:href="#m4744945a83" x="54" y="183.210859" style="stroke: #000000; stroke-width: 0.6"/>
      </g>
     </g>
    </g>
    <g id="ytick_6">
     <g id="line2d_43">
      <path d="M 54 172.138281 
L 388.8 172.138281 
" clip-path="url(#p0e4fd19bf0)" style="fill: none; stroke: #b0b0b0; stroke-width: 0.8; stroke-linecap: square"/>
     </g>
     <g id="line2d_44">
      <g>
       <use xlink:href="#m4744945a83" x="54" y="172.138281" style="stroke: #000000; stroke-width: 0.6"/>
      </g>
     </g>
    </g>
    <g id="ytick_7">
     <g id="line2d_45">
      <path d="M 54 163.091326 
L 388.8 163.091326 
" clip-path="url(#p0e4fd19bf0)" style="fill: none; stroke: #b0b0b0; stroke-width: 0.8; stroke-linecap: square"/>
     </g>
     <g id="line2d_46">
      <g>
       <use xlink:href="#m4744945a83" x="54" y="163.091326" style="stroke: #000000; stroke-width: 0.6"/>
      </g>
     </g>
    </g>
    <g id="ytick_8">
     <g id="line2d_47">
      <path d="M 54 155.442234 
L 388.8 155.442234 
" clip-path="url(#p0e4fd19bf0)" style="fill: none; stroke: #b0b0b0; stroke-width: 0.8; stroke-linecap: square"/>
     </g>
     <g id="line2d_48">
      <g>
       <use xlink:href="#m4744945a83" x="54" y="155.442234" style="stroke: #000000; stroke-width: 0.6"/>
      </g>
     </g>
    </g>
    <g id="ytick_9">
     <g id="line2d_49">
      <path d="M 54 148.816289 
L 388.8 148.816289 
" clip-path="url(#p0e4fd19bf0)" style="fill: none; stroke: #b0b0b0; stroke-width: 0.8; stroke-linecap: square"/>
     </g>
     <g id="line2d_50">
      <g>
       <use xlink:href="#m4744945a83" x="54" y="148.816289" style="stroke: #000000; stroke-width: 0.6"/>
      </g>
     </g>
    </g>
    <g id="ytick_10">
     <g id="line2d_51">
      <path d="M 54 142.971792 
L 388.8 142.971792 
" clip-path="url(#p0e4fd19bf0)" style="fill: none; stroke: #b0b0b0; stroke-width: 0.8; stroke-linecap: square"/>
     </g>
     <g id="line2d_52">
      <g>
       <use xlink:href="#m4744945a83" x="54" y="142.971792" style="stroke: #000000; stroke-width: 0.6"/>
      </g>
     </g>
    </g>
    <g id="ytick_11">
     <g id="line2d_53">
      <path d="M 54 103.349141 
L 388.8 103.349141 
" clip-path="url(#p0e4fd19bf0)" style="fill: none; stroke: #b0b0b0; stroke-width: 0.8; stroke-linecap: square"/>
     </g>
     <g id="line2d_54">
      <g>
       <use xlink:href="#m4744945a83" x="54" y="103.349141" style="stroke: #000000; stroke-width: 0.6"/>
      </g>
     </g>
    </g>
    <g id="ytick_12">
     <g id="line2d_55">
      <path d="M 54 83.229607 
L 388.8 83.229607 
" clip-path="url(#p0e4fd19bf0)" style="fill: none; stroke: #b0b0b0; stroke-width: 0.8; stroke-linecap: square"/>
     </g>
     <g id="line2d_56">
      <g>
       <use xlink:href="#m4744945a83" x="54" y="83.229607" style="stroke: #000000; stroke-width: 0.6"/>
      </g>
     </g>
    </g>
    <g id="ytick_13">
     <g id="line2d_57">
      <path d="M 54 68.95457 
L 388.8 68.95457 
" clip-path="url(#p0e4fd19bf0)" style="fill: none; stroke: #b0b0b0; stroke-width: 0.8; stroke-linecap: square"/>
     </g>
     <g id="line2d_58">
      <g>
       <use xlink:href="#m4744945a83" x="54" y="68.95457" style="stroke: #000000; stroke-width: 0.6"/>
      </g>
     </g>
    </g>
    <g id="ytick_14">
     <g id="line2d_59">
      <path d="M 54 57.881992 
L 388.8 57.881992 
" clip-path="url(#p0e4fd19bf0)" style="fill: none; stroke: #b0b0b0; stroke-width: 0.8; stroke-linecap: square"/>
     </g>
     <g id="line2d_60">
      <g>
       <use xlink:href="#m4744945a83" x="54" y="57.881992" style="stroke: #000000; stroke-width: 0.6"/>
      </g>
     </g>
    </g>
    <g id="ytick_15">
     <g id="line2d_61">
      <path d="M 54 48.835036 
L 388.8 48.835036 
" clip-path="url(#p0e4fd19bf0)" style="fill: none; stroke: #b0b0b0; stroke-width: 0.8; stroke-linecap: square"/>
     </g>
     <g id="line2d_62">
      <g>
       <use xlink:href="#m4744945a83" x="54" y="48.835036" style="stroke: #000000; stroke-width: 0.6"/>
      </g>
     </g>
    </g>
    <g id="ytick_16">
     <g id="line2d_63">
      <path d="M 54 41.185945 
L 388.8 41.185945 
" clip-path="url(#p0e4fd19bf0)" style="fill: none; stroke: #b0b0b0; stroke-width: 0.8; stroke-linecap: square"/>
     </g>
     <g id="line2d_64">
      <g>
       <use xlink:href="#m4744945a83" x="54" y="41.185945" style="stroke: #000000; stroke-width: 0.6"/>
      </g>
     </g>
    </g>
    <g id="ytick_17">
     <g id="line2d_65">
      <path d="M 54 34.56 
L 388.8 34.56 
" clip-path="url(#p0e4fd19bf0)" style="fill: none; stroke: #b0b0b0; stroke-width: 0.8; stroke-linecap: square"/>
     </g>
     <g id="line2d_66">
      <g>
       <use xlink:href="#m4744945a83" x="54" y="34.56" style="stroke: #000000; stroke-width: 0.6"/>
      </g>
     </g>
    </g>
    <g id="text_20">
     <!-- Laufzeit pro Element [ns] -->
     <g transform="translate(23.320312 206.428438)rotate(-90)scale(0.1 -0.1)">
      <defs>
       <path id="DejaVuSans-4c" d="M 628 4666 
L 1259 4666 
L 1259 531 
L 3531 531 
L 3531 0 
L 628 0 
L 628 4666 
z
" transform="scale(0.015625)"/>
       <path id="DejaVuSans-75" d="M 544 1381 
L 544 3500 
L 1119 3500 
L 1119 1403 
Q 1119 906 1312 657 
Q 1506 409 1894 409 
Q 2359 409 2629 706 
Q 2900 1003 2900 1516 
L 2900 3500 
L 3475 3500 
L 3475 0 
L 2900 0 
L 2900 538 
Q 2691 219 2414 64 
Q 2138 -91 1772 -91 
Q 1169 -91 856 284 
Q 544 659 544 1381 
z
M 1991 3584 
L 1991 3584 
z
" transform="scale(0.015625)"/>
       <path id="DejaVuSans-66" d="M 2375 4863 
L 2375 4384 
L 1825 4384 
Q 1516 4384 1395 4259 
Q 1275 4134 1275 3809 
L 1275 3500 
L 2222 3500 
L 2222 3053 
L 1275 3053 
L 1275 0 
L 697 0 
L 697 3053 
L 147 3053 
L 147 3500 
L 697 3500 
L 697 3744 
Q 697 4328 969 4595 
Q 1241 4863 1831 4863 
L 2375 4863 
z
" transform="scale(0.015625)"/>
       <path id="DejaVuSans-7a" d="M 353 3500 
L 3084 3500 
L 3084 2975 
L 922 459 
L 3084 459 
L 3084 0 
L 275 0 
L 275 525 
L 2438 3041 
L 353 3041 
L 353 3500 
z
" transform="scale(0.015625)"/>
       <path id="DejaVuSans-74" d="M 1172 4494 
L 1172 3500 
L 2356 3500 
L 2356 3053 
L 1172 3053 
L 1172 1153 
Q 1172 725 1289 603 
Q 1406 481 1766 481 
L 2356 481 
L 2356 0 
L 1766 0 
Q 1100 0 847 248 
Q 594 497 594 1153 
L 594 3053 
L 172 3053 
L 172 3500 
L 594 3500 
L 594 4494 
L 1172 4494 
z
" transform="scale(0.015625)"/>
       <path id="DejaVuSans-20" transform="scale(0.015625)"/>
       <path id="DejaVuSans-70" d="M 1159 525 
L 1159 -1331 
L 581 -1331 
L 581 3500 
L 1159 3500 
L 1159 2969 
Q 1341 3281 1617 3432 
Q 1894 3584 2278 3584 
Q 2916 3584 3314 3078 
Q 3713 2572 3713 1747 
Q 3713 922 3314 415 
Q 2916 -91 2278 -91 
Q 1894 -91 1617 61 
Q 1341 213 1159 525 
z
M 3116 1747 
Q 3116 2381 2855 2742 
Q 2594 3103 2138 3103 
Q 1681 3103 1420 2742 
Q 1159 2381 1159 1747 
Q 1159 1113 1420 752 
Q 1681 391 2138 391 
Q 2594 391 2855 752 
Q 3116 1113 3116 1747 
z
" transform="scale(0.015625)"/>
       <path id="DejaVuSans-6f" d="M 1959 3097 
Q 1497 3097 1228 2736 
Q 959 2375 959 1747 
Q 959 1119 1226 758 
Q 1494 397 1959 397 
Q 2419 397 2687 759 
Q 2956 1122 2956 1747 
Q 2956 2369 2687 2733 
Q 2419 3097 1959 3097 
z
M 1959 3584 
Q 2709 3584 3137 3096 
Q 3566 2609 3566 1747 
Q 3566 888 3137 398 
Q 2709 -91 1959 -91 
Q 1206 -91 779 398 
Q 353 888 353 1747 
Q 353 2609 779 3096 
Q 1206 3584 1959 3584 
z
" transform="scale(0.015625)"/>
       <path id="DejaVuSans-6c" d="M 603 4863 
L 1178 4863 
L 1178 0 
L 603 0 
L 603 4863 
z
" transform="scale(0.015625)"/>
       <path id="DejaVuSans-6d" d="M 3328 2828 
Q 3544 3216 3844 3400 
Q 4144 3584 4550 3584 
Q 5097 3584 5394 3201 
Q 5691 2819 5691 2113 
L 5691 0 
L 5113 0 
L 5113 2094 
Q 5113 2597 4934 2840 
Q 4756 3084 4391 3084 
Q 3944 3084 3684 2787 
Q 3425 2491 3425 1978 
L 3425 0 
L 2847 0 
L 2847 2094 
Q 2847 2600 2669 2842 
Q 2491 3084 2119 3084 
Q 1678 3084 1418 2786 
Q 1159 2488 1159 1978 
L 1159 0 
L 581 0 
L 581 3500 
L 1159 3500 
L 1159 2956 
Q 1356 3278 1631 3431 
Q 1906 3584 2284 3584 
Q 2666 3584 2933 3390 
Q 3200 3197 3328 2828 
z
" transform="scale(0.015625)"/>
       <path id="DejaVuSans-5b" d="M 550 4863 
L 1875 4863 
L 1875 4416 
L 1125 4416 
L 1125 -397 
L 1875 -397 
L 1875 -844 
L 550 -844 
L 550 4863 
z
" transform="scale(0.015625)"/>
       <path id="DejaVuSans-73" d="M 2834 3397 
L 2834 2853 
Q 2591 2978 2328 3040 
Q 2066 3103 1784 3103 
Q 1356 3103 1142 2972 
Q 928 2841 928 2578 
Q 928 2378 1081 2264 
Q 1234 2150 1697 2047 
L 1894 2003 
Q 2506 1872 2764 1633 
Q 3022 1394 3022 966 
Q 3022 478 2636 193 
Q 2250 -91 1575 -91 
Q 1294 -91 989 -36 
Q 684 19 347 128 
L 347 722 
Q 666 556 975 473 
Q 1284 391 1588 391 
Q 1994 391 2212 530 
Q 2431 669 2431 922 
Q 2431 1156 2273 1281 
Q 2116 1406 1581 1522 
L 1381 1569 
Q 847 1681 609 1914 
Q 372 2147 372 2553 
Q 372 3047 722 3315 
Q 1072 3584 1716 3584 
Q 2034 3584 2315 3537 
Q 2597 3491 2834 3397 
z
" transform="scale(0.015625)"/>
       <path id="DejaVuSans-5d" d="M 1947 4863 
L 1947 -844 
L 622 -844 
L 622 -397 
L 1369 -397 
L 1369 4416 
L 622 4416 
L 622 4863 
L 1947 4863 
z
" transform="scale(0.015625)"/>
      </defs>
      <use xlink:href="#DejaVuSans-4c"/>
      <use xlink:href="#DejaVuSans-61" x="55.712891"/>
      <use xlink:href="#DejaVuSans-75" x="116.992188"/>
      <use xlink:href="#DejaVuSans-66" x="180.371094"/>
      <use xlink:href="#DejaVuSans-7a" x="215.576172"/>
      <use xlink:href="#DejaVuSans-65" x="268.066406"/>
      <use xlink:href="#DejaVuSans-69" x="329.589844"/>
      <use xlink:href="#DejaVuSans-74" x="357.373047"/>
      <use xlink:href="#DejaVuSans-20" x="396.582031"/>
      <use xlink:href="#DejaVuSans-70" x="428.369141"/>
      <use xlink:href="#DejaVuSans-72" x="491.845703"/>
      <use xlink:href="#DejaVuSans-6f" x="530.708984"/>
      <use xlink:href="#DejaVuSans-20" x="591.890625"/>
      <use xlink:href="#DejaVuSans-45" x="623.677734"/>
      <use xlink:href="#DejaVuSans-6c" x="686.861328"/>
      <use xlink:href="#DejaVuSans-65" x="714.644531"/>
      <use xlink:href="#DejaVuSans-6d" x="776.167969"/>
      <use xlink:href="#DejaVuSans-65" x="873.580078"/>
      <use xlink:href="#DejaVuSans-6e" x="935.103516"/>
      <use xlink:href="#DejaVuSans-74" x="998.482422"/>
      <use xlink:href="#DejaVuSans-20" x="1037.691406"/>
      <use xlink:href="#DejaVuSans-5b" x="1069.478516"/>
      <use xlink:href="#DejaVuSans-6e" x="1108.492188"/>
      <use xlink:href="#DejaVuSans-73" x="1171.871094"/>
      <use xlink:href="#DejaVuSans-5d" x="1223.970703"/>
     </g>
    </g>
   </g>
   <g id="line2d_67">
    <path d="M 32.4 195.602652 
L 43.2 205.870039 
L 54 206.199109 
L 64.8 206.493045 
L 75.6 207.647414 
L 86.4 208.383781 
L 97.2 207.080219 
L 108 208.049395 
L 118.8 208.309239 
L 129.6 208.769979 
L 140.4 208.9384 
L 151.2 208.814165 
L 162 209.111512 
L 172.8 208.734771 
L 183.6 208.732792 
L 194.4 209.240938 
L 205.2 207.00377 
L 216 201.97032 
L 226.8 198.943783 
L 237.6 197.041233 
L 248.4 195.839728 
L 259.2 134.954428 
L 270 116.457009 
L 280.8 104.021028 
L 291.6 93.645812 
L 302.4 84.257636 
L 313.2 77.137882 
L 324 71.455752 
L 334.8 66.462543 
L 345.6 60.793878 
L 356.4 56.202622 
L 367.2 51.971264 
L 378 48.425539 
L 388.8 44.831903 
" clip-path="url(#p0e4fd19bf0)" style="fill: none; stroke: #1f77b4; stroke-width: 1.5; stroke-linecap: square"/>
   </g>
   <g id="line2d_68">
    <path d="M 32.4 197.68087 
L 43.2 204.988622 
L 54 205.818508 
L 64.8 206.737501 
L 75.6 207.836829 
L 86.4 208.389301 
L 97.2 207.142338 
L 108 208.157676 
L 118.8 208.577789 
L 129.6 208.799031 
L 140.4 208.952155 
L 151.2 209.046447 
L 162 209.144666 
L 172.8 208.903814 
L 183.6 208.876248 
L 194.4 209.055642 
L 205.2 206.612802 
L 216 201.711875 
L 226.8 198.832696 
L 237.6 197.003392 
L 248.4 195.344417 
L 259.2 150.582361 
L 270 138.373134 
L 280.8 131.051966 
L 291.6 123.683339 
L 302.4 117.923215 
L 313.2 112.276928 
L 324 107.602161 
L 334.8 102.899081 
L 345.6 99.078306 
L 356.4 94.989573 
L 367.2 91.787416 
L 378 88.488088 
L 388.8 85.46478 
" clip-path="url(#p0e4fd19bf0)" style="fill: none; stroke: #ff7f0e; stroke-width: 1.5; stroke-linecap: square"/>
   </g>
   <g id="line2d_69">
    <path d="M 32.4 197.67302 
L 43.2 204.789625 
L 54 206.164668 
L 64.8 206.968238 
L 75.6 207.855287 
L 86.4 208.304497 
L 97.2 206.514331 
L 108 207.807101 
L 118.8 208.348691 
L 129.6 208.560061 
L 140.4 208.795088 
L 151.2 208.890057 
L 162 208.592157 
L 172.8 208.813874 
L 183.6 208.801195 
L 194.4 208.83739 
L 205.2 206.669527 
L 216 201.909772 
L 226.8 198.662619 
L 237.6 196.72328 
L 248.4 193.534099 
L 259.2 153.442548 
L 270 145.129931 
L 280.8 140.2292 
L 291.6 134.119943 
L 302.4 129.209329 
L 313.2 125.42037 
L 324 120.977943 
L 334.8 117.327515 
L 345.6 114.478086 
L 356.4 111.003429 
L 367.2 107.803495 
L 378 105.768425 
L 388.8 102.774099 
" clip-path="url(#p0e4fd19bf0)" style="fill: none; stroke: #2ca02c; stroke-width: 1.5; stroke-linecap: square"/>
   </g>
   <g id="line2d_70">
    <path d="M 32.4 200.865231 
L 43.2 205.39507 
L 54 206.032627 
L 64.8 207.350053 
L 75.6 208.026811 
L 86.4 205.449122 
L 97.2 207.106507 
L 108 207.962389 
L 118.8 208.489545 
L 129.6 208.712854 
L 140.4 208.925501 
L 151.2 209.049493 
L 162 209.152486 
L 172.8 208.905944 
L 183.6 208.870704 
L 194.4 209.19417 
L 205.2 206.676016 
L 216 201.749139 
L 226.8 198.650413 
L 237.6 196.705355 
L 248.4 195.414531 
L 259.2 155.75494 
L 270 147.302905 
L 280.8 144.661356 
L 291.6 141.40855 
L 302.4 136.013338 
L 313.2 131.053449 
L 324 128.988404 
L 334.8 126.717584 
L 345.6 122.880461 
L 356.4 118.919097 
L 367.2 117.390144 
L 378 116.341935 
L 388.8 113.501 
" clip-path="url(#p0e4fd19bf0)" style="fill: none; stroke: #d62728; stroke-width: 1.5; stroke-linecap: square"/>
   </g>
   <g id="line2d_71">
    <path d="M 32.4 197.655985 
L 43.2 205.603424 
L 54 206.315393 
L 64.8 206.833644 
L 75.6 207.943221 
L 86.4 208.423568 
L 97.2 207.107863 
L 108 207.956316 
L 118.8 208.529524 
L 129.6 208.795373 
L 140.4 208.862823 
L 151.2 208.966737 
L 162 209.074973 
L 172.8 208.871979 
L 183.6 208.824657 
L 194.4 209.18951 
L 205.2 205.721386 
L 216 201.540875 
L 226.8 198.583046 
L 237.6 196.817958 
L 248.4 194.701736 
L 259.2 163.67666 
L 270 150.744051 
L 280.8 147.434023 
L 291.6 145.234662 
L 302.4 143.158853 
L 313.2 139.800421 
L 324 135.4141 
L 334.8 133.269952 
L 345.6 131.332188 
L 356.4 129.169807 
L 367.2 126.862611 
L 378 122.569215 
L 388.8 120.372008 
" clip-path="url(#p0e4fd19bf0)" style="fill: none; stroke: #9467bd; stroke-width: 1.5; stroke-linecap: square"/>
   </g>
   <g id="line2d_72">
    <path d="M 32.4 197.6647 
L 43.2 202.732194 
L 54 205.640593 
L 64.8 206.937615 
L 75.6 207.84853 
L 86.4 208.368172 
L 97.2 206.110779 
L 108 205.683189 
L 118.8 197.006626 
L 129.6 208.751736 
L 140.4 208.881621 
L 151.2 209.027462 
L 162 209.118246 
L 172.8 208.878876 
L 183.6 208.850461 
L 194.4 209.17068 
L 205.2 206.654661 
L 216 201.597742 
L 226.8 198.564005 
L 237.6 196.649699 
L 248.4 195.136433 
L 259.2 159.519324 
L 270 141.54321 
L 280.8 136.831799 
L 291.6 134.494476 
L 302.4 132.796316 
L 313.2 124.987646 
L 324 120.189824 
L 334.8 119.659712 
L 345.6 118.476767 
L 356.4 115.647233 
L 367.2 113.898539 
L 378 108.740203 
L 388.8 105.022109 
" clip-path="url(#p0e4fd19bf0)" style="fill: none; stroke: #8c564b; stroke-width: 1.5; stroke-linecap: square"/>
   </g>
   <g id="line2d_73">
    <path d="M 32.4 197.681261 
L 43.2 206.491248 
L 54 206.489629 
L 64.8 206.854023 
L 75.6 207.974024 
L 86.4 208.443099 
L 97.2 206.760833 
L 108 207.952792 
L 118.8 208.37353 
L 129.6 208.727244 
L 140.4 208.864956 
L 151.2 208.997934 
L 162 209.109441 
L 172.8 208.541264 
L 183.6 208.831414 
L 194.4 209.026622 
L 205.2 206.442989 
L 216 201.82104 
L 226.8 198.935682 
L 237.6 197.049229 
L 248.4 195.587344 
L 259.2 146.512302 
L 270 133.963171 
L 280.8 129.496961 
L 291.6 128.933233 
L 302.4 128.190317 
L 313.2 126.515947 
L 324 120.55212 
L 334.8 115.389803 
L 345.6 113.051364 
L 356.4 110.530701 
L 367.2 114.28672 
L 378 118.22432 
L 388.8 116.698363 
" clip-path="url(#p0e4fd19bf0)" style="fill: none; stroke: #e377c2; stroke-width: 1.5; stroke-linecap: square"/>
   </g>
   <g id="line2d_74">
    <path d="M 32.4 160.806242 
L 43.2 184.40689 
L 54 203.390096 
L 64.8 206.326304 
L 75.6 207.696442 
L 86.4 208.289888 
L 97.2 207.04997 
L 108 208.097536 
L 118.8 207.89985 
L 129.6 208.747289 
L 140.4 208.840337 
L 151.2 208.981568 
L 162 209.04192 
L 172.8 208.693472 
L 183.6 208.826146 
L 194.4 209.166654 
L 205.2 206.336352 
L 216 201.96518 
L 226.8 198.693593 
L 237.6 196.781142 
L 248.4 195.599193 
L 259.2 135.183379 
L 270 127.199179 
L 280.8 127.203011 
L 291.6 125.139968 
L 302.4 123.471287 
L 313.2 120.255323 
L 324 119.392746 
L 334.8 113.342235 
L 345.6 106.448837 
L 356.4 105.92403 
L 367.2 106.331092 
L 378 106.802652 
L 388.8 108.853672 
" clip-path="url(#p0e4fd19bf0)" style="fill: none; stroke: #7f7f7f; stroke-width: 1.5; stroke-linecap: square"/>
   </g>
   <g id="line2d_75">
    <path d="M 32.4 160.841337 
L 43.2 184.205731 
L 54 201.876058 
L 64.8 205.230773 
L 75.6 207.141531 
L 86.4 208.030781 
L 97.2 206.597433 
L 108 207.64657 
L 118.8 208.350756 
L 129.6 208.654862 
L 140.4 208.837928 
L 151.2 208.997937 
L 162 209.108032 
L 172.8 208.89991 
L 183.6 208.864153 
L 194.4 208.893817 
L 205.2 206.008038 
L 216 201.568984 
L 226.8 198.695823 
L 237.6 196.893767 
L 248.4 195.729002 
L 259.2 123.815979 
L 270 115.85582 
L 280.8 117.886736 
L 291.6 122.390079 
L 302.4 120.190689 
L 313.2 116.73212 
L 324 115.008234 
L 334.8 115.665869 
L 345.6 103.189283 
L 356.4 96.48078 
L 367.2 97.059154 
L 378 99.005634 
L 388.8 100.668974 
" clip-path="url(#p0e4fd19bf0)" style="fill: none; stroke: #bcbd22; stroke-width: 1.5; stroke-linecap: square"/>
   </g>
   <g id="patch_3">
    <path d="M 54 252 
L 54 34.56 
" style="fill: none; stroke: #000000; stroke-width: 0.8; stroke-linejoin: miter; stroke-linecap: square"/>
   </g>
   <g id="patch_4">
    <path d="M 388.8 252 
L 388.8 34.56 
" style="fill: none; stroke: #000000; stroke-width: 0.8; stroke-linejoin: miter; stroke-linecap: square"/>
   </g>
   <g id="patch_5">
    <path d="M 54 252 
L 388.8 252 
" style="fill: none; stroke: #000000; stroke-width: 0.8; stroke-linejoin: miter; stroke-linecap: square"/>
   </g>
   <g id="patch_6">
    <path d="M 54 34.56 
L 388.8 34.56 
" style="fill: none; stroke: #000000; stroke-width: 0.8; stroke-linejoin: miter; stroke-linecap: square"/>
   </g>
   <g id="legend_1">
    <g id="patch_7">
     <path d="M 412.54 177.16625 
L 581.624375 177.16625 
Q 583.624375 177.16625 583.624375 175.16625 
L 583.624375 41.56 
Q 583.624375 39.56 581.624375 39.56 
L 412.54 39.56 
Q 410.54 39.56 410.54 41.56 
L 410.54 175.16625 
Q 410.54 177.16625 412.54 177.16625 
z
" style="fill: #ffffff; opacity: 0.8; stroke: #cccccc; stroke-linejoin: miter"/>
    </g>
    <g id="line2d_76">
     <path d="M 414.54 47.658437 
L 424.54 47.658437 
L 433 47.658437 
" style="fill: none; stroke: #1f77b4; stroke-width: 1.5; stroke-linecap: square"/>
    </g>
    <g id="text_21">
     <!-- inplace_scatter_shuffle 2 -->
     <g transform="translate(442.54 51.158437)scale(0.1 -0.1)">
      <defs>
       <path id="DejaVuSans-63" d="M 3122 3366 
L 3122 2828 
Q 2878 2963 2633 3030 
Q 2388 3097 2138 3097 
Q 1578 3097 1268 2742 
Q 959 2388 959 1747 
Q 959 1106 1268 751 
Q 1578 397 2138 397 
Q 2388 397 2633 464 
Q 2878 531 3122 666 
L 3122 134 
Q 2881 22 2623 -34 
Q 2366 -91 2075 -91 
Q 1284 -91 818 406 
Q 353 903 353 1747 
Q 353 2603 823 3093 
Q 1294 3584 2113 3584 
Q 2378 3584 2631 3529 
Q 2884 3475 3122 3366 
z
" transform="scale(0.015625)"/>
       <path id="DejaVuSans-5f" d="M 3263 -1063 
L 3263 -1509 
L -63 -1509 
L -63 -1063 
L 3263 -1063 
z
" transform="scale(0.015625)"/>
       <path id="DejaVuSans-68" d="M 3513 2113 
L 3513 0 
L 2938 0 
L 2938 2094 
Q 2938 2591 2744 2837 
Q 2550 3084 2163 3084 
Q 1697 3084 1428 2787 
Q 1159 2491 1159 1978 
L 1159 0 
L 581 0 
L 581 4863 
L 1159 4863 
L 1159 2956 
Q 1366 3272 1645 3428 
Q 1925 3584 2291 3584 
Q 2894 3584 3203 3211 
Q 3513 2838 3513 2113 
z
" transform="scale(0.015625)"/>
      </defs>
      <use xlink:href="#DejaVuSans-69"/>
      <use xlink:href="#DejaVuSans-6e" x="27.783203"/>
      <use xlink:href="#DejaVuSans-70" x="91.162109"/>
      <use xlink:href="#DejaVuSans-6c" x="154.638672"/>
      <use xlink:href="#DejaVuSans-61" x="182.421875"/>
      <use xlink:href="#DejaVuSans-63" x="243.701172"/>
      <use xlink:href="#DejaVuSans-65" x="298.681641"/>
      <use xlink:href="#DejaVuSans-5f" x="360.205078"/>
      <use xlink:href="#DejaVuSans-73" x="410.205078"/>
      <use xlink:href="#DejaVuSans-63" x="462.304688"/>
      <use xlink:href="#DejaVuSans-61" x="517.285156"/>
      <use xlink:href="#DejaVuSans-74" x="578.564453"/>
      <use xlink:href="#DejaVuSans-74" x="617.773438"/>
      <use xlink:href="#DejaVuSans-65" x="656.982422"/>
      <use xlink:href="#DejaVuSans-72" x="718.505859"/>
      <use xlink:href="#DejaVuSans-5f" x="759.619141"/>
      <use xlink:href="#DejaVuSans-73" x="809.619141"/>
      <use xlink:href="#DejaVuSans-68" x="861.71875"/>
      <use xlink:href="#DejaVuSans-75" x="925.097656"/>
      <use xlink:href="#DejaVuSans-66" x="988.476562"/>
      <use xlink:href="#DejaVuSans-66" x="1023.681641"/>
      <use xlink:href="#DejaVuSans-6c" x="1058.886719"/>
      <use xlink:href="#DejaVuSans-65" x="1086.669922"/>
      <use xlink:href="#DejaVuSans-20" x="1148.193359"/>
      <use xlink:href="#DejaVuSans-32" x="1179.980469"/>
     </g>
    </g>
    <g id="line2d_77">
     <path d="M 414.54 62.614688 
L 424.54 62.614688 
L 433 62.614688 
" style="fill: none; stroke: #ff7f0e; stroke-width: 1.5; stroke-linecap: square"/>
    </g>
    <g id="text_22">
     <!-- inplace_scatter_shuffle 4 -->
     <g transform="translate(442.54 66.114688)scale(0.1 -0.1)">
      <use xlink:href="#DejaVuSans-69"/>
      <use xlink:href="#DejaVuSans-6e" x="27.783203"/>
      <use xlink:href="#DejaVuSans-70" x="91.162109"/>
      <use xlink:href="#DejaVuSans-6c" x="154.638672"/>
      <use xlink:href="#DejaVuSans-61" x="182.421875"/>
      <use xlink:href="#DejaVuSans-63" x="243.701172"/>
      <use xlink:href="#DejaVuSans-65" x="298.681641"/>
      <use xlink:href="#DejaVuSans-5f" x="360.205078"/>
      <use xlink:href="#DejaVuSans-73" x="410.205078"/>
      <use xlink:href="#DejaVuSans-63" x="462.304688"/>
      <use xlink:href="#DejaVuSans-61" x="517.285156"/>
      <use xlink:href="#DejaVuSans-74" x="578.564453"/>
      <use xlink:href="#DejaVuSans-74" x="617.773438"/>
      <use xlink:href="#DejaVuSans-65" x="656.982422"/>
      <use xlink:href="#DejaVuSans-72" x="718.505859"/>
      <use xlink:href="#DejaVuSans-5f" x="759.619141"/>
      <use xlink:href="#DejaVuSans-73" x="809.619141"/>
      <use xlink:href="#DejaVuSans-68" x="861.71875"/>
      <use xlink:href="#DejaVuSans-75" x="925.097656"/>
      <use xlink:href="#DejaVuSans-66" x="988.476562"/>
      <use xlink:href="#DejaVuSans-66" x="1023.681641"/>
      <use xlink:href="#DejaVuSans-6c" x="1058.886719"/>
      <use xlink:href="#DejaVuSans-65" x="1086.669922"/>
      <use xlink:href="#DejaVuSans-20" x="1148.193359"/>
      <use xlink:href="#DejaVuSans-34" x="1179.980469"/>
     </g>
    </g>
    <g id="line2d_78">
     <path d="M 414.54 77.570938 
L 424.54 77.570938 
L 433 77.570938 
" style="fill: none; stroke: #2ca02c; stroke-width: 1.5; stroke-linecap: square"/>
    </g>
    <g id="text_23">
     <!-- inplace_scatter_shuffle 8 -->
     <g transform="translate(442.54 81.070938)scale(0.1 -0.1)">
      <use xlink:href="#DejaVuSans-69"/>
      <use xlink:href="#DejaVuSans-6e" x="27.783203"/>
      <use xlink:href="#DejaVuSans-70" x="91.162109"/>
      <use xlink:href="#DejaVuSans-6c" x="154.638672"/>
      <use xlink:href="#DejaVuSans-61" x="182.421875"/>
      <use xlink:href="#DejaVuSans-63" x="243.701172"/>
      <use xlink:href="#DejaVuSans-65" x="298.681641"/>
      <use xlink:href="#DejaVuSans-5f" x="360.205078"/>
      <use xlink:href="#DejaVuSans-73" x="410.205078"/>
      <use xlink:href="#DejaVuSans-63" x="462.304688"/>
      <use xlink:href="#DejaVuSans-61" x="517.285156"/>
      <use xlink:href="#DejaVuSans-74" x="578.564453"/>
      <use xlink:href="#DejaVuSans-74" x="617.773438"/>
      <use xlink:href="#DejaVuSans-65" x="656.982422"/>
      <use xlink:href="#DejaVuSans-72" x="718.505859"/>
      <use xlink:href="#DejaVuSans-5f" x="759.619141"/>
      <use xlink:href="#DejaVuSans-73" x="809.619141"/>
      <use xlink:href="#DejaVuSans-68" x="861.71875"/>
      <use xlink:href="#DejaVuSans-75" x="925.097656"/>
      <use xlink:href="#DejaVuSans-66" x="988.476562"/>
      <use xlink:href="#DejaVuSans-66" x="1023.681641"/>
      <use xlink:href="#DejaVuSans-6c" x="1058.886719"/>
      <use xlink:href="#DejaVuSans-65" x="1086.669922"/>
      <use xlink:href="#DejaVuSans-20" x="1148.193359"/>
      <use xlink:href="#DejaVuSans-38" x="1179.980469"/>
     </g>
    </g>
    <g id="line2d_79">
     <path d="M 414.54 92.527187 
L 424.54 92.527187 
L 433 92.527187 
" style="fill: none; stroke: #d62728; stroke-width: 1.5; stroke-linecap: square"/>
    </g>
    <g id="text_24">
     <!-- inplace_scatter_shuffle 16 -->
     <g transform="translate(442.54 96.027187)scale(0.1 -0.1)">
      <use xlink:href="#DejaVuSans-69"/>
      <use xlink:href="#DejaVuSans-6e" x="27.783203"/>
      <use xlink:href="#DejaVuSans-70" x="91.162109"/>
      <use xlink:href="#DejaVuSans-6c" x="154.638672"/>
      <use xlink:href="#DejaVuSans-61" x="182.421875"/>
      <use xlink:href="#DejaVuSans-63" x="243.701172"/>
      <use xlink:href="#DejaVuSans-65" x="298.681641"/>
      <use xlink:href="#DejaVuSans-5f" x="360.205078"/>
      <use xlink:href="#DejaVuSans-73" x="410.205078"/>
      <use xlink:href="#DejaVuSans-63" x="462.304688"/>
      <use xlink:href="#DejaVuSans-61" x="517.285156"/>
      <use xlink:href="#DejaVuSans-74" x="578.564453"/>
      <use xlink:href="#DejaVuSans-74" x="617.773438"/>
      <use xlink:href="#DejaVuSans-65" x="656.982422"/>
      <use xlink:href="#DejaVuSans-72" x="718.505859"/>
      <use xlink:href="#DejaVuSans-5f" x="759.619141"/>
      <use xlink:href="#DejaVuSans-73" x="809.619141"/>
      <use xlink:href="#DejaVuSans-68" x="861.71875"/>
      <use xlink:href="#DejaVuSans-75" x="925.097656"/>
      <use xlink:href="#DejaVuSans-66" x="988.476562"/>
      <use xlink:href="#DejaVuSans-66" x="1023.681641"/>
      <use xlink:href="#DejaVuSans-6c" x="1058.886719"/>
      <use xlink:href="#DejaVuSans-65" x="1086.669922"/>
      <use xlink:href="#DejaVuSans-20" x="1148.193359"/>
      <use xlink:href="#DejaVuSans-31" x="1179.980469"/>
      <use xlink:href="#DejaVuSans-36" x="1243.603516"/>
     </g>
    </g>
    <g id="line2d_80">
     <path d="M 414.54 107.483437 
L 424.54 107.483437 
L 433 107.483437 
" style="fill: none; stroke: #9467bd; stroke-width: 1.5; stroke-linecap: square"/>
    </g>
    <g id="text_25">
     <!-- inplace_scatter_shuffle 32 -->
     <g transform="translate(442.54 110.983437)scale(0.1 -0.1)">
      <use xlink:href="#DejaVuSans-69"/>
      <use xlink:href="#DejaVuSans-6e" x="27.783203"/>
      <use xlink:href="#DejaVuSans-70" x="91.162109"/>
      <use xlink:href="#DejaVuSans-6c" x="154.638672"/>
      <use xlink:href="#DejaVuSans-61" x="182.421875"/>
      <use xlink:href="#DejaVuSans-63" x="243.701172"/>
      <use xlink:href="#DejaVuSans-65" x="298.681641"/>
      <use xlink:href="#DejaVuSans-5f" x="360.205078"/>
      <use xlink:href="#DejaVuSans-73" x="410.205078"/>
      <use xlink:href="#DejaVuSans-63" x="462.304688"/>
      <use xlink:href="#DejaVuSans-61" x="517.285156"/>
      <use xlink:href="#DejaVuSans-74" x="578.564453"/>
      <use xlink:href="#DejaVuSans-74" x="617.773438"/>
      <use xlink:href="#DejaVuSans-65" x="656.982422"/>
      <use xlink:href="#DejaVuSans-72" x="718.505859"/>
      <use xlink:href="#DejaVuSans-5f" x="759.619141"/>
      <use xlink:href="#DejaVuSans-73" x="809.619141"/>
      <use xlink:href="#DejaVuSans-68" x="861.71875"/>
      <use xlink:href="#DejaVuSans-75" x="925.097656"/>
      <use xlink:href="#DejaVuSans-66" x="988.476562"/>
      <use xlink:href="#DejaVuSans-66" x="1023.681641"/>
      <use xlink:href="#DejaVuSans-6c" x="1058.886719"/>
      <use xlink:href="#DejaVuSans-65" x="1086.669922"/>
      <use xlink:href="#DejaVuSans-20" x="1148.193359"/>
      <use xlink:href="#DejaVuSans-33" x="1179.980469"/>
      <use xlink:href="#DejaVuSans-32" x="1243.603516"/>
     </g>
    </g>
    <g id="line2d_81">
     <path d="M 414.54 122.439687 
L 424.54 122.439687 
L 433 122.439687 
" style="fill: none; stroke: #8c564b; stroke-width: 1.5; stroke-linecap: square"/>
    </g>
    <g id="text_26">
     <!-- inplace_scatter_shuffle 64 -->
     <g transform="translate(442.54 125.939687)scale(0.1 -0.1)">
      <use xlink:href="#DejaVuSans-69"/>
      <use xlink:href="#DejaVuSans-6e" x="27.783203"/>
      <use xlink:href="#DejaVuSans-70" x="91.162109"/>
      <use xlink:href="#DejaVuSans-6c" x="154.638672"/>
      <use xlink:href="#DejaVuSans-61" x="182.421875"/>
      <use xlink:href="#DejaVuSans-63" x="243.701172"/>
      <use xlink:href="#DejaVuSans-65" x="298.681641"/>
      <use xlink:href="#DejaVuSans-5f" x="360.205078"/>
      <use xlink:href="#DejaVuSans-73" x="410.205078"/>
      <use xlink:href="#DejaVuSans-63" x="462.304688"/>
      <use xlink:href="#DejaVuSans-61" x="517.285156"/>
      <use xlink:href="#DejaVuSans-74" x="578.564453"/>
      <use xlink:href="#DejaVuSans-74" x="617.773438"/>
      <use xlink:href="#DejaVuSans-65" x="656.982422"/>
      <use xlink:href="#DejaVuSans-72" x="718.505859"/>
      <use xlink:href="#DejaVuSans-5f" x="759.619141"/>
      <use xlink:href="#DejaVuSans-73" x="809.619141"/>
      <use xlink:href="#DejaVuSans-68" x="861.71875"/>
      <use xlink:href="#DejaVuSans-75" x="925.097656"/>
      <use xlink:href="#DejaVuSans-66" x="988.476562"/>
      <use xlink:href="#DejaVuSans-66" x="1023.681641"/>
      <use xlink:href="#DejaVuSans-6c" x="1058.886719"/>
      <use xlink:href="#DejaVuSans-65" x="1086.669922"/>
      <use xlink:href="#DejaVuSans-20" x="1148.193359"/>
      <use xlink:href="#DejaVuSans-36" x="1179.980469"/>
      <use xlink:href="#DejaVuSans-34" x="1243.603516"/>
     </g>
    </g>
    <g id="line2d_82">
     <path d="M 414.54 137.395938 
L 424.54 137.395938 
L 433 137.395938 
" style="fill: none; stroke: #e377c2; stroke-width: 1.5; stroke-linecap: square"/>
    </g>
    <g id="text_27">
     <!-- inplace_scatter_shuffle 128 -->
     <g transform="translate(442.54 140.895938)scale(0.1 -0.1)">
      <use xlink:href="#DejaVuSans-69"/>
      <use xlink:href="#DejaVuSans-6e" x="27.783203"/>
      <use xlink:href="#DejaVuSans-70" x="91.162109"/>
      <use xlink:href="#DejaVuSans-6c" x="154.638672"/>
      <use xlink:href="#DejaVuSans-61" x="182.421875"/>
      <use xlink:href="#DejaVuSans-63" x="243.701172"/>
      <use xlink:href="#DejaVuSans-65" x="298.681641"/>
      <use xlink:href="#DejaVuSans-5f" x="360.205078"/>
      <use xlink:href="#DejaVuSans-73" x="410.205078"/>
      <use xlink:href="#DejaVuSans-63" x="462.304688"/>
      <use xlink:href="#DejaVuSans-61" x="517.285156"/>
      <use xlink:href="#DejaVuSans-74" x="578.564453"/>
      <use xlink:href="#DejaVuSans-74" x="617.773438"/>
      <use xlink:href="#DejaVuSans-65" x="656.982422"/>
      <use xlink:href="#DejaVuSans-72" x="718.505859"/>
      <use xlink:href="#DejaVuSans-5f" x="759.619141"/>
      <use xlink:href="#DejaVuSans-73" x="809.619141"/>
      <use xlink:href="#DejaVuSans-68" x="861.71875"/>
      <use xlink:href="#DejaVuSans-75" x="925.097656"/>
      <use xlink:href="#DejaVuSans-66" x="988.476562"/>
      <use xlink:href="#DejaVuSans-66" x="1023.681641"/>
      <use xlink:href="#DejaVuSans-6c" x="1058.886719"/>
      <use xlink:href="#DejaVuSans-65" x="1086.669922"/>
      <use xlink:href="#DejaVuSans-20" x="1148.193359"/>
      <use xlink:href="#DejaVuSans-31" x="1179.980469"/>
      <use xlink:href="#DejaVuSans-32" x="1243.603516"/>
      <use xlink:href="#DejaVuSans-38" x="1307.226562"/>
     </g>
    </g>
    <g id="line2d_83">
     <path d="M 414.54 152.352187 
L 424.54 152.352187 
L 433 152.352187 
" style="fill: none; stroke: #7f7f7f; stroke-width: 1.5; stroke-linecap: square"/>
    </g>
    <g id="text_28">
     <!-- inplace_scatter_shuffle 256 -->
     <g transform="translate(442.54 155.852187)scale(0.1 -0.1)">
      <defs>
       <path id="DejaVuSans-35" d="M 691 4666 
L 3169 4666 
L 3169 4134 
L 1269 4134 
L 1269 2991 
Q 1406 3038 1543 3061 
Q 1681 3084 1819 3084 
Q 2600 3084 3056 2656 
Q 3513 2228 3513 1497 
Q 3513 744 3044 326 
Q 2575 -91 1722 -91 
Q 1428 -91 1123 -41 
Q 819 9 494 109 
L 494 744 
Q 775 591 1075 516 
Q 1375 441 1709 441 
Q 2250 441 2565 725 
Q 2881 1009 2881 1497 
Q 2881 1984 2565 2268 
Q 2250 2553 1709 2553 
Q 1456 2553 1204 2497 
Q 953 2441 691 2322 
L 691 4666 
z
" transform="scale(0.015625)"/>
      </defs>
      <use xlink:href="#DejaVuSans-69"/>
      <use xlink:href="#DejaVuSans-6e" x="27.783203"/>
      <use xlink:href="#DejaVuSans-70" x="91.162109"/>
      <use xlink:href="#DejaVuSans-6c" x="154.638672"/>
      <use xlink:href="#DejaVuSans-61" x="182.421875"/>
      <use xlink:href="#DejaVuSans-63" x="243.701172"/>
      <use xlink:href="#DejaVuSans-65" x="298.681641"/>
      <use xlink:href="#DejaVuSans-5f" x="360.205078"/>
      <use xlink:href="#DejaVuSans-73" x="410.205078"/>
      <use xlink:href="#DejaVuSans-63" x="462.304688"/>
      <use xlink:href="#DejaVuSans-61" x="517.285156"/>
      <use xlink:href="#DejaVuSans-74" x="578.564453"/>
      <use xlink:href="#DejaVuSans-74" x="617.773438"/>
      <use xlink:href="#DejaVuSans-65" x="656.982422"/>
      <use xlink:href="#DejaVuSans-72" x="718.505859"/>
      <use xlink:href="#DejaVuSans-5f" x="759.619141"/>
      <use xlink:href="#DejaVuSans-73" x="809.619141"/>
      <use xlink:href="#DejaVuSans-68" x="861.71875"/>
      <use xlink:href="#DejaVuSans-75" x="925.097656"/>
      <use xlink:href="#DejaVuSans-66" x="988.476562"/>
      <use xlink:href="#DejaVuSans-66" x="1023.681641"/>
      <use xlink:href="#DejaVuSans-6c" x="1058.886719"/>
      <use xlink:href="#DejaVuSans-65" x="1086.669922"/>
      <use xlink:href="#DejaVuSans-20" x="1148.193359"/>
      <use xlink:href="#DejaVuSans-32" x="1179.980469"/>
      <use xlink:href="#DejaVuSans-35" x="1243.603516"/>
      <use xlink:href="#DejaVuSans-36" x="1307.226562"/>
     </g>
    </g>
    <g id="line2d_84">
     <path d="M 414.54 167.308437 
L 424.54 167.308437 
L 433 167.308437 
" style="fill: none; stroke: #bcbd22; stroke-width: 1.5; stroke-linecap: square"/>
    </g>
    <g id="text_29">
     <!-- inplace_scatter_shuffle 512 -->
     <g transform="translate(442.54 170.808437)scale(0.1 -0.1)">
      <use xlink:href="#DejaVuSans-69"/>
      <use xlink:href="#DejaVuSans-6e" x="27.783203"/>
      <use xlink:href="#DejaVuSans-70" x="91.162109"/>
      <use xlink:href="#DejaVuSans-6c" x="154.638672"/>
      <use xlink:href="#DejaVuSans-61" x="182.421875"/>
      <use xlink:href="#DejaVuSans-63" x="243.701172"/>
      <use xlink:href="#DejaVuSans-65" x="298.681641"/>
      <use xlink:href="#DejaVuSans-5f" x="360.205078"/>
      <use xlink:href="#DejaVuSans-73" x="410.205078"/>
      <use xlink:href="#DejaVuSans-63" x="462.304688"/>
      <use xlink:href="#DejaVuSans-61" x="517.285156"/>
      <use xlink:href="#DejaVuSans-74" x="578.564453"/>
      <use xlink:href="#DejaVuSans-74" x="617.773438"/>
      <use xlink:href="#DejaVuSans-65" x="656.982422"/>
      <use xlink:href="#DejaVuSans-72" x="718.505859"/>
      <use xlink:href="#DejaVuSans-5f" x="759.619141"/>
      <use xlink:href="#DejaVuSans-73" x="809.619141"/>
      <use xlink:href="#DejaVuSans-68" x="861.71875"/>
      <use xlink:href="#DejaVuSans-75" x="925.097656"/>
      <use xlink:href="#DejaVuSans-66" x="988.476562"/>
      <use xlink:href="#DejaVuSans-66" x="1023.681641"/>
      <use xlink:href="#DejaVuSans-6c" x="1058.886719"/>
      <use xlink:href="#DejaVuSans-65" x="1086.669922"/>
      <use xlink:href="#DejaVuSans-20" x="1148.193359"/>
      <use xlink:href="#DejaVuSans-35" x="1179.980469"/>
      <use xlink:href="#DejaVuSans-31" x="1243.603516"/>
      <use xlink:href="#DejaVuSans-32" x="1307.226562"/>
     </g>
    </g>
   </g>
  </g>
 </g>
 <defs>
  <clipPath id="p0e4fd19bf0">
   <rect x="54" y="34.56" width="334.8" height="217.44"/>
  </clipPath>
 </defs>
</svg>
