<?xml version="1.0" encoding="utf-8" standalone="no"?>
<!DOCTYPE svg PUBLIC "-//W3C//DTD SVG 1.1//EN"
  "http://www.w3.org/Graphics/SVG/1.1/DTD/svg11.dtd">
<svg xmlns:xlink="http://www.w3.org/1999/xlink" width="720pt" height="360pt" viewBox="0 0 720 360" xmlns="http://www.w3.org/2000/svg" version="1.1">
 <metadata>
  <rdf:RDF xmlns:dc="http://purl.org/dc/elements/1.1/" xmlns:cc="http://creativecommons.org/ns#" xmlns:rdf="http://www.w3.org/1999/02/22-rdf-syntax-ns#">
   <cc:Work>
    <dc:type rdf:resource="http://purl.org/dc/dcmitype/StillImage"/>
    <dc:date>2024-01-17T07:39:05.236775</dc:date>
    <dc:format>image/svg+xml</dc:format>
    <dc:creator>
     <cc:Agent>
      <dc:title>Matplotlib v3.5.1, https://matplotlib.org/</dc:title>
     </cc:Agent>
    </dc:creator>
   </cc:Work>
  </rdf:RDF>
 </metadata>
 <defs>
  <style type="text/css">*{stroke-linejoin: round; stroke-linecap: butt}</style>
 </defs>
 <g id="figure_1">
  <g id="patch_1">
   <path d="M 0 360 
L 720 360 
L 720 0 
L 0 0 
L 0 360 
z
" style="fill: none"/>
  </g>
  <g id="axes_1">
   <g id="patch_2">
    <path d="M 90 315 
L 343.636364 315 
L 343.636364 43.2 
L 90 43.2 
z
" style="fill: #ffffff"/>
   </g>
   <g id="matplotlib.axis_1">
    <g id="xtick_1">
     <g id="line2d_1">
      <path d="M 90 315 
L 90 43.2 
" clip-path="url(#p3d529035e6)" style="fill: none; stroke: #b0b0b0; stroke-width: 0.8; stroke-linecap: square"/>
     </g>
     <g id="line2d_2">
      <defs>
       <path id="m3880aa6da2" d="M 0 0 
L 0 3.5 
" style="stroke: #000000; stroke-width: 0.8"/>
      </defs>
      <g>
       <use xlink:href="#m3880aa6da2" x="90" y="315" style="stroke: #000000; stroke-width: 0.8"/>
      </g>
     </g>
     <g id="text_1">
      <!-- $\mathdefault{2^{2}}$ -->
      <g transform="translate(84.4 329.598437)scale(0.1 -0.1)">
       <defs>
        <path id="DejaVuSans-32" d="M 1228 531 
L 3431 531 
L 3431 0 
L 469 0 
L 469 531 
Q 828 903 1448 1529 
Q 2069 2156 2228 2338 
Q 2531 2678 2651 2914 
Q 2772 3150 2772 3378 
Q 2772 3750 2511 3984 
Q 2250 4219 1831 4219 
Q 1534 4219 1204 4116 
Q 875 4013 500 3803 
L 500 4441 
Q 881 4594 1212 4672 
Q 1544 4750 1819 4750 
Q 2544 4750 2975 4387 
Q 3406 4025 3406 3419 
Q 3406 3131 3298 2873 
Q 3191 2616 2906 2266 
Q 2828 2175 2409 1742 
Q 1991 1309 1228 531 
z
" transform="scale(0.015625)"/>
       </defs>
       <use xlink:href="#DejaVuSans-32" transform="translate(0 0.765625)"/>
       <use xlink:href="#DejaVuSans-32" transform="translate(64.580078 39.046875)scale(0.7)"/>
      </g>
     </g>
    </g>
    <g id="xtick_2">
     <g id="line2d_3">
      <path d="M 118.181818 315 
L 118.181818 43.2 
" clip-path="url(#p3d529035e6)" style="fill: none; stroke: #b0b0b0; stroke-width: 0.8; stroke-linecap: square"/>
     </g>
     <g id="line2d_4">
      <g>
       <use xlink:href="#m3880aa6da2" x="118.181818" y="315" style="stroke: #000000; stroke-width: 0.8"/>
      </g>
     </g>
     <g id="text_2">
      <!-- $\mathdefault{2^{4}}$ -->
      <g transform="translate(112.581818 329.598437)scale(0.1 -0.1)">
       <defs>
        <path id="DejaVuSans-34" d="M 2419 4116 
L 825 1625 
L 2419 1625 
L 2419 4116 
z
M 2253 4666 
L 3047 4666 
L 3047 1625 
L 3713 1625 
L 3713 1100 
L 3047 1100 
L 3047 0 
L 2419 0 
L 2419 1100 
L 313 1100 
L 313 1709 
L 2253 4666 
z
" transform="scale(0.015625)"/>
       </defs>
       <use xlink:href="#DejaVuSans-32" transform="translate(0 0.684375)"/>
       <use xlink:href="#DejaVuSans-34" transform="translate(64.580078 38.965625)scale(0.7)"/>
      </g>
     </g>
    </g>
    <g id="xtick_3">
     <g id="line2d_5">
      <path d="M 146.363636 315 
L 146.363636 43.2 
" clip-path="url(#p3d529035e6)" style="fill: none; stroke: #b0b0b0; stroke-width: 0.8; stroke-linecap: square"/>
     </g>
     <g id="line2d_6">
      <g>
       <use xlink:href="#m3880aa6da2" x="146.363636" y="315" style="stroke: #000000; stroke-width: 0.8"/>
      </g>
     </g>
     <g id="text_3">
      <!-- $\mathdefault{2^{6}}$ -->
      <g transform="translate(140.763636 329.598437)scale(0.1 -0.1)">
       <defs>
        <path id="DejaVuSans-36" d="M 2113 2584 
Q 1688 2584 1439 2293 
Q 1191 2003 1191 1497 
Q 1191 994 1439 701 
Q 1688 409 2113 409 
Q 2538 409 2786 701 
Q 3034 994 3034 1497 
Q 3034 2003 2786 2293 
Q 2538 2584 2113 2584 
z
M 3366 4563 
L 3366 3988 
Q 3128 4100 2886 4159 
Q 2644 4219 2406 4219 
Q 1781 4219 1451 3797 
Q 1122 3375 1075 2522 
Q 1259 2794 1537 2939 
Q 1816 3084 2150 3084 
Q 2853 3084 3261 2657 
Q 3669 2231 3669 1497 
Q 3669 778 3244 343 
Q 2819 -91 2113 -91 
Q 1303 -91 875 529 
Q 447 1150 447 2328 
Q 447 3434 972 4092 
Q 1497 4750 2381 4750 
Q 2619 4750 2861 4703 
Q 3103 4656 3366 4563 
z
" transform="scale(0.015625)"/>
       </defs>
       <use xlink:href="#DejaVuSans-32" transform="translate(0 0.765625)"/>
       <use xlink:href="#DejaVuSans-36" transform="translate(64.580078 39.046875)scale(0.7)"/>
      </g>
     </g>
    </g>
    <g id="xtick_4">
     <g id="line2d_7">
      <path d="M 174.545455 315 
L 174.545455 43.2 
" clip-path="url(#p3d529035e6)" style="fill: none; stroke: #b0b0b0; stroke-width: 0.8; stroke-linecap: square"/>
     </g>
     <g id="line2d_8">
      <g>
       <use xlink:href="#m3880aa6da2" x="174.545455" y="315" style="stroke: #000000; stroke-width: 0.8"/>
      </g>
     </g>
     <g id="text_4">
      <!-- $\mathdefault{2^{8}}$ -->
      <g transform="translate(168.945455 329.598437)scale(0.1 -0.1)">
       <defs>
        <path id="DejaVuSans-38" d="M 2034 2216 
Q 1584 2216 1326 1975 
Q 1069 1734 1069 1313 
Q 1069 891 1326 650 
Q 1584 409 2034 409 
Q 2484 409 2743 651 
Q 3003 894 3003 1313 
Q 3003 1734 2745 1975 
Q 2488 2216 2034 2216 
z
M 1403 2484 
Q 997 2584 770 2862 
Q 544 3141 544 3541 
Q 544 4100 942 4425 
Q 1341 4750 2034 4750 
Q 2731 4750 3128 4425 
Q 3525 4100 3525 3541 
Q 3525 3141 3298 2862 
Q 3072 2584 2669 2484 
Q 3125 2378 3379 2068 
Q 3634 1759 3634 1313 
Q 3634 634 3220 271 
Q 2806 -91 2034 -91 
Q 1263 -91 848 271 
Q 434 634 434 1313 
Q 434 1759 690 2068 
Q 947 2378 1403 2484 
z
M 1172 3481 
Q 1172 3119 1398 2916 
Q 1625 2713 2034 2713 
Q 2441 2713 2670 2916 
Q 2900 3119 2900 3481 
Q 2900 3844 2670 4047 
Q 2441 4250 2034 4250 
Q 1625 4250 1398 4047 
Q 1172 3844 1172 3481 
z
" transform="scale(0.015625)"/>
       </defs>
       <use xlink:href="#DejaVuSans-32" transform="translate(0 0.765625)"/>
       <use xlink:href="#DejaVuSans-38" transform="translate(64.580078 39.046875)scale(0.7)"/>
      </g>
     </g>
    </g>
    <g id="xtick_5">
     <g id="line2d_9">
      <path d="M 202.727273 315 
L 202.727273 43.2 
" clip-path="url(#p3d529035e6)" style="fill: none; stroke: #b0b0b0; stroke-width: 0.8; stroke-linecap: square"/>
     </g>
     <g id="line2d_10">
      <g>
       <use xlink:href="#m3880aa6da2" x="202.727273" y="315" style="stroke: #000000; stroke-width: 0.8"/>
      </g>
     </g>
     <g id="text_5">
      <!-- $\mathdefault{2^{10}}$ -->
      <g transform="translate(194.877273 329.598437)scale(0.1 -0.1)">
       <defs>
        <path id="DejaVuSans-31" d="M 794 531 
L 1825 531 
L 1825 4091 
L 703 3866 
L 703 4441 
L 1819 4666 
L 2450 4666 
L 2450 531 
L 3481 531 
L 3481 0 
L 794 0 
L 794 531 
z
" transform="scale(0.015625)"/>
        <path id="DejaVuSans-30" d="M 2034 4250 
Q 1547 4250 1301 3770 
Q 1056 3291 1056 2328 
Q 1056 1369 1301 889 
Q 1547 409 2034 409 
Q 2525 409 2770 889 
Q 3016 1369 3016 2328 
Q 3016 3291 2770 3770 
Q 2525 4250 2034 4250 
z
M 2034 4750 
Q 2819 4750 3233 4129 
Q 3647 3509 3647 2328 
Q 3647 1150 3233 529 
Q 2819 -91 2034 -91 
Q 1250 -91 836 529 
Q 422 1150 422 2328 
Q 422 3509 836 4129 
Q 1250 4750 2034 4750 
z
" transform="scale(0.015625)"/>
       </defs>
       <use xlink:href="#DejaVuSans-32" transform="translate(0 0.765625)"/>
       <use xlink:href="#DejaVuSans-31" transform="translate(64.580078 39.046875)scale(0.7)"/>
       <use xlink:href="#DejaVuSans-30" transform="translate(109.116211 39.046875)scale(0.7)"/>
      </g>
     </g>
    </g>
    <g id="xtick_6">
     <g id="line2d_11">
      <path d="M 230.909091 315 
L 230.909091 43.2 
" clip-path="url(#p3d529035e6)" style="fill: none; stroke: #b0b0b0; stroke-width: 0.8; stroke-linecap: square"/>
     </g>
     <g id="line2d_12">
      <g>
       <use xlink:href="#m3880aa6da2" x="230.909091" y="315" style="stroke: #000000; stroke-width: 0.8"/>
      </g>
     </g>
     <g id="text_6">
      <!-- $\mathdefault{2^{12}}$ -->
      <g transform="translate(223.059091 329.598437)scale(0.1 -0.1)">
       <use xlink:href="#DejaVuSans-32" transform="translate(0 0.765625)"/>
       <use xlink:href="#DejaVuSans-31" transform="translate(64.580078 39.046875)scale(0.7)"/>
       <use xlink:href="#DejaVuSans-32" transform="translate(109.116211 39.046875)scale(0.7)"/>
      </g>
     </g>
    </g>
    <g id="xtick_7">
     <g id="line2d_13">
      <path d="M 259.090909 315 
L 259.090909 43.2 
" clip-path="url(#p3d529035e6)" style="fill: none; stroke: #b0b0b0; stroke-width: 0.8; stroke-linecap: square"/>
     </g>
     <g id="line2d_14">
      <g>
       <use xlink:href="#m3880aa6da2" x="259.090909" y="315" style="stroke: #000000; stroke-width: 0.8"/>
      </g>
     </g>
     <g id="text_7">
      <!-- $\mathdefault{2^{14}}$ -->
      <g transform="translate(251.240909 329.598437)scale(0.1 -0.1)">
       <use xlink:href="#DejaVuSans-32" transform="translate(0 0.684375)"/>
       <use xlink:href="#DejaVuSans-31" transform="translate(64.580078 38.965625)scale(0.7)"/>
       <use xlink:href="#DejaVuSans-34" transform="translate(109.116211 38.965625)scale(0.7)"/>
      </g>
     </g>
    </g>
    <g id="xtick_8">
     <g id="line2d_15">
      <path d="M 287.272727 315 
L 287.272727 43.2 
" clip-path="url(#p3d529035e6)" style="fill: none; stroke: #b0b0b0; stroke-width: 0.8; stroke-linecap: square"/>
     </g>
     <g id="line2d_16">
      <g>
       <use xlink:href="#m3880aa6da2" x="287.272727" y="315" style="stroke: #000000; stroke-width: 0.8"/>
      </g>
     </g>
     <g id="text_8">
      <!-- $\mathdefault{2^{16}}$ -->
      <g transform="translate(279.422727 329.598437)scale(0.1 -0.1)">
       <use xlink:href="#DejaVuSans-32" transform="translate(0 0.765625)"/>
       <use xlink:href="#DejaVuSans-31" transform="translate(64.580078 39.046875)scale(0.7)"/>
       <use xlink:href="#DejaVuSans-36" transform="translate(109.116211 39.046875)scale(0.7)"/>
      </g>
     </g>
    </g>
    <g id="xtick_9">
     <g id="line2d_17">
      <path d="M 315.454545 315 
L 315.454545 43.2 
" clip-path="url(#p3d529035e6)" style="fill: none; stroke: #b0b0b0; stroke-width: 0.8; stroke-linecap: square"/>
     </g>
     <g id="line2d_18">
      <g>
       <use xlink:href="#m3880aa6da2" x="315.454545" y="315" style="stroke: #000000; stroke-width: 0.8"/>
      </g>
     </g>
     <g id="text_9">
      <!-- $\mathdefault{2^{18}}$ -->
      <g transform="translate(307.604545 329.598437)scale(0.1 -0.1)">
       <use xlink:href="#DejaVuSans-32" transform="translate(0 0.765625)"/>
       <use xlink:href="#DejaVuSans-31" transform="translate(64.580078 39.046875)scale(0.7)"/>
       <use xlink:href="#DejaVuSans-38" transform="translate(109.116211 39.046875)scale(0.7)"/>
      </g>
     </g>
    </g>
    <g id="xtick_10">
     <g id="line2d_19">
      <path d="M 343.636364 315 
L 343.636364 43.2 
" clip-path="url(#p3d529035e6)" style="fill: none; stroke: #b0b0b0; stroke-width: 0.8; stroke-linecap: square"/>
     </g>
     <g id="line2d_20">
      <g>
       <use xlink:href="#m3880aa6da2" x="343.636364" y="315" style="stroke: #000000; stroke-width: 0.8"/>
      </g>
     </g>
     <g id="text_10">
      <!-- $\mathdefault{2^{20}}$ -->
      <g transform="translate(335.786364 329.598437)scale(0.1 -0.1)">
       <use xlink:href="#DejaVuSans-32" transform="translate(0 0.765625)"/>
       <use xlink:href="#DejaVuSans-32" transform="translate(64.580078 39.046875)scale(0.7)"/>
       <use xlink:href="#DejaVuSans-30" transform="translate(109.116211 39.046875)scale(0.7)"/>
      </g>
     </g>
    </g>
    <g id="text_11">
     <!-- Eingabegröße -->
     <g transform="translate(182.209588 343.276563)scale(0.1 -0.1)">
      <defs>
       <path id="DejaVuSans-45" d="M 628 4666 
L 3578 4666 
L 3578 4134 
L 1259 4134 
L 1259 2753 
L 3481 2753 
L 3481 2222 
L 1259 2222 
L 1259 531 
L 3634 531 
L 3634 0 
L 628 0 
L 628 4666 
z
" transform="scale(0.015625)"/>
       <path id="DejaVuSans-69" d="M 603 3500 
L 1178 3500 
L 1178 0 
L 603 0 
L 603 3500 
z
M 603 4863 
L 1178 4863 
L 1178 4134 
L 603 4134 
L 603 4863 
z
" transform="scale(0.015625)"/>
       <path id="DejaVuSans-6e" d="M 3513 2113 
L 3513 0 
L 2938 0 
L 2938 2094 
Q 2938 2591 2744 2837 
Q 2550 3084 2163 3084 
Q 1697 3084 1428 2787 
Q 1159 2491 1159 1978 
L 1159 0 
L 581 0 
L 581 3500 
L 1159 3500 
L 1159 2956 
Q 1366 3272 1645 3428 
Q 1925 3584 2291 3584 
Q 2894 3584 3203 3211 
Q 3513 2838 3513 2113 
z
" transform="scale(0.015625)"/>
       <path id="DejaVuSans-67" d="M 2906 1791 
Q 2906 2416 2648 2759 
Q 2391 3103 1925 3103 
Q 1463 3103 1205 2759 
Q 947 2416 947 1791 
Q 947 1169 1205 825 
Q 1463 481 1925 481 
Q 2391 481 2648 825 
Q 2906 1169 2906 1791 
z
M 3481 434 
Q 3481 -459 3084 -895 
Q 2688 -1331 1869 -1331 
Q 1566 -1331 1297 -1286 
Q 1028 -1241 775 -1147 
L 775 -588 
Q 1028 -725 1275 -790 
Q 1522 -856 1778 -856 
Q 2344 -856 2625 -561 
Q 2906 -266 2906 331 
L 2906 616 
Q 2728 306 2450 153 
Q 2172 0 1784 0 
Q 1141 0 747 490 
Q 353 981 353 1791 
Q 353 2603 747 3093 
Q 1141 3584 1784 3584 
Q 2172 3584 2450 3431 
Q 2728 3278 2906 2969 
L 2906 3500 
L 3481 3500 
L 3481 434 
z
" transform="scale(0.015625)"/>
       <path id="DejaVuSans-61" d="M 2194 1759 
Q 1497 1759 1228 1600 
Q 959 1441 959 1056 
Q 959 750 1161 570 
Q 1363 391 1709 391 
Q 2188 391 2477 730 
Q 2766 1069 2766 1631 
L 2766 1759 
L 2194 1759 
z
M 3341 1997 
L 3341 0 
L 2766 0 
L 2766 531 
Q 2569 213 2275 61 
Q 1981 -91 1556 -91 
Q 1019 -91 701 211 
Q 384 513 384 1019 
Q 384 1609 779 1909 
Q 1175 2209 1959 2209 
L 2766 2209 
L 2766 2266 
Q 2766 2663 2505 2880 
Q 2244 3097 1772 3097 
Q 1472 3097 1187 3025 
Q 903 2953 641 2809 
L 641 3341 
Q 956 3463 1253 3523 
Q 1550 3584 1831 3584 
Q 2591 3584 2966 3190 
Q 3341 2797 3341 1997 
z
" transform="scale(0.015625)"/>
       <path id="DejaVuSans-62" d="M 3116 1747 
Q 3116 2381 2855 2742 
Q 2594 3103 2138 3103 
Q 1681 3103 1420 2742 
Q 1159 2381 1159 1747 
Q 1159 1113 1420 752 
Q 1681 391 2138 391 
Q 2594 391 2855 752 
Q 3116 1113 3116 1747 
z
M 1159 2969 
Q 1341 3281 1617 3432 
Q 1894 3584 2278 3584 
Q 2916 3584 3314 3078 
Q 3713 2572 3713 1747 
Q 3713 922 3314 415 
Q 2916 -91 2278 -91 
Q 1894 -91 1617 61 
Q 1341 213 1159 525 
L 1159 0 
L 581 0 
L 581 4863 
L 1159 4863 
L 1159 2969 
z
" transform="scale(0.015625)"/>
       <path id="DejaVuSans-65" d="M 3597 1894 
L 3597 1613 
L 953 1613 
Q 991 1019 1311 708 
Q 1631 397 2203 397 
Q 2534 397 2845 478 
Q 3156 559 3463 722 
L 3463 178 
Q 3153 47 2828 -22 
Q 2503 -91 2169 -91 
Q 1331 -91 842 396 
Q 353 884 353 1716 
Q 353 2575 817 3079 
Q 1281 3584 2069 3584 
Q 2775 3584 3186 3129 
Q 3597 2675 3597 1894 
z
M 3022 2063 
Q 3016 2534 2758 2815 
Q 2500 3097 2075 3097 
Q 1594 3097 1305 2825 
Q 1016 2553 972 2059 
L 3022 2063 
z
" transform="scale(0.015625)"/>
       <path id="DejaVuSans-72" d="M 2631 2963 
Q 2534 3019 2420 3045 
Q 2306 3072 2169 3072 
Q 1681 3072 1420 2755 
Q 1159 2438 1159 1844 
L 1159 0 
L 581 0 
L 581 3500 
L 1159 3500 
L 1159 2956 
Q 1341 3275 1631 3429 
Q 1922 3584 2338 3584 
Q 2397 3584 2469 3576 
Q 2541 3569 2628 3553 
L 2631 2963 
z
" transform="scale(0.015625)"/>
       <path id="DejaVuSans-f6" d="M 1959 3097 
Q 1497 3097 1228 2736 
Q 959 2375 959 1747 
Q 959 1119 1226 758 
Q 1494 397 1959 397 
Q 2419 397 2687 759 
Q 2956 1122 2956 1747 
Q 2956 2369 2687 2733 
Q 2419 3097 1959 3097 
z
M 1959 3584 
Q 2709 3584 3137 3096 
Q 3566 2609 3566 1747 
Q 3566 888 3137 398 
Q 2709 -91 1959 -91 
Q 1206 -91 779 398 
Q 353 888 353 1747 
Q 353 2609 779 3096 
Q 1206 3584 1959 3584 
z
M 2254 4850 
L 2888 4850 
L 2888 4219 
L 2254 4219 
L 2254 4850 
z
M 1032 4850 
L 1666 4850 
L 1666 4219 
L 1032 4219 
L 1032 4850 
z
" transform="scale(0.015625)"/>
       <path id="DejaVuSans-df" d="M 581 3553 
Q 581 4178 954 4520 
Q 1328 4863 2009 4863 
Q 2659 4863 3001 4500 
Q 3344 4138 3353 3438 
Q 2881 3413 2618 3233 
Q 2356 3053 2356 2753 
Q 2356 2606 2447 2479 
Q 2538 2353 2741 2222 
L 2919 2106 
Q 3438 1775 3588 1553 
Q 3738 1331 3738 1019 
Q 3738 481 3386 195 
Q 3034 -91 2375 -91 
Q 2175 -91 1962 -52 
Q 1750 -13 1522 63 
L 1522 575 
Q 1772 481 1990 436 
Q 2209 391 2413 391 
Q 2775 391 2962 539 
Q 3150 688 3150 972 
Q 3150 1169 3058 1300 
Q 2966 1431 2650 1625 
L 2363 1797 
Q 2063 1981 1927 2192 
Q 1791 2403 1791 2688 
Q 1791 3084 2052 3353 
Q 2313 3622 2784 3713 
Q 2759 4034 2554 4209 
Q 2350 4384 1997 4384 
Q 1591 4384 1378 4167 
Q 1166 3950 1166 3541 
L 1166 0 
L 581 0 
L 581 3553 
z
" transform="scale(0.015625)"/>
      </defs>
      <use xlink:href="#DejaVuSans-45"/>
      <use xlink:href="#DejaVuSans-69" x="63.183594"/>
      <use xlink:href="#DejaVuSans-6e" x="90.966797"/>
      <use xlink:href="#DejaVuSans-67" x="154.345703"/>
      <use xlink:href="#DejaVuSans-61" x="217.822266"/>
      <use xlink:href="#DejaVuSans-62" x="279.101562"/>
      <use xlink:href="#DejaVuSans-65" x="342.578125"/>
      <use xlink:href="#DejaVuSans-67" x="404.101562"/>
      <use xlink:href="#DejaVuSans-72" x="467.578125"/>
      <use xlink:href="#DejaVuSans-f6" x="506.441406"/>
      <use xlink:href="#DejaVuSans-df" x="567.623047"/>
      <use xlink:href="#DejaVuSans-65" x="630.611328"/>
     </g>
    </g>
   </g>
   <g id="matplotlib.axis_2">
    <g id="ytick_1">
     <g id="line2d_21">
      <path d="M 90 315 
L 343.636364 315 
" clip-path="url(#p3d529035e6)" style="fill: none; stroke: #b0b0b0; stroke-width: 0.8; stroke-linecap: square"/>
     </g>
     <g id="line2d_22">
      <defs>
       <path id="m4973f77f80" d="M 0 0 
L -3.5 0 
" style="stroke: #000000; stroke-width: 0.8"/>
      </defs>
      <g>
       <use xlink:href="#m4973f77f80" x="90" y="315" style="stroke: #000000; stroke-width: 0.8"/>
      </g>
     </g>
     <g id="text_12">
      <!-- 1.0 -->
      <g transform="translate(67.096875 318.799219)scale(0.1 -0.1)">
       <defs>
        <path id="DejaVuSans-2e" d="M 684 794 
L 1344 794 
L 1344 0 
L 684 0 
L 684 794 
z
" transform="scale(0.015625)"/>
       </defs>
       <use xlink:href="#DejaVuSans-31"/>
       <use xlink:href="#DejaVuSans-2e" x="63.623047"/>
       <use xlink:href="#DejaVuSans-30" x="95.410156"/>
      </g>
     </g>
    </g>
    <g id="ytick_2">
     <g id="line2d_23">
      <path d="M 90 281.025 
L 343.636364 281.025 
" clip-path="url(#p3d529035e6)" style="fill: none; stroke: #b0b0b0; stroke-width: 0.8; stroke-linecap: square"/>
     </g>
     <g id="line2d_24">
      <g>
       <use xlink:href="#m4973f77f80" x="90" y="281.025" style="stroke: #000000; stroke-width: 0.8"/>
      </g>
     </g>
     <g id="text_13">
      <!-- 1.5 -->
      <g transform="translate(67.096875 284.824219)scale(0.1 -0.1)">
       <defs>
        <path id="DejaVuSans-35" d="M 691 4666 
L 3169 4666 
L 3169 4134 
L 1269 4134 
L 1269 2991 
Q 1406 3038 1543 3061 
Q 1681 3084 1819 3084 
Q 2600 3084 3056 2656 
Q 3513 2228 3513 1497 
Q 3513 744 3044 326 
Q 2575 -91 1722 -91 
Q 1428 -91 1123 -41 
Q 819 9 494 109 
L 494 744 
Q 775 591 1075 516 
Q 1375 441 1709 441 
Q 2250 441 2565 725 
Q 2881 1009 2881 1497 
Q 2881 1984 2565 2268 
Q 2250 2553 1709 2553 
Q 1456 2553 1204 2497 
Q 953 2441 691 2322 
L 691 4666 
z
" transform="scale(0.015625)"/>
       </defs>
       <use xlink:href="#DejaVuSans-31"/>
       <use xlink:href="#DejaVuSans-2e" x="63.623047"/>
       <use xlink:href="#DejaVuSans-35" x="95.410156"/>
      </g>
     </g>
    </g>
    <g id="ytick_3">
     <g id="line2d_25">
      <path d="M 90 247.05 
L 343.636364 247.05 
" clip-path="url(#p3d529035e6)" style="fill: none; stroke: #b0b0b0; stroke-width: 0.8; stroke-linecap: square"/>
     </g>
     <g id="line2d_26">
      <g>
       <use xlink:href="#m4973f77f80" x="90" y="247.05" style="stroke: #000000; stroke-width: 0.8"/>
      </g>
     </g>
     <g id="text_14">
      <!-- 2.0 -->
      <g transform="translate(67.096875 250.849219)scale(0.1 -0.1)">
       <use xlink:href="#DejaVuSans-32"/>
       <use xlink:href="#DejaVuSans-2e" x="63.623047"/>
       <use xlink:href="#DejaVuSans-30" x="95.410156"/>
      </g>
     </g>
    </g>
    <g id="ytick_4">
     <g id="line2d_27">
      <path d="M 90 213.075 
L 343.636364 213.075 
" clip-path="url(#p3d529035e6)" style="fill: none; stroke: #b0b0b0; stroke-width: 0.8; stroke-linecap: square"/>
     </g>
     <g id="line2d_28">
      <g>
       <use xlink:href="#m4973f77f80" x="90" y="213.075" style="stroke: #000000; stroke-width: 0.8"/>
      </g>
     </g>
     <g id="text_15">
      <!-- 2.5 -->
      <g transform="translate(67.096875 216.874219)scale(0.1 -0.1)">
       <use xlink:href="#DejaVuSans-32"/>
       <use xlink:href="#DejaVuSans-2e" x="63.623047"/>
       <use xlink:href="#DejaVuSans-35" x="95.410156"/>
      </g>
     </g>
    </g>
    <g id="ytick_5">
     <g id="line2d_29">
      <path d="M 90 179.1 
L 343.636364 179.1 
" clip-path="url(#p3d529035e6)" style="fill: none; stroke: #b0b0b0; stroke-width: 0.8; stroke-linecap: square"/>
     </g>
     <g id="line2d_30">
      <g>
       <use xlink:href="#m4973f77f80" x="90" y="179.1" style="stroke: #000000; stroke-width: 0.8"/>
      </g>
     </g>
     <g id="text_16">
      <!-- 3.0 -->
      <g transform="translate(67.096875 182.899219)scale(0.1 -0.1)">
       <defs>
        <path id="DejaVuSans-33" d="M 2597 2516 
Q 3050 2419 3304 2112 
Q 3559 1806 3559 1356 
Q 3559 666 3084 287 
Q 2609 -91 1734 -91 
Q 1441 -91 1130 -33 
Q 819 25 488 141 
L 488 750 
Q 750 597 1062 519 
Q 1375 441 1716 441 
Q 2309 441 2620 675 
Q 2931 909 2931 1356 
Q 2931 1769 2642 2001 
Q 2353 2234 1838 2234 
L 1294 2234 
L 1294 2753 
L 1863 2753 
Q 2328 2753 2575 2939 
Q 2822 3125 2822 3475 
Q 2822 3834 2567 4026 
Q 2313 4219 1838 4219 
Q 1578 4219 1281 4162 
Q 984 4106 628 3988 
L 628 4550 
Q 988 4650 1302 4700 
Q 1616 4750 1894 4750 
Q 2613 4750 3031 4423 
Q 3450 4097 3450 3541 
Q 3450 3153 3228 2886 
Q 3006 2619 2597 2516 
z
" transform="scale(0.015625)"/>
       </defs>
       <use xlink:href="#DejaVuSans-33"/>
       <use xlink:href="#DejaVuSans-2e" x="63.623047"/>
       <use xlink:href="#DejaVuSans-30" x="95.410156"/>
      </g>
     </g>
    </g>
    <g id="ytick_6">
     <g id="line2d_31">
      <path d="M 90 145.125 
L 343.636364 145.125 
" clip-path="url(#p3d529035e6)" style="fill: none; stroke: #b0b0b0; stroke-width: 0.8; stroke-linecap: square"/>
     </g>
     <g id="line2d_32">
      <g>
       <use xlink:href="#m4973f77f80" x="90" y="145.125" style="stroke: #000000; stroke-width: 0.8"/>
      </g>
     </g>
     <g id="text_17">
      <!-- 3.5 -->
      <g transform="translate(67.096875 148.924219)scale(0.1 -0.1)">
       <use xlink:href="#DejaVuSans-33"/>
       <use xlink:href="#DejaVuSans-2e" x="63.623047"/>
       <use xlink:href="#DejaVuSans-35" x="95.410156"/>
      </g>
     </g>
    </g>
    <g id="ytick_7">
     <g id="line2d_33">
      <path d="M 90 111.15 
L 343.636364 111.15 
" clip-path="url(#p3d529035e6)" style="fill: none; stroke: #b0b0b0; stroke-width: 0.8; stroke-linecap: square"/>
     </g>
     <g id="line2d_34">
      <g>
       <use xlink:href="#m4973f77f80" x="90" y="111.15" style="stroke: #000000; stroke-width: 0.8"/>
      </g>
     </g>
     <g id="text_18">
      <!-- 4.0 -->
      <g transform="translate(67.096875 114.949219)scale(0.1 -0.1)">
       <use xlink:href="#DejaVuSans-34"/>
       <use xlink:href="#DejaVuSans-2e" x="63.623047"/>
       <use xlink:href="#DejaVuSans-30" x="95.410156"/>
      </g>
     </g>
    </g>
    <g id="ytick_8">
     <g id="line2d_35">
      <path d="M 90 77.175 
L 343.636364 77.175 
" clip-path="url(#p3d529035e6)" style="fill: none; stroke: #b0b0b0; stroke-width: 0.8; stroke-linecap: square"/>
     </g>
     <g id="line2d_36">
      <g>
       <use xlink:href="#m4973f77f80" x="90" y="77.175" style="stroke: #000000; stroke-width: 0.8"/>
      </g>
     </g>
     <g id="text_19">
      <!-- 4.5 -->
      <g transform="translate(67.096875 80.974219)scale(0.1 -0.1)">
       <use xlink:href="#DejaVuSans-34"/>
       <use xlink:href="#DejaVuSans-2e" x="63.623047"/>
       <use xlink:href="#DejaVuSans-35" x="95.410156"/>
      </g>
     </g>
    </g>
    <g id="ytick_9">
     <g id="line2d_37">
      <path d="M 90 43.2 
L 343.636364 43.2 
" clip-path="url(#p3d529035e6)" style="fill: none; stroke: #b0b0b0; stroke-width: 0.8; stroke-linecap: square"/>
     </g>
     <g id="line2d_38">
      <g>
       <use xlink:href="#m4973f77f80" x="90" y="43.2" style="stroke: #000000; stroke-width: 0.8"/>
      </g>
     </g>
     <g id="text_20">
      <!-- 5.0 -->
      <g transform="translate(67.096875 46.999219)scale(0.1 -0.1)">
       <use xlink:href="#DejaVuSans-35"/>
       <use xlink:href="#DejaVuSans-2e" x="63.623047"/>
       <use xlink:href="#DejaVuSans-30" x="95.410156"/>
      </g>
     </g>
    </g>
    <g id="text_21">
     <!-- Laufzeit pro Element [ns] -->
     <g transform="translate(61.017187 242.248437)rotate(-90)scale(0.1 -0.1)">
      <defs>
       <path id="DejaVuSans-4c" d="M 628 4666 
L 1259 4666 
L 1259 531 
L 3531 531 
L 3531 0 
L 628 0 
L 628 4666 
z
" transform="scale(0.015625)"/>
       <path id="DejaVuSans-75" d="M 544 1381 
L 544 3500 
L 1119 3500 
L 1119 1403 
Q 1119 906 1312 657 
Q 1506 409 1894 409 
Q 2359 409 2629 706 
Q 2900 1003 2900 1516 
L 2900 3500 
L 3475 3500 
L 3475 0 
L 2900 0 
L 2900 538 
Q 2691 219 2414 64 
Q 2138 -91 1772 -91 
Q 1169 -91 856 284 
Q 544 659 544 1381 
z
M 1991 3584 
L 1991 3584 
z
" transform="scale(0.015625)"/>
       <path id="DejaVuSans-66" d="M 2375 4863 
L 2375 4384 
L 1825 4384 
Q 1516 4384 1395 4259 
Q 1275 4134 1275 3809 
L 1275 3500 
L 2222 3500 
L 2222 3053 
L 1275 3053 
L 1275 0 
L 697 0 
L 697 3053 
L 147 3053 
L 147 3500 
L 697 3500 
L 697 3744 
Q 697 4328 969 4595 
Q 1241 4863 1831 4863 
L 2375 4863 
z
" transform="scale(0.015625)"/>
       <path id="DejaVuSans-7a" d="M 353 3500 
L 3084 3500 
L 3084 2975 
L 922 459 
L 3084 459 
L 3084 0 
L 275 0 
L 275 525 
L 2438 3041 
L 353 3041 
L 353 3500 
z
" transform="scale(0.015625)"/>
       <path id="DejaVuSans-74" d="M 1172 4494 
L 1172 3500 
L 2356 3500 
L 2356 3053 
L 1172 3053 
L 1172 1153 
Q 1172 725 1289 603 
Q 1406 481 1766 481 
L 2356 481 
L 2356 0 
L 1766 0 
Q 1100 0 847 248 
Q 594 497 594 1153 
L 594 3053 
L 172 3053 
L 172 3500 
L 594 3500 
L 594 4494 
L 1172 4494 
z
" transform="scale(0.015625)"/>
       <path id="DejaVuSans-20" transform="scale(0.015625)"/>
       <path id="DejaVuSans-70" d="M 1159 525 
L 1159 -1331 
L 581 -1331 
L 581 3500 
L 1159 3500 
L 1159 2969 
Q 1341 3281 1617 3432 
Q 1894 3584 2278 3584 
Q 2916 3584 3314 3078 
Q 3713 2572 3713 1747 
Q 3713 922 3314 415 
Q 2916 -91 2278 -91 
Q 1894 -91 1617 61 
Q 1341 213 1159 525 
z
M 3116 1747 
Q 3116 2381 2855 2742 
Q 2594 3103 2138 3103 
Q 1681 3103 1420 2742 
Q 1159 2381 1159 1747 
Q 1159 1113 1420 752 
Q 1681 391 2138 391 
Q 2594 391 2855 752 
Q 3116 1113 3116 1747 
z
" transform="scale(0.015625)"/>
       <path id="DejaVuSans-6f" d="M 1959 3097 
Q 1497 3097 1228 2736 
Q 959 2375 959 1747 
Q 959 1119 1226 758 
Q 1494 397 1959 397 
Q 2419 397 2687 759 
Q 2956 1122 2956 1747 
Q 2956 2369 2687 2733 
Q 2419 3097 1959 3097 
z
M 1959 3584 
Q 2709 3584 3137 3096 
Q 3566 2609 3566 1747 
Q 3566 888 3137 398 
Q 2709 -91 1959 -91 
Q 1206 -91 779 398 
Q 353 888 353 1747 
Q 353 2609 779 3096 
Q 1206 3584 1959 3584 
z
" transform="scale(0.015625)"/>
       <path id="DejaVuSans-6c" d="M 603 4863 
L 1178 4863 
L 1178 0 
L 603 0 
L 603 4863 
z
" transform="scale(0.015625)"/>
       <path id="DejaVuSans-6d" d="M 3328 2828 
Q 3544 3216 3844 3400 
Q 4144 3584 4550 3584 
Q 5097 3584 5394 3201 
Q 5691 2819 5691 2113 
L 5691 0 
L 5113 0 
L 5113 2094 
Q 5113 2597 4934 2840 
Q 4756 3084 4391 3084 
Q 3944 3084 3684 2787 
Q 3425 2491 3425 1978 
L 3425 0 
L 2847 0 
L 2847 2094 
Q 2847 2600 2669 2842 
Q 2491 3084 2119 3084 
Q 1678 3084 1418 2786 
Q 1159 2488 1159 1978 
L 1159 0 
L 581 0 
L 581 3500 
L 1159 3500 
L 1159 2956 
Q 1356 3278 1631 3431 
Q 1906 3584 2284 3584 
Q 2666 3584 2933 3390 
Q 3200 3197 3328 2828 
z
" transform="scale(0.015625)"/>
       <path id="DejaVuSans-5b" d="M 550 4863 
L 1875 4863 
L 1875 4416 
L 1125 4416 
L 1125 -397 
L 1875 -397 
L 1875 -844 
L 550 -844 
L 550 4863 
z
" transform="scale(0.015625)"/>
       <path id="DejaVuSans-73" d="M 2834 3397 
L 2834 2853 
Q 2591 2978 2328 3040 
Q 2066 3103 1784 3103 
Q 1356 3103 1142 2972 
Q 928 2841 928 2578 
Q 928 2378 1081 2264 
Q 1234 2150 1697 2047 
L 1894 2003 
Q 2506 1872 2764 1633 
Q 3022 1394 3022 966 
Q 3022 478 2636 193 
Q 2250 -91 1575 -91 
Q 1294 -91 989 -36 
Q 684 19 347 128 
L 347 722 
Q 666 556 975 473 
Q 1284 391 1588 391 
Q 1994 391 2212 530 
Q 2431 669 2431 922 
Q 2431 1156 2273 1281 
Q 2116 1406 1581 1522 
L 1381 1569 
Q 847 1681 609 1914 
Q 372 2147 372 2553 
Q 372 3047 722 3315 
Q 1072 3584 1716 3584 
Q 2034 3584 2315 3537 
Q 2597 3491 2834 3397 
z
" transform="scale(0.015625)"/>
       <path id="DejaVuSans-5d" d="M 1947 4863 
L 1947 -844 
L 622 -844 
L 622 -397 
L 1369 -397 
L 1369 4416 
L 622 4416 
L 622 4863 
L 1947 4863 
z
" transform="scale(0.015625)"/>
      </defs>
      <use xlink:href="#DejaVuSans-4c"/>
      <use xlink:href="#DejaVuSans-61" x="55.712891"/>
      <use xlink:href="#DejaVuSans-75" x="116.992188"/>
      <use xlink:href="#DejaVuSans-66" x="180.371094"/>
      <use xlink:href="#DejaVuSans-7a" x="215.576172"/>
      <use xlink:href="#DejaVuSans-65" x="268.066406"/>
      <use xlink:href="#DejaVuSans-69" x="329.589844"/>
      <use xlink:href="#DejaVuSans-74" x="357.373047"/>
      <use xlink:href="#DejaVuSans-20" x="396.582031"/>
      <use xlink:href="#DejaVuSans-70" x="428.369141"/>
      <use xlink:href="#DejaVuSans-72" x="491.845703"/>
      <use xlink:href="#DejaVuSans-6f" x="530.708984"/>
      <use xlink:href="#DejaVuSans-20" x="591.890625"/>
      <use xlink:href="#DejaVuSans-45" x="623.677734"/>
      <use xlink:href="#DejaVuSans-6c" x="686.861328"/>
      <use xlink:href="#DejaVuSans-65" x="714.644531"/>
      <use xlink:href="#DejaVuSans-6d" x="776.167969"/>
      <use xlink:href="#DejaVuSans-65" x="873.580078"/>
      <use xlink:href="#DejaVuSans-6e" x="935.103516"/>
      <use xlink:href="#DejaVuSans-74" x="998.482422"/>
      <use xlink:href="#DejaVuSans-20" x="1037.691406"/>
      <use xlink:href="#DejaVuSans-5b" x="1069.478516"/>
      <use xlink:href="#DejaVuSans-6e" x="1108.492188"/>
      <use xlink:href="#DejaVuSans-73" x="1171.871094"/>
      <use xlink:href="#DejaVuSans-5d" x="1223.970703"/>
     </g>
    </g>
   </g>
   <g id="line2d_39">
    <path d="M 61.818182 335.797288 
L 75.909091 286.092015 
L 90 258.463773 
L 104.090909 242.731166 
L 118.181818 235.358034 
L 132.272727 231.366894 
L 146.363636 223.920748 
L 160.454545 226.450963 
L 174.545455 226.66073 
L 188.636364 227.277549 
L 202.727273 227.545766 
L 216.818182 227.440625 
L 230.909091 227.26522 
L 245 227.166678 
L 259.090909 226.974115 
L 273.181818 226.421868 
L 287.272727 216.180494 
L 301.363636 199.380232 
L 315.454545 187.292708 
L 329.545455 178.922525 
L 343.636364 168.836351 
L 352.916502 -1 
" clip-path="url(#p3d529035e6)" style="fill: none; stroke: #1f77b4; stroke-width: 1.5; stroke-linecap: square"/>
   </g>
   <g id="line2d_40">
    <path d="M 61.818182 335.885899 
L 75.909091 286.258475 
L 90 259.558586 
L 104.090909 243.146675 
L 118.181818 235.689282 
L 132.272727 231.434385 
L 146.363636 224.784299 
L 160.454545 226.491077 
L 174.545455 226.961058 
L 188.636364 227.585033 
L 202.727273 227.823279 
L 216.818182 228.000028 
L 230.909091 228.338275 
L 245 227.374502 
L 259.090909 227.389742 
L 273.181818 228.670052 
L 287.272727 221.45364 
L 301.363636 202.462584 
L 315.454545 188.893791 
L 329.545455 180.635561 
L 343.636364 175.298282 
L 353.766851 -1 
" clip-path="url(#p3d529035e6)" style="fill: none; stroke: #ff7f0e; stroke-width: 1.5; stroke-linecap: square"/>
   </g>
   <g id="line2d_41">
    <path d="M 61.818182 335.869088 
L 75.909091 286.199151 
L 90 259.486137 
L 104.090909 243.032403 
L 118.181818 234.680623 
L 132.272727 230.988143 
L 146.363636 224.614501 
L 160.454545 226.438313 
L 174.545455 227.02564 
L 188.636364 227.124095 
L 202.727273 227.720611 
L 216.818182 227.83582 
L 230.909091 226.885052 
L 245 226.966904 
L 259.090909 227.321603 
L 273.181818 228.559796 
L 287.272727 219.760916 
L 301.363636 201.136159 
L 315.454545 187.721085 
L 329.545455 179.892869 
L 343.636364 168.991529 
L 356.066015 -1 
" clip-path="url(#p3d529035e6)" style="fill: none; stroke: #2ca02c; stroke-width: 1.5; stroke-linecap: square"/>
   </g>
   <g id="line2d_42">
    <path d="M 61.818182 335.486414 
L 75.909091 286.193081 
L 90 259.598853 
L 104.090909 243.357245 
L 118.181818 235.625697 
L 132.272727 230.744504 
L 146.363636 224.815249 
L 160.454545 226.32853 
L 174.545455 227.041451 
L 188.636364 227.511834 
L 202.727273 226.413785 
L 216.818182 227.709753 
L 230.909091 228.27512 
L 245 227.497886 
L 259.090909 227.297733 
L 273.181818 226.849596 
L 287.272727 216.634185 
L 301.363636 199.617046 
L 315.454545 187.047462 
L 329.545455 178.53031 
L 343.636364 174.719662 
L 357.310694 -1 
" clip-path="url(#p3d529035e6)" style="fill: none; stroke: #d62728; stroke-width: 1.5; stroke-linecap: square"/>
   </g>
   <g id="line2d_43">
    <path d="M 61.818182 335.891338 
L 75.909091 286.316146 
L 90 259.480449 
L 104.090909 242.939234 
L 118.181818 235.632464 
L 132.272727 231.631045 
L 146.363636 224.166333 
L 160.454545 225.171748 
L 174.545455 227.199251 
L 188.636364 227.473403 
L 202.727273 227.726705 
L 216.818182 227.8678 
L 230.909091 227.947471 
L 245 227.356906 
L 259.090909 227.456652 
L 273.181818 228.689662 
L 287.272727 215.743061 
L 301.363636 199.087661 
L 315.454545 187.401958 
L 329.545455 179.58524 
L 343.636364 174.024408 
L 357.727273 3.753398 
L 358.095377 -1 
" clip-path="url(#p3d529035e6)" style="fill: none; stroke: #9467bd; stroke-width: 1.5; stroke-linecap: square"/>
   </g>
   <g id="line2d_44">
    <path d="M 61.818182 335.871347 
L 75.909091 286.234264 
L 90 259.571707 
L 104.090909 243.293545 
L 118.181818 234.330439 
L 132.272727 231.102937 
L 146.363636 224.529794 
L 160.454545 224.552319 
L 174.545455 226.323091 
L 188.636364 227.473527 
L 202.727273 227.770018 
L 216.818182 227.895225 
L 230.909091 228.142186 
L 245 227.078795 
L 259.090909 227.344877 
L 273.181818 228.279165 
L 287.272727 221.077742 
L 301.363636 201.624112 
L 315.454545 188.854957 
L 329.545455 180.638379 
L 343.636364 170.873501 
L 357.727273 16.638464 
L 359.172527 -1 
" clip-path="url(#p3d529035e6)" style="fill: none; stroke: #8c564b; stroke-width: 1.5; stroke-linecap: square"/>
   </g>
   <g id="line2d_45">
    <path d="M 61.818182 335.890596 
L 75.909091 286.262089 
L 90 259.504661 
L 104.090909 242.335296 
L 118.181818 235.333431 
L 132.272727 231.506836 
L 146.363636 224.668833 
L 160.454545 225.38248 
L 174.545455 225.392412 
L 188.636364 227.415775 
L 202.727273 227.771251 
L 216.818182 227.94553 
L 230.909091 228.230476 
L 245 227.19037 
L 259.090909 227.250593 
L 273.181818 224.926374 
L 287.272727 216.063897 
L 301.363636 198.847847 
L 315.454545 187.717409 
L 329.545455 179.901261 
L 343.636364 173.126793 
L 357.727273 15.551675 
L 359.188289 -1 
" clip-path="url(#p3d529035e6)" style="fill: none; stroke: #e377c2; stroke-width: 1.5; stroke-linecap: square"/>
   </g>
   <g id="line2d_46">
    <path d="M 61.818182 335.866308 
L 75.909091 285.694173 
L 90 259.607098 
L 104.090909 243.358814 
L 118.181818 235.603117 
L 132.272727 231.586519 
L 146.363636 224.799877 
L 160.454545 226.583101 
L 174.545455 227.199472 
L 188.636364 227.567929 
L 202.727273 227.843212 
L 216.818182 227.739463 
L 230.909091 228.26631 
L 245 227.405323 
L 259.090909 227.093614 
L 273.181818 228.102432 
L 287.272727 221.673468 
L 301.363636 202.556844 
L 315.454545 188.884663 
L 329.545455 180.488981 
L 343.636364 169.60737 
L 357.727273 9.319853 
L 358.67792 -1 
" clip-path="url(#p3d529035e6)" style="fill: none; stroke: #7f7f7f; stroke-width: 1.5; stroke-linecap: square"/>
   </g>
   <g id="line2d_47">
    <path d="M 61.818182 335.829524 
L 75.909091 286.288267 
L 90 259.430752 
L 104.090909 242.546086 
L 118.181818 235.502602 
L 132.272727 231.579137 
L 146.363636 224.595989 
L 160.454545 224.1286 
L 174.545455 226.124649 
L 188.636364 227.373705 
L 202.727273 227.847922 
L 216.818182 228.011299 
L 230.909091 228.004332 
L 245 226.990637 
L 259.090909 227.29883 
L 273.181818 228.187036 
L 287.272727 217.867343 
L 301.363636 200.212529 
L 315.454545 187.610798 
L 329.545455 179.508811 
L 343.636364 174.200672 
L 357.727273 9.007799 
L 358.653024 -1 
" clip-path="url(#p3d529035e6)" style="fill: none; stroke: #bcbd22; stroke-width: 1.5; stroke-linecap: square"/>
   </g>
   <g id="patch_3">
    <path d="M 90 315 
L 90 43.2 
" style="fill: none; stroke: #000000; stroke-width: 0.8; stroke-linejoin: miter; stroke-linecap: square"/>
   </g>
   <g id="patch_4">
    <path d="M 343.636364 315 
L 343.636364 43.2 
" style="fill: none; stroke: #000000; stroke-width: 0.8; stroke-linejoin: miter; stroke-linecap: square"/>
   </g>
   <g id="patch_5">
    <path d="M 90 315 
L 343.636364 315 
" style="fill: none; stroke: #000000; stroke-width: 0.8; stroke-linejoin: miter; stroke-linecap: square"/>
   </g>
   <g id="patch_6">
    <path d="M 90 43.2 
L 343.636364 43.2 
" style="fill: none; stroke: #000000; stroke-width: 0.8; stroke-linejoin: miter; stroke-linecap: square"/>
   </g>
   <g id="text_22">
    <!-- Konstanter Schwellenwert -->
    <g transform="translate(138.580057 37.2)scale(0.12 -0.12)">
     <defs>
      <path id="DejaVuSans-4b" d="M 628 4666 
L 1259 4666 
L 1259 2694 
L 3353 4666 
L 4166 4666 
L 1850 2491 
L 4331 0 
L 3500 0 
L 1259 2247 
L 1259 0 
L 628 0 
L 628 4666 
z
" transform="scale(0.015625)"/>
      <path id="DejaVuSans-53" d="M 3425 4513 
L 3425 3897 
Q 3066 4069 2747 4153 
Q 2428 4238 2131 4238 
Q 1616 4238 1336 4038 
Q 1056 3838 1056 3469 
Q 1056 3159 1242 3001 
Q 1428 2844 1947 2747 
L 2328 2669 
Q 3034 2534 3370 2195 
Q 3706 1856 3706 1288 
Q 3706 609 3251 259 
Q 2797 -91 1919 -91 
Q 1588 -91 1214 -16 
Q 841 59 441 206 
L 441 856 
Q 825 641 1194 531 
Q 1563 422 1919 422 
Q 2459 422 2753 634 
Q 3047 847 3047 1241 
Q 3047 1584 2836 1778 
Q 2625 1972 2144 2069 
L 1759 2144 
Q 1053 2284 737 2584 
Q 422 2884 422 3419 
Q 422 4038 858 4394 
Q 1294 4750 2059 4750 
Q 2388 4750 2728 4690 
Q 3069 4631 3425 4513 
z
" transform="scale(0.015625)"/>
      <path id="DejaVuSans-63" d="M 3122 3366 
L 3122 2828 
Q 2878 2963 2633 3030 
Q 2388 3097 2138 3097 
Q 1578 3097 1268 2742 
Q 959 2388 959 1747 
Q 959 1106 1268 751 
Q 1578 397 2138 397 
Q 2388 397 2633 464 
Q 2878 531 3122 666 
L 3122 134 
Q 2881 22 2623 -34 
Q 2366 -91 2075 -91 
Q 1284 -91 818 406 
Q 353 903 353 1747 
Q 353 2603 823 3093 
Q 1294 3584 2113 3584 
Q 2378 3584 2631 3529 
Q 2884 3475 3122 3366 
z
" transform="scale(0.015625)"/>
      <path id="DejaVuSans-68" d="M 3513 2113 
L 3513 0 
L 2938 0 
L 2938 2094 
Q 2938 2591 2744 2837 
Q 2550 3084 2163 3084 
Q 1697 3084 1428 2787 
Q 1159 2491 1159 1978 
L 1159 0 
L 581 0 
L 581 4863 
L 1159 4863 
L 1159 2956 
Q 1366 3272 1645 3428 
Q 1925 3584 2291 3584 
Q 2894 3584 3203 3211 
Q 3513 2838 3513 2113 
z
" transform="scale(0.015625)"/>
      <path id="DejaVuSans-77" d="M 269 3500 
L 844 3500 
L 1563 769 
L 2278 3500 
L 2956 3500 
L 3675 769 
L 4391 3500 
L 4966 3500 
L 4050 0 
L 3372 0 
L 2619 2869 
L 1863 0 
L 1184 0 
L 269 3500 
z
" transform="scale(0.015625)"/>
     </defs>
     <use xlink:href="#DejaVuSans-4b"/>
     <use xlink:href="#DejaVuSans-6f" x="60.576172"/>
     <use xlink:href="#DejaVuSans-6e" x="121.757812"/>
     <use xlink:href="#DejaVuSans-73" x="185.136719"/>
     <use xlink:href="#DejaVuSans-74" x="237.236328"/>
     <use xlink:href="#DejaVuSans-61" x="276.445312"/>
     <use xlink:href="#DejaVuSans-6e" x="337.724609"/>
     <use xlink:href="#DejaVuSans-74" x="401.103516"/>
     <use xlink:href="#DejaVuSans-65" x="440.3125"/>
     <use xlink:href="#DejaVuSans-72" x="501.835938"/>
     <use xlink:href="#DejaVuSans-20" x="542.949219"/>
     <use xlink:href="#DejaVuSans-53" x="574.736328"/>
     <use xlink:href="#DejaVuSans-63" x="638.212891"/>
     <use xlink:href="#DejaVuSans-68" x="693.193359"/>
     <use xlink:href="#DejaVuSans-77" x="756.572266"/>
     <use xlink:href="#DejaVuSans-65" x="838.359375"/>
     <use xlink:href="#DejaVuSans-6c" x="899.882812"/>
     <use xlink:href="#DejaVuSans-6c" x="927.666016"/>
     <use xlink:href="#DejaVuSans-65" x="955.449219"/>
     <use xlink:href="#DejaVuSans-6e" x="1016.972656"/>
     <use xlink:href="#DejaVuSans-77" x="1080.351562"/>
     <use xlink:href="#DejaVuSans-65" x="1162.138672"/>
     <use xlink:href="#DejaVuSans-72" x="1223.662109"/>
     <use xlink:href="#DejaVuSans-74" x="1264.775391"/>
    </g>
   </g>
  </g>
  <g id="axes_2">
   <g id="patch_7">
    <path d="M 394.363636 315 
L 648 315 
L 648 43.2 
L 394.363636 43.2 
z
" style="fill: #ffffff"/>
   </g>
   <g id="matplotlib.axis_3">
    <g id="xtick_11">
     <g id="line2d_48">
      <path d="M 394.363636 315 
L 394.363636 43.2 
" clip-path="url(#p89b714e5c7)" style="fill: none; stroke: #b0b0b0; stroke-width: 0.8; stroke-linecap: square"/>
     </g>
     <g id="line2d_49">
      <g>
       <use xlink:href="#m3880aa6da2" x="394.363636" y="315" style="stroke: #000000; stroke-width: 0.8"/>
      </g>
     </g>
     <g id="text_23">
      <!-- $\mathdefault{2^{2}}$ -->
      <g transform="translate(388.763636 329.598437)scale(0.1 -0.1)">
       <use xlink:href="#DejaVuSans-32" transform="translate(0 0.765625)"/>
       <use xlink:href="#DejaVuSans-32" transform="translate(64.580078 39.046875)scale(0.7)"/>
      </g>
     </g>
    </g>
    <g id="xtick_12">
     <g id="line2d_50">
      <path d="M 422.545455 315 
L 422.545455 43.2 
" clip-path="url(#p89b714e5c7)" style="fill: none; stroke: #b0b0b0; stroke-width: 0.8; stroke-linecap: square"/>
     </g>
     <g id="line2d_51">
      <g>
       <use xlink:href="#m3880aa6da2" x="422.545455" y="315" style="stroke: #000000; stroke-width: 0.8"/>
      </g>
     </g>
     <g id="text_24">
      <!-- $\mathdefault{2^{4}}$ -->
      <g transform="translate(416.945455 329.598437)scale(0.1 -0.1)">
       <use xlink:href="#DejaVuSans-32" transform="translate(0 0.684375)"/>
       <use xlink:href="#DejaVuSans-34" transform="translate(64.580078 38.965625)scale(0.7)"/>
      </g>
     </g>
    </g>
    <g id="xtick_13">
     <g id="line2d_52">
      <path d="M 450.727273 315 
L 450.727273 43.2 
" clip-path="url(#p89b714e5c7)" style="fill: none; stroke: #b0b0b0; stroke-width: 0.8; stroke-linecap: square"/>
     </g>
     <g id="line2d_53">
      <g>
       <use xlink:href="#m3880aa6da2" x="450.727273" y="315" style="stroke: #000000; stroke-width: 0.8"/>
      </g>
     </g>
     <g id="text_25">
      <!-- $\mathdefault{2^{6}}$ -->
      <g transform="translate(445.127273 329.598437)scale(0.1 -0.1)">
       <use xlink:href="#DejaVuSans-32" transform="translate(0 0.765625)"/>
       <use xlink:href="#DejaVuSans-36" transform="translate(64.580078 39.046875)scale(0.7)"/>
      </g>
     </g>
    </g>
    <g id="xtick_14">
     <g id="line2d_54">
      <path d="M 478.909091 315 
L 478.909091 43.2 
" clip-path="url(#p89b714e5c7)" style="fill: none; stroke: #b0b0b0; stroke-width: 0.8; stroke-linecap: square"/>
     </g>
     <g id="line2d_55">
      <g>
       <use xlink:href="#m3880aa6da2" x="478.909091" y="315" style="stroke: #000000; stroke-width: 0.8"/>
      </g>
     </g>
     <g id="text_26">
      <!-- $\mathdefault{2^{8}}$ -->
      <g transform="translate(473.309091 329.598437)scale(0.1 -0.1)">
       <use xlink:href="#DejaVuSans-32" transform="translate(0 0.765625)"/>
       <use xlink:href="#DejaVuSans-38" transform="translate(64.580078 39.046875)scale(0.7)"/>
      </g>
     </g>
    </g>
    <g id="xtick_15">
     <g id="line2d_56">
      <path d="M 507.090909 315 
L 507.090909 43.2 
" clip-path="url(#p89b714e5c7)" style="fill: none; stroke: #b0b0b0; stroke-width: 0.8; stroke-linecap: square"/>
     </g>
     <g id="line2d_57">
      <g>
       <use xlink:href="#m3880aa6da2" x="507.090909" y="315" style="stroke: #000000; stroke-width: 0.8"/>
      </g>
     </g>
     <g id="text_27">
      <!-- $\mathdefault{2^{10}}$ -->
      <g transform="translate(499.240909 329.598437)scale(0.1 -0.1)">
       <use xlink:href="#DejaVuSans-32" transform="translate(0 0.765625)"/>
       <use xlink:href="#DejaVuSans-31" transform="translate(64.580078 39.046875)scale(0.7)"/>
       <use xlink:href="#DejaVuSans-30" transform="translate(109.116211 39.046875)scale(0.7)"/>
      </g>
     </g>
    </g>
    <g id="xtick_16">
     <g id="line2d_58">
      <path d="M 535.272727 315 
L 535.272727 43.2 
" clip-path="url(#p89b714e5c7)" style="fill: none; stroke: #b0b0b0; stroke-width: 0.8; stroke-linecap: square"/>
     </g>
     <g id="line2d_59">
      <g>
       <use xlink:href="#m3880aa6da2" x="535.272727" y="315" style="stroke: #000000; stroke-width: 0.8"/>
      </g>
     </g>
     <g id="text_28">
      <!-- $\mathdefault{2^{12}}$ -->
      <g transform="translate(527.422727 329.598437)scale(0.1 -0.1)">
       <use xlink:href="#DejaVuSans-32" transform="translate(0 0.765625)"/>
       <use xlink:href="#DejaVuSans-31" transform="translate(64.580078 39.046875)scale(0.7)"/>
       <use xlink:href="#DejaVuSans-32" transform="translate(109.116211 39.046875)scale(0.7)"/>
      </g>
     </g>
    </g>
    <g id="xtick_17">
     <g id="line2d_60">
      <path d="M 563.454545 315 
L 563.454545 43.2 
" clip-path="url(#p89b714e5c7)" style="fill: none; stroke: #b0b0b0; stroke-width: 0.8; stroke-linecap: square"/>
     </g>
     <g id="line2d_61">
      <g>
       <use xlink:href="#m3880aa6da2" x="563.454545" y="315" style="stroke: #000000; stroke-width: 0.8"/>
      </g>
     </g>
     <g id="text_29">
      <!-- $\mathdefault{2^{14}}$ -->
      <g transform="translate(555.604545 329.598437)scale(0.1 -0.1)">
       <use xlink:href="#DejaVuSans-32" transform="translate(0 0.684375)"/>
       <use xlink:href="#DejaVuSans-31" transform="translate(64.580078 38.965625)scale(0.7)"/>
       <use xlink:href="#DejaVuSans-34" transform="translate(109.116211 38.965625)scale(0.7)"/>
      </g>
     </g>
    </g>
    <g id="xtick_18">
     <g id="line2d_62">
      <path d="M 591.636364 315 
L 591.636364 43.2 
" clip-path="url(#p89b714e5c7)" style="fill: none; stroke: #b0b0b0; stroke-width: 0.8; stroke-linecap: square"/>
     </g>
     <g id="line2d_63">
      <g>
       <use xlink:href="#m3880aa6da2" x="591.636364" y="315" style="stroke: #000000; stroke-width: 0.8"/>
      </g>
     </g>
     <g id="text_30">
      <!-- $\mathdefault{2^{16}}$ -->
      <g transform="translate(583.786364 329.598437)scale(0.1 -0.1)">
       <use xlink:href="#DejaVuSans-32" transform="translate(0 0.765625)"/>
       <use xlink:href="#DejaVuSans-31" transform="translate(64.580078 39.046875)scale(0.7)"/>
       <use xlink:href="#DejaVuSans-36" transform="translate(109.116211 39.046875)scale(0.7)"/>
      </g>
     </g>
    </g>
    <g id="xtick_19">
     <g id="line2d_64">
      <path d="M 619.818182 315 
L 619.818182 43.2 
" clip-path="url(#p89b714e5c7)" style="fill: none; stroke: #b0b0b0; stroke-width: 0.8; stroke-linecap: square"/>
     </g>
     <g id="line2d_65">
      <g>
       <use xlink:href="#m3880aa6da2" x="619.818182" y="315" style="stroke: #000000; stroke-width: 0.8"/>
      </g>
     </g>
     <g id="text_31">
      <!-- $\mathdefault{2^{18}}$ -->
      <g transform="translate(611.968182 329.598437)scale(0.1 -0.1)">
       <use xlink:href="#DejaVuSans-32" transform="translate(0 0.765625)"/>
       <use xlink:href="#DejaVuSans-31" transform="translate(64.580078 39.046875)scale(0.7)"/>
       <use xlink:href="#DejaVuSans-38" transform="translate(109.116211 39.046875)scale(0.7)"/>
      </g>
     </g>
    </g>
    <g id="xtick_20">
     <g id="line2d_66">
      <path d="M 648 315 
L 648 43.2 
" clip-path="url(#p89b714e5c7)" style="fill: none; stroke: #b0b0b0; stroke-width: 0.8; stroke-linecap: square"/>
     </g>
     <g id="line2d_67">
      <g>
       <use xlink:href="#m3880aa6da2" x="648" y="315" style="stroke: #000000; stroke-width: 0.8"/>
      </g>
     </g>
     <g id="text_32">
      <!-- $\mathdefault{2^{20}}$ -->
      <g transform="translate(640.15 329.598437)scale(0.1 -0.1)">
       <use xlink:href="#DejaVuSans-32" transform="translate(0 0.765625)"/>
       <use xlink:href="#DejaVuSans-32" transform="translate(64.580078 39.046875)scale(0.7)"/>
       <use xlink:href="#DejaVuSans-30" transform="translate(109.116211 39.046875)scale(0.7)"/>
      </g>
     </g>
    </g>
    <g id="text_33">
     <!-- Eingabegröße -->
     <g transform="translate(486.573224 343.276563)scale(0.1 -0.1)">
      <use xlink:href="#DejaVuSans-45"/>
      <use xlink:href="#DejaVuSans-69" x="63.183594"/>
      <use xlink:href="#DejaVuSans-6e" x="90.966797"/>
      <use xlink:href="#DejaVuSans-67" x="154.345703"/>
      <use xlink:href="#DejaVuSans-61" x="217.822266"/>
      <use xlink:href="#DejaVuSans-62" x="279.101562"/>
      <use xlink:href="#DejaVuSans-65" x="342.578125"/>
      <use xlink:href="#DejaVuSans-67" x="404.101562"/>
      <use xlink:href="#DejaVuSans-72" x="467.578125"/>
      <use xlink:href="#DejaVuSans-f6" x="506.441406"/>
      <use xlink:href="#DejaVuSans-df" x="567.623047"/>
      <use xlink:href="#DejaVuSans-65" x="630.611328"/>
     </g>
    </g>
   </g>
   <g id="matplotlib.axis_4">
    <g id="ytick_10">
     <g id="line2d_68">
      <path d="M 394.363636 315 
L 648 315 
" clip-path="url(#p89b714e5c7)" style="fill: none; stroke: #b0b0b0; stroke-width: 0.8; stroke-linecap: square"/>
     </g>
     <g id="line2d_69">
      <g>
       <use xlink:href="#m4973f77f80" x="394.363636" y="315" style="stroke: #000000; stroke-width: 0.8"/>
      </g>
     </g>
     <g id="text_34">
      <!-- 1.0 -->
      <g transform="translate(371.460511 318.799219)scale(0.1 -0.1)">
       <use xlink:href="#DejaVuSans-31"/>
       <use xlink:href="#DejaVuSans-2e" x="63.623047"/>
       <use xlink:href="#DejaVuSans-30" x="95.410156"/>
      </g>
     </g>
    </g>
    <g id="ytick_11">
     <g id="line2d_70">
      <path d="M 394.363636 281.025 
L 648 281.025 
" clip-path="url(#p89b714e5c7)" style="fill: none; stroke: #b0b0b0; stroke-width: 0.8; stroke-linecap: square"/>
     </g>
     <g id="line2d_71">
      <g>
       <use xlink:href="#m4973f77f80" x="394.363636" y="281.025" style="stroke: #000000; stroke-width: 0.8"/>
      </g>
     </g>
     <g id="text_35">
      <!-- 1.5 -->
      <g transform="translate(371.460511 284.824219)scale(0.1 -0.1)">
       <use xlink:href="#DejaVuSans-31"/>
       <use xlink:href="#DejaVuSans-2e" x="63.623047"/>
       <use xlink:href="#DejaVuSans-35" x="95.410156"/>
      </g>
     </g>
    </g>
    <g id="ytick_12">
     <g id="line2d_72">
      <path d="M 394.363636 247.05 
L 648 247.05 
" clip-path="url(#p89b714e5c7)" style="fill: none; stroke: #b0b0b0; stroke-width: 0.8; stroke-linecap: square"/>
     </g>
     <g id="line2d_73">
      <g>
       <use xlink:href="#m4973f77f80" x="394.363636" y="247.05" style="stroke: #000000; stroke-width: 0.8"/>
      </g>
     </g>
     <g id="text_36">
      <!-- 2.0 -->
      <g transform="translate(371.460511 250.849219)scale(0.1 -0.1)">
       <use xlink:href="#DejaVuSans-32"/>
       <use xlink:href="#DejaVuSans-2e" x="63.623047"/>
       <use xlink:href="#DejaVuSans-30" x="95.410156"/>
      </g>
     </g>
    </g>
    <g id="ytick_13">
     <g id="line2d_74">
      <path d="M 394.363636 213.075 
L 648 213.075 
" clip-path="url(#p89b714e5c7)" style="fill: none; stroke: #b0b0b0; stroke-width: 0.8; stroke-linecap: square"/>
     </g>
     <g id="line2d_75">
      <g>
       <use xlink:href="#m4973f77f80" x="394.363636" y="213.075" style="stroke: #000000; stroke-width: 0.8"/>
      </g>
     </g>
     <g id="text_37">
      <!-- 2.5 -->
      <g transform="translate(371.460511 216.874219)scale(0.1 -0.1)">
       <use xlink:href="#DejaVuSans-32"/>
       <use xlink:href="#DejaVuSans-2e" x="63.623047"/>
       <use xlink:href="#DejaVuSans-35" x="95.410156"/>
      </g>
     </g>
    </g>
    <g id="ytick_14">
     <g id="line2d_76">
      <path d="M 394.363636 179.1 
L 648 179.1 
" clip-path="url(#p89b714e5c7)" style="fill: none; stroke: #b0b0b0; stroke-width: 0.8; stroke-linecap: square"/>
     </g>
     <g id="line2d_77">
      <g>
       <use xlink:href="#m4973f77f80" x="394.363636" y="179.1" style="stroke: #000000; stroke-width: 0.8"/>
      </g>
     </g>
     <g id="text_38">
      <!-- 3.0 -->
      <g transform="translate(371.460511 182.899219)scale(0.1 -0.1)">
       <use xlink:href="#DejaVuSans-33"/>
       <use xlink:href="#DejaVuSans-2e" x="63.623047"/>
       <use xlink:href="#DejaVuSans-30" x="95.410156"/>
      </g>
     </g>
    </g>
    <g id="ytick_15">
     <g id="line2d_78">
      <path d="M 394.363636 145.125 
L 648 145.125 
" clip-path="url(#p89b714e5c7)" style="fill: none; stroke: #b0b0b0; stroke-width: 0.8; stroke-linecap: square"/>
     </g>
     <g id="line2d_79">
      <g>
       <use xlink:href="#m4973f77f80" x="394.363636" y="145.125" style="stroke: #000000; stroke-width: 0.8"/>
      </g>
     </g>
     <g id="text_39">
      <!-- 3.5 -->
      <g transform="translate(371.460511 148.924219)scale(0.1 -0.1)">
       <use xlink:href="#DejaVuSans-33"/>
       <use xlink:href="#DejaVuSans-2e" x="63.623047"/>
       <use xlink:href="#DejaVuSans-35" x="95.410156"/>
      </g>
     </g>
    </g>
    <g id="ytick_16">
     <g id="line2d_80">
      <path d="M 394.363636 111.15 
L 648 111.15 
" clip-path="url(#p89b714e5c7)" style="fill: none; stroke: #b0b0b0; stroke-width: 0.8; stroke-linecap: square"/>
     </g>
     <g id="line2d_81">
      <g>
       <use xlink:href="#m4973f77f80" x="394.363636" y="111.15" style="stroke: #000000; stroke-width: 0.8"/>
      </g>
     </g>
     <g id="text_40">
      <!-- 4.0 -->
      <g transform="translate(371.460511 114.949219)scale(0.1 -0.1)">
       <use xlink:href="#DejaVuSans-34"/>
       <use xlink:href="#DejaVuSans-2e" x="63.623047"/>
       <use xlink:href="#DejaVuSans-30" x="95.410156"/>
      </g>
     </g>
    </g>
    <g id="ytick_17">
     <g id="line2d_82">
      <path d="M 394.363636 77.175 
L 648 77.175 
" clip-path="url(#p89b714e5c7)" style="fill: none; stroke: #b0b0b0; stroke-width: 0.8; stroke-linecap: square"/>
     </g>
     <g id="line2d_83">
      <g>
       <use xlink:href="#m4973f77f80" x="394.363636" y="77.175" style="stroke: #000000; stroke-width: 0.8"/>
      </g>
     </g>
     <g id="text_41">
      <!-- 4.5 -->
      <g transform="translate(371.460511 80.974219)scale(0.1 -0.1)">
       <use xlink:href="#DejaVuSans-34"/>
       <use xlink:href="#DejaVuSans-2e" x="63.623047"/>
       <use xlink:href="#DejaVuSans-35" x="95.410156"/>
      </g>
     </g>
    </g>
    <g id="ytick_18">
     <g id="line2d_84">
      <path d="M 394.363636 43.2 
L 648 43.2 
" clip-path="url(#p89b714e5c7)" style="fill: none; stroke: #b0b0b0; stroke-width: 0.8; stroke-linecap: square"/>
     </g>
     <g id="line2d_85">
      <g>
       <use xlink:href="#m4973f77f80" x="394.363636" y="43.2" style="stroke: #000000; stroke-width: 0.8"/>
      </g>
     </g>
     <g id="text_42">
      <!-- 5.0 -->
      <g transform="translate(371.460511 46.999219)scale(0.1 -0.1)">
       <use xlink:href="#DejaVuSans-35"/>
       <use xlink:href="#DejaVuSans-2e" x="63.623047"/>
       <use xlink:href="#DejaVuSans-30" x="95.410156"/>
      </g>
     </g>
    </g>
   </g>
   <g id="line2d_86">
    <path d="M 366.181818 335.865367 
L 380.272727 286.172653 
L 394.363636 259.493097 
L 408.454545 174.907424 
L 422.545455 192.90835 
L 436.636364 200.127155 
L 450.727273 196.842518 
L 464.818182 201.384758 
L 478.909091 203.889371 
L 493 206.000336 
L 507.090909 206.188046 
L 521.181818 207.238998 
L 535.272727 208.659087 
L 549.363636 206.809272 
L 563.454545 205.385055 
L 577.545455 203.623693 
L 591.636364 189.857 
L 605.727273 162.297917 
L 619.818182 138.469131 
L 633.909091 123.236248 
L 648 113.887557 
L 656.500417 -1 
" clip-path="url(#p89b714e5c7)" style="fill: none; stroke: #1f77b4; stroke-width: 1.5; stroke-linecap: square"/>
   </g>
   <g id="line2d_87">
    <path d="M 366.181818 335.894012 
L 380.272727 286.283884 
L 394.363636 259.579763 
L 408.454545 243.275423 
L 422.545455 192.02045 
L 436.636364 197.86864 
L 450.727273 192.734702 
L 464.818182 198.909314 
L 478.909091 201.522164 
L 493 203.320142 
L 507.090909 204.203176 
L 521.181818 204.812537 
L 535.272727 205.285625 
L 549.363636 205.288915 
L 563.454545 204.982173 
L 577.545455 204.447661 
L 591.636364 196.898622 
L 605.727273 176.059567 
L 619.818182 159.146554 
L 633.909091 149.066894 
L 648 140.35982 
L 657.038367 -1 
" clip-path="url(#p89b714e5c7)" style="fill: none; stroke: #ff7f0e; stroke-width: 1.5; stroke-linecap: square"/>
   </g>
   <g id="line2d_88">
    <path d="M 366.181818 335.855504 
L 380.272727 286.327441 
L 394.363636 259.566059 
L 408.454545 242.995522 
L 422.545455 235.366199 
L 436.636364 160.778543 
L 450.727273 171.194351 
L 464.818182 178.130836 
L 478.909091 186.472507 
L 493 192.034246 
L 507.090909 195.525473 
L 521.181818 197.415727 
L 535.272727 198.818948 
L 549.363636 198.064289 
L 563.454545 196.769842 
L 577.545455 195.46583 
L 591.636364 191.124976 
L 605.727273 177.692808 
L 619.818182 166.256404 
L 633.909091 156.799424 
L 648 148.607031 
L 661.382734 -1 
" clip-path="url(#p89b714e5c7)" style="fill: none; stroke: #2ca02c; stroke-width: 1.5; stroke-linecap: square"/>
   </g>
   <g id="line2d_89">
    <path d="M 366.181818 335.796133 
L 380.272727 285.016536 
L 394.363636 259.457516 
L 408.454545 243.237931 
L 422.545455 235.500791 
L 436.636364 231.324801 
L 450.727273 181.097996 
L 464.818182 180.24659 
L 478.909091 183.703026 
L 493 184.764138 
L 507.090909 186.64282 
L 521.181818 187.154804 
L 535.272727 187.290338 
L 549.363636 184.233624 
L 563.454545 181.053068 
L 577.545455 178.055939 
L 591.636364 170.869849 
L 605.727273 159.498003 
L 619.818182 150.262473 
L 633.909091 142.378299 
L 648 135.896555 
L 662.090909 1.146759 
L 662.225626 -1 
" clip-path="url(#p89b714e5c7)" style="fill: none; stroke: #d62728; stroke-width: 1.5; stroke-linecap: square"/>
   </g>
   <g id="line2d_90">
    <path d="M 366.181818 335.856876 
L 380.272727 286.262518 
L 394.363636 259.589342 
L 408.454545 243.223787 
L 422.545455 235.544331 
L 436.636364 230.974719 
L 450.727273 224.566041 
L 464.818182 181.712197 
L 478.909091 180.349185 
L 493 180.410173 
L 507.090909 181.332302 
L 521.181818 181.92001 
L 535.272727 181.900697 
L 549.363636 178.457085 
L 563.454545 174.66276 
L 577.545455 172.278224 
L 591.636364 166.965293 
L 605.727273 154.515853 
L 619.818182 145.420113 
L 633.909091 137.796216 
L 648 132.714165 
L 662.090909 4.851229 
L 662.53322 -1 
" clip-path="url(#p89b714e5c7)" style="fill: none; stroke: #9467bd; stroke-width: 1.5; stroke-linecap: square"/>
   </g>
   <g id="line2d_91">
    <path d="M 366.181818 335.845214 
L 380.272727 286.224175 
L 394.363636 259.392223 
L 408.454545 243.26693 
L 422.545455 235.573169 
L 436.636364 231.327221 
L 450.727273 224.185148 
L 464.818182 226.508501 
L 478.909091 185.530449 
L 493 183.025187 
L 507.090909 182.824083 
L 521.181818 183.361932 
L 535.272727 183.012488 
L 549.363636 179.224802 
L 563.454545 175.791052 
L 577.545455 171.295325 
L 591.636364 168.321276 
L 605.727273 155.98516 
L 619.818182 147.415304 
L 633.909091 140.333693 
L 648 134.278491 
L 662.090909 12.658371 
L 663.221837 -1 
" clip-path="url(#p89b714e5c7)" style="fill: none; stroke: #8c564b; stroke-width: 1.5; stroke-linecap: square"/>
   </g>
   <g id="line2d_92">
    <path d="M 366.181818 335.785427 
L 380.272727 285.950489 
L 394.363636 258.758405 
L 408.454545 232.741609 
L 422.545455 235.561152 
L 436.636364 230.053159 
L 450.727273 223.466758 
L 464.818182 226.574009 
L 478.909091 227.226365 
L 493 197.038008 
L 507.090909 190.926517 
L 521.181818 186.608839 
L 535.272727 185.980666 
L 549.363636 181.606748 
L 563.454545 177.89118 
L 577.545455 174.807037 
L 591.636364 170.092654 
L 605.727273 158.623893 
L 619.818182 148.939227 
L 633.909091 141.947355 
L 648 134.135554 
L 662.090909 16.310817 
L 663.574753 -1 
" clip-path="url(#p89b714e5c7)" style="fill: none; stroke: #e377c2; stroke-width: 1.5; stroke-linecap: square"/>
   </g>
   <g id="line2d_93">
    <path d="M 366.181818 335.86166 
L 380.272727 286.194904 
L 394.363636 259.043124 
L 408.454545 243.284146 
L 422.545455 235.585011 
L 436.636364 231.402333 
L 450.727273 223.434658 
L 464.818182 226.520755 
L 478.909091 227.0856 
L 493 227.196312 
L 507.090909 200.284355 
L 521.181818 192.382348 
L 535.272727 187.858207 
L 549.363636 183.721058 
L 563.454545 178.431078 
L 577.545455 174.74317 
L 591.636364 169.997929 
L 605.727273 160.165643 
L 619.818182 147.03554 
L 633.909091 142.737317 
L 648 131.984649 
L 662.090909 12.407128 
L 663.236286 -1 
" clip-path="url(#p89b714e5c7)" style="fill: none; stroke: #7f7f7f; stroke-width: 1.5; stroke-linecap: square"/>
   </g>
   <g id="line2d_94">
    <path d="M 366.181818 335.864022 
L 380.272727 286.301943 
L 394.363636 259.584104 
L 408.454545 243.282065 
L 422.545455 235.74929 
L 436.636364 231.549424 
L 450.727273 224.501306 
L 464.818182 226.296573 
L 478.909091 227.014952 
L 493 227.298784 
L 507.090909 227.739065 
L 521.181818 201.496276 
L 535.272727 192.402764 
L 549.363636 184.860395 
L 563.454545 179.647503 
L 577.545455 175.787975 
L 591.636364 169.49411 
L 605.727273 157.82827 
L 619.818182 150.569212 
L 633.909091 144.316795 
L 648 137.711227 
L 662.090909 28.723502 
L 664.623446 -1 
" clip-path="url(#p89b714e5c7)" style="fill: none; stroke: #bcbd22; stroke-width: 1.5; stroke-linecap: square"/>
   </g>
   <g id="patch_8">
    <path d="M 394.363636 315 
L 394.363636 43.2 
" style="fill: none; stroke: #000000; stroke-width: 0.8; stroke-linejoin: miter; stroke-linecap: square"/>
   </g>
   <g id="patch_9">
    <path d="M 648 315 
L 648 43.2 
" style="fill: none; stroke: #000000; stroke-width: 0.8; stroke-linejoin: miter; stroke-linecap: square"/>
   </g>
   <g id="patch_10">
    <path d="M 394.363636 315 
L 648 315 
" style="fill: none; stroke: #000000; stroke-width: 0.8; stroke-linejoin: miter; stroke-linecap: square"/>
   </g>
   <g id="patch_11">
    <path d="M 394.363636 43.2 
L 648 43.2 
" style="fill: none; stroke: #000000; stroke-width: 0.8; stroke-linejoin: miter; stroke-linecap: square"/>
   </g>
   <g id="text_43">
    <!-- Adaptiver Schwellenwert -->
    <g transform="translate(446.496818 37.2)scale(0.12 -0.12)">
     <defs>
      <path id="DejaVuSans-41" d="M 2188 4044 
L 1331 1722 
L 3047 1722 
L 2188 4044 
z
M 1831 4666 
L 2547 4666 
L 4325 0 
L 3669 0 
L 3244 1197 
L 1141 1197 
L 716 0 
L 50 0 
L 1831 4666 
z
" transform="scale(0.015625)"/>
      <path id="DejaVuSans-64" d="M 2906 2969 
L 2906 4863 
L 3481 4863 
L 3481 0 
L 2906 0 
L 2906 525 
Q 2725 213 2448 61 
Q 2172 -91 1784 -91 
Q 1150 -91 751 415 
Q 353 922 353 1747 
Q 353 2572 751 3078 
Q 1150 3584 1784 3584 
Q 2172 3584 2448 3432 
Q 2725 3281 2906 2969 
z
M 947 1747 
Q 947 1113 1208 752 
Q 1469 391 1925 391 
Q 2381 391 2643 752 
Q 2906 1113 2906 1747 
Q 2906 2381 2643 2742 
Q 2381 3103 1925 3103 
Q 1469 3103 1208 2742 
Q 947 2381 947 1747 
z
" transform="scale(0.015625)"/>
      <path id="DejaVuSans-76" d="M 191 3500 
L 800 3500 
L 1894 563 
L 2988 3500 
L 3597 3500 
L 2284 0 
L 1503 0 
L 191 3500 
z
" transform="scale(0.015625)"/>
     </defs>
     <use xlink:href="#DejaVuSans-41"/>
     <use xlink:href="#DejaVuSans-64" x="66.658203"/>
     <use xlink:href="#DejaVuSans-61" x="130.134766"/>
     <use xlink:href="#DejaVuSans-70" x="191.414062"/>
     <use xlink:href="#DejaVuSans-74" x="254.890625"/>
     <use xlink:href="#DejaVuSans-69" x="294.099609"/>
     <use xlink:href="#DejaVuSans-76" x="321.882812"/>
     <use xlink:href="#DejaVuSans-65" x="381.0625"/>
     <use xlink:href="#DejaVuSans-72" x="442.585938"/>
     <use xlink:href="#DejaVuSans-20" x="483.699219"/>
     <use xlink:href="#DejaVuSans-53" x="515.486328"/>
     <use xlink:href="#DejaVuSans-63" x="578.962891"/>
     <use xlink:href="#DejaVuSans-68" x="633.943359"/>
     <use xlink:href="#DejaVuSans-77" x="697.322266"/>
     <use xlink:href="#DejaVuSans-65" x="779.109375"/>
     <use xlink:href="#DejaVuSans-6c" x="840.632812"/>
     <use xlink:href="#DejaVuSans-6c" x="868.416016"/>
     <use xlink:href="#DejaVuSans-65" x="896.199219"/>
     <use xlink:href="#DejaVuSans-6e" x="957.722656"/>
     <use xlink:href="#DejaVuSans-77" x="1021.101562"/>
     <use xlink:href="#DejaVuSans-65" x="1102.888672"/>
     <use xlink:href="#DejaVuSans-72" x="1164.412109"/>
     <use xlink:href="#DejaVuSans-74" x="1205.525391"/>
    </g>
   </g>
   <g id="legend_1">
    <g id="patch_12">
     <path d="M 667.681818 185.80625 
L 874.872443 185.80625 
Q 876.872443 185.80625 876.872443 183.80625 
L 876.872443 50.2 
Q 876.872443 48.2 874.872443 48.2 
L 667.681818 48.2 
Q 665.681818 48.2 665.681818 50.2 
L 665.681818 183.80625 
Q 665.681818 185.80625 667.681818 185.80625 
z
" style="fill: #ffffff; opacity: 0.8; stroke: #cccccc; stroke-linejoin: miter"/>
    </g>
    <g id="line2d_95">
     <path d="M 669.681818 56.298437 
L 679.681818 56.298437 
L 689.681818 56.298437 
" style="fill: none; stroke: #1f77b4; stroke-width: 1.5; stroke-linecap: square"/>
    </g>
    <g id="text_44">
     <!-- buffered_fisher_yates_shuffle 4 -->
     <g transform="translate(697.681818 59.798437)scale(0.1 -0.1)">
      <defs>
       <path id="DejaVuSans-5f" d="M 3263 -1063 
L 3263 -1509 
L -63 -1509 
L -63 -1063 
L 3263 -1063 
z
" transform="scale(0.015625)"/>
       <path id="DejaVuSans-79" d="M 2059 -325 
Q 1816 -950 1584 -1140 
Q 1353 -1331 966 -1331 
L 506 -1331 
L 506 -850 
L 844 -850 
Q 1081 -850 1212 -737 
Q 1344 -625 1503 -206 
L 1606 56 
L 191 3500 
L 800 3500 
L 1894 763 
L 2988 3500 
L 3597 3500 
L 2059 -325 
z
" transform="scale(0.015625)"/>
      </defs>
      <use xlink:href="#DejaVuSans-62"/>
      <use xlink:href="#DejaVuSans-75" x="63.476562"/>
      <use xlink:href="#DejaVuSans-66" x="126.855469"/>
      <use xlink:href="#DejaVuSans-66" x="162.060547"/>
      <use xlink:href="#DejaVuSans-65" x="197.265625"/>
      <use xlink:href="#DejaVuSans-72" x="258.789062"/>
      <use xlink:href="#DejaVuSans-65" x="297.652344"/>
      <use xlink:href="#DejaVuSans-64" x="359.175781"/>
      <use xlink:href="#DejaVuSans-5f" x="422.652344"/>
      <use xlink:href="#DejaVuSans-66" x="472.652344"/>
      <use xlink:href="#DejaVuSans-69" x="507.857422"/>
      <use xlink:href="#DejaVuSans-73" x="535.640625"/>
      <use xlink:href="#DejaVuSans-68" x="587.740234"/>
      <use xlink:href="#DejaVuSans-65" x="651.119141"/>
      <use xlink:href="#DejaVuSans-72" x="712.642578"/>
      <use xlink:href="#DejaVuSans-5f" x="753.755859"/>
      <use xlink:href="#DejaVuSans-79" x="803.755859"/>
      <use xlink:href="#DejaVuSans-61" x="862.935547"/>
      <use xlink:href="#DejaVuSans-74" x="924.214844"/>
      <use xlink:href="#DejaVuSans-65" x="963.423828"/>
      <use xlink:href="#DejaVuSans-73" x="1024.947266"/>
      <use xlink:href="#DejaVuSans-5f" x="1077.046875"/>
      <use xlink:href="#DejaVuSans-73" x="1127.046875"/>
      <use xlink:href="#DejaVuSans-68" x="1179.146484"/>
      <use xlink:href="#DejaVuSans-75" x="1242.525391"/>
      <use xlink:href="#DejaVuSans-66" x="1305.904297"/>
      <use xlink:href="#DejaVuSans-66" x="1341.109375"/>
      <use xlink:href="#DejaVuSans-6c" x="1376.314453"/>
      <use xlink:href="#DejaVuSans-65" x="1404.097656"/>
      <use xlink:href="#DejaVuSans-20" x="1465.621094"/>
      <use xlink:href="#DejaVuSans-34" x="1497.408203"/>
     </g>
    </g>
    <g id="line2d_96">
     <path d="M 669.681818 71.254687 
L 679.681818 71.254687 
L 689.681818 71.254687 
" style="fill: none; stroke: #ff7f0e; stroke-width: 1.5; stroke-linecap: square"/>
    </g>
    <g id="text_45">
     <!-- buffered_fisher_yates_shuffle 8 -->
     <g transform="translate(697.681818 74.754687)scale(0.1 -0.1)">
      <use xlink:href="#DejaVuSans-62"/>
      <use xlink:href="#DejaVuSans-75" x="63.476562"/>
      <use xlink:href="#DejaVuSans-66" x="126.855469"/>
      <use xlink:href="#DejaVuSans-66" x="162.060547"/>
      <use xlink:href="#DejaVuSans-65" x="197.265625"/>
      <use xlink:href="#DejaVuSans-72" x="258.789062"/>
      <use xlink:href="#DejaVuSans-65" x="297.652344"/>
      <use xlink:href="#DejaVuSans-64" x="359.175781"/>
      <use xlink:href="#DejaVuSans-5f" x="422.652344"/>
      <use xlink:href="#DejaVuSans-66" x="472.652344"/>
      <use xlink:href="#DejaVuSans-69" x="507.857422"/>
      <use xlink:href="#DejaVuSans-73" x="535.640625"/>
      <use xlink:href="#DejaVuSans-68" x="587.740234"/>
      <use xlink:href="#DejaVuSans-65" x="651.119141"/>
      <use xlink:href="#DejaVuSans-72" x="712.642578"/>
      <use xlink:href="#DejaVuSans-5f" x="753.755859"/>
      <use xlink:href="#DejaVuSans-79" x="803.755859"/>
      <use xlink:href="#DejaVuSans-61" x="862.935547"/>
      <use xlink:href="#DejaVuSans-74" x="924.214844"/>
      <use xlink:href="#DejaVuSans-65" x="963.423828"/>
      <use xlink:href="#DejaVuSans-73" x="1024.947266"/>
      <use xlink:href="#DejaVuSans-5f" x="1077.046875"/>
      <use xlink:href="#DejaVuSans-73" x="1127.046875"/>
      <use xlink:href="#DejaVuSans-68" x="1179.146484"/>
      <use xlink:href="#DejaVuSans-75" x="1242.525391"/>
      <use xlink:href="#DejaVuSans-66" x="1305.904297"/>
      <use xlink:href="#DejaVuSans-66" x="1341.109375"/>
      <use xlink:href="#DejaVuSans-6c" x="1376.314453"/>
      <use xlink:href="#DejaVuSans-65" x="1404.097656"/>
      <use xlink:href="#DejaVuSans-20" x="1465.621094"/>
      <use xlink:href="#DejaVuSans-38" x="1497.408203"/>
     </g>
    </g>
    <g id="line2d_97">
     <path d="M 669.681818 86.210938 
L 679.681818 86.210938 
L 689.681818 86.210938 
" style="fill: none; stroke: #2ca02c; stroke-width: 1.5; stroke-linecap: square"/>
    </g>
    <g id="text_46">
     <!-- buffered_fisher_yates_shuffle 16 -->
     <g transform="translate(697.681818 89.710938)scale(0.1 -0.1)">
      <use xlink:href="#DejaVuSans-62"/>
      <use xlink:href="#DejaVuSans-75" x="63.476562"/>
      <use xlink:href="#DejaVuSans-66" x="126.855469"/>
      <use xlink:href="#DejaVuSans-66" x="162.060547"/>
      <use xlink:href="#DejaVuSans-65" x="197.265625"/>
      <use xlink:href="#DejaVuSans-72" x="258.789062"/>
      <use xlink:href="#DejaVuSans-65" x="297.652344"/>
      <use xlink:href="#DejaVuSans-64" x="359.175781"/>
      <use xlink:href="#DejaVuSans-5f" x="422.652344"/>
      <use xlink:href="#DejaVuSans-66" x="472.652344"/>
      <use xlink:href="#DejaVuSans-69" x="507.857422"/>
      <use xlink:href="#DejaVuSans-73" x="535.640625"/>
      <use xlink:href="#DejaVuSans-68" x="587.740234"/>
      <use xlink:href="#DejaVuSans-65" x="651.119141"/>
      <use xlink:href="#DejaVuSans-72" x="712.642578"/>
      <use xlink:href="#DejaVuSans-5f" x="753.755859"/>
      <use xlink:href="#DejaVuSans-79" x="803.755859"/>
      <use xlink:href="#DejaVuSans-61" x="862.935547"/>
      <use xlink:href="#DejaVuSans-74" x="924.214844"/>
      <use xlink:href="#DejaVuSans-65" x="963.423828"/>
      <use xlink:href="#DejaVuSans-73" x="1024.947266"/>
      <use xlink:href="#DejaVuSans-5f" x="1077.046875"/>
      <use xlink:href="#DejaVuSans-73" x="1127.046875"/>
      <use xlink:href="#DejaVuSans-68" x="1179.146484"/>
      <use xlink:href="#DejaVuSans-75" x="1242.525391"/>
      <use xlink:href="#DejaVuSans-66" x="1305.904297"/>
      <use xlink:href="#DejaVuSans-66" x="1341.109375"/>
      <use xlink:href="#DejaVuSans-6c" x="1376.314453"/>
      <use xlink:href="#DejaVuSans-65" x="1404.097656"/>
      <use xlink:href="#DejaVuSans-20" x="1465.621094"/>
      <use xlink:href="#DejaVuSans-31" x="1497.408203"/>
      <use xlink:href="#DejaVuSans-36" x="1561.03125"/>
     </g>
    </g>
    <g id="line2d_98">
     <path d="M 669.681818 101.167187 
L 679.681818 101.167187 
L 689.681818 101.167187 
" style="fill: none; stroke: #d62728; stroke-width: 1.5; stroke-linecap: square"/>
    </g>
    <g id="text_47">
     <!-- buffered_fisher_yates_shuffle 32 -->
     <g transform="translate(697.681818 104.667187)scale(0.1 -0.1)">
      <use xlink:href="#DejaVuSans-62"/>
      <use xlink:href="#DejaVuSans-75" x="63.476562"/>
      <use xlink:href="#DejaVuSans-66" x="126.855469"/>
      <use xlink:href="#DejaVuSans-66" x="162.060547"/>
      <use xlink:href="#DejaVuSans-65" x="197.265625"/>
      <use xlink:href="#DejaVuSans-72" x="258.789062"/>
      <use xlink:href="#DejaVuSans-65" x="297.652344"/>
      <use xlink:href="#DejaVuSans-64" x="359.175781"/>
      <use xlink:href="#DejaVuSans-5f" x="422.652344"/>
      <use xlink:href="#DejaVuSans-66" x="472.652344"/>
      <use xlink:href="#DejaVuSans-69" x="507.857422"/>
      <use xlink:href="#DejaVuSans-73" x="535.640625"/>
      <use xlink:href="#DejaVuSans-68" x="587.740234"/>
      <use xlink:href="#DejaVuSans-65" x="651.119141"/>
      <use xlink:href="#DejaVuSans-72" x="712.642578"/>
      <use xlink:href="#DejaVuSans-5f" x="753.755859"/>
      <use xlink:href="#DejaVuSans-79" x="803.755859"/>
      <use xlink:href="#DejaVuSans-61" x="862.935547"/>
      <use xlink:href="#DejaVuSans-74" x="924.214844"/>
      <use xlink:href="#DejaVuSans-65" x="963.423828"/>
      <use xlink:href="#DejaVuSans-73" x="1024.947266"/>
      <use xlink:href="#DejaVuSans-5f" x="1077.046875"/>
      <use xlink:href="#DejaVuSans-73" x="1127.046875"/>
      <use xlink:href="#DejaVuSans-68" x="1179.146484"/>
      <use xlink:href="#DejaVuSans-75" x="1242.525391"/>
      <use xlink:href="#DejaVuSans-66" x="1305.904297"/>
      <use xlink:href="#DejaVuSans-66" x="1341.109375"/>
      <use xlink:href="#DejaVuSans-6c" x="1376.314453"/>
      <use xlink:href="#DejaVuSans-65" x="1404.097656"/>
      <use xlink:href="#DejaVuSans-20" x="1465.621094"/>
      <use xlink:href="#DejaVuSans-33" x="1497.408203"/>
      <use xlink:href="#DejaVuSans-32" x="1561.03125"/>
     </g>
    </g>
    <g id="line2d_99">
     <path d="M 669.681818 116.123437 
L 679.681818 116.123437 
L 689.681818 116.123437 
" style="fill: none; stroke: #9467bd; stroke-width: 1.5; stroke-linecap: square"/>
    </g>
    <g id="text_48">
     <!-- buffered_fisher_yates_shuffle 64 -->
     <g transform="translate(697.681818 119.623437)scale(0.1 -0.1)">
      <use xlink:href="#DejaVuSans-62"/>
      <use xlink:href="#DejaVuSans-75" x="63.476562"/>
      <use xlink:href="#DejaVuSans-66" x="126.855469"/>
      <use xlink:href="#DejaVuSans-66" x="162.060547"/>
      <use xlink:href="#DejaVuSans-65" x="197.265625"/>
      <use xlink:href="#DejaVuSans-72" x="258.789062"/>
      <use xlink:href="#DejaVuSans-65" x="297.652344"/>
      <use xlink:href="#DejaVuSans-64" x="359.175781"/>
      <use xlink:href="#DejaVuSans-5f" x="422.652344"/>
      <use xlink:href="#DejaVuSans-66" x="472.652344"/>
      <use xlink:href="#DejaVuSans-69" x="507.857422"/>
      <use xlink:href="#DejaVuSans-73" x="535.640625"/>
      <use xlink:href="#DejaVuSans-68" x="587.740234"/>
      <use xlink:href="#DejaVuSans-65" x="651.119141"/>
      <use xlink:href="#DejaVuSans-72" x="712.642578"/>
      <use xlink:href="#DejaVuSans-5f" x="753.755859"/>
      <use xlink:href="#DejaVuSans-79" x="803.755859"/>
      <use xlink:href="#DejaVuSans-61" x="862.935547"/>
      <use xlink:href="#DejaVuSans-74" x="924.214844"/>
      <use xlink:href="#DejaVuSans-65" x="963.423828"/>
      <use xlink:href="#DejaVuSans-73" x="1024.947266"/>
      <use xlink:href="#DejaVuSans-5f" x="1077.046875"/>
      <use xlink:href="#DejaVuSans-73" x="1127.046875"/>
      <use xlink:href="#DejaVuSans-68" x="1179.146484"/>
      <use xlink:href="#DejaVuSans-75" x="1242.525391"/>
      <use xlink:href="#DejaVuSans-66" x="1305.904297"/>
      <use xlink:href="#DejaVuSans-66" x="1341.109375"/>
      <use xlink:href="#DejaVuSans-6c" x="1376.314453"/>
      <use xlink:href="#DejaVuSans-65" x="1404.097656"/>
      <use xlink:href="#DejaVuSans-20" x="1465.621094"/>
      <use xlink:href="#DejaVuSans-36" x="1497.408203"/>
      <use xlink:href="#DejaVuSans-34" x="1561.03125"/>
     </g>
    </g>
    <g id="line2d_100">
     <path d="M 669.681818 131.079687 
L 679.681818 131.079687 
L 689.681818 131.079687 
" style="fill: none; stroke: #8c564b; stroke-width: 1.5; stroke-linecap: square"/>
    </g>
    <g id="text_49">
     <!-- buffered_fisher_yates_shuffle 128 -->
     <g transform="translate(697.681818 134.579687)scale(0.1 -0.1)">
      <use xlink:href="#DejaVuSans-62"/>
      <use xlink:href="#DejaVuSans-75" x="63.476562"/>
      <use xlink:href="#DejaVuSans-66" x="126.855469"/>
      <use xlink:href="#DejaVuSans-66" x="162.060547"/>
      <use xlink:href="#DejaVuSans-65" x="197.265625"/>
      <use xlink:href="#DejaVuSans-72" x="258.789062"/>
      <use xlink:href="#DejaVuSans-65" x="297.652344"/>
      <use xlink:href="#DejaVuSans-64" x="359.175781"/>
      <use xlink:href="#DejaVuSans-5f" x="422.652344"/>
      <use xlink:href="#DejaVuSans-66" x="472.652344"/>
      <use xlink:href="#DejaVuSans-69" x="507.857422"/>
      <use xlink:href="#DejaVuSans-73" x="535.640625"/>
      <use xlink:href="#DejaVuSans-68" x="587.740234"/>
      <use xlink:href="#DejaVuSans-65" x="651.119141"/>
      <use xlink:href="#DejaVuSans-72" x="712.642578"/>
      <use xlink:href="#DejaVuSans-5f" x="753.755859"/>
      <use xlink:href="#DejaVuSans-79" x="803.755859"/>
      <use xlink:href="#DejaVuSans-61" x="862.935547"/>
      <use xlink:href="#DejaVuSans-74" x="924.214844"/>
      <use xlink:href="#DejaVuSans-65" x="963.423828"/>
      <use xlink:href="#DejaVuSans-73" x="1024.947266"/>
      <use xlink:href="#DejaVuSans-5f" x="1077.046875"/>
      <use xlink:href="#DejaVuSans-73" x="1127.046875"/>
      <use xlink:href="#DejaVuSans-68" x="1179.146484"/>
      <use xlink:href="#DejaVuSans-75" x="1242.525391"/>
      <use xlink:href="#DejaVuSans-66" x="1305.904297"/>
      <use xlink:href="#DejaVuSans-66" x="1341.109375"/>
      <use xlink:href="#DejaVuSans-6c" x="1376.314453"/>
      <use xlink:href="#DejaVuSans-65" x="1404.097656"/>
      <use xlink:href="#DejaVuSans-20" x="1465.621094"/>
      <use xlink:href="#DejaVuSans-31" x="1497.408203"/>
      <use xlink:href="#DejaVuSans-32" x="1561.03125"/>
      <use xlink:href="#DejaVuSans-38" x="1624.654297"/>
     </g>
    </g>
    <g id="line2d_101">
     <path d="M 669.681818 146.035937 
L 679.681818 146.035937 
L 689.681818 146.035937 
" style="fill: none; stroke: #e377c2; stroke-width: 1.5; stroke-linecap: square"/>
    </g>
    <g id="text_50">
     <!-- buffered_fisher_yates_shuffle 256 -->
     <g transform="translate(697.681818 149.535937)scale(0.1 -0.1)">
      <use xlink:href="#DejaVuSans-62"/>
      <use xlink:href="#DejaVuSans-75" x="63.476562"/>
      <use xlink:href="#DejaVuSans-66" x="126.855469"/>
      <use xlink:href="#DejaVuSans-66" x="162.060547"/>
      <use xlink:href="#DejaVuSans-65" x="197.265625"/>
      <use xlink:href="#DejaVuSans-72" x="258.789062"/>
      <use xlink:href="#DejaVuSans-65" x="297.652344"/>
      <use xlink:href="#DejaVuSans-64" x="359.175781"/>
      <use xlink:href="#DejaVuSans-5f" x="422.652344"/>
      <use xlink:href="#DejaVuSans-66" x="472.652344"/>
      <use xlink:href="#DejaVuSans-69" x="507.857422"/>
      <use xlink:href="#DejaVuSans-73" x="535.640625"/>
      <use xlink:href="#DejaVuSans-68" x="587.740234"/>
      <use xlink:href="#DejaVuSans-65" x="651.119141"/>
      <use xlink:href="#DejaVuSans-72" x="712.642578"/>
      <use xlink:href="#DejaVuSans-5f" x="753.755859"/>
      <use xlink:href="#DejaVuSans-79" x="803.755859"/>
      <use xlink:href="#DejaVuSans-61" x="862.935547"/>
      <use xlink:href="#DejaVuSans-74" x="924.214844"/>
      <use xlink:href="#DejaVuSans-65" x="963.423828"/>
      <use xlink:href="#DejaVuSans-73" x="1024.947266"/>
      <use xlink:href="#DejaVuSans-5f" x="1077.046875"/>
      <use xlink:href="#DejaVuSans-73" x="1127.046875"/>
      <use xlink:href="#DejaVuSans-68" x="1179.146484"/>
      <use xlink:href="#DejaVuSans-75" x="1242.525391"/>
      <use xlink:href="#DejaVuSans-66" x="1305.904297"/>
      <use xlink:href="#DejaVuSans-66" x="1341.109375"/>
      <use xlink:href="#DejaVuSans-6c" x="1376.314453"/>
      <use xlink:href="#DejaVuSans-65" x="1404.097656"/>
      <use xlink:href="#DejaVuSans-20" x="1465.621094"/>
      <use xlink:href="#DejaVuSans-32" x="1497.408203"/>
      <use xlink:href="#DejaVuSans-35" x="1561.03125"/>
      <use xlink:href="#DejaVuSans-36" x="1624.654297"/>
     </g>
    </g>
    <g id="line2d_102">
     <path d="M 669.681818 160.992187 
L 679.681818 160.992187 
L 689.681818 160.992187 
" style="fill: none; stroke: #7f7f7f; stroke-width: 1.5; stroke-linecap: square"/>
    </g>
    <g id="text_51">
     <!-- buffered_fisher_yates_shuffle 512 -->
     <g transform="translate(697.681818 164.492187)scale(0.1 -0.1)">
      <use xlink:href="#DejaVuSans-62"/>
      <use xlink:href="#DejaVuSans-75" x="63.476562"/>
      <use xlink:href="#DejaVuSans-66" x="126.855469"/>
      <use xlink:href="#DejaVuSans-66" x="162.060547"/>
      <use xlink:href="#DejaVuSans-65" x="197.265625"/>
      <use xlink:href="#DejaVuSans-72" x="258.789062"/>
      <use xlink:href="#DejaVuSans-65" x="297.652344"/>
      <use xlink:href="#DejaVuSans-64" x="359.175781"/>
      <use xlink:href="#DejaVuSans-5f" x="422.652344"/>
      <use xlink:href="#DejaVuSans-66" x="472.652344"/>
      <use xlink:href="#DejaVuSans-69" x="507.857422"/>
      <use xlink:href="#DejaVuSans-73" x="535.640625"/>
      <use xlink:href="#DejaVuSans-68" x="587.740234"/>
      <use xlink:href="#DejaVuSans-65" x="651.119141"/>
      <use xlink:href="#DejaVuSans-72" x="712.642578"/>
      <use xlink:href="#DejaVuSans-5f" x="753.755859"/>
      <use xlink:href="#DejaVuSans-79" x="803.755859"/>
      <use xlink:href="#DejaVuSans-61" x="862.935547"/>
      <use xlink:href="#DejaVuSans-74" x="924.214844"/>
      <use xlink:href="#DejaVuSans-65" x="963.423828"/>
      <use xlink:href="#DejaVuSans-73" x="1024.947266"/>
      <use xlink:href="#DejaVuSans-5f" x="1077.046875"/>
      <use xlink:href="#DejaVuSans-73" x="1127.046875"/>
      <use xlink:href="#DejaVuSans-68" x="1179.146484"/>
      <use xlink:href="#DejaVuSans-75" x="1242.525391"/>
      <use xlink:href="#DejaVuSans-66" x="1305.904297"/>
      <use xlink:href="#DejaVuSans-66" x="1341.109375"/>
      <use xlink:href="#DejaVuSans-6c" x="1376.314453"/>
      <use xlink:href="#DejaVuSans-65" x="1404.097656"/>
      <use xlink:href="#DejaVuSans-20" x="1465.621094"/>
      <use xlink:href="#DejaVuSans-35" x="1497.408203"/>
      <use xlink:href="#DejaVuSans-31" x="1561.03125"/>
      <use xlink:href="#DejaVuSans-32" x="1624.654297"/>
     </g>
    </g>
    <g id="line2d_103">
     <path d="M 669.681818 175.948437 
L 679.681818 175.948437 
L 689.681818 175.948437 
" style="fill: none; stroke: #bcbd22; stroke-width: 1.5; stroke-linecap: square"/>
    </g>
    <g id="text_52">
     <!-- buffered_fisher_yates_shuffle 1024 -->
     <g transform="translate(697.681818 179.448437)scale(0.1 -0.1)">
      <use xlink:href="#DejaVuSans-62"/>
      <use xlink:href="#DejaVuSans-75" x="63.476562"/>
      <use xlink:href="#DejaVuSans-66" x="126.855469"/>
      <use xlink:href="#DejaVuSans-66" x="162.060547"/>
      <use xlink:href="#DejaVuSans-65" x="197.265625"/>
      <use xlink:href="#DejaVuSans-72" x="258.789062"/>
      <use xlink:href="#DejaVuSans-65" x="297.652344"/>
      <use xlink:href="#DejaVuSans-64" x="359.175781"/>
      <use xlink:href="#DejaVuSans-5f" x="422.652344"/>
      <use xlink:href="#DejaVuSans-66" x="472.652344"/>
      <use xlink:href="#DejaVuSans-69" x="507.857422"/>
      <use xlink:href="#DejaVuSans-73" x="535.640625"/>
      <use xlink:href="#DejaVuSans-68" x="587.740234"/>
      <use xlink:href="#DejaVuSans-65" x="651.119141"/>
      <use xlink:href="#DejaVuSans-72" x="712.642578"/>
      <use xlink:href="#DejaVuSans-5f" x="753.755859"/>
      <use xlink:href="#DejaVuSans-79" x="803.755859"/>
      <use xlink:href="#DejaVuSans-61" x="862.935547"/>
      <use xlink:href="#DejaVuSans-74" x="924.214844"/>
      <use xlink:href="#DejaVuSans-65" x="963.423828"/>
      <use xlink:href="#DejaVuSans-73" x="1024.947266"/>
      <use xlink:href="#DejaVuSans-5f" x="1077.046875"/>
      <use xlink:href="#DejaVuSans-73" x="1127.046875"/>
      <use xlink:href="#DejaVuSans-68" x="1179.146484"/>
      <use xlink:href="#DejaVuSans-75" x="1242.525391"/>
      <use xlink:href="#DejaVuSans-66" x="1305.904297"/>
      <use xlink:href="#DejaVuSans-66" x="1341.109375"/>
      <use xlink:href="#DejaVuSans-6c" x="1376.314453"/>
      <use xlink:href="#DejaVuSans-65" x="1404.097656"/>
      <use xlink:href="#DejaVuSans-20" x="1465.621094"/>
      <use xlink:href="#DejaVuSans-31" x="1497.408203"/>
      <use xlink:href="#DejaVuSans-30" x="1561.03125"/>
      <use xlink:href="#DejaVuSans-32" x="1624.654297"/>
      <use xlink:href="#DejaVuSans-34" x="1688.277344"/>
     </g>
    </g>
   </g>
  </g>
 </g>
 <defs>
  <clipPath id="p3d529035e6">
   <rect x="90" y="43.2" width="253.636364" height="271.8"/>
  </clipPath>
  <clipPath id="p89b714e5c7">
   <rect x="394.363636" y="43.2" width="253.636364" height="271.8"/>
  </clipPath>
 </defs>
</svg>
