<?xml version="1.0" encoding="utf-8" standalone="no"?>
<!DOCTYPE svg PUBLIC "-//W3C//DTD SVG 1.1//EN"
  "http://www.w3.org/Graphics/SVG/1.1/DTD/svg11.dtd">
<svg xmlns:xlink="http://www.w3.org/1999/xlink" width="432pt" height="288pt" viewBox="0 0 432 288" xmlns="http://www.w3.org/2000/svg" version="1.1">
 <metadata>
  <rdf:RDF xmlns:dc="http://purl.org/dc/elements/1.1/" xmlns:cc="http://creativecommons.org/ns#" xmlns:rdf="http://www.w3.org/1999/02/22-rdf-syntax-ns#">
   <cc:Work>
    <dc:type rdf:resource="http://purl.org/dc/dcmitype/StillImage"/>
    <dc:date>2024-01-17T14:34:15.183447</dc:date>
    <dc:format>image/svg+xml</dc:format>
    <dc:creator>
     <cc:Agent>
      <dc:title>Matplotlib v3.5.1, https://matplotlib.org/</dc:title>
     </cc:Agent>
    </dc:creator>
   </cc:Work>
  </rdf:RDF>
 </metadata>
 <defs>
  <style type="text/css">*{stroke-linejoin: round; stroke-linecap: butt}</style>
 </defs>
 <g id="figure_1">
  <g id="patch_1">
   <path d="M 0 288 
L 432 288 
L 432 0 
L 0 0 
L 0 288 
z
" style="fill: none"/>
  </g>
  <g id="axes_1">
   <g id="patch_2">
    <path d="M 54 252 
L 388.8 252 
L 388.8 34.56 
L 54 34.56 
z
" style="fill: #ffffff"/>
   </g>
   <g id="matplotlib.axis_1">
    <g id="xtick_1">
     <g id="line2d_1">
      <path d="M 54 252 
L 54 34.56 
" clip-path="url(#p6cdd571666)" style="fill: none; stroke: #b0b0b0; stroke-width: 0.8; stroke-linecap: square"/>
     </g>
     <g id="line2d_2">
      <defs>
       <path id="m1d8cfaf961" d="M 0 0 
L 0 3.5 
" style="stroke: #000000; stroke-width: 0.8"/>
      </defs>
      <g>
       <use xlink:href="#m1d8cfaf961" x="54" y="252" style="stroke: #000000; stroke-width: 0.8"/>
      </g>
     </g>
     <g id="text_1">
      <!-- $\mathdefault{2^{2}}$ -->
      <g transform="translate(48.4 266.598437)scale(0.1 -0.1)">
       <defs>
        <path id="DejaVuSans-32" d="M 1228 531 
L 3431 531 
L 3431 0 
L 469 0 
L 469 531 
Q 828 903 1448 1529 
Q 2069 2156 2228 2338 
Q 2531 2678 2651 2914 
Q 2772 3150 2772 3378 
Q 2772 3750 2511 3984 
Q 2250 4219 1831 4219 
Q 1534 4219 1204 4116 
Q 875 4013 500 3803 
L 500 4441 
Q 881 4594 1212 4672 
Q 1544 4750 1819 4750 
Q 2544 4750 2975 4387 
Q 3406 4025 3406 3419 
Q 3406 3131 3298 2873 
Q 3191 2616 2906 2266 
Q 2828 2175 2409 1742 
Q 1991 1309 1228 531 
z
" transform="scale(0.015625)"/>
       </defs>
       <use xlink:href="#DejaVuSans-32" transform="translate(0 0.765625)"/>
       <use xlink:href="#DejaVuSans-32" transform="translate(64.580078 39.046875)scale(0.7)"/>
      </g>
     </g>
    </g>
    <g id="xtick_2">
     <g id="line2d_3">
      <path d="M 75.6 252 
L 75.6 34.56 
" clip-path="url(#p6cdd571666)" style="fill: none; stroke: #b0b0b0; stroke-width: 0.8; stroke-linecap: square"/>
     </g>
     <g id="line2d_4">
      <g>
       <use xlink:href="#m1d8cfaf961" x="75.6" y="252" style="stroke: #000000; stroke-width: 0.8"/>
      </g>
     </g>
     <g id="text_2">
      <!-- $\mathdefault{2^{4}}$ -->
      <g transform="translate(70 266.598437)scale(0.1 -0.1)">
       <defs>
        <path id="DejaVuSans-34" d="M 2419 4116 
L 825 1625 
L 2419 1625 
L 2419 4116 
z
M 2253 4666 
L 3047 4666 
L 3047 1625 
L 3713 1625 
L 3713 1100 
L 3047 1100 
L 3047 0 
L 2419 0 
L 2419 1100 
L 313 1100 
L 313 1709 
L 2253 4666 
z
" transform="scale(0.015625)"/>
       </defs>
       <use xlink:href="#DejaVuSans-32" transform="translate(0 0.684375)"/>
       <use xlink:href="#DejaVuSans-34" transform="translate(64.580078 38.965625)scale(0.7)"/>
      </g>
     </g>
    </g>
    <g id="xtick_3">
     <g id="line2d_5">
      <path d="M 97.2 252 
L 97.2 34.56 
" clip-path="url(#p6cdd571666)" style="fill: none; stroke: #b0b0b0; stroke-width: 0.8; stroke-linecap: square"/>
     </g>
     <g id="line2d_6">
      <g>
       <use xlink:href="#m1d8cfaf961" x="97.2" y="252" style="stroke: #000000; stroke-width: 0.8"/>
      </g>
     </g>
     <g id="text_3">
      <!-- $\mathdefault{2^{6}}$ -->
      <g transform="translate(91.6 266.598437)scale(0.1 -0.1)">
       <defs>
        <path id="DejaVuSans-36" d="M 2113 2584 
Q 1688 2584 1439 2293 
Q 1191 2003 1191 1497 
Q 1191 994 1439 701 
Q 1688 409 2113 409 
Q 2538 409 2786 701 
Q 3034 994 3034 1497 
Q 3034 2003 2786 2293 
Q 2538 2584 2113 2584 
z
M 3366 4563 
L 3366 3988 
Q 3128 4100 2886 4159 
Q 2644 4219 2406 4219 
Q 1781 4219 1451 3797 
Q 1122 3375 1075 2522 
Q 1259 2794 1537 2939 
Q 1816 3084 2150 3084 
Q 2853 3084 3261 2657 
Q 3669 2231 3669 1497 
Q 3669 778 3244 343 
Q 2819 -91 2113 -91 
Q 1303 -91 875 529 
Q 447 1150 447 2328 
Q 447 3434 972 4092 
Q 1497 4750 2381 4750 
Q 2619 4750 2861 4703 
Q 3103 4656 3366 4563 
z
" transform="scale(0.015625)"/>
       </defs>
       <use xlink:href="#DejaVuSans-32" transform="translate(0 0.765625)"/>
       <use xlink:href="#DejaVuSans-36" transform="translate(64.580078 39.046875)scale(0.7)"/>
      </g>
     </g>
    </g>
    <g id="xtick_4">
     <g id="line2d_7">
      <path d="M 118.8 252 
L 118.8 34.56 
" clip-path="url(#p6cdd571666)" style="fill: none; stroke: #b0b0b0; stroke-width: 0.8; stroke-linecap: square"/>
     </g>
     <g id="line2d_8">
      <g>
       <use xlink:href="#m1d8cfaf961" x="118.8" y="252" style="stroke: #000000; stroke-width: 0.8"/>
      </g>
     </g>
     <g id="text_4">
      <!-- $\mathdefault{2^{8}}$ -->
      <g transform="translate(113.2 266.598437)scale(0.1 -0.1)">
       <defs>
        <path id="DejaVuSans-38" d="M 2034 2216 
Q 1584 2216 1326 1975 
Q 1069 1734 1069 1313 
Q 1069 891 1326 650 
Q 1584 409 2034 409 
Q 2484 409 2743 651 
Q 3003 894 3003 1313 
Q 3003 1734 2745 1975 
Q 2488 2216 2034 2216 
z
M 1403 2484 
Q 997 2584 770 2862 
Q 544 3141 544 3541 
Q 544 4100 942 4425 
Q 1341 4750 2034 4750 
Q 2731 4750 3128 4425 
Q 3525 4100 3525 3541 
Q 3525 3141 3298 2862 
Q 3072 2584 2669 2484 
Q 3125 2378 3379 2068 
Q 3634 1759 3634 1313 
Q 3634 634 3220 271 
Q 2806 -91 2034 -91 
Q 1263 -91 848 271 
Q 434 634 434 1313 
Q 434 1759 690 2068 
Q 947 2378 1403 2484 
z
M 1172 3481 
Q 1172 3119 1398 2916 
Q 1625 2713 2034 2713 
Q 2441 2713 2670 2916 
Q 2900 3119 2900 3481 
Q 2900 3844 2670 4047 
Q 2441 4250 2034 4250 
Q 1625 4250 1398 4047 
Q 1172 3844 1172 3481 
z
" transform="scale(0.015625)"/>
       </defs>
       <use xlink:href="#DejaVuSans-32" transform="translate(0 0.765625)"/>
       <use xlink:href="#DejaVuSans-38" transform="translate(64.580078 39.046875)scale(0.7)"/>
      </g>
     </g>
    </g>
    <g id="xtick_5">
     <g id="line2d_9">
      <path d="M 140.4 252 
L 140.4 34.56 
" clip-path="url(#p6cdd571666)" style="fill: none; stroke: #b0b0b0; stroke-width: 0.8; stroke-linecap: square"/>
     </g>
     <g id="line2d_10">
      <g>
       <use xlink:href="#m1d8cfaf961" x="140.4" y="252" style="stroke: #000000; stroke-width: 0.8"/>
      </g>
     </g>
     <g id="text_5">
      <!-- $\mathdefault{2^{10}}$ -->
      <g transform="translate(132.55 266.598437)scale(0.1 -0.1)">
       <defs>
        <path id="DejaVuSans-31" d="M 794 531 
L 1825 531 
L 1825 4091 
L 703 3866 
L 703 4441 
L 1819 4666 
L 2450 4666 
L 2450 531 
L 3481 531 
L 3481 0 
L 794 0 
L 794 531 
z
" transform="scale(0.015625)"/>
        <path id="DejaVuSans-30" d="M 2034 4250 
Q 1547 4250 1301 3770 
Q 1056 3291 1056 2328 
Q 1056 1369 1301 889 
Q 1547 409 2034 409 
Q 2525 409 2770 889 
Q 3016 1369 3016 2328 
Q 3016 3291 2770 3770 
Q 2525 4250 2034 4250 
z
M 2034 4750 
Q 2819 4750 3233 4129 
Q 3647 3509 3647 2328 
Q 3647 1150 3233 529 
Q 2819 -91 2034 -91 
Q 1250 -91 836 529 
Q 422 1150 422 2328 
Q 422 3509 836 4129 
Q 1250 4750 2034 4750 
z
" transform="scale(0.015625)"/>
       </defs>
       <use xlink:href="#DejaVuSans-32" transform="translate(0 0.765625)"/>
       <use xlink:href="#DejaVuSans-31" transform="translate(64.580078 39.046875)scale(0.7)"/>
       <use xlink:href="#DejaVuSans-30" transform="translate(109.116211 39.046875)scale(0.7)"/>
      </g>
     </g>
    </g>
    <g id="xtick_6">
     <g id="line2d_11">
      <path d="M 162 252 
L 162 34.56 
" clip-path="url(#p6cdd571666)" style="fill: none; stroke: #b0b0b0; stroke-width: 0.8; stroke-linecap: square"/>
     </g>
     <g id="line2d_12">
      <g>
       <use xlink:href="#m1d8cfaf961" x="162" y="252" style="stroke: #000000; stroke-width: 0.8"/>
      </g>
     </g>
     <g id="text_6">
      <!-- $\mathdefault{2^{12}}$ -->
      <g transform="translate(154.15 266.598437)scale(0.1 -0.1)">
       <use xlink:href="#DejaVuSans-32" transform="translate(0 0.765625)"/>
       <use xlink:href="#DejaVuSans-31" transform="translate(64.580078 39.046875)scale(0.7)"/>
       <use xlink:href="#DejaVuSans-32" transform="translate(109.116211 39.046875)scale(0.7)"/>
      </g>
     </g>
    </g>
    <g id="xtick_7">
     <g id="line2d_13">
      <path d="M 183.6 252 
L 183.6 34.56 
" clip-path="url(#p6cdd571666)" style="fill: none; stroke: #b0b0b0; stroke-width: 0.8; stroke-linecap: square"/>
     </g>
     <g id="line2d_14">
      <g>
       <use xlink:href="#m1d8cfaf961" x="183.6" y="252" style="stroke: #000000; stroke-width: 0.8"/>
      </g>
     </g>
     <g id="text_7">
      <!-- $\mathdefault{2^{14}}$ -->
      <g transform="translate(175.75 266.598437)scale(0.1 -0.1)">
       <use xlink:href="#DejaVuSans-32" transform="translate(0 0.684375)"/>
       <use xlink:href="#DejaVuSans-31" transform="translate(64.580078 38.965625)scale(0.7)"/>
       <use xlink:href="#DejaVuSans-34" transform="translate(109.116211 38.965625)scale(0.7)"/>
      </g>
     </g>
    </g>
    <g id="xtick_8">
     <g id="line2d_15">
      <path d="M 205.2 252 
L 205.2 34.56 
" clip-path="url(#p6cdd571666)" style="fill: none; stroke: #b0b0b0; stroke-width: 0.8; stroke-linecap: square"/>
     </g>
     <g id="line2d_16">
      <g>
       <use xlink:href="#m1d8cfaf961" x="205.2" y="252" style="stroke: #000000; stroke-width: 0.8"/>
      </g>
     </g>
     <g id="text_8">
      <!-- $\mathdefault{2^{16}}$ -->
      <g transform="translate(197.35 266.598437)scale(0.1 -0.1)">
       <use xlink:href="#DejaVuSans-32" transform="translate(0 0.765625)"/>
       <use xlink:href="#DejaVuSans-31" transform="translate(64.580078 39.046875)scale(0.7)"/>
       <use xlink:href="#DejaVuSans-36" transform="translate(109.116211 39.046875)scale(0.7)"/>
      </g>
     </g>
    </g>
    <g id="xtick_9">
     <g id="line2d_17">
      <path d="M 226.8 252 
L 226.8 34.56 
" clip-path="url(#p6cdd571666)" style="fill: none; stroke: #b0b0b0; stroke-width: 0.8; stroke-linecap: square"/>
     </g>
     <g id="line2d_18">
      <g>
       <use xlink:href="#m1d8cfaf961" x="226.8" y="252" style="stroke: #000000; stroke-width: 0.8"/>
      </g>
     </g>
     <g id="text_9">
      <!-- $\mathdefault{2^{18}}$ -->
      <g transform="translate(218.95 266.598437)scale(0.1 -0.1)">
       <use xlink:href="#DejaVuSans-32" transform="translate(0 0.765625)"/>
       <use xlink:href="#DejaVuSans-31" transform="translate(64.580078 39.046875)scale(0.7)"/>
       <use xlink:href="#DejaVuSans-38" transform="translate(109.116211 39.046875)scale(0.7)"/>
      </g>
     </g>
    </g>
    <g id="xtick_10">
     <g id="line2d_19">
      <path d="M 248.4 252 
L 248.4 34.56 
" clip-path="url(#p6cdd571666)" style="fill: none; stroke: #b0b0b0; stroke-width: 0.8; stroke-linecap: square"/>
     </g>
     <g id="line2d_20">
      <g>
       <use xlink:href="#m1d8cfaf961" x="248.4" y="252" style="stroke: #000000; stroke-width: 0.8"/>
      </g>
     </g>
     <g id="text_10">
      <!-- $\mathdefault{2^{20}}$ -->
      <g transform="translate(240.55 266.598437)scale(0.1 -0.1)">
       <use xlink:href="#DejaVuSans-32" transform="translate(0 0.765625)"/>
       <use xlink:href="#DejaVuSans-32" transform="translate(64.580078 39.046875)scale(0.7)"/>
       <use xlink:href="#DejaVuSans-30" transform="translate(109.116211 39.046875)scale(0.7)"/>
      </g>
     </g>
    </g>
    <g id="xtick_11">
     <g id="line2d_21">
      <path d="M 270 252 
L 270 34.56 
" clip-path="url(#p6cdd571666)" style="fill: none; stroke: #b0b0b0; stroke-width: 0.8; stroke-linecap: square"/>
     </g>
     <g id="line2d_22">
      <g>
       <use xlink:href="#m1d8cfaf961" x="270" y="252" style="stroke: #000000; stroke-width: 0.8"/>
      </g>
     </g>
     <g id="text_11">
      <!-- $\mathdefault{2^{22}}$ -->
      <g transform="translate(262.15 266.598437)scale(0.1 -0.1)">
       <use xlink:href="#DejaVuSans-32" transform="translate(0 0.765625)"/>
       <use xlink:href="#DejaVuSans-32" transform="translate(64.580078 39.046875)scale(0.7)"/>
       <use xlink:href="#DejaVuSans-32" transform="translate(109.116211 39.046875)scale(0.7)"/>
      </g>
     </g>
    </g>
    <g id="xtick_12">
     <g id="line2d_23">
      <path d="M 291.6 252 
L 291.6 34.56 
" clip-path="url(#p6cdd571666)" style="fill: none; stroke: #b0b0b0; stroke-width: 0.8; stroke-linecap: square"/>
     </g>
     <g id="line2d_24">
      <g>
       <use xlink:href="#m1d8cfaf961" x="291.6" y="252" style="stroke: #000000; stroke-width: 0.8"/>
      </g>
     </g>
     <g id="text_12">
      <!-- $\mathdefault{2^{24}}$ -->
      <g transform="translate(283.75 266.598437)scale(0.1 -0.1)">
       <use xlink:href="#DejaVuSans-32" transform="translate(0 0.765625)"/>
       <use xlink:href="#DejaVuSans-32" transform="translate(64.580078 39.046875)scale(0.7)"/>
       <use xlink:href="#DejaVuSans-34" transform="translate(109.116211 39.046875)scale(0.7)"/>
      </g>
     </g>
    </g>
    <g id="xtick_13">
     <g id="line2d_25">
      <path d="M 313.2 252 
L 313.2 34.56 
" clip-path="url(#p6cdd571666)" style="fill: none; stroke: #b0b0b0; stroke-width: 0.8; stroke-linecap: square"/>
     </g>
     <g id="line2d_26">
      <g>
       <use xlink:href="#m1d8cfaf961" x="313.2" y="252" style="stroke: #000000; stroke-width: 0.8"/>
      </g>
     </g>
     <g id="text_13">
      <!-- $\mathdefault{2^{26}}$ -->
      <g transform="translate(305.35 266.598437)scale(0.1 -0.1)">
       <use xlink:href="#DejaVuSans-32" transform="translate(0 0.765625)"/>
       <use xlink:href="#DejaVuSans-32" transform="translate(64.580078 39.046875)scale(0.7)"/>
       <use xlink:href="#DejaVuSans-36" transform="translate(109.116211 39.046875)scale(0.7)"/>
      </g>
     </g>
    </g>
    <g id="xtick_14">
     <g id="line2d_27">
      <path d="M 334.8 252 
L 334.8 34.56 
" clip-path="url(#p6cdd571666)" style="fill: none; stroke: #b0b0b0; stroke-width: 0.8; stroke-linecap: square"/>
     </g>
     <g id="line2d_28">
      <g>
       <use xlink:href="#m1d8cfaf961" x="334.8" y="252" style="stroke: #000000; stroke-width: 0.8"/>
      </g>
     </g>
     <g id="text_14">
      <!-- $\mathdefault{2^{28}}$ -->
      <g transform="translate(326.95 266.598437)scale(0.1 -0.1)">
       <use xlink:href="#DejaVuSans-32" transform="translate(0 0.765625)"/>
       <use xlink:href="#DejaVuSans-32" transform="translate(64.580078 39.046875)scale(0.7)"/>
       <use xlink:href="#DejaVuSans-38" transform="translate(109.116211 39.046875)scale(0.7)"/>
      </g>
     </g>
    </g>
    <g id="xtick_15">
     <g id="line2d_29">
      <path d="M 356.4 252 
L 356.4 34.56 
" clip-path="url(#p6cdd571666)" style="fill: none; stroke: #b0b0b0; stroke-width: 0.8; stroke-linecap: square"/>
     </g>
     <g id="line2d_30">
      <g>
       <use xlink:href="#m1d8cfaf961" x="356.4" y="252" style="stroke: #000000; stroke-width: 0.8"/>
      </g>
     </g>
     <g id="text_15">
      <!-- $\mathdefault{2^{30}}$ -->
      <g transform="translate(348.55 266.598437)scale(0.1 -0.1)">
       <defs>
        <path id="DejaVuSans-33" d="M 2597 2516 
Q 3050 2419 3304 2112 
Q 3559 1806 3559 1356 
Q 3559 666 3084 287 
Q 2609 -91 1734 -91 
Q 1441 -91 1130 -33 
Q 819 25 488 141 
L 488 750 
Q 750 597 1062 519 
Q 1375 441 1716 441 
Q 2309 441 2620 675 
Q 2931 909 2931 1356 
Q 2931 1769 2642 2001 
Q 2353 2234 1838 2234 
L 1294 2234 
L 1294 2753 
L 1863 2753 
Q 2328 2753 2575 2939 
Q 2822 3125 2822 3475 
Q 2822 3834 2567 4026 
Q 2313 4219 1838 4219 
Q 1578 4219 1281 4162 
Q 984 4106 628 3988 
L 628 4550 
Q 988 4650 1302 4700 
Q 1616 4750 1894 4750 
Q 2613 4750 3031 4423 
Q 3450 4097 3450 3541 
Q 3450 3153 3228 2886 
Q 3006 2619 2597 2516 
z
" transform="scale(0.015625)"/>
       </defs>
       <use xlink:href="#DejaVuSans-32" transform="translate(0 0.765625)"/>
       <use xlink:href="#DejaVuSans-33" transform="translate(64.580078 39.046875)scale(0.7)"/>
       <use xlink:href="#DejaVuSans-30" transform="translate(109.116211 39.046875)scale(0.7)"/>
      </g>
     </g>
    </g>
    <g id="xtick_16">
     <g id="line2d_31">
      <path d="M 378 252 
L 378 34.56 
" clip-path="url(#p6cdd571666)" style="fill: none; stroke: #b0b0b0; stroke-width: 0.8; stroke-linecap: square"/>
     </g>
     <g id="line2d_32">
      <g>
       <use xlink:href="#m1d8cfaf961" x="378" y="252" style="stroke: #000000; stroke-width: 0.8"/>
      </g>
     </g>
     <g id="text_16">
      <!-- $\mathdefault{2^{32}}$ -->
      <g transform="translate(370.15 266.598437)scale(0.1 -0.1)">
       <use xlink:href="#DejaVuSans-32" transform="translate(0 0.765625)"/>
       <use xlink:href="#DejaVuSans-33" transform="translate(64.580078 39.046875)scale(0.7)"/>
       <use xlink:href="#DejaVuSans-32" transform="translate(109.116211 39.046875)scale(0.7)"/>
      </g>
     </g>
    </g>
    <g id="text_17">
     <!-- Eingabegröße -->
     <g transform="translate(186.791406 280.276563)scale(0.1 -0.1)">
      <defs>
       <path id="DejaVuSans-45" d="M 628 4666 
L 3578 4666 
L 3578 4134 
L 1259 4134 
L 1259 2753 
L 3481 2753 
L 3481 2222 
L 1259 2222 
L 1259 531 
L 3634 531 
L 3634 0 
L 628 0 
L 628 4666 
z
" transform="scale(0.015625)"/>
       <path id="DejaVuSans-69" d="M 603 3500 
L 1178 3500 
L 1178 0 
L 603 0 
L 603 3500 
z
M 603 4863 
L 1178 4863 
L 1178 4134 
L 603 4134 
L 603 4863 
z
" transform="scale(0.015625)"/>
       <path id="DejaVuSans-6e" d="M 3513 2113 
L 3513 0 
L 2938 0 
L 2938 2094 
Q 2938 2591 2744 2837 
Q 2550 3084 2163 3084 
Q 1697 3084 1428 2787 
Q 1159 2491 1159 1978 
L 1159 0 
L 581 0 
L 581 3500 
L 1159 3500 
L 1159 2956 
Q 1366 3272 1645 3428 
Q 1925 3584 2291 3584 
Q 2894 3584 3203 3211 
Q 3513 2838 3513 2113 
z
" transform="scale(0.015625)"/>
       <path id="DejaVuSans-67" d="M 2906 1791 
Q 2906 2416 2648 2759 
Q 2391 3103 1925 3103 
Q 1463 3103 1205 2759 
Q 947 2416 947 1791 
Q 947 1169 1205 825 
Q 1463 481 1925 481 
Q 2391 481 2648 825 
Q 2906 1169 2906 1791 
z
M 3481 434 
Q 3481 -459 3084 -895 
Q 2688 -1331 1869 -1331 
Q 1566 -1331 1297 -1286 
Q 1028 -1241 775 -1147 
L 775 -588 
Q 1028 -725 1275 -790 
Q 1522 -856 1778 -856 
Q 2344 -856 2625 -561 
Q 2906 -266 2906 331 
L 2906 616 
Q 2728 306 2450 153 
Q 2172 0 1784 0 
Q 1141 0 747 490 
Q 353 981 353 1791 
Q 353 2603 747 3093 
Q 1141 3584 1784 3584 
Q 2172 3584 2450 3431 
Q 2728 3278 2906 2969 
L 2906 3500 
L 3481 3500 
L 3481 434 
z
" transform="scale(0.015625)"/>
       <path id="DejaVuSans-61" d="M 2194 1759 
Q 1497 1759 1228 1600 
Q 959 1441 959 1056 
Q 959 750 1161 570 
Q 1363 391 1709 391 
Q 2188 391 2477 730 
Q 2766 1069 2766 1631 
L 2766 1759 
L 2194 1759 
z
M 3341 1997 
L 3341 0 
L 2766 0 
L 2766 531 
Q 2569 213 2275 61 
Q 1981 -91 1556 -91 
Q 1019 -91 701 211 
Q 384 513 384 1019 
Q 384 1609 779 1909 
Q 1175 2209 1959 2209 
L 2766 2209 
L 2766 2266 
Q 2766 2663 2505 2880 
Q 2244 3097 1772 3097 
Q 1472 3097 1187 3025 
Q 903 2953 641 2809 
L 641 3341 
Q 956 3463 1253 3523 
Q 1550 3584 1831 3584 
Q 2591 3584 2966 3190 
Q 3341 2797 3341 1997 
z
" transform="scale(0.015625)"/>
       <path id="DejaVuSans-62" d="M 3116 1747 
Q 3116 2381 2855 2742 
Q 2594 3103 2138 3103 
Q 1681 3103 1420 2742 
Q 1159 2381 1159 1747 
Q 1159 1113 1420 752 
Q 1681 391 2138 391 
Q 2594 391 2855 752 
Q 3116 1113 3116 1747 
z
M 1159 2969 
Q 1341 3281 1617 3432 
Q 1894 3584 2278 3584 
Q 2916 3584 3314 3078 
Q 3713 2572 3713 1747 
Q 3713 922 3314 415 
Q 2916 -91 2278 -91 
Q 1894 -91 1617 61 
Q 1341 213 1159 525 
L 1159 0 
L 581 0 
L 581 4863 
L 1159 4863 
L 1159 2969 
z
" transform="scale(0.015625)"/>
       <path id="DejaVuSans-65" d="M 3597 1894 
L 3597 1613 
L 953 1613 
Q 991 1019 1311 708 
Q 1631 397 2203 397 
Q 2534 397 2845 478 
Q 3156 559 3463 722 
L 3463 178 
Q 3153 47 2828 -22 
Q 2503 -91 2169 -91 
Q 1331 -91 842 396 
Q 353 884 353 1716 
Q 353 2575 817 3079 
Q 1281 3584 2069 3584 
Q 2775 3584 3186 3129 
Q 3597 2675 3597 1894 
z
M 3022 2063 
Q 3016 2534 2758 2815 
Q 2500 3097 2075 3097 
Q 1594 3097 1305 2825 
Q 1016 2553 972 2059 
L 3022 2063 
z
" transform="scale(0.015625)"/>
       <path id="DejaVuSans-72" d="M 2631 2963 
Q 2534 3019 2420 3045 
Q 2306 3072 2169 3072 
Q 1681 3072 1420 2755 
Q 1159 2438 1159 1844 
L 1159 0 
L 581 0 
L 581 3500 
L 1159 3500 
L 1159 2956 
Q 1341 3275 1631 3429 
Q 1922 3584 2338 3584 
Q 2397 3584 2469 3576 
Q 2541 3569 2628 3553 
L 2631 2963 
z
" transform="scale(0.015625)"/>
       <path id="DejaVuSans-f6" d="M 1959 3097 
Q 1497 3097 1228 2736 
Q 959 2375 959 1747 
Q 959 1119 1226 758 
Q 1494 397 1959 397 
Q 2419 397 2687 759 
Q 2956 1122 2956 1747 
Q 2956 2369 2687 2733 
Q 2419 3097 1959 3097 
z
M 1959 3584 
Q 2709 3584 3137 3096 
Q 3566 2609 3566 1747 
Q 3566 888 3137 398 
Q 2709 -91 1959 -91 
Q 1206 -91 779 398 
Q 353 888 353 1747 
Q 353 2609 779 3096 
Q 1206 3584 1959 3584 
z
M 2254 4850 
L 2888 4850 
L 2888 4219 
L 2254 4219 
L 2254 4850 
z
M 1032 4850 
L 1666 4850 
L 1666 4219 
L 1032 4219 
L 1032 4850 
z
" transform="scale(0.015625)"/>
       <path id="DejaVuSans-df" d="M 581 3553 
Q 581 4178 954 4520 
Q 1328 4863 2009 4863 
Q 2659 4863 3001 4500 
Q 3344 4138 3353 3438 
Q 2881 3413 2618 3233 
Q 2356 3053 2356 2753 
Q 2356 2606 2447 2479 
Q 2538 2353 2741 2222 
L 2919 2106 
Q 3438 1775 3588 1553 
Q 3738 1331 3738 1019 
Q 3738 481 3386 195 
Q 3034 -91 2375 -91 
Q 2175 -91 1962 -52 
Q 1750 -13 1522 63 
L 1522 575 
Q 1772 481 1990 436 
Q 2209 391 2413 391 
Q 2775 391 2962 539 
Q 3150 688 3150 972 
Q 3150 1169 3058 1300 
Q 2966 1431 2650 1625 
L 2363 1797 
Q 2063 1981 1927 2192 
Q 1791 2403 1791 2688 
Q 1791 3084 2052 3353 
Q 2313 3622 2784 3713 
Q 2759 4034 2554 4209 
Q 2350 4384 1997 4384 
Q 1591 4384 1378 4167 
Q 1166 3950 1166 3541 
L 1166 0 
L 581 0 
L 581 3553 
z
" transform="scale(0.015625)"/>
      </defs>
      <use xlink:href="#DejaVuSans-45"/>
      <use xlink:href="#DejaVuSans-69" x="63.183594"/>
      <use xlink:href="#DejaVuSans-6e" x="90.966797"/>
      <use xlink:href="#DejaVuSans-67" x="154.345703"/>
      <use xlink:href="#DejaVuSans-61" x="217.822266"/>
      <use xlink:href="#DejaVuSans-62" x="279.101562"/>
      <use xlink:href="#DejaVuSans-65" x="342.578125"/>
      <use xlink:href="#DejaVuSans-67" x="404.101562"/>
      <use xlink:href="#DejaVuSans-72" x="467.578125"/>
      <use xlink:href="#DejaVuSans-f6" x="506.441406"/>
      <use xlink:href="#DejaVuSans-df" x="567.623047"/>
      <use xlink:href="#DejaVuSans-65" x="630.611328"/>
     </g>
    </g>
   </g>
   <g id="matplotlib.axis_2">
    <g id="ytick_1">
     <g id="line2d_33">
      <path d="M 54 252 
L 388.8 252 
" clip-path="url(#p6cdd571666)" style="fill: none; stroke: #b0b0b0; stroke-width: 0.8; stroke-linecap: square"/>
     </g>
     <g id="line2d_34">
      <defs>
       <path id="m3f5fd52560" d="M 0 0 
L -3.5 0 
" style="stroke: #000000; stroke-width: 0.8"/>
      </defs>
      <g>
       <use xlink:href="#m3f5fd52560" x="54" y="252" style="stroke: #000000; stroke-width: 0.8"/>
      </g>
     </g>
     <g id="text_18">
      <!-- $\mathdefault{10^{0}}$ -->
      <g transform="translate(29.4 255.799219)scale(0.1 -0.1)">
       <use xlink:href="#DejaVuSans-31" transform="translate(0 0.765625)"/>
       <use xlink:href="#DejaVuSans-30" transform="translate(63.623047 0.765625)"/>
       <use xlink:href="#DejaVuSans-30" transform="translate(128.203125 39.046875)scale(0.7)"/>
      </g>
     </g>
    </g>
    <g id="ytick_2">
     <g id="line2d_35">
      <path d="M 54 137.743711 
L 388.8 137.743711 
" clip-path="url(#p6cdd571666)" style="fill: none; stroke: #b0b0b0; stroke-width: 0.8; stroke-linecap: square"/>
     </g>
     <g id="line2d_36">
      <g>
       <use xlink:href="#m3f5fd52560" x="54" y="137.743711" style="stroke: #000000; stroke-width: 0.8"/>
      </g>
     </g>
     <g id="text_19">
      <!-- $\mathdefault{10^{1}}$ -->
      <g transform="translate(29.4 141.54293)scale(0.1 -0.1)">
       <use xlink:href="#DejaVuSans-31" transform="translate(0 0.684375)"/>
       <use xlink:href="#DejaVuSans-30" transform="translate(63.623047 0.684375)"/>
       <use xlink:href="#DejaVuSans-31" transform="translate(128.203125 38.965625)scale(0.7)"/>
      </g>
     </g>
    </g>
    <g id="ytick_3">
     <g id="line2d_37">
      <path d="M 54 217.60543 
L 388.8 217.60543 
" clip-path="url(#p6cdd571666)" style="fill: none; stroke: #b0b0b0; stroke-width: 0.8; stroke-linecap: square"/>
     </g>
     <g id="line2d_38">
      <defs>
       <path id="mb98c4daedc" d="M 0 0 
L -2 0 
" style="stroke: #000000; stroke-width: 0.6"/>
      </defs>
      <g>
       <use xlink:href="#mb98c4daedc" x="54" y="217.60543" style="stroke: #000000; stroke-width: 0.6"/>
      </g>
     </g>
    </g>
    <g id="ytick_4">
     <g id="line2d_39">
      <path d="M 54 197.485896 
L 388.8 197.485896 
" clip-path="url(#p6cdd571666)" style="fill: none; stroke: #b0b0b0; stroke-width: 0.8; stroke-linecap: square"/>
     </g>
     <g id="line2d_40">
      <g>
       <use xlink:href="#mb98c4daedc" x="54" y="197.485896" style="stroke: #000000; stroke-width: 0.6"/>
      </g>
     </g>
    </g>
    <g id="ytick_5">
     <g id="line2d_41">
      <path d="M 54 183.210859 
L 388.8 183.210859 
" clip-path="url(#p6cdd571666)" style="fill: none; stroke: #b0b0b0; stroke-width: 0.8; stroke-linecap: square"/>
     </g>
     <g id="line2d_42">
      <g>
       <use xlink:href="#mb98c4daedc" x="54" y="183.210859" style="stroke: #000000; stroke-width: 0.6"/>
      </g>
     </g>
    </g>
    <g id="ytick_6">
     <g id="line2d_43">
      <path d="M 54 172.138281 
L 388.8 172.138281 
" clip-path="url(#p6cdd571666)" style="fill: none; stroke: #b0b0b0; stroke-width: 0.8; stroke-linecap: square"/>
     </g>
     <g id="line2d_44">
      <g>
       <use xlink:href="#mb98c4daedc" x="54" y="172.138281" style="stroke: #000000; stroke-width: 0.6"/>
      </g>
     </g>
    </g>
    <g id="ytick_7">
     <g id="line2d_45">
      <path d="M 54 163.091326 
L 388.8 163.091326 
" clip-path="url(#p6cdd571666)" style="fill: none; stroke: #b0b0b0; stroke-width: 0.8; stroke-linecap: square"/>
     </g>
     <g id="line2d_46">
      <g>
       <use xlink:href="#mb98c4daedc" x="54" y="163.091326" style="stroke: #000000; stroke-width: 0.6"/>
      </g>
     </g>
    </g>
    <g id="ytick_8">
     <g id="line2d_47">
      <path d="M 54 155.442234 
L 388.8 155.442234 
" clip-path="url(#p6cdd571666)" style="fill: none; stroke: #b0b0b0; stroke-width: 0.8; stroke-linecap: square"/>
     </g>
     <g id="line2d_48">
      <g>
       <use xlink:href="#mb98c4daedc" x="54" y="155.442234" style="stroke: #000000; stroke-width: 0.6"/>
      </g>
     </g>
    </g>
    <g id="ytick_9">
     <g id="line2d_49">
      <path d="M 54 148.816289 
L 388.8 148.816289 
" clip-path="url(#p6cdd571666)" style="fill: none; stroke: #b0b0b0; stroke-width: 0.8; stroke-linecap: square"/>
     </g>
     <g id="line2d_50">
      <g>
       <use xlink:href="#mb98c4daedc" x="54" y="148.816289" style="stroke: #000000; stroke-width: 0.6"/>
      </g>
     </g>
    </g>
    <g id="ytick_10">
     <g id="line2d_51">
      <path d="M 54 142.971792 
L 388.8 142.971792 
" clip-path="url(#p6cdd571666)" style="fill: none; stroke: #b0b0b0; stroke-width: 0.8; stroke-linecap: square"/>
     </g>
     <g id="line2d_52">
      <g>
       <use xlink:href="#mb98c4daedc" x="54" y="142.971792" style="stroke: #000000; stroke-width: 0.6"/>
      </g>
     </g>
    </g>
    <g id="ytick_11">
     <g id="line2d_53">
      <path d="M 54 103.349141 
L 388.8 103.349141 
" clip-path="url(#p6cdd571666)" style="fill: none; stroke: #b0b0b0; stroke-width: 0.8; stroke-linecap: square"/>
     </g>
     <g id="line2d_54">
      <g>
       <use xlink:href="#mb98c4daedc" x="54" y="103.349141" style="stroke: #000000; stroke-width: 0.6"/>
      </g>
     </g>
    </g>
    <g id="ytick_12">
     <g id="line2d_55">
      <path d="M 54 83.229607 
L 388.8 83.229607 
" clip-path="url(#p6cdd571666)" style="fill: none; stroke: #b0b0b0; stroke-width: 0.8; stroke-linecap: square"/>
     </g>
     <g id="line2d_56">
      <g>
       <use xlink:href="#mb98c4daedc" x="54" y="83.229607" style="stroke: #000000; stroke-width: 0.6"/>
      </g>
     </g>
    </g>
    <g id="ytick_13">
     <g id="line2d_57">
      <path d="M 54 68.95457 
L 388.8 68.95457 
" clip-path="url(#p6cdd571666)" style="fill: none; stroke: #b0b0b0; stroke-width: 0.8; stroke-linecap: square"/>
     </g>
     <g id="line2d_58">
      <g>
       <use xlink:href="#mb98c4daedc" x="54" y="68.95457" style="stroke: #000000; stroke-width: 0.6"/>
      </g>
     </g>
    </g>
    <g id="ytick_14">
     <g id="line2d_59">
      <path d="M 54 57.881992 
L 388.8 57.881992 
" clip-path="url(#p6cdd571666)" style="fill: none; stroke: #b0b0b0; stroke-width: 0.8; stroke-linecap: square"/>
     </g>
     <g id="line2d_60">
      <g>
       <use xlink:href="#mb98c4daedc" x="54" y="57.881992" style="stroke: #000000; stroke-width: 0.6"/>
      </g>
     </g>
    </g>
    <g id="ytick_15">
     <g id="line2d_61">
      <path d="M 54 48.835036 
L 388.8 48.835036 
" clip-path="url(#p6cdd571666)" style="fill: none; stroke: #b0b0b0; stroke-width: 0.8; stroke-linecap: square"/>
     </g>
     <g id="line2d_62">
      <g>
       <use xlink:href="#mb98c4daedc" x="54" y="48.835036" style="stroke: #000000; stroke-width: 0.6"/>
      </g>
     </g>
    </g>
    <g id="ytick_16">
     <g id="line2d_63">
      <path d="M 54 41.185945 
L 388.8 41.185945 
" clip-path="url(#p6cdd571666)" style="fill: none; stroke: #b0b0b0; stroke-width: 0.8; stroke-linecap: square"/>
     </g>
     <g id="line2d_64">
      <g>
       <use xlink:href="#mb98c4daedc" x="54" y="41.185945" style="stroke: #000000; stroke-width: 0.6"/>
      </g>
     </g>
    </g>
    <g id="ytick_17">
     <g id="line2d_65">
      <path d="M 54 34.56 
L 388.8 34.56 
" clip-path="url(#p6cdd571666)" style="fill: none; stroke: #b0b0b0; stroke-width: 0.8; stroke-linecap: square"/>
     </g>
     <g id="line2d_66">
      <g>
       <use xlink:href="#mb98c4daedc" x="54" y="34.56" style="stroke: #000000; stroke-width: 0.6"/>
      </g>
     </g>
    </g>
    <g id="text_20">
     <!-- Laufzeit pro Element [ns] -->
     <g transform="translate(23.320312 206.428438)rotate(-90)scale(0.1 -0.1)">
      <defs>
       <path id="DejaVuSans-4c" d="M 628 4666 
L 1259 4666 
L 1259 531 
L 3531 531 
L 3531 0 
L 628 0 
L 628 4666 
z
" transform="scale(0.015625)"/>
       <path id="DejaVuSans-75" d="M 544 1381 
L 544 3500 
L 1119 3500 
L 1119 1403 
Q 1119 906 1312 657 
Q 1506 409 1894 409 
Q 2359 409 2629 706 
Q 2900 1003 2900 1516 
L 2900 3500 
L 3475 3500 
L 3475 0 
L 2900 0 
L 2900 538 
Q 2691 219 2414 64 
Q 2138 -91 1772 -91 
Q 1169 -91 856 284 
Q 544 659 544 1381 
z
M 1991 3584 
L 1991 3584 
z
" transform="scale(0.015625)"/>
       <path id="DejaVuSans-66" d="M 2375 4863 
L 2375 4384 
L 1825 4384 
Q 1516 4384 1395 4259 
Q 1275 4134 1275 3809 
L 1275 3500 
L 2222 3500 
L 2222 3053 
L 1275 3053 
L 1275 0 
L 697 0 
L 697 3053 
L 147 3053 
L 147 3500 
L 697 3500 
L 697 3744 
Q 697 4328 969 4595 
Q 1241 4863 1831 4863 
L 2375 4863 
z
" transform="scale(0.015625)"/>
       <path id="DejaVuSans-7a" d="M 353 3500 
L 3084 3500 
L 3084 2975 
L 922 459 
L 3084 459 
L 3084 0 
L 275 0 
L 275 525 
L 2438 3041 
L 353 3041 
L 353 3500 
z
" transform="scale(0.015625)"/>
       <path id="DejaVuSans-74" d="M 1172 4494 
L 1172 3500 
L 2356 3500 
L 2356 3053 
L 1172 3053 
L 1172 1153 
Q 1172 725 1289 603 
Q 1406 481 1766 481 
L 2356 481 
L 2356 0 
L 1766 0 
Q 1100 0 847 248 
Q 594 497 594 1153 
L 594 3053 
L 172 3053 
L 172 3500 
L 594 3500 
L 594 4494 
L 1172 4494 
z
" transform="scale(0.015625)"/>
       <path id="DejaVuSans-20" transform="scale(0.015625)"/>
       <path id="DejaVuSans-70" d="M 1159 525 
L 1159 -1331 
L 581 -1331 
L 581 3500 
L 1159 3500 
L 1159 2969 
Q 1341 3281 1617 3432 
Q 1894 3584 2278 3584 
Q 2916 3584 3314 3078 
Q 3713 2572 3713 1747 
Q 3713 922 3314 415 
Q 2916 -91 2278 -91 
Q 1894 -91 1617 61 
Q 1341 213 1159 525 
z
M 3116 1747 
Q 3116 2381 2855 2742 
Q 2594 3103 2138 3103 
Q 1681 3103 1420 2742 
Q 1159 2381 1159 1747 
Q 1159 1113 1420 752 
Q 1681 391 2138 391 
Q 2594 391 2855 752 
Q 3116 1113 3116 1747 
z
" transform="scale(0.015625)"/>
       <path id="DejaVuSans-6f" d="M 1959 3097 
Q 1497 3097 1228 2736 
Q 959 2375 959 1747 
Q 959 1119 1226 758 
Q 1494 397 1959 397 
Q 2419 397 2687 759 
Q 2956 1122 2956 1747 
Q 2956 2369 2687 2733 
Q 2419 3097 1959 3097 
z
M 1959 3584 
Q 2709 3584 3137 3096 
Q 3566 2609 3566 1747 
Q 3566 888 3137 398 
Q 2709 -91 1959 -91 
Q 1206 -91 779 398 
Q 353 888 353 1747 
Q 353 2609 779 3096 
Q 1206 3584 1959 3584 
z
" transform="scale(0.015625)"/>
       <path id="DejaVuSans-6c" d="M 603 4863 
L 1178 4863 
L 1178 0 
L 603 0 
L 603 4863 
z
" transform="scale(0.015625)"/>
       <path id="DejaVuSans-6d" d="M 3328 2828 
Q 3544 3216 3844 3400 
Q 4144 3584 4550 3584 
Q 5097 3584 5394 3201 
Q 5691 2819 5691 2113 
L 5691 0 
L 5113 0 
L 5113 2094 
Q 5113 2597 4934 2840 
Q 4756 3084 4391 3084 
Q 3944 3084 3684 2787 
Q 3425 2491 3425 1978 
L 3425 0 
L 2847 0 
L 2847 2094 
Q 2847 2600 2669 2842 
Q 2491 3084 2119 3084 
Q 1678 3084 1418 2786 
Q 1159 2488 1159 1978 
L 1159 0 
L 581 0 
L 581 3500 
L 1159 3500 
L 1159 2956 
Q 1356 3278 1631 3431 
Q 1906 3584 2284 3584 
Q 2666 3584 2933 3390 
Q 3200 3197 3328 2828 
z
" transform="scale(0.015625)"/>
       <path id="DejaVuSans-5b" d="M 550 4863 
L 1875 4863 
L 1875 4416 
L 1125 4416 
L 1125 -397 
L 1875 -397 
L 1875 -844 
L 550 -844 
L 550 4863 
z
" transform="scale(0.015625)"/>
       <path id="DejaVuSans-73" d="M 2834 3397 
L 2834 2853 
Q 2591 2978 2328 3040 
Q 2066 3103 1784 3103 
Q 1356 3103 1142 2972 
Q 928 2841 928 2578 
Q 928 2378 1081 2264 
Q 1234 2150 1697 2047 
L 1894 2003 
Q 2506 1872 2764 1633 
Q 3022 1394 3022 966 
Q 3022 478 2636 193 
Q 2250 -91 1575 -91 
Q 1294 -91 989 -36 
Q 684 19 347 128 
L 347 722 
Q 666 556 975 473 
Q 1284 391 1588 391 
Q 1994 391 2212 530 
Q 2431 669 2431 922 
Q 2431 1156 2273 1281 
Q 2116 1406 1581 1522 
L 1381 1569 
Q 847 1681 609 1914 
Q 372 2147 372 2553 
Q 372 3047 722 3315 
Q 1072 3584 1716 3584 
Q 2034 3584 2315 3537 
Q 2597 3491 2834 3397 
z
" transform="scale(0.015625)"/>
       <path id="DejaVuSans-5d" d="M 1947 4863 
L 1947 -844 
L 622 -844 
L 622 -397 
L 1369 -397 
L 1369 4416 
L 622 4416 
L 622 4863 
L 1947 4863 
z
" transform="scale(0.015625)"/>
      </defs>
      <use xlink:href="#DejaVuSans-4c"/>
      <use xlink:href="#DejaVuSans-61" x="55.712891"/>
      <use xlink:href="#DejaVuSans-75" x="116.992188"/>
      <use xlink:href="#DejaVuSans-66" x="180.371094"/>
      <use xlink:href="#DejaVuSans-7a" x="215.576172"/>
      <use xlink:href="#DejaVuSans-65" x="268.066406"/>
      <use xlink:href="#DejaVuSans-69" x="329.589844"/>
      <use xlink:href="#DejaVuSans-74" x="357.373047"/>
      <use xlink:href="#DejaVuSans-20" x="396.582031"/>
      <use xlink:href="#DejaVuSans-70" x="428.369141"/>
      <use xlink:href="#DejaVuSans-72" x="491.845703"/>
      <use xlink:href="#DejaVuSans-6f" x="530.708984"/>
      <use xlink:href="#DejaVuSans-20" x="591.890625"/>
      <use xlink:href="#DejaVuSans-45" x="623.677734"/>
      <use xlink:href="#DejaVuSans-6c" x="686.861328"/>
      <use xlink:href="#DejaVuSans-65" x="714.644531"/>
      <use xlink:href="#DejaVuSans-6d" x="776.167969"/>
      <use xlink:href="#DejaVuSans-65" x="873.580078"/>
      <use xlink:href="#DejaVuSans-6e" x="935.103516"/>
      <use xlink:href="#DejaVuSans-74" x="998.482422"/>
      <use xlink:href="#DejaVuSans-20" x="1037.691406"/>
      <use xlink:href="#DejaVuSans-5b" x="1069.478516"/>
      <use xlink:href="#DejaVuSans-6e" x="1108.492188"/>
      <use xlink:href="#DejaVuSans-73" x="1171.871094"/>
      <use xlink:href="#DejaVuSans-5d" x="1223.970703"/>
     </g>
    </g>
   </g>
   <g id="line2d_67">
    <path d="M 32.4 202.862409 
L 43.2 201.565686 
L 54 210.464413 
L 64.8 210.420633 
L 75.6 209.110506 
L 86.4 207.852339 
L 97.2 205.968287 
L 108 204.42928 
L 118.8 203.363059 
L 129.6 202.07623 
L 140.4 200.74166 
L 151.2 199.340836 
L 162 197.951445 
L 172.8 196.60866 
L 183.6 196.093442 
L 194.4 195.278035 
L 205.2 194.488756 
L 216 192.599257 
L 226.8 191.19291 
L 237.6 189.881794 
L 248.4 188.610578 
L 259.2 172.145824 
L 270 138.325297 
L 280.8 120.869288 
L 291.6 112.883772 
L 302.4 108.506117 
L 313.2 106.102911 
L 324 104.981639 
L 334.8 103.004596 
L 345.6 94.753873 
L 356.4 80.222141 
L 367.2 66.017832 
L 378 54.409372 
L 388.8 49.242999 
" clip-path="url(#p6cdd571666)" style="fill: none; stroke: #1f77b4; stroke-width: 1.5; stroke-linecap: square"/>
   </g>
   <g id="line2d_68">
    <path d="M 32.4 257.406459 
L 43.2 237.56946 
L 54 220.289962 
L 64.8 213.783975 
L 75.6 210.911248 
L 86.4 209.489188 
L 97.2 207.265554 
L 108 207.659758 
L 118.8 207.232483 
L 129.6 207.975651 
L 140.4 208.098744 
L 151.2 207.83753 
L 162 208.28481 
L 172.8 207.863769 
L 183.6 207.947242 
L 194.4 208.176693 
L 205.2 204.20261 
L 216 197.544044 
L 226.8 193.540715 
L 237.6 191.089357 
L 248.4 189.18598 
L 259.2 163.022931 
L 270 126.644736 
L 280.8 110.970778 
L 291.6 103.104598 
L 302.4 98.529015 
L 313.2 95.839426 
L 324 94.160682 
L 334.8 92.258008 
L 345.6 85.172521 
L 356.4 73.704657 
L 367.2 63.410666 
" clip-path="url(#p6cdd571666)" style="fill: none; stroke: #ff7f0e; stroke-width: 1.5; stroke-linecap: square"/>
   </g>
   <g id="line2d_69">
    <path d="M 32.4 257.373922 
L 43.2 242.391819 
L 54 224.893764 
L 64.8 217.535766 
L 75.6 214.569797 
L 86.4 213.054499 
L 97.2 211.308426 
L 108 210.887694 
L 118.8 211.408884 
L 129.6 211.549444 
L 140.4 211.542835 
L 151.2 211.678782 
L 162 211.754736 
L 172.8 211.288006 
L 183.6 211.289341 
L 194.4 211.715066 
L 205.2 209.121529 
L 216 203.724285 
L 226.8 199.956871 
L 237.6 197.909263 
L 248.4 196.378561 
L 259.2 167.436486 
L 270 132.969006 
L 280.8 118.573085 
L 291.6 111.420542 
L 302.4 107.122192 
L 313.2 104.419875 
L 324 102.585821 
L 334.8 99.101396 
L 345.6 91.797265 
L 356.4 76.092538 
L 367.2 63.754776 
" clip-path="url(#p6cdd571666)" style="fill: none; stroke: #2ca02c; stroke-width: 1.5; stroke-linecap: square"/>
   </g>
   <g id="line2d_70">
    <path d="M 32.4 277.522021 
L 43.2 233.107637 
L 54 216.345252 
L 64.8 209.856416 
L 75.6 206.743397 
L 86.4 205.518845 
L 97.2 202.808043 
L 108 203.353686 
L 118.8 203.551082 
L 129.6 203.601236 
L 140.4 203.157382 
L 151.2 203.801697 
L 162 203.902567 
L 172.8 203.054947 
L 183.6 203.659501 
L 194.4 204.004637 
L 205.2 200.642157 
L 216 189.834591 
L 226.8 182.015703 
L 237.6 179.418571 
L 248.4 178.029534 
L 259.2 154.792197 
L 270 122.460148 
L 280.8 107.102676 
L 291.6 99.381977 
L 302.4 95.285424 
L 313.2 94.336079 
L 324 93.773757 
L 334.8 91.350403 
L 345.6 85.025585 
L 356.4 72.862984 
L 367.2 62.632484 
L 378 55.310668 
L 388.8 49.63085 
" clip-path="url(#p6cdd571666)" style="fill: none; stroke: #d62728; stroke-width: 1.5; stroke-linecap: square"/>
   </g>
   <g id="line2d_71">
    <path d="M 32.4 63.978227 
L 43.2 94.795913 
L 54 123.704668 
L 64.8 150.210386 
L 75.6 170.950008 
L 86.4 186.792728 
L 97.2 195.468981 
L 108 201.641591 
L 118.8 205.600522 
L 129.6 201.988008 
L 140.4 200.549526 
L 151.2 199.864546 
L 162 199.24993 
L 172.8 198.287232 
L 183.6 197.290876 
L 194.4 196.574404 
L 205.2 195.446123 
L 216 192.544438 
L 226.8 190.762667 
L 237.6 189.388615 
L 248.4 188.186801 
L 259.2 168.883043 
L 270 150.332901 
L 280.8 141.421582 
L 291.6 135.404063 
L 302.4 131.006798 
L 313.2 127.76601 
L 324 125.058446 
L 334.8 121.353334 
L 345.6 106.703393 
L 356.4 82.823884 
L 367.2 64.324915 
" clip-path="url(#p6cdd571666)" style="fill: none; stroke: #9467bd; stroke-width: 1.5; stroke-linecap: square"/>
   </g>
   <g id="line2d_72">
    <path d="M 32.4 63.964845 
L 43.2 92.946747 
L 54 122.710321 
L 64.8 148.376173 
L 75.6 168.11038 
L 86.4 182.465471 
L 97.2 189.935453 
L 108 195.761737 
L 118.8 198.941497 
L 129.6 198.884475 
L 140.4 198.738557 
L 151.2 198.675908 
L 162 198.59517 
L 172.8 197.774357 
L 183.6 196.907546 
L 194.4 196.166649 
L 205.2 195.257725 
L 216 192.402093 
L 226.8 190.653584 
L 237.6 189.321194 
L 248.4 188.190429 
L 259.2 168.96794 
L 270 150.513255 
L 280.8 141.507303 
L 291.6 135.287391 
L 302.4 130.974432 
L 313.2 128.05261 
L 324 125.659588 
L 334.8 122.250403 
L 345.6 109.30238 
L 356.4 86.578922 
L 367.2 68.122256 
L 378 56.167603 
L 388.8 49.364337 
" clip-path="url(#p6cdd571666)" style="fill: none; stroke: #8c564b; stroke-width: 1.5; stroke-linecap: square"/>
   </g>
   <g id="line2d_73">
    <path d="M 32.4 270.228796 
L 43.2 234.497911 
L 54 222.375031 
L 64.8 215.913148 
L 75.6 213.501841 
L 86.4 212.231932 
L 97.2 210.040545 
L 108 210.264778 
L 118.8 210.267906 
L 129.6 210.909267 
L 140.4 211.022806 
L 151.2 211.078566 
L 162 211.169869 
L 172.8 210.837407 
L 183.6 210.856596 
L 194.4 210.12135 
L 205.2 207.413687 
L 216 202.541948 
L 226.8 199.629161 
L 237.6 197.681322 
L 248.4 196.052801 
L 259.2 168.256114 
L 270 150.352131 
L 280.8 141.463235 
L 291.6 135.265999 
L 302.4 131.182432 
L 313.2 127.780734 
L 324 125.170868 
L 334.8 121.337554 
L 345.6 107.389213 
L 356.4 83.034265 
L 367.2 63.956615 
L 378 56.190802 
L 388.8 48.94158 
" clip-path="url(#p6cdd571666)" style="fill: none; stroke: #e377c2; stroke-width: 1.5; stroke-linecap: square"/>
   </g>
   <g id="line2d_74">
    <path d="M 32.4 197.655985 
L 43.2 205.603424 
L 54 206.315393 
L 64.8 206.833644 
L 75.6 207.943221 
L 86.4 208.423568 
L 97.2 207.107863 
L 108 207.956316 
L 118.8 208.529524 
L 129.6 208.795373 
L 140.4 208.862823 
L 151.2 208.966737 
L 162 209.074973 
L 172.8 208.871979 
L 183.6 208.824657 
L 194.4 209.18951 
L 205.2 205.721386 
L 216 201.540875 
L 226.8 198.583046 
L 237.6 196.817958 
L 248.4 194.701736 
L 259.2 163.67666 
L 270 150.744051 
L 280.8 147.434023 
L 291.6 145.234662 
L 302.4 143.158853 
L 313.2 139.800421 
L 324 135.4141 
L 334.8 133.269952 
L 345.6 131.332188 
L 356.4 129.169807 
L 367.2 126.862611 
L 378 122.569215 
L 388.8 120.372008 
" clip-path="url(#p6cdd571666)" style="fill: none; stroke: #7f7f7f; stroke-width: 1.5; stroke-linecap: square"/>
   </g>
   <g id="line2d_75">
    <path d="M 32.4 144.721482 
L 43.2 166.993975 
L 54 181.727133 
L 64.8 184.127133 
L 75.6 183.751705 
L 86.4 181.523949 
L 97.2 211.035797 
L 108 217.098163 
L 118.8 220.423686 
L 129.6 222.237326 
L 140.4 223.173773 
L 151.2 223.518328 
L 162 223.955498 
L 172.8 222.88313 
L 183.6 221.647298 
L 194.4 221.955775 
L 205.2 220.519497 
L 216 216.617156 
L 226.8 214.077244 
L 237.6 212.496665 
L 248.4 191.413482 
L 259.2 173.729944 
L 270 159.680494 
L 280.8 156.182847 
L 291.6 155.230466 
L 302.4 155.076254 
L 313.2 147.532761 
L 324 145.22005 
L 334.8 147.337777 
L 345.6 145.988762 
L 356.4 137.624733 
L 367.2 138.445894 
L 378 143.540712 
L 388.8 136.724974 
" clip-path="url(#p6cdd571666)" style="fill: none; stroke: #bcbd22; stroke-width: 1.5; stroke-linecap: square"/>
   </g>
   <g id="line2d_76">
    <path d="M 32.4 171.378529 
L 43.2 179.022294 
L 54 186.056102 
L 64.8 185.91447 
L 75.6 184.082456 
L 86.4 180.158954 
L 97.2 210.703161 
L 108 217.361008 
L 118.8 220.519269 
L 129.6 221.465273 
L 140.4 223.216873 
L 151.2 223.734562 
L 162 223.906582 
L 172.8 223.461322 
L 183.6 222.557982 
L 194.4 221.897435 
L 205.2 220.476774 
L 216 217.725123 
L 226.8 214.046118 
L 237.6 212.09941 
L 248.4 210.557803 
L 259.2 187.908213 
L 270 178.382549 
L 280.8 175.076834 
L 291.6 172.986631 
L 302.4 169.686949 
L 313.2 166.549699 
L 324 164.358792 
L 334.8 162.167257 
L 345.6 159.714679 
L 356.4 157.60697 
L 367.2 154.499331 
L 378 151.386338 
L 388.8 149.051018 
" clip-path="url(#p6cdd571666)" style="fill: none; stroke: #17becf; stroke-width: 1.5; stroke-linecap: square"/>
   </g>
   <g id="patch_3">
    <path d="M 54 252 
L 54 34.56 
" style="fill: none; stroke: #000000; stroke-width: 0.8; stroke-linejoin: miter; stroke-linecap: square"/>
   </g>
   <g id="patch_4">
    <path d="M 388.8 252 
L 388.8 34.56 
" style="fill: none; stroke: #000000; stroke-width: 0.8; stroke-linejoin: miter; stroke-linecap: square"/>
   </g>
   <g id="patch_5">
    <path d="M 54 252 
L 388.8 252 
" style="fill: none; stroke: #000000; stroke-width: 0.8; stroke-linejoin: miter; stroke-linecap: square"/>
   </g>
   <g id="patch_6">
    <path d="M 54 34.56 
L 388.8 34.56 
" style="fill: none; stroke: #000000; stroke-width: 0.8; stroke-linejoin: miter; stroke-linecap: square"/>
   </g>
   <g id="legend_1">
    <g id="patch_7">
     <path d="M 412.54 191.844375 
L 608.8275 191.844375 
Q 610.8275 191.844375 610.8275 189.844375 
L 610.8275 41.56 
Q 610.8275 39.56 608.8275 39.56 
L 412.54 39.56 
Q 410.54 39.56 410.54 41.56 
L 410.54 189.844375 
Q 410.54 191.844375 412.54 191.844375 
z
" style="fill: #ffffff; opacity: 0.8; stroke: #cccccc; stroke-linejoin: miter"/>
    </g>
    <g id="line2d_77">
     <path d="M 414.54 47.658437 
L 424.54 47.658437 
L 433 47.658437 
" style="fill: none; stroke: #1f77b4; stroke-width: 1.5; stroke-linecap: square"/>
    </g>
    <g id="text_21">
     <!-- std::shuffle -->
     <g transform="translate(442.54 51.158437)scale(0.1 -0.1)">
      <defs>
       <path id="DejaVuSans-64" d="M 2906 2969 
L 2906 4863 
L 3481 4863 
L 3481 0 
L 2906 0 
L 2906 525 
Q 2725 213 2448 61 
Q 2172 -91 1784 -91 
Q 1150 -91 751 415 
Q 353 922 353 1747 
Q 353 2572 751 3078 
Q 1150 3584 1784 3584 
Q 2172 3584 2448 3432 
Q 2725 3281 2906 2969 
z
M 947 1747 
Q 947 1113 1208 752 
Q 1469 391 1925 391 
Q 2381 391 2643 752 
Q 2906 1113 2906 1747 
Q 2906 2381 2643 2742 
Q 2381 3103 1925 3103 
Q 1469 3103 1208 2742 
Q 947 2381 947 1747 
z
" transform="scale(0.015625)"/>
       <path id="DejaVuSans-3a" d="M 750 794 
L 1409 794 
L 1409 0 
L 750 0 
L 750 794 
z
M 750 3309 
L 1409 3309 
L 1409 2516 
L 750 2516 
L 750 3309 
z
" transform="scale(0.015625)"/>
       <path id="DejaVuSans-68" d="M 3513 2113 
L 3513 0 
L 2938 0 
L 2938 2094 
Q 2938 2591 2744 2837 
Q 2550 3084 2163 3084 
Q 1697 3084 1428 2787 
Q 1159 2491 1159 1978 
L 1159 0 
L 581 0 
L 581 4863 
L 1159 4863 
L 1159 2956 
Q 1366 3272 1645 3428 
Q 1925 3584 2291 3584 
Q 2894 3584 3203 3211 
Q 3513 2838 3513 2113 
z
" transform="scale(0.015625)"/>
      </defs>
      <use xlink:href="#DejaVuSans-73"/>
      <use xlink:href="#DejaVuSans-74" x="52.099609"/>
      <use xlink:href="#DejaVuSans-64" x="91.308594"/>
      <use xlink:href="#DejaVuSans-3a" x="154.785156"/>
      <use xlink:href="#DejaVuSans-3a" x="188.476562"/>
      <use xlink:href="#DejaVuSans-73" x="222.167969"/>
      <use xlink:href="#DejaVuSans-68" x="274.267578"/>
      <use xlink:href="#DejaVuSans-75" x="337.646484"/>
      <use xlink:href="#DejaVuSans-66" x="401.025391"/>
      <use xlink:href="#DejaVuSans-66" x="436.230469"/>
      <use xlink:href="#DejaVuSans-6c" x="471.435547"/>
      <use xlink:href="#DejaVuSans-65" x="499.21875"/>
     </g>
    </g>
    <g id="line2d_78">
     <path d="M 414.54 62.336563 
L 424.54 62.336563 
L 433 62.336563 
" style="fill: none; stroke: #ff7f0e; stroke-width: 1.5; stroke-linecap: square"/>
    </g>
    <g id="text_22">
     <!-- fisher_yates_shuffle -->
     <g transform="translate(442.54 65.836563)scale(0.1 -0.1)">
      <defs>
       <path id="DejaVuSans-5f" d="M 3263 -1063 
L 3263 -1509 
L -63 -1509 
L -63 -1063 
L 3263 -1063 
z
" transform="scale(0.015625)"/>
       <path id="DejaVuSans-79" d="M 2059 -325 
Q 1816 -950 1584 -1140 
Q 1353 -1331 966 -1331 
L 506 -1331 
L 506 -850 
L 844 -850 
Q 1081 -850 1212 -737 
Q 1344 -625 1503 -206 
L 1606 56 
L 191 3500 
L 800 3500 
L 1894 763 
L 2988 3500 
L 3597 3500 
L 2059 -325 
z
" transform="scale(0.015625)"/>
      </defs>
      <use xlink:href="#DejaVuSans-66"/>
      <use xlink:href="#DejaVuSans-69" x="35.205078"/>
      <use xlink:href="#DejaVuSans-73" x="62.988281"/>
      <use xlink:href="#DejaVuSans-68" x="115.087891"/>
      <use xlink:href="#DejaVuSans-65" x="178.466797"/>
      <use xlink:href="#DejaVuSans-72" x="239.990234"/>
      <use xlink:href="#DejaVuSans-5f" x="281.103516"/>
      <use xlink:href="#DejaVuSans-79" x="331.103516"/>
      <use xlink:href="#DejaVuSans-61" x="390.283203"/>
      <use xlink:href="#DejaVuSans-74" x="451.5625"/>
      <use xlink:href="#DejaVuSans-65" x="490.771484"/>
      <use xlink:href="#DejaVuSans-73" x="552.294922"/>
      <use xlink:href="#DejaVuSans-5f" x="604.394531"/>
      <use xlink:href="#DejaVuSans-73" x="654.394531"/>
      <use xlink:href="#DejaVuSans-68" x="706.494141"/>
      <use xlink:href="#DejaVuSans-75" x="769.873047"/>
      <use xlink:href="#DejaVuSans-66" x="833.251953"/>
      <use xlink:href="#DejaVuSans-66" x="868.457031"/>
      <use xlink:href="#DejaVuSans-6c" x="903.662109"/>
      <use xlink:href="#DejaVuSans-65" x="931.445312"/>
     </g>
    </g>
    <g id="line2d_79">
     <path d="M 414.54 77.292812 
L 424.54 77.292812 
L 433 77.292812 
" style="fill: none; stroke: #2ca02c; stroke-width: 1.5; stroke-linecap: square"/>
    </g>
    <g id="text_23">
     <!-- fisher_yates_shuffle_32 -->
     <g transform="translate(442.54 80.792812)scale(0.1 -0.1)">
      <use xlink:href="#DejaVuSans-66"/>
      <use xlink:href="#DejaVuSans-69" x="35.205078"/>
      <use xlink:href="#DejaVuSans-73" x="62.988281"/>
      <use xlink:href="#DejaVuSans-68" x="115.087891"/>
      <use xlink:href="#DejaVuSans-65" x="178.466797"/>
      <use xlink:href="#DejaVuSans-72" x="239.990234"/>
      <use xlink:href="#DejaVuSans-5f" x="281.103516"/>
      <use xlink:href="#DejaVuSans-79" x="331.103516"/>
      <use xlink:href="#DejaVuSans-61" x="390.283203"/>
      <use xlink:href="#DejaVuSans-74" x="451.5625"/>
      <use xlink:href="#DejaVuSans-65" x="490.771484"/>
      <use xlink:href="#DejaVuSans-73" x="552.294922"/>
      <use xlink:href="#DejaVuSans-5f" x="604.394531"/>
      <use xlink:href="#DejaVuSans-73" x="654.394531"/>
      <use xlink:href="#DejaVuSans-68" x="706.494141"/>
      <use xlink:href="#DejaVuSans-75" x="769.873047"/>
      <use xlink:href="#DejaVuSans-66" x="833.251953"/>
      <use xlink:href="#DejaVuSans-66" x="868.457031"/>
      <use xlink:href="#DejaVuSans-6c" x="903.662109"/>
      <use xlink:href="#DejaVuSans-65" x="931.445312"/>
      <use xlink:href="#DejaVuSans-5f" x="992.96875"/>
      <use xlink:href="#DejaVuSans-33" x="1042.96875"/>
      <use xlink:href="#DejaVuSans-32" x="1106.591797"/>
     </g>
    </g>
    <g id="line2d_80">
     <path d="M 414.54 92.249063 
L 424.54 92.249063 
L 433 92.249063 
" style="fill: none; stroke: #d62728; stroke-width: 1.5; stroke-linecap: square"/>
    </g>
    <g id="text_24">
     <!-- fisher_yates_shuffle_64 -->
     <g transform="translate(442.54 95.749063)scale(0.1 -0.1)">
      <use xlink:href="#DejaVuSans-66"/>
      <use xlink:href="#DejaVuSans-69" x="35.205078"/>
      <use xlink:href="#DejaVuSans-73" x="62.988281"/>
      <use xlink:href="#DejaVuSans-68" x="115.087891"/>
      <use xlink:href="#DejaVuSans-65" x="178.466797"/>
      <use xlink:href="#DejaVuSans-72" x="239.990234"/>
      <use xlink:href="#DejaVuSans-5f" x="281.103516"/>
      <use xlink:href="#DejaVuSans-79" x="331.103516"/>
      <use xlink:href="#DejaVuSans-61" x="390.283203"/>
      <use xlink:href="#DejaVuSans-74" x="451.5625"/>
      <use xlink:href="#DejaVuSans-65" x="490.771484"/>
      <use xlink:href="#DejaVuSans-73" x="552.294922"/>
      <use xlink:href="#DejaVuSans-5f" x="604.394531"/>
      <use xlink:href="#DejaVuSans-73" x="654.394531"/>
      <use xlink:href="#DejaVuSans-68" x="706.494141"/>
      <use xlink:href="#DejaVuSans-75" x="769.873047"/>
      <use xlink:href="#DejaVuSans-66" x="833.251953"/>
      <use xlink:href="#DejaVuSans-66" x="868.457031"/>
      <use xlink:href="#DejaVuSans-6c" x="903.662109"/>
      <use xlink:href="#DejaVuSans-65" x="931.445312"/>
      <use xlink:href="#DejaVuSans-5f" x="992.96875"/>
      <use xlink:href="#DejaVuSans-36" x="1042.96875"/>
      <use xlink:href="#DejaVuSans-34" x="1106.591797"/>
     </g>
    </g>
    <g id="line2d_81">
     <path d="M 414.54 107.205312 
L 424.54 107.205312 
L 433 107.205312 
" style="fill: none; stroke: #9467bd; stroke-width: 1.5; stroke-linecap: square"/>
    </g>
    <g id="text_25">
     <!-- buffered_fisher_yates_shuffle_32 -->
     <g transform="translate(442.54 110.705312)scale(0.1 -0.1)">
      <use xlink:href="#DejaVuSans-62"/>
      <use xlink:href="#DejaVuSans-75" x="63.476562"/>
      <use xlink:href="#DejaVuSans-66" x="126.855469"/>
      <use xlink:href="#DejaVuSans-66" x="162.060547"/>
      <use xlink:href="#DejaVuSans-65" x="197.265625"/>
      <use xlink:href="#DejaVuSans-72" x="258.789062"/>
      <use xlink:href="#DejaVuSans-65" x="297.652344"/>
      <use xlink:href="#DejaVuSans-64" x="359.175781"/>
      <use xlink:href="#DejaVuSans-5f" x="422.652344"/>
      <use xlink:href="#DejaVuSans-66" x="472.652344"/>
      <use xlink:href="#DejaVuSans-69" x="507.857422"/>
      <use xlink:href="#DejaVuSans-73" x="535.640625"/>
      <use xlink:href="#DejaVuSans-68" x="587.740234"/>
      <use xlink:href="#DejaVuSans-65" x="651.119141"/>
      <use xlink:href="#DejaVuSans-72" x="712.642578"/>
      <use xlink:href="#DejaVuSans-5f" x="753.755859"/>
      <use xlink:href="#DejaVuSans-79" x="803.755859"/>
      <use xlink:href="#DejaVuSans-61" x="862.935547"/>
      <use xlink:href="#DejaVuSans-74" x="924.214844"/>
      <use xlink:href="#DejaVuSans-65" x="963.423828"/>
      <use xlink:href="#DejaVuSans-73" x="1024.947266"/>
      <use xlink:href="#DejaVuSans-5f" x="1077.046875"/>
      <use xlink:href="#DejaVuSans-73" x="1127.046875"/>
      <use xlink:href="#DejaVuSans-68" x="1179.146484"/>
      <use xlink:href="#DejaVuSans-75" x="1242.525391"/>
      <use xlink:href="#DejaVuSans-66" x="1305.904297"/>
      <use xlink:href="#DejaVuSans-66" x="1341.109375"/>
      <use xlink:href="#DejaVuSans-6c" x="1376.314453"/>
      <use xlink:href="#DejaVuSans-65" x="1404.097656"/>
      <use xlink:href="#DejaVuSans-5f" x="1465.621094"/>
      <use xlink:href="#DejaVuSans-33" x="1515.621094"/>
      <use xlink:href="#DejaVuSans-32" x="1579.244141"/>
     </g>
    </g>
    <g id="line2d_82">
     <path d="M 414.54 122.161563 
L 424.54 122.161563 
L 433 122.161563 
" style="fill: none; stroke: #8c564b; stroke-width: 1.5; stroke-linecap: square"/>
    </g>
    <g id="text_26">
     <!-- buffered_fisher_yates_shuffle_64 -->
     <g transform="translate(442.54 125.661563)scale(0.1 -0.1)">
      <use xlink:href="#DejaVuSans-62"/>
      <use xlink:href="#DejaVuSans-75" x="63.476562"/>
      <use xlink:href="#DejaVuSans-66" x="126.855469"/>
      <use xlink:href="#DejaVuSans-66" x="162.060547"/>
      <use xlink:href="#DejaVuSans-65" x="197.265625"/>
      <use xlink:href="#DejaVuSans-72" x="258.789062"/>
      <use xlink:href="#DejaVuSans-65" x="297.652344"/>
      <use xlink:href="#DejaVuSans-64" x="359.175781"/>
      <use xlink:href="#DejaVuSans-5f" x="422.652344"/>
      <use xlink:href="#DejaVuSans-66" x="472.652344"/>
      <use xlink:href="#DejaVuSans-69" x="507.857422"/>
      <use xlink:href="#DejaVuSans-73" x="535.640625"/>
      <use xlink:href="#DejaVuSans-68" x="587.740234"/>
      <use xlink:href="#DejaVuSans-65" x="651.119141"/>
      <use xlink:href="#DejaVuSans-72" x="712.642578"/>
      <use xlink:href="#DejaVuSans-5f" x="753.755859"/>
      <use xlink:href="#DejaVuSans-79" x="803.755859"/>
      <use xlink:href="#DejaVuSans-61" x="862.935547"/>
      <use xlink:href="#DejaVuSans-74" x="924.214844"/>
      <use xlink:href="#DejaVuSans-65" x="963.423828"/>
      <use xlink:href="#DejaVuSans-73" x="1024.947266"/>
      <use xlink:href="#DejaVuSans-5f" x="1077.046875"/>
      <use xlink:href="#DejaVuSans-73" x="1127.046875"/>
      <use xlink:href="#DejaVuSans-68" x="1179.146484"/>
      <use xlink:href="#DejaVuSans-75" x="1242.525391"/>
      <use xlink:href="#DejaVuSans-66" x="1305.904297"/>
      <use xlink:href="#DejaVuSans-66" x="1341.109375"/>
      <use xlink:href="#DejaVuSans-6c" x="1376.314453"/>
      <use xlink:href="#DejaVuSans-65" x="1404.097656"/>
      <use xlink:href="#DejaVuSans-5f" x="1465.621094"/>
      <use xlink:href="#DejaVuSans-36" x="1515.621094"/>
      <use xlink:href="#DejaVuSans-34" x="1579.244141"/>
     </g>
    </g>
    <g id="line2d_83">
     <path d="M 414.54 137.117813 
L 424.54 137.117813 
L 433 137.117813 
" style="fill: none; stroke: #e377c2; stroke-width: 1.5; stroke-linecap: square"/>
    </g>
    <g id="text_27">
     <!-- buffered_fisher_yates_shuffle -->
     <g transform="translate(442.54 140.617813)scale(0.1 -0.1)">
      <use xlink:href="#DejaVuSans-62"/>
      <use xlink:href="#DejaVuSans-75" x="63.476562"/>
      <use xlink:href="#DejaVuSans-66" x="126.855469"/>
      <use xlink:href="#DejaVuSans-66" x="162.060547"/>
      <use xlink:href="#DejaVuSans-65" x="197.265625"/>
      <use xlink:href="#DejaVuSans-72" x="258.789062"/>
      <use xlink:href="#DejaVuSans-65" x="297.652344"/>
      <use xlink:href="#DejaVuSans-64" x="359.175781"/>
      <use xlink:href="#DejaVuSans-5f" x="422.652344"/>
      <use xlink:href="#DejaVuSans-66" x="472.652344"/>
      <use xlink:href="#DejaVuSans-69" x="507.857422"/>
      <use xlink:href="#DejaVuSans-73" x="535.640625"/>
      <use xlink:href="#DejaVuSans-68" x="587.740234"/>
      <use xlink:href="#DejaVuSans-65" x="651.119141"/>
      <use xlink:href="#DejaVuSans-72" x="712.642578"/>
      <use xlink:href="#DejaVuSans-5f" x="753.755859"/>
      <use xlink:href="#DejaVuSans-79" x="803.755859"/>
      <use xlink:href="#DejaVuSans-61" x="862.935547"/>
      <use xlink:href="#DejaVuSans-74" x="924.214844"/>
      <use xlink:href="#DejaVuSans-65" x="963.423828"/>
      <use xlink:href="#DejaVuSans-73" x="1024.947266"/>
      <use xlink:href="#DejaVuSans-5f" x="1077.046875"/>
      <use xlink:href="#DejaVuSans-73" x="1127.046875"/>
      <use xlink:href="#DejaVuSans-68" x="1179.146484"/>
      <use xlink:href="#DejaVuSans-75" x="1242.525391"/>
      <use xlink:href="#DejaVuSans-66" x="1305.904297"/>
      <use xlink:href="#DejaVuSans-66" x="1341.109375"/>
      <use xlink:href="#DejaVuSans-6c" x="1376.314453"/>
      <use xlink:href="#DejaVuSans-65" x="1404.097656"/>
     </g>
    </g>
    <g id="line2d_84">
     <path d="M 414.54 152.074062 
L 424.54 152.074062 
L 433 152.074062 
" style="fill: none; stroke: #7f7f7f; stroke-width: 1.5; stroke-linecap: square"/>
    </g>
    <g id="text_28">
     <!-- inplace_scatter_shuffle -->
     <g transform="translate(442.54 155.574062)scale(0.1 -0.1)">
      <defs>
       <path id="DejaVuSans-63" d="M 3122 3366 
L 3122 2828 
Q 2878 2963 2633 3030 
Q 2388 3097 2138 3097 
Q 1578 3097 1268 2742 
Q 959 2388 959 1747 
Q 959 1106 1268 751 
Q 1578 397 2138 397 
Q 2388 397 2633 464 
Q 2878 531 3122 666 
L 3122 134 
Q 2881 22 2623 -34 
Q 2366 -91 2075 -91 
Q 1284 -91 818 406 
Q 353 903 353 1747 
Q 353 2603 823 3093 
Q 1294 3584 2113 3584 
Q 2378 3584 2631 3529 
Q 2884 3475 3122 3366 
z
" transform="scale(0.015625)"/>
      </defs>
      <use xlink:href="#DejaVuSans-69"/>
      <use xlink:href="#DejaVuSans-6e" x="27.783203"/>
      <use xlink:href="#DejaVuSans-70" x="91.162109"/>
      <use xlink:href="#DejaVuSans-6c" x="154.638672"/>
      <use xlink:href="#DejaVuSans-61" x="182.421875"/>
      <use xlink:href="#DejaVuSans-63" x="243.701172"/>
      <use xlink:href="#DejaVuSans-65" x="298.681641"/>
      <use xlink:href="#DejaVuSans-5f" x="360.205078"/>
      <use xlink:href="#DejaVuSans-73" x="410.205078"/>
      <use xlink:href="#DejaVuSans-63" x="462.304688"/>
      <use xlink:href="#DejaVuSans-61" x="517.285156"/>
      <use xlink:href="#DejaVuSans-74" x="578.564453"/>
      <use xlink:href="#DejaVuSans-74" x="617.773438"/>
      <use xlink:href="#DejaVuSans-65" x="656.982422"/>
      <use xlink:href="#DejaVuSans-72" x="718.505859"/>
      <use xlink:href="#DejaVuSans-5f" x="759.619141"/>
      <use xlink:href="#DejaVuSans-73" x="809.619141"/>
      <use xlink:href="#DejaVuSans-68" x="861.71875"/>
      <use xlink:href="#DejaVuSans-75" x="925.097656"/>
      <use xlink:href="#DejaVuSans-66" x="988.476562"/>
      <use xlink:href="#DejaVuSans-66" x="1023.681641"/>
      <use xlink:href="#DejaVuSans-6c" x="1058.886719"/>
      <use xlink:href="#DejaVuSans-65" x="1086.669922"/>
     </g>
    </g>
    <g id="line2d_85">
     <path d="M 414.54 167.030312 
L 424.54 167.030312 
L 433 167.030312 
" style="fill: none; stroke: #bcbd22; stroke-width: 1.5; stroke-linecap: square"/>
    </g>
    <g id="text_29">
     <!-- seq_shuffle (Standardwerte) -->
     <g transform="translate(442.54 170.530312)scale(0.1 -0.1)">
      <defs>
       <path id="DejaVuSans-71" d="M 947 1747 
Q 947 1113 1208 752 
Q 1469 391 1925 391 
Q 2381 391 2643 752 
Q 2906 1113 2906 1747 
Q 2906 2381 2643 2742 
Q 2381 3103 1925 3103 
Q 1469 3103 1208 2742 
Q 947 2381 947 1747 
z
M 2906 525 
Q 2725 213 2448 61 
Q 2172 -91 1784 -91 
Q 1150 -91 751 415 
Q 353 922 353 1747 
Q 353 2572 751 3078 
Q 1150 3584 1784 3584 
Q 2172 3584 2448 3432 
Q 2725 3281 2906 2969 
L 2906 3500 
L 3481 3500 
L 3481 -1331 
L 2906 -1331 
L 2906 525 
z
" transform="scale(0.015625)"/>
       <path id="DejaVuSans-28" d="M 1984 4856 
Q 1566 4138 1362 3434 
Q 1159 2731 1159 2009 
Q 1159 1288 1364 580 
Q 1569 -128 1984 -844 
L 1484 -844 
Q 1016 -109 783 600 
Q 550 1309 550 2009 
Q 550 2706 781 3412 
Q 1013 4119 1484 4856 
L 1984 4856 
z
" transform="scale(0.015625)"/>
       <path id="DejaVuSans-53" d="M 3425 4513 
L 3425 3897 
Q 3066 4069 2747 4153 
Q 2428 4238 2131 4238 
Q 1616 4238 1336 4038 
Q 1056 3838 1056 3469 
Q 1056 3159 1242 3001 
Q 1428 2844 1947 2747 
L 2328 2669 
Q 3034 2534 3370 2195 
Q 3706 1856 3706 1288 
Q 3706 609 3251 259 
Q 2797 -91 1919 -91 
Q 1588 -91 1214 -16 
Q 841 59 441 206 
L 441 856 
Q 825 641 1194 531 
Q 1563 422 1919 422 
Q 2459 422 2753 634 
Q 3047 847 3047 1241 
Q 3047 1584 2836 1778 
Q 2625 1972 2144 2069 
L 1759 2144 
Q 1053 2284 737 2584 
Q 422 2884 422 3419 
Q 422 4038 858 4394 
Q 1294 4750 2059 4750 
Q 2388 4750 2728 4690 
Q 3069 4631 3425 4513 
z
" transform="scale(0.015625)"/>
       <path id="DejaVuSans-77" d="M 269 3500 
L 844 3500 
L 1563 769 
L 2278 3500 
L 2956 3500 
L 3675 769 
L 4391 3500 
L 4966 3500 
L 4050 0 
L 3372 0 
L 2619 2869 
L 1863 0 
L 1184 0 
L 269 3500 
z
" transform="scale(0.015625)"/>
       <path id="DejaVuSans-29" d="M 513 4856 
L 1013 4856 
Q 1481 4119 1714 3412 
Q 1947 2706 1947 2009 
Q 1947 1309 1714 600 
Q 1481 -109 1013 -844 
L 513 -844 
Q 928 -128 1133 580 
Q 1338 1288 1338 2009 
Q 1338 2731 1133 3434 
Q 928 4138 513 4856 
z
" transform="scale(0.015625)"/>
      </defs>
      <use xlink:href="#DejaVuSans-73"/>
      <use xlink:href="#DejaVuSans-65" x="52.099609"/>
      <use xlink:href="#DejaVuSans-71" x="113.623047"/>
      <use xlink:href="#DejaVuSans-5f" x="177.099609"/>
      <use xlink:href="#DejaVuSans-73" x="227.099609"/>
      <use xlink:href="#DejaVuSans-68" x="279.199219"/>
      <use xlink:href="#DejaVuSans-75" x="342.578125"/>
      <use xlink:href="#DejaVuSans-66" x="405.957031"/>
      <use xlink:href="#DejaVuSans-66" x="441.162109"/>
      <use xlink:href="#DejaVuSans-6c" x="476.367188"/>
      <use xlink:href="#DejaVuSans-65" x="504.150391"/>
      <use xlink:href="#DejaVuSans-20" x="565.673828"/>
      <use xlink:href="#DejaVuSans-28" x="597.460938"/>
      <use xlink:href="#DejaVuSans-53" x="636.474609"/>
      <use xlink:href="#DejaVuSans-74" x="699.951172"/>
      <use xlink:href="#DejaVuSans-61" x="739.160156"/>
      <use xlink:href="#DejaVuSans-6e" x="800.439453"/>
      <use xlink:href="#DejaVuSans-64" x="863.818359"/>
      <use xlink:href="#DejaVuSans-61" x="927.294922"/>
      <use xlink:href="#DejaVuSans-72" x="988.574219"/>
      <use xlink:href="#DejaVuSans-64" x="1027.9375"/>
      <use xlink:href="#DejaVuSans-77" x="1091.414062"/>
      <use xlink:href="#DejaVuSans-65" x="1173.201172"/>
      <use xlink:href="#DejaVuSans-72" x="1234.724609"/>
      <use xlink:href="#DejaVuSans-74" x="1275.837891"/>
      <use xlink:href="#DejaVuSans-65" x="1315.046875"/>
      <use xlink:href="#DejaVuSans-29" x="1376.570312"/>
     </g>
    </g>
    <g id="line2d_86">
     <path d="M 414.54 181.986562 
L 424.54 181.986562 
L 433 181.986562 
" style="fill: none; stroke: #17becf; stroke-width: 1.5; stroke-linecap: square"/>
    </g>
    <g id="text_30">
     <!-- seq_shuffle (gleiche Werte) -->
     <g transform="translate(442.54 185.486562)scale(0.1 -0.1)">
      <defs>
       <path id="DejaVuSans-57" d="M 213 4666 
L 850 4666 
L 1831 722 
L 2809 4666 
L 3519 4666 
L 4500 722 
L 5478 4666 
L 6119 4666 
L 4947 0 
L 4153 0 
L 3169 4050 
L 2175 0 
L 1381 0 
L 213 4666 
z
" transform="scale(0.015625)"/>
      </defs>
      <use xlink:href="#DejaVuSans-73"/>
      <use xlink:href="#DejaVuSans-65" x="52.099609"/>
      <use xlink:href="#DejaVuSans-71" x="113.623047"/>
      <use xlink:href="#DejaVuSans-5f" x="177.099609"/>
      <use xlink:href="#DejaVuSans-73" x="227.099609"/>
      <use xlink:href="#DejaVuSans-68" x="279.199219"/>
      <use xlink:href="#DejaVuSans-75" x="342.578125"/>
      <use xlink:href="#DejaVuSans-66" x="405.957031"/>
      <use xlink:href="#DejaVuSans-66" x="441.162109"/>
      <use xlink:href="#DejaVuSans-6c" x="476.367188"/>
      <use xlink:href="#DejaVuSans-65" x="504.150391"/>
      <use xlink:href="#DejaVuSans-20" x="565.673828"/>
      <use xlink:href="#DejaVuSans-28" x="597.460938"/>
      <use xlink:href="#DejaVuSans-67" x="636.474609"/>
      <use xlink:href="#DejaVuSans-6c" x="699.951172"/>
      <use xlink:href="#DejaVuSans-65" x="727.734375"/>
      <use xlink:href="#DejaVuSans-69" x="789.257812"/>
      <use xlink:href="#DejaVuSans-63" x="817.041016"/>
      <use xlink:href="#DejaVuSans-68" x="872.021484"/>
      <use xlink:href="#DejaVuSans-65" x="935.400391"/>
      <use xlink:href="#DejaVuSans-20" x="996.923828"/>
      <use xlink:href="#DejaVuSans-57" x="1028.710938"/>
      <use xlink:href="#DejaVuSans-65" x="1121.712891"/>
      <use xlink:href="#DejaVuSans-72" x="1183.236328"/>
      <use xlink:href="#DejaVuSans-74" x="1224.349609"/>
      <use xlink:href="#DejaVuSans-65" x="1263.558594"/>
      <use xlink:href="#DejaVuSans-29" x="1325.082031"/>
     </g>
    </g>
   </g>
  </g>
 </g>
 <defs>
  <clipPath id="p6cdd571666">
   <rect x="54" y="34.56" width="334.8" height="217.44"/>
  </clipPath>
 </defs>
</svg>
