<?xml version="1.0" encoding="utf-8" standalone="no"?>
<!DOCTYPE svg PUBLIC "-//W3C//DTD SVG 1.1//EN"
  "http://www.w3.org/Graphics/SVG/1.1/DTD/svg11.dtd">
<svg xmlns:xlink="http://www.w3.org/1999/xlink" width="432pt" height="288pt" viewBox="0 0 432 288" xmlns="http://www.w3.org/2000/svg" version="1.1">
 <metadata>
  <rdf:RDF xmlns:dc="http://purl.org/dc/elements/1.1/" xmlns:cc="http://creativecommons.org/ns#" xmlns:rdf="http://www.w3.org/1999/02/22-rdf-syntax-ns#">
   <cc:Work>
    <dc:type rdf:resource="http://purl.org/dc/dcmitype/StillImage"/>
    <dc:date>2024-01-18T06:18:42.010090</dc:date>
    <dc:format>image/svg+xml</dc:format>
    <dc:creator>
     <cc:Agent>
      <dc:title>Matplotlib v3.5.1, https://matplotlib.org/</dc:title>
     </cc:Agent>
    </dc:creator>
   </cc:Work>
  </rdf:RDF>
 </metadata>
 <defs>
  <style type="text/css">*{stroke-linejoin: round; stroke-linecap: butt}</style>
 </defs>
 <g id="figure_1">
  <g id="patch_1">
   <path d="M 0 288 
L 432 288 
L 432 0 
L 0 0 
L 0 288 
z
" style="fill: none"/>
  </g>
  <g id="axes_1">
   <g id="patch_2">
    <path d="M 54 252 
L 388.8 252 
L 388.8 34.56 
L 54 34.56 
z
" style="fill: #ffffff"/>
   </g>
   <g id="matplotlib.axis_1">
    <g id="xtick_1">
     <g id="line2d_1">
      <path d="M 54 252 
L 54 34.56 
" clip-path="url(#p578ad35024)" style="fill: none; stroke: #b0b0b0; stroke-width: 0.8; stroke-linecap: square"/>
     </g>
     <g id="line2d_2">
      <defs>
       <path id="mf5d63bd5f4" d="M 0 0 
L 0 3.5 
" style="stroke: #000000; stroke-width: 0.8"/>
      </defs>
      <g>
       <use xlink:href="#mf5d63bd5f4" x="54" y="252" style="stroke: #000000; stroke-width: 0.8"/>
      </g>
     </g>
     <g id="text_1">
      <!-- $\mathdefault{2^{2}}$ -->
      <g transform="translate(48.4 266.598437)scale(0.1 -0.1)">
       <defs>
        <path id="DejaVuSans-32" d="M 1228 531 
L 3431 531 
L 3431 0 
L 469 0 
L 469 531 
Q 828 903 1448 1529 
Q 2069 2156 2228 2338 
Q 2531 2678 2651 2914 
Q 2772 3150 2772 3378 
Q 2772 3750 2511 3984 
Q 2250 4219 1831 4219 
Q 1534 4219 1204 4116 
Q 875 4013 500 3803 
L 500 4441 
Q 881 4594 1212 4672 
Q 1544 4750 1819 4750 
Q 2544 4750 2975 4387 
Q 3406 4025 3406 3419 
Q 3406 3131 3298 2873 
Q 3191 2616 2906 2266 
Q 2828 2175 2409 1742 
Q 1991 1309 1228 531 
z
" transform="scale(0.015625)"/>
       </defs>
       <use xlink:href="#DejaVuSans-32" transform="translate(0 0.765625)"/>
       <use xlink:href="#DejaVuSans-32" transform="translate(64.580078 39.046875)scale(0.7)"/>
      </g>
     </g>
    </g>
    <g id="xtick_2">
     <g id="line2d_3">
      <path d="M 75.6 252 
L 75.6 34.56 
" clip-path="url(#p578ad35024)" style="fill: none; stroke: #b0b0b0; stroke-width: 0.8; stroke-linecap: square"/>
     </g>
     <g id="line2d_4">
      <g>
       <use xlink:href="#mf5d63bd5f4" x="75.6" y="252" style="stroke: #000000; stroke-width: 0.8"/>
      </g>
     </g>
     <g id="text_2">
      <!-- $\mathdefault{2^{4}}$ -->
      <g transform="translate(70 266.598437)scale(0.1 -0.1)">
       <defs>
        <path id="DejaVuSans-34" d="M 2419 4116 
L 825 1625 
L 2419 1625 
L 2419 4116 
z
M 2253 4666 
L 3047 4666 
L 3047 1625 
L 3713 1625 
L 3713 1100 
L 3047 1100 
L 3047 0 
L 2419 0 
L 2419 1100 
L 313 1100 
L 313 1709 
L 2253 4666 
z
" transform="scale(0.015625)"/>
       </defs>
       <use xlink:href="#DejaVuSans-32" transform="translate(0 0.684375)"/>
       <use xlink:href="#DejaVuSans-34" transform="translate(64.580078 38.965625)scale(0.7)"/>
      </g>
     </g>
    </g>
    <g id="xtick_3">
     <g id="line2d_5">
      <path d="M 97.2 252 
L 97.2 34.56 
" clip-path="url(#p578ad35024)" style="fill: none; stroke: #b0b0b0; stroke-width: 0.8; stroke-linecap: square"/>
     </g>
     <g id="line2d_6">
      <g>
       <use xlink:href="#mf5d63bd5f4" x="97.2" y="252" style="stroke: #000000; stroke-width: 0.8"/>
      </g>
     </g>
     <g id="text_3">
      <!-- $\mathdefault{2^{6}}$ -->
      <g transform="translate(91.6 266.598437)scale(0.1 -0.1)">
       <defs>
        <path id="DejaVuSans-36" d="M 2113 2584 
Q 1688 2584 1439 2293 
Q 1191 2003 1191 1497 
Q 1191 994 1439 701 
Q 1688 409 2113 409 
Q 2538 409 2786 701 
Q 3034 994 3034 1497 
Q 3034 2003 2786 2293 
Q 2538 2584 2113 2584 
z
M 3366 4563 
L 3366 3988 
Q 3128 4100 2886 4159 
Q 2644 4219 2406 4219 
Q 1781 4219 1451 3797 
Q 1122 3375 1075 2522 
Q 1259 2794 1537 2939 
Q 1816 3084 2150 3084 
Q 2853 3084 3261 2657 
Q 3669 2231 3669 1497 
Q 3669 778 3244 343 
Q 2819 -91 2113 -91 
Q 1303 -91 875 529 
Q 447 1150 447 2328 
Q 447 3434 972 4092 
Q 1497 4750 2381 4750 
Q 2619 4750 2861 4703 
Q 3103 4656 3366 4563 
z
" transform="scale(0.015625)"/>
       </defs>
       <use xlink:href="#DejaVuSans-32" transform="translate(0 0.765625)"/>
       <use xlink:href="#DejaVuSans-36" transform="translate(64.580078 39.046875)scale(0.7)"/>
      </g>
     </g>
    </g>
    <g id="xtick_4">
     <g id="line2d_7">
      <path d="M 118.8 252 
L 118.8 34.56 
" clip-path="url(#p578ad35024)" style="fill: none; stroke: #b0b0b0; stroke-width: 0.8; stroke-linecap: square"/>
     </g>
     <g id="line2d_8">
      <g>
       <use xlink:href="#mf5d63bd5f4" x="118.8" y="252" style="stroke: #000000; stroke-width: 0.8"/>
      </g>
     </g>
     <g id="text_4">
      <!-- $\mathdefault{2^{8}}$ -->
      <g transform="translate(113.2 266.598437)scale(0.1 -0.1)">
       <defs>
        <path id="DejaVuSans-38" d="M 2034 2216 
Q 1584 2216 1326 1975 
Q 1069 1734 1069 1313 
Q 1069 891 1326 650 
Q 1584 409 2034 409 
Q 2484 409 2743 651 
Q 3003 894 3003 1313 
Q 3003 1734 2745 1975 
Q 2488 2216 2034 2216 
z
M 1403 2484 
Q 997 2584 770 2862 
Q 544 3141 544 3541 
Q 544 4100 942 4425 
Q 1341 4750 2034 4750 
Q 2731 4750 3128 4425 
Q 3525 4100 3525 3541 
Q 3525 3141 3298 2862 
Q 3072 2584 2669 2484 
Q 3125 2378 3379 2068 
Q 3634 1759 3634 1313 
Q 3634 634 3220 271 
Q 2806 -91 2034 -91 
Q 1263 -91 848 271 
Q 434 634 434 1313 
Q 434 1759 690 2068 
Q 947 2378 1403 2484 
z
M 1172 3481 
Q 1172 3119 1398 2916 
Q 1625 2713 2034 2713 
Q 2441 2713 2670 2916 
Q 2900 3119 2900 3481 
Q 2900 3844 2670 4047 
Q 2441 4250 2034 4250 
Q 1625 4250 1398 4047 
Q 1172 3844 1172 3481 
z
" transform="scale(0.015625)"/>
       </defs>
       <use xlink:href="#DejaVuSans-32" transform="translate(0 0.765625)"/>
       <use xlink:href="#DejaVuSans-38" transform="translate(64.580078 39.046875)scale(0.7)"/>
      </g>
     </g>
    </g>
    <g id="xtick_5">
     <g id="line2d_9">
      <path d="M 140.4 252 
L 140.4 34.56 
" clip-path="url(#p578ad35024)" style="fill: none; stroke: #b0b0b0; stroke-width: 0.8; stroke-linecap: square"/>
     </g>
     <g id="line2d_10">
      <g>
       <use xlink:href="#mf5d63bd5f4" x="140.4" y="252" style="stroke: #000000; stroke-width: 0.8"/>
      </g>
     </g>
     <g id="text_5">
      <!-- $\mathdefault{2^{10}}$ -->
      <g transform="translate(132.55 266.598437)scale(0.1 -0.1)">
       <defs>
        <path id="DejaVuSans-31" d="M 794 531 
L 1825 531 
L 1825 4091 
L 703 3866 
L 703 4441 
L 1819 4666 
L 2450 4666 
L 2450 531 
L 3481 531 
L 3481 0 
L 794 0 
L 794 531 
z
" transform="scale(0.015625)"/>
        <path id="DejaVuSans-30" d="M 2034 4250 
Q 1547 4250 1301 3770 
Q 1056 3291 1056 2328 
Q 1056 1369 1301 889 
Q 1547 409 2034 409 
Q 2525 409 2770 889 
Q 3016 1369 3016 2328 
Q 3016 3291 2770 3770 
Q 2525 4250 2034 4250 
z
M 2034 4750 
Q 2819 4750 3233 4129 
Q 3647 3509 3647 2328 
Q 3647 1150 3233 529 
Q 2819 -91 2034 -91 
Q 1250 -91 836 529 
Q 422 1150 422 2328 
Q 422 3509 836 4129 
Q 1250 4750 2034 4750 
z
" transform="scale(0.015625)"/>
       </defs>
       <use xlink:href="#DejaVuSans-32" transform="translate(0 0.765625)"/>
       <use xlink:href="#DejaVuSans-31" transform="translate(64.580078 39.046875)scale(0.7)"/>
       <use xlink:href="#DejaVuSans-30" transform="translate(109.116211 39.046875)scale(0.7)"/>
      </g>
     </g>
    </g>
    <g id="xtick_6">
     <g id="line2d_11">
      <path d="M 162 252 
L 162 34.56 
" clip-path="url(#p578ad35024)" style="fill: none; stroke: #b0b0b0; stroke-width: 0.8; stroke-linecap: square"/>
     </g>
     <g id="line2d_12">
      <g>
       <use xlink:href="#mf5d63bd5f4" x="162" y="252" style="stroke: #000000; stroke-width: 0.8"/>
      </g>
     </g>
     <g id="text_6">
      <!-- $\mathdefault{2^{12}}$ -->
      <g transform="translate(154.15 266.598437)scale(0.1 -0.1)">
       <use xlink:href="#DejaVuSans-32" transform="translate(0 0.765625)"/>
       <use xlink:href="#DejaVuSans-31" transform="translate(64.580078 39.046875)scale(0.7)"/>
       <use xlink:href="#DejaVuSans-32" transform="translate(109.116211 39.046875)scale(0.7)"/>
      </g>
     </g>
    </g>
    <g id="xtick_7">
     <g id="line2d_13">
      <path d="M 183.6 252 
L 183.6 34.56 
" clip-path="url(#p578ad35024)" style="fill: none; stroke: #b0b0b0; stroke-width: 0.8; stroke-linecap: square"/>
     </g>
     <g id="line2d_14">
      <g>
       <use xlink:href="#mf5d63bd5f4" x="183.6" y="252" style="stroke: #000000; stroke-width: 0.8"/>
      </g>
     </g>
     <g id="text_7">
      <!-- $\mathdefault{2^{14}}$ -->
      <g transform="translate(175.75 266.598437)scale(0.1 -0.1)">
       <use xlink:href="#DejaVuSans-32" transform="translate(0 0.684375)"/>
       <use xlink:href="#DejaVuSans-31" transform="translate(64.580078 38.965625)scale(0.7)"/>
       <use xlink:href="#DejaVuSans-34" transform="translate(109.116211 38.965625)scale(0.7)"/>
      </g>
     </g>
    </g>
    <g id="xtick_8">
     <g id="line2d_15">
      <path d="M 205.2 252 
L 205.2 34.56 
" clip-path="url(#p578ad35024)" style="fill: none; stroke: #b0b0b0; stroke-width: 0.8; stroke-linecap: square"/>
     </g>
     <g id="line2d_16">
      <g>
       <use xlink:href="#mf5d63bd5f4" x="205.2" y="252" style="stroke: #000000; stroke-width: 0.8"/>
      </g>
     </g>
     <g id="text_8">
      <!-- $\mathdefault{2^{16}}$ -->
      <g transform="translate(197.35 266.598437)scale(0.1 -0.1)">
       <use xlink:href="#DejaVuSans-32" transform="translate(0 0.765625)"/>
       <use xlink:href="#DejaVuSans-31" transform="translate(64.580078 39.046875)scale(0.7)"/>
       <use xlink:href="#DejaVuSans-36" transform="translate(109.116211 39.046875)scale(0.7)"/>
      </g>
     </g>
    </g>
    <g id="xtick_9">
     <g id="line2d_17">
      <path d="M 226.8 252 
L 226.8 34.56 
" clip-path="url(#p578ad35024)" style="fill: none; stroke: #b0b0b0; stroke-width: 0.8; stroke-linecap: square"/>
     </g>
     <g id="line2d_18">
      <g>
       <use xlink:href="#mf5d63bd5f4" x="226.8" y="252" style="stroke: #000000; stroke-width: 0.8"/>
      </g>
     </g>
     <g id="text_9">
      <!-- $\mathdefault{2^{18}}$ -->
      <g transform="translate(218.95 266.598437)scale(0.1 -0.1)">
       <use xlink:href="#DejaVuSans-32" transform="translate(0 0.765625)"/>
       <use xlink:href="#DejaVuSans-31" transform="translate(64.580078 39.046875)scale(0.7)"/>
       <use xlink:href="#DejaVuSans-38" transform="translate(109.116211 39.046875)scale(0.7)"/>
      </g>
     </g>
    </g>
    <g id="xtick_10">
     <g id="line2d_19">
      <path d="M 248.4 252 
L 248.4 34.56 
" clip-path="url(#p578ad35024)" style="fill: none; stroke: #b0b0b0; stroke-width: 0.8; stroke-linecap: square"/>
     </g>
     <g id="line2d_20">
      <g>
       <use xlink:href="#mf5d63bd5f4" x="248.4" y="252" style="stroke: #000000; stroke-width: 0.8"/>
      </g>
     </g>
     <g id="text_10">
      <!-- $\mathdefault{2^{20}}$ -->
      <g transform="translate(240.55 266.598437)scale(0.1 -0.1)">
       <use xlink:href="#DejaVuSans-32" transform="translate(0 0.765625)"/>
       <use xlink:href="#DejaVuSans-32" transform="translate(64.580078 39.046875)scale(0.7)"/>
       <use xlink:href="#DejaVuSans-30" transform="translate(109.116211 39.046875)scale(0.7)"/>
      </g>
     </g>
    </g>
    <g id="xtick_11">
     <g id="line2d_21">
      <path d="M 270 252 
L 270 34.56 
" clip-path="url(#p578ad35024)" style="fill: none; stroke: #b0b0b0; stroke-width: 0.8; stroke-linecap: square"/>
     </g>
     <g id="line2d_22">
      <g>
       <use xlink:href="#mf5d63bd5f4" x="270" y="252" style="stroke: #000000; stroke-width: 0.8"/>
      </g>
     </g>
     <g id="text_11">
      <!-- $\mathdefault{2^{22}}$ -->
      <g transform="translate(262.15 266.598437)scale(0.1 -0.1)">
       <use xlink:href="#DejaVuSans-32" transform="translate(0 0.765625)"/>
       <use xlink:href="#DejaVuSans-32" transform="translate(64.580078 39.046875)scale(0.7)"/>
       <use xlink:href="#DejaVuSans-32" transform="translate(109.116211 39.046875)scale(0.7)"/>
      </g>
     </g>
    </g>
    <g id="xtick_12">
     <g id="line2d_23">
      <path d="M 291.6 252 
L 291.6 34.56 
" clip-path="url(#p578ad35024)" style="fill: none; stroke: #b0b0b0; stroke-width: 0.8; stroke-linecap: square"/>
     </g>
     <g id="line2d_24">
      <g>
       <use xlink:href="#mf5d63bd5f4" x="291.6" y="252" style="stroke: #000000; stroke-width: 0.8"/>
      </g>
     </g>
     <g id="text_12">
      <!-- $\mathdefault{2^{24}}$ -->
      <g transform="translate(283.75 266.598437)scale(0.1 -0.1)">
       <use xlink:href="#DejaVuSans-32" transform="translate(0 0.765625)"/>
       <use xlink:href="#DejaVuSans-32" transform="translate(64.580078 39.046875)scale(0.7)"/>
       <use xlink:href="#DejaVuSans-34" transform="translate(109.116211 39.046875)scale(0.7)"/>
      </g>
     </g>
    </g>
    <g id="xtick_13">
     <g id="line2d_25">
      <path d="M 313.2 252 
L 313.2 34.56 
" clip-path="url(#p578ad35024)" style="fill: none; stroke: #b0b0b0; stroke-width: 0.8; stroke-linecap: square"/>
     </g>
     <g id="line2d_26">
      <g>
       <use xlink:href="#mf5d63bd5f4" x="313.2" y="252" style="stroke: #000000; stroke-width: 0.8"/>
      </g>
     </g>
     <g id="text_13">
      <!-- $\mathdefault{2^{26}}$ -->
      <g transform="translate(305.35 266.598437)scale(0.1 -0.1)">
       <use xlink:href="#DejaVuSans-32" transform="translate(0 0.765625)"/>
       <use xlink:href="#DejaVuSans-32" transform="translate(64.580078 39.046875)scale(0.7)"/>
       <use xlink:href="#DejaVuSans-36" transform="translate(109.116211 39.046875)scale(0.7)"/>
      </g>
     </g>
    </g>
    <g id="xtick_14">
     <g id="line2d_27">
      <path d="M 334.8 252 
L 334.8 34.56 
" clip-path="url(#p578ad35024)" style="fill: none; stroke: #b0b0b0; stroke-width: 0.8; stroke-linecap: square"/>
     </g>
     <g id="line2d_28">
      <g>
       <use xlink:href="#mf5d63bd5f4" x="334.8" y="252" style="stroke: #000000; stroke-width: 0.8"/>
      </g>
     </g>
     <g id="text_14">
      <!-- $\mathdefault{2^{28}}$ -->
      <g transform="translate(326.95 266.598437)scale(0.1 -0.1)">
       <use xlink:href="#DejaVuSans-32" transform="translate(0 0.765625)"/>
       <use xlink:href="#DejaVuSans-32" transform="translate(64.580078 39.046875)scale(0.7)"/>
       <use xlink:href="#DejaVuSans-38" transform="translate(109.116211 39.046875)scale(0.7)"/>
      </g>
     </g>
    </g>
    <g id="xtick_15">
     <g id="line2d_29">
      <path d="M 356.4 252 
L 356.4 34.56 
" clip-path="url(#p578ad35024)" style="fill: none; stroke: #b0b0b0; stroke-width: 0.8; stroke-linecap: square"/>
     </g>
     <g id="line2d_30">
      <g>
       <use xlink:href="#mf5d63bd5f4" x="356.4" y="252" style="stroke: #000000; stroke-width: 0.8"/>
      </g>
     </g>
     <g id="text_15">
      <!-- $\mathdefault{2^{30}}$ -->
      <g transform="translate(348.55 266.598437)scale(0.1 -0.1)">
       <defs>
        <path id="DejaVuSans-33" d="M 2597 2516 
Q 3050 2419 3304 2112 
Q 3559 1806 3559 1356 
Q 3559 666 3084 287 
Q 2609 -91 1734 -91 
Q 1441 -91 1130 -33 
Q 819 25 488 141 
L 488 750 
Q 750 597 1062 519 
Q 1375 441 1716 441 
Q 2309 441 2620 675 
Q 2931 909 2931 1356 
Q 2931 1769 2642 2001 
Q 2353 2234 1838 2234 
L 1294 2234 
L 1294 2753 
L 1863 2753 
Q 2328 2753 2575 2939 
Q 2822 3125 2822 3475 
Q 2822 3834 2567 4026 
Q 2313 4219 1838 4219 
Q 1578 4219 1281 4162 
Q 984 4106 628 3988 
L 628 4550 
Q 988 4650 1302 4700 
Q 1616 4750 1894 4750 
Q 2613 4750 3031 4423 
Q 3450 4097 3450 3541 
Q 3450 3153 3228 2886 
Q 3006 2619 2597 2516 
z
" transform="scale(0.015625)"/>
       </defs>
       <use xlink:href="#DejaVuSans-32" transform="translate(0 0.765625)"/>
       <use xlink:href="#DejaVuSans-33" transform="translate(64.580078 39.046875)scale(0.7)"/>
       <use xlink:href="#DejaVuSans-30" transform="translate(109.116211 39.046875)scale(0.7)"/>
      </g>
     </g>
    </g>
    <g id="xtick_16">
     <g id="line2d_31">
      <path d="M 378 252 
L 378 34.56 
" clip-path="url(#p578ad35024)" style="fill: none; stroke: #b0b0b0; stroke-width: 0.8; stroke-linecap: square"/>
     </g>
     <g id="line2d_32">
      <g>
       <use xlink:href="#mf5d63bd5f4" x="378" y="252" style="stroke: #000000; stroke-width: 0.8"/>
      </g>
     </g>
     <g id="text_16">
      <!-- $\mathdefault{2^{32}}$ -->
      <g transform="translate(370.15 266.598437)scale(0.1 -0.1)">
       <use xlink:href="#DejaVuSans-32" transform="translate(0 0.765625)"/>
       <use xlink:href="#DejaVuSans-33" transform="translate(64.580078 39.046875)scale(0.7)"/>
       <use xlink:href="#DejaVuSans-32" transform="translate(109.116211 39.046875)scale(0.7)"/>
      </g>
     </g>
    </g>
    <g id="text_17">
     <!-- Eingabegröße -->
     <g transform="translate(186.791406 280.276563)scale(0.1 -0.1)">
      <defs>
       <path id="DejaVuSans-45" d="M 628 4666 
L 3578 4666 
L 3578 4134 
L 1259 4134 
L 1259 2753 
L 3481 2753 
L 3481 2222 
L 1259 2222 
L 1259 531 
L 3634 531 
L 3634 0 
L 628 0 
L 628 4666 
z
" transform="scale(0.015625)"/>
       <path id="DejaVuSans-69" d="M 603 3500 
L 1178 3500 
L 1178 0 
L 603 0 
L 603 3500 
z
M 603 4863 
L 1178 4863 
L 1178 4134 
L 603 4134 
L 603 4863 
z
" transform="scale(0.015625)"/>
       <path id="DejaVuSans-6e" d="M 3513 2113 
L 3513 0 
L 2938 0 
L 2938 2094 
Q 2938 2591 2744 2837 
Q 2550 3084 2163 3084 
Q 1697 3084 1428 2787 
Q 1159 2491 1159 1978 
L 1159 0 
L 581 0 
L 581 3500 
L 1159 3500 
L 1159 2956 
Q 1366 3272 1645 3428 
Q 1925 3584 2291 3584 
Q 2894 3584 3203 3211 
Q 3513 2838 3513 2113 
z
" transform="scale(0.015625)"/>
       <path id="DejaVuSans-67" d="M 2906 1791 
Q 2906 2416 2648 2759 
Q 2391 3103 1925 3103 
Q 1463 3103 1205 2759 
Q 947 2416 947 1791 
Q 947 1169 1205 825 
Q 1463 481 1925 481 
Q 2391 481 2648 825 
Q 2906 1169 2906 1791 
z
M 3481 434 
Q 3481 -459 3084 -895 
Q 2688 -1331 1869 -1331 
Q 1566 -1331 1297 -1286 
Q 1028 -1241 775 -1147 
L 775 -588 
Q 1028 -725 1275 -790 
Q 1522 -856 1778 -856 
Q 2344 -856 2625 -561 
Q 2906 -266 2906 331 
L 2906 616 
Q 2728 306 2450 153 
Q 2172 0 1784 0 
Q 1141 0 747 490 
Q 353 981 353 1791 
Q 353 2603 747 3093 
Q 1141 3584 1784 3584 
Q 2172 3584 2450 3431 
Q 2728 3278 2906 2969 
L 2906 3500 
L 3481 3500 
L 3481 434 
z
" transform="scale(0.015625)"/>
       <path id="DejaVuSans-61" d="M 2194 1759 
Q 1497 1759 1228 1600 
Q 959 1441 959 1056 
Q 959 750 1161 570 
Q 1363 391 1709 391 
Q 2188 391 2477 730 
Q 2766 1069 2766 1631 
L 2766 1759 
L 2194 1759 
z
M 3341 1997 
L 3341 0 
L 2766 0 
L 2766 531 
Q 2569 213 2275 61 
Q 1981 -91 1556 -91 
Q 1019 -91 701 211 
Q 384 513 384 1019 
Q 384 1609 779 1909 
Q 1175 2209 1959 2209 
L 2766 2209 
L 2766 2266 
Q 2766 2663 2505 2880 
Q 2244 3097 1772 3097 
Q 1472 3097 1187 3025 
Q 903 2953 641 2809 
L 641 3341 
Q 956 3463 1253 3523 
Q 1550 3584 1831 3584 
Q 2591 3584 2966 3190 
Q 3341 2797 3341 1997 
z
" transform="scale(0.015625)"/>
       <path id="DejaVuSans-62" d="M 3116 1747 
Q 3116 2381 2855 2742 
Q 2594 3103 2138 3103 
Q 1681 3103 1420 2742 
Q 1159 2381 1159 1747 
Q 1159 1113 1420 752 
Q 1681 391 2138 391 
Q 2594 391 2855 752 
Q 3116 1113 3116 1747 
z
M 1159 2969 
Q 1341 3281 1617 3432 
Q 1894 3584 2278 3584 
Q 2916 3584 3314 3078 
Q 3713 2572 3713 1747 
Q 3713 922 3314 415 
Q 2916 -91 2278 -91 
Q 1894 -91 1617 61 
Q 1341 213 1159 525 
L 1159 0 
L 581 0 
L 581 4863 
L 1159 4863 
L 1159 2969 
z
" transform="scale(0.015625)"/>
       <path id="DejaVuSans-65" d="M 3597 1894 
L 3597 1613 
L 953 1613 
Q 991 1019 1311 708 
Q 1631 397 2203 397 
Q 2534 397 2845 478 
Q 3156 559 3463 722 
L 3463 178 
Q 3153 47 2828 -22 
Q 2503 -91 2169 -91 
Q 1331 -91 842 396 
Q 353 884 353 1716 
Q 353 2575 817 3079 
Q 1281 3584 2069 3584 
Q 2775 3584 3186 3129 
Q 3597 2675 3597 1894 
z
M 3022 2063 
Q 3016 2534 2758 2815 
Q 2500 3097 2075 3097 
Q 1594 3097 1305 2825 
Q 1016 2553 972 2059 
L 3022 2063 
z
" transform="scale(0.015625)"/>
       <path id="DejaVuSans-72" d="M 2631 2963 
Q 2534 3019 2420 3045 
Q 2306 3072 2169 3072 
Q 1681 3072 1420 2755 
Q 1159 2438 1159 1844 
L 1159 0 
L 581 0 
L 581 3500 
L 1159 3500 
L 1159 2956 
Q 1341 3275 1631 3429 
Q 1922 3584 2338 3584 
Q 2397 3584 2469 3576 
Q 2541 3569 2628 3553 
L 2631 2963 
z
" transform="scale(0.015625)"/>
       <path id="DejaVuSans-f6" d="M 1959 3097 
Q 1497 3097 1228 2736 
Q 959 2375 959 1747 
Q 959 1119 1226 758 
Q 1494 397 1959 397 
Q 2419 397 2687 759 
Q 2956 1122 2956 1747 
Q 2956 2369 2687 2733 
Q 2419 3097 1959 3097 
z
M 1959 3584 
Q 2709 3584 3137 3096 
Q 3566 2609 3566 1747 
Q 3566 888 3137 398 
Q 2709 -91 1959 -91 
Q 1206 -91 779 398 
Q 353 888 353 1747 
Q 353 2609 779 3096 
Q 1206 3584 1959 3584 
z
M 2254 4850 
L 2888 4850 
L 2888 4219 
L 2254 4219 
L 2254 4850 
z
M 1032 4850 
L 1666 4850 
L 1666 4219 
L 1032 4219 
L 1032 4850 
z
" transform="scale(0.015625)"/>
       <path id="DejaVuSans-df" d="M 581 3553 
Q 581 4178 954 4520 
Q 1328 4863 2009 4863 
Q 2659 4863 3001 4500 
Q 3344 4138 3353 3438 
Q 2881 3413 2618 3233 
Q 2356 3053 2356 2753 
Q 2356 2606 2447 2479 
Q 2538 2353 2741 2222 
L 2919 2106 
Q 3438 1775 3588 1553 
Q 3738 1331 3738 1019 
Q 3738 481 3386 195 
Q 3034 -91 2375 -91 
Q 2175 -91 1962 -52 
Q 1750 -13 1522 63 
L 1522 575 
Q 1772 481 1990 436 
Q 2209 391 2413 391 
Q 2775 391 2962 539 
Q 3150 688 3150 972 
Q 3150 1169 3058 1300 
Q 2966 1431 2650 1625 
L 2363 1797 
Q 2063 1981 1927 2192 
Q 1791 2403 1791 2688 
Q 1791 3084 2052 3353 
Q 2313 3622 2784 3713 
Q 2759 4034 2554 4209 
Q 2350 4384 1997 4384 
Q 1591 4384 1378 4167 
Q 1166 3950 1166 3541 
L 1166 0 
L 581 0 
L 581 3553 
z
" transform="scale(0.015625)"/>
      </defs>
      <use xlink:href="#DejaVuSans-45"/>
      <use xlink:href="#DejaVuSans-69" x="63.183594"/>
      <use xlink:href="#DejaVuSans-6e" x="90.966797"/>
      <use xlink:href="#DejaVuSans-67" x="154.345703"/>
      <use xlink:href="#DejaVuSans-61" x="217.822266"/>
      <use xlink:href="#DejaVuSans-62" x="279.101562"/>
      <use xlink:href="#DejaVuSans-65" x="342.578125"/>
      <use xlink:href="#DejaVuSans-67" x="404.101562"/>
      <use xlink:href="#DejaVuSans-72" x="467.578125"/>
      <use xlink:href="#DejaVuSans-f6" x="506.441406"/>
      <use xlink:href="#DejaVuSans-df" x="567.623047"/>
      <use xlink:href="#DejaVuSans-65" x="630.611328"/>
     </g>
    </g>
   </g>
   <g id="matplotlib.axis_2">
    <g id="ytick_1">
     <g id="line2d_33">
      <path d="M 54 252 
L 388.8 252 
" clip-path="url(#p578ad35024)" style="fill: none; stroke: #b0b0b0; stroke-width: 0.8; stroke-linecap: square"/>
     </g>
     <g id="line2d_34">
      <defs>
       <path id="mecdf1cfcfb" d="M 0 0 
L -3.5 0 
" style="stroke: #000000; stroke-width: 0.8"/>
      </defs>
      <g>
       <use xlink:href="#mecdf1cfcfb" x="54" y="252" style="stroke: #000000; stroke-width: 0.8"/>
      </g>
     </g>
     <g id="text_18">
      <!-- 0.0 -->
      <g transform="translate(31.096875 255.799219)scale(0.1 -0.1)">
       <defs>
        <path id="DejaVuSans-2e" d="M 684 794 
L 1344 794 
L 1344 0 
L 684 0 
L 684 794 
z
" transform="scale(0.015625)"/>
       </defs>
       <use xlink:href="#DejaVuSans-30"/>
       <use xlink:href="#DejaVuSans-2e" x="63.623047"/>
       <use xlink:href="#DejaVuSans-30" x="95.410156"/>
      </g>
     </g>
    </g>
    <g id="ytick_2">
     <g id="line2d_35">
      <path d="M 54 241.128 
L 388.8 241.128 
" clip-path="url(#p578ad35024)" style="fill: none; stroke: #b0b0b0; stroke-width: 0.8; stroke-linecap: square"/>
     </g>
     <g id="line2d_36">
      <g>
       <use xlink:href="#mecdf1cfcfb" x="54" y="241.128" style="stroke: #000000; stroke-width: 0.8"/>
      </g>
     </g>
     <g id="text_19">
      <!-- 0.1 -->
      <g transform="translate(31.096875 244.927219)scale(0.1 -0.1)">
       <use xlink:href="#DejaVuSans-30"/>
       <use xlink:href="#DejaVuSans-2e" x="63.623047"/>
       <use xlink:href="#DejaVuSans-31" x="95.410156"/>
      </g>
     </g>
    </g>
    <g id="ytick_3">
     <g id="line2d_37">
      <path d="M 54 230.256 
L 388.8 230.256 
" clip-path="url(#p578ad35024)" style="fill: none; stroke: #b0b0b0; stroke-width: 0.8; stroke-linecap: square"/>
     </g>
     <g id="line2d_38">
      <g>
       <use xlink:href="#mecdf1cfcfb" x="54" y="230.256" style="stroke: #000000; stroke-width: 0.8"/>
      </g>
     </g>
     <g id="text_20">
      <!-- 0.2 -->
      <g transform="translate(31.096875 234.055219)scale(0.1 -0.1)">
       <use xlink:href="#DejaVuSans-30"/>
       <use xlink:href="#DejaVuSans-2e" x="63.623047"/>
       <use xlink:href="#DejaVuSans-32" x="95.410156"/>
      </g>
     </g>
    </g>
    <g id="ytick_4">
     <g id="line2d_39">
      <path d="M 54 219.384 
L 388.8 219.384 
" clip-path="url(#p578ad35024)" style="fill: none; stroke: #b0b0b0; stroke-width: 0.8; stroke-linecap: square"/>
     </g>
     <g id="line2d_40">
      <g>
       <use xlink:href="#mecdf1cfcfb" x="54" y="219.384" style="stroke: #000000; stroke-width: 0.8"/>
      </g>
     </g>
     <g id="text_21">
      <!-- 0.3 -->
      <g transform="translate(31.096875 223.183219)scale(0.1 -0.1)">
       <use xlink:href="#DejaVuSans-30"/>
       <use xlink:href="#DejaVuSans-2e" x="63.623047"/>
       <use xlink:href="#DejaVuSans-33" x="95.410156"/>
      </g>
     </g>
    </g>
    <g id="ytick_5">
     <g id="line2d_41">
      <path d="M 54 208.512 
L 388.8 208.512 
" clip-path="url(#p578ad35024)" style="fill: none; stroke: #b0b0b0; stroke-width: 0.8; stroke-linecap: square"/>
     </g>
     <g id="line2d_42">
      <g>
       <use xlink:href="#mecdf1cfcfb" x="54" y="208.512" style="stroke: #000000; stroke-width: 0.8"/>
      </g>
     </g>
     <g id="text_22">
      <!-- 0.4 -->
      <g transform="translate(31.096875 212.311219)scale(0.1 -0.1)">
       <use xlink:href="#DejaVuSans-30"/>
       <use xlink:href="#DejaVuSans-2e" x="63.623047"/>
       <use xlink:href="#DejaVuSans-34" x="95.410156"/>
      </g>
     </g>
    </g>
    <g id="ytick_6">
     <g id="line2d_43">
      <path d="M 54 197.64 
L 388.8 197.64 
" clip-path="url(#p578ad35024)" style="fill: none; stroke: #b0b0b0; stroke-width: 0.8; stroke-linecap: square"/>
     </g>
     <g id="line2d_44">
      <g>
       <use xlink:href="#mecdf1cfcfb" x="54" y="197.64" style="stroke: #000000; stroke-width: 0.8"/>
      </g>
     </g>
     <g id="text_23">
      <!-- 0.5 -->
      <g transform="translate(31.096875 201.439219)scale(0.1 -0.1)">
       <defs>
        <path id="DejaVuSans-35" d="M 691 4666 
L 3169 4666 
L 3169 4134 
L 1269 4134 
L 1269 2991 
Q 1406 3038 1543 3061 
Q 1681 3084 1819 3084 
Q 2600 3084 3056 2656 
Q 3513 2228 3513 1497 
Q 3513 744 3044 326 
Q 2575 -91 1722 -91 
Q 1428 -91 1123 -41 
Q 819 9 494 109 
L 494 744 
Q 775 591 1075 516 
Q 1375 441 1709 441 
Q 2250 441 2565 725 
Q 2881 1009 2881 1497 
Q 2881 1984 2565 2268 
Q 2250 2553 1709 2553 
Q 1456 2553 1204 2497 
Q 953 2441 691 2322 
L 691 4666 
z
" transform="scale(0.015625)"/>
       </defs>
       <use xlink:href="#DejaVuSans-30"/>
       <use xlink:href="#DejaVuSans-2e" x="63.623047"/>
       <use xlink:href="#DejaVuSans-35" x="95.410156"/>
      </g>
     </g>
    </g>
    <g id="ytick_7">
     <g id="line2d_45">
      <path d="M 54 186.768 
L 388.8 186.768 
" clip-path="url(#p578ad35024)" style="fill: none; stroke: #b0b0b0; stroke-width: 0.8; stroke-linecap: square"/>
     </g>
     <g id="line2d_46">
      <g>
       <use xlink:href="#mecdf1cfcfb" x="54" y="186.768" style="stroke: #000000; stroke-width: 0.8"/>
      </g>
     </g>
     <g id="text_24">
      <!-- 0.6 -->
      <g transform="translate(31.096875 190.567219)scale(0.1 -0.1)">
       <use xlink:href="#DejaVuSans-30"/>
       <use xlink:href="#DejaVuSans-2e" x="63.623047"/>
       <use xlink:href="#DejaVuSans-36" x="95.410156"/>
      </g>
     </g>
    </g>
    <g id="ytick_8">
     <g id="line2d_47">
      <path d="M 54 175.896 
L 388.8 175.896 
" clip-path="url(#p578ad35024)" style="fill: none; stroke: #b0b0b0; stroke-width: 0.8; stroke-linecap: square"/>
     </g>
     <g id="line2d_48">
      <g>
       <use xlink:href="#mecdf1cfcfb" x="54" y="175.896" style="stroke: #000000; stroke-width: 0.8"/>
      </g>
     </g>
     <g id="text_25">
      <!-- 0.7 -->
      <g transform="translate(31.096875 179.695219)scale(0.1 -0.1)">
       <defs>
        <path id="DejaVuSans-37" d="M 525 4666 
L 3525 4666 
L 3525 4397 
L 1831 0 
L 1172 0 
L 2766 4134 
L 525 4134 
L 525 4666 
z
" transform="scale(0.015625)"/>
       </defs>
       <use xlink:href="#DejaVuSans-30"/>
       <use xlink:href="#DejaVuSans-2e" x="63.623047"/>
       <use xlink:href="#DejaVuSans-37" x="95.410156"/>
      </g>
     </g>
    </g>
    <g id="ytick_9">
     <g id="line2d_49">
      <path d="M 54 165.024 
L 388.8 165.024 
" clip-path="url(#p578ad35024)" style="fill: none; stroke: #b0b0b0; stroke-width: 0.8; stroke-linecap: square"/>
     </g>
     <g id="line2d_50">
      <g>
       <use xlink:href="#mecdf1cfcfb" x="54" y="165.024" style="stroke: #000000; stroke-width: 0.8"/>
      </g>
     </g>
     <g id="text_26">
      <!-- 0.8 -->
      <g transform="translate(31.096875 168.823219)scale(0.1 -0.1)">
       <use xlink:href="#DejaVuSans-30"/>
       <use xlink:href="#DejaVuSans-2e" x="63.623047"/>
       <use xlink:href="#DejaVuSans-38" x="95.410156"/>
      </g>
     </g>
    </g>
    <g id="ytick_10">
     <g id="line2d_51">
      <path d="M 54 154.152 
L 388.8 154.152 
" clip-path="url(#p578ad35024)" style="fill: none; stroke: #b0b0b0; stroke-width: 0.8; stroke-linecap: square"/>
     </g>
     <g id="line2d_52">
      <g>
       <use xlink:href="#mecdf1cfcfb" x="54" y="154.152" style="stroke: #000000; stroke-width: 0.8"/>
      </g>
     </g>
     <g id="text_27">
      <!-- 0.9 -->
      <g transform="translate(31.096875 157.951219)scale(0.1 -0.1)">
       <defs>
        <path id="DejaVuSans-39" d="M 703 97 
L 703 672 
Q 941 559 1184 500 
Q 1428 441 1663 441 
Q 2288 441 2617 861 
Q 2947 1281 2994 2138 
Q 2813 1869 2534 1725 
Q 2256 1581 1919 1581 
Q 1219 1581 811 2004 
Q 403 2428 403 3163 
Q 403 3881 828 4315 
Q 1253 4750 1959 4750 
Q 2769 4750 3195 4129 
Q 3622 3509 3622 2328 
Q 3622 1225 3098 567 
Q 2575 -91 1691 -91 
Q 1453 -91 1209 -44 
Q 966 3 703 97 
z
M 1959 2075 
Q 2384 2075 2632 2365 
Q 2881 2656 2881 3163 
Q 2881 3666 2632 3958 
Q 2384 4250 1959 4250 
Q 1534 4250 1286 3958 
Q 1038 3666 1038 3163 
Q 1038 2656 1286 2365 
Q 1534 2075 1959 2075 
z
" transform="scale(0.015625)"/>
       </defs>
       <use xlink:href="#DejaVuSans-30"/>
       <use xlink:href="#DejaVuSans-2e" x="63.623047"/>
       <use xlink:href="#DejaVuSans-39" x="95.410156"/>
      </g>
     </g>
    </g>
    <g id="ytick_11">
     <g id="line2d_53">
      <path d="M 54 143.28 
L 388.8 143.28 
" clip-path="url(#p578ad35024)" style="fill: none; stroke: #b0b0b0; stroke-width: 0.8; stroke-linecap: square"/>
     </g>
     <g id="line2d_54">
      <g>
       <use xlink:href="#mecdf1cfcfb" x="54" y="143.28" style="stroke: #000000; stroke-width: 0.8"/>
      </g>
     </g>
     <g id="text_28">
      <!-- 1.0 -->
      <g transform="translate(31.096875 147.079219)scale(0.1 -0.1)">
       <use xlink:href="#DejaVuSans-31"/>
       <use xlink:href="#DejaVuSans-2e" x="63.623047"/>
       <use xlink:href="#DejaVuSans-30" x="95.410156"/>
      </g>
     </g>
    </g>
    <g id="ytick_12">
     <g id="line2d_55">
      <path d="M 54 132.408 
L 388.8 132.408 
" clip-path="url(#p578ad35024)" style="fill: none; stroke: #b0b0b0; stroke-width: 0.8; stroke-linecap: square"/>
     </g>
     <g id="line2d_56">
      <g>
       <use xlink:href="#mecdf1cfcfb" x="54" y="132.408" style="stroke: #000000; stroke-width: 0.8"/>
      </g>
     </g>
     <g id="text_29">
      <!-- 1.1 -->
      <g transform="translate(31.096875 136.207219)scale(0.1 -0.1)">
       <use xlink:href="#DejaVuSans-31"/>
       <use xlink:href="#DejaVuSans-2e" x="63.623047"/>
       <use xlink:href="#DejaVuSans-31" x="95.410156"/>
      </g>
     </g>
    </g>
    <g id="ytick_13">
     <g id="line2d_57">
      <path d="M 54 121.536 
L 388.8 121.536 
" clip-path="url(#p578ad35024)" style="fill: none; stroke: #b0b0b0; stroke-width: 0.8; stroke-linecap: square"/>
     </g>
     <g id="line2d_58">
      <g>
       <use xlink:href="#mecdf1cfcfb" x="54" y="121.536" style="stroke: #000000; stroke-width: 0.8"/>
      </g>
     </g>
     <g id="text_30">
      <!-- 1.2 -->
      <g transform="translate(31.096875 125.335219)scale(0.1 -0.1)">
       <use xlink:href="#DejaVuSans-31"/>
       <use xlink:href="#DejaVuSans-2e" x="63.623047"/>
       <use xlink:href="#DejaVuSans-32" x="95.410156"/>
      </g>
     </g>
    </g>
    <g id="ytick_14">
     <g id="line2d_59">
      <path d="M 54 110.664 
L 388.8 110.664 
" clip-path="url(#p578ad35024)" style="fill: none; stroke: #b0b0b0; stroke-width: 0.8; stroke-linecap: square"/>
     </g>
     <g id="line2d_60">
      <g>
       <use xlink:href="#mecdf1cfcfb" x="54" y="110.664" style="stroke: #000000; stroke-width: 0.8"/>
      </g>
     </g>
     <g id="text_31">
      <!-- 1.3 -->
      <g transform="translate(31.096875 114.463219)scale(0.1 -0.1)">
       <use xlink:href="#DejaVuSans-31"/>
       <use xlink:href="#DejaVuSans-2e" x="63.623047"/>
       <use xlink:href="#DejaVuSans-33" x="95.410156"/>
      </g>
     </g>
    </g>
    <g id="ytick_15">
     <g id="line2d_61">
      <path d="M 54 99.792 
L 388.8 99.792 
" clip-path="url(#p578ad35024)" style="fill: none; stroke: #b0b0b0; stroke-width: 0.8; stroke-linecap: square"/>
     </g>
     <g id="line2d_62">
      <g>
       <use xlink:href="#mecdf1cfcfb" x="54" y="99.792" style="stroke: #000000; stroke-width: 0.8"/>
      </g>
     </g>
     <g id="text_32">
      <!-- 1.4 -->
      <g transform="translate(31.096875 103.591219)scale(0.1 -0.1)">
       <use xlink:href="#DejaVuSans-31"/>
       <use xlink:href="#DejaVuSans-2e" x="63.623047"/>
       <use xlink:href="#DejaVuSans-34" x="95.410156"/>
      </g>
     </g>
    </g>
    <g id="ytick_16">
     <g id="line2d_63">
      <path d="M 54 88.92 
L 388.8 88.92 
" clip-path="url(#p578ad35024)" style="fill: none; stroke: #b0b0b0; stroke-width: 0.8; stroke-linecap: square"/>
     </g>
     <g id="line2d_64">
      <g>
       <use xlink:href="#mecdf1cfcfb" x="54" y="88.92" style="stroke: #000000; stroke-width: 0.8"/>
      </g>
     </g>
     <g id="text_33">
      <!-- 1.5 -->
      <g transform="translate(31.096875 92.719219)scale(0.1 -0.1)">
       <use xlink:href="#DejaVuSans-31"/>
       <use xlink:href="#DejaVuSans-2e" x="63.623047"/>
       <use xlink:href="#DejaVuSans-35" x="95.410156"/>
      </g>
     </g>
    </g>
    <g id="ytick_17">
     <g id="line2d_65">
      <path d="M 54 78.048 
L 388.8 78.048 
" clip-path="url(#p578ad35024)" style="fill: none; stroke: #b0b0b0; stroke-width: 0.8; stroke-linecap: square"/>
     </g>
     <g id="line2d_66">
      <g>
       <use xlink:href="#mecdf1cfcfb" x="54" y="78.048" style="stroke: #000000; stroke-width: 0.8"/>
      </g>
     </g>
     <g id="text_34">
      <!-- 1.6 -->
      <g transform="translate(31.096875 81.847219)scale(0.1 -0.1)">
       <use xlink:href="#DejaVuSans-31"/>
       <use xlink:href="#DejaVuSans-2e" x="63.623047"/>
       <use xlink:href="#DejaVuSans-36" x="95.410156"/>
      </g>
     </g>
    </g>
    <g id="ytick_18">
     <g id="line2d_67">
      <path d="M 54 67.176 
L 388.8 67.176 
" clip-path="url(#p578ad35024)" style="fill: none; stroke: #b0b0b0; stroke-width: 0.8; stroke-linecap: square"/>
     </g>
     <g id="line2d_68">
      <g>
       <use xlink:href="#mecdf1cfcfb" x="54" y="67.176" style="stroke: #000000; stroke-width: 0.8"/>
      </g>
     </g>
     <g id="text_35">
      <!-- 1.7 -->
      <g transform="translate(31.096875 70.975219)scale(0.1 -0.1)">
       <use xlink:href="#DejaVuSans-31"/>
       <use xlink:href="#DejaVuSans-2e" x="63.623047"/>
       <use xlink:href="#DejaVuSans-37" x="95.410156"/>
      </g>
     </g>
    </g>
    <g id="ytick_19">
     <g id="line2d_69">
      <path d="M 54 56.304 
L 388.8 56.304 
" clip-path="url(#p578ad35024)" style="fill: none; stroke: #b0b0b0; stroke-width: 0.8; stroke-linecap: square"/>
     </g>
     <g id="line2d_70">
      <g>
       <use xlink:href="#mecdf1cfcfb" x="54" y="56.304" style="stroke: #000000; stroke-width: 0.8"/>
      </g>
     </g>
     <g id="text_36">
      <!-- 1.8 -->
      <g transform="translate(31.096875 60.103219)scale(0.1 -0.1)">
       <use xlink:href="#DejaVuSans-31"/>
       <use xlink:href="#DejaVuSans-2e" x="63.623047"/>
       <use xlink:href="#DejaVuSans-38" x="95.410156"/>
      </g>
     </g>
    </g>
    <g id="ytick_20">
     <g id="line2d_71">
      <path d="M 54 45.432 
L 388.8 45.432 
" clip-path="url(#p578ad35024)" style="fill: none; stroke: #b0b0b0; stroke-width: 0.8; stroke-linecap: square"/>
     </g>
     <g id="line2d_72">
      <g>
       <use xlink:href="#mecdf1cfcfb" x="54" y="45.432" style="stroke: #000000; stroke-width: 0.8"/>
      </g>
     </g>
     <g id="text_37">
      <!-- 1.9 -->
      <g transform="translate(31.096875 49.231219)scale(0.1 -0.1)">
       <use xlink:href="#DejaVuSans-31"/>
       <use xlink:href="#DejaVuSans-2e" x="63.623047"/>
       <use xlink:href="#DejaVuSans-39" x="95.410156"/>
      </g>
     </g>
    </g>
    <g id="ytick_21">
     <g id="line2d_73">
      <path d="M 54 34.56 
L 388.8 34.56 
" clip-path="url(#p578ad35024)" style="fill: none; stroke: #b0b0b0; stroke-width: 0.8; stroke-linecap: square"/>
     </g>
     <g id="line2d_74">
      <g>
       <use xlink:href="#mecdf1cfcfb" x="54" y="34.56" style="stroke: #000000; stroke-width: 0.8"/>
      </g>
     </g>
     <g id="text_38">
      <!-- 2.0 -->
      <g transform="translate(31.096875 38.359219)scale(0.1 -0.1)">
       <use xlink:href="#DejaVuSans-32"/>
       <use xlink:href="#DejaVuSans-2e" x="63.623047"/>
       <use xlink:href="#DejaVuSans-30" x="95.410156"/>
      </g>
     </g>
    </g>
    <g id="text_39">
     <!-- Speedup -->
     <g transform="translate(25.017187 165.29875)rotate(-90)scale(0.1 -0.1)">
      <defs>
       <path id="DejaVuSans-53" d="M 3425 4513 
L 3425 3897 
Q 3066 4069 2747 4153 
Q 2428 4238 2131 4238 
Q 1616 4238 1336 4038 
Q 1056 3838 1056 3469 
Q 1056 3159 1242 3001 
Q 1428 2844 1947 2747 
L 2328 2669 
Q 3034 2534 3370 2195 
Q 3706 1856 3706 1288 
Q 3706 609 3251 259 
Q 2797 -91 1919 -91 
Q 1588 -91 1214 -16 
Q 841 59 441 206 
L 441 856 
Q 825 641 1194 531 
Q 1563 422 1919 422 
Q 2459 422 2753 634 
Q 3047 847 3047 1241 
Q 3047 1584 2836 1778 
Q 2625 1972 2144 2069 
L 1759 2144 
Q 1053 2284 737 2584 
Q 422 2884 422 3419 
Q 422 4038 858 4394 
Q 1294 4750 2059 4750 
Q 2388 4750 2728 4690 
Q 3069 4631 3425 4513 
z
" transform="scale(0.015625)"/>
       <path id="DejaVuSans-70" d="M 1159 525 
L 1159 -1331 
L 581 -1331 
L 581 3500 
L 1159 3500 
L 1159 2969 
Q 1341 3281 1617 3432 
Q 1894 3584 2278 3584 
Q 2916 3584 3314 3078 
Q 3713 2572 3713 1747 
Q 3713 922 3314 415 
Q 2916 -91 2278 -91 
Q 1894 -91 1617 61 
Q 1341 213 1159 525 
z
M 3116 1747 
Q 3116 2381 2855 2742 
Q 2594 3103 2138 3103 
Q 1681 3103 1420 2742 
Q 1159 2381 1159 1747 
Q 1159 1113 1420 752 
Q 1681 391 2138 391 
Q 2594 391 2855 752 
Q 3116 1113 3116 1747 
z
" transform="scale(0.015625)"/>
       <path id="DejaVuSans-64" d="M 2906 2969 
L 2906 4863 
L 3481 4863 
L 3481 0 
L 2906 0 
L 2906 525 
Q 2725 213 2448 61 
Q 2172 -91 1784 -91 
Q 1150 -91 751 415 
Q 353 922 353 1747 
Q 353 2572 751 3078 
Q 1150 3584 1784 3584 
Q 2172 3584 2448 3432 
Q 2725 3281 2906 2969 
z
M 947 1747 
Q 947 1113 1208 752 
Q 1469 391 1925 391 
Q 2381 391 2643 752 
Q 2906 1113 2906 1747 
Q 2906 2381 2643 2742 
Q 2381 3103 1925 3103 
Q 1469 3103 1208 2742 
Q 947 2381 947 1747 
z
" transform="scale(0.015625)"/>
       <path id="DejaVuSans-75" d="M 544 1381 
L 544 3500 
L 1119 3500 
L 1119 1403 
Q 1119 906 1312 657 
Q 1506 409 1894 409 
Q 2359 409 2629 706 
Q 2900 1003 2900 1516 
L 2900 3500 
L 3475 3500 
L 3475 0 
L 2900 0 
L 2900 538 
Q 2691 219 2414 64 
Q 2138 -91 1772 -91 
Q 1169 -91 856 284 
Q 544 659 544 1381 
z
M 1991 3584 
L 1991 3584 
z
" transform="scale(0.015625)"/>
      </defs>
      <use xlink:href="#DejaVuSans-53"/>
      <use xlink:href="#DejaVuSans-70" x="63.476562"/>
      <use xlink:href="#DejaVuSans-65" x="126.953125"/>
      <use xlink:href="#DejaVuSans-65" x="188.476562"/>
      <use xlink:href="#DejaVuSans-64" x="250"/>
      <use xlink:href="#DejaVuSans-75" x="313.476562"/>
      <use xlink:href="#DejaVuSans-70" x="376.855469"/>
     </g>
    </g>
   </g>
   <g id="line2d_75">
    <path d="M 32.4 131.252713 
L 43.2 151.776369 
L 54 133.798572 
L 64.8 135.12983 
L 75.6 140.692144 
L 86.4 144.524392 
L 97.2 145.748373 
L 108 150.739532 
L 118.8 154.030423 
L 129.6 157.048506 
L 140.4 159.693781 
L 151.2 162.450921 
L 162 165.113259 
L 172.8 167.086299 
L 183.6 167.883223 
L 194.4 169.860379 
L 205.2 165.304088 
L 216 161.207467 
L 226.8 158.323835 
L 237.6 157.462879 
L 248.4 155.839196 
L 259.2 123.046331 
L 270 167.351871 
L 280.8 188.348573 
L 291.6 195.354391 
L 302.4 197.922087 
L 313.2 196.870978 
L 324 193.121487 
L 334.8 192.922871 
L 345.6 199.98043 
L 356.4 211.457823 
L 367.2 220.100747 
L 378 224.473105 
L 388.8 226.071922 
" clip-path="url(#p578ad35024)" style="fill: none; stroke: #1f77b4; stroke-width: 1.5; stroke-linecap: square"/>
   </g>
   <g id="line2d_76">
    <path d="M 40.006992 -1 
L 43.2 44.945681 
L 54 107.915117 
L 64.8 126.933642 
L 75.6 136.578592 
L 86.4 140.91996 
L 97.2 142.933947 
L 108 143.927826 
L 118.8 146.085014 
L 129.6 145.061269 
L 140.4 144.941284 
L 151.2 145.726169 
L 162 144.997545 
L 172.8 145.466712 
L 183.6 145.185532 
L 194.4 145.4766 
L 205.2 146.557249 
L 216 151.693711 
L 226.8 153.785031 
L 237.6 155.134021 
L 248.4 154.717629 
L 259.2 144.702935 
L 270 185.106159 
L 280.8 199.859658 
L 291.6 205.486776 
L 302.4 207.77195 
L 313.2 207.171761 
L 324 204.65773 
L 334.8 204.426783 
L 345.6 209.114711 
L 356.4 216.447971 
L 367.2 221.733518 
" clip-path="url(#p578ad35024)" style="fill: none; stroke: #ff7f0e; stroke-width: 1.5; stroke-linecap: square"/>
   </g>
   <g id="line2d_77">
    <path d="M 41.200679 -1 
L 43.2 23.813053 
L 54 93.90721 
L 64.8 117.110817 
L 75.6 127.746991 
L 86.4 132.645023 
L 97.2 133.675728 
L 108 136.663809 
L 118.8 136.784655 
L 129.6 137.075195 
L 140.4 137.246595 
L 151.2 137.172489 
L 162 137.247168 
L 172.8 137.855465 
L 183.6 137.743483 
L 194.4 137.603233 
L 205.2 135.569073 
L 216 138.38931 
L 226.8 140.227876 
L 237.6 140.862451 
L 248.4 139.543272 
L 259.2 134.722043 
L 270 176.013272 
L 280.8 191.226926 
L 291.6 197.000379 
L 302.4 199.409481 
L 313.2 198.709482 
L 324 195.896749 
L 334.8 197.391835 
L 345.6 202.989427 
L 356.4 214.695285 
L 367.2 221.522897 
" clip-path="url(#p578ad35024)" style="fill: none; stroke: #2ca02c; stroke-width: 1.5; stroke-linecap: square"/>
   </g>
   <g id="line2d_78">
    <path d="M 41.257237 -1 
L 43.2 62.751134 
L 54 118.925968 
L 64.8 136.451182 
L 75.6 145.877304 
L 86.4 149.46159 
L 97.2 152.304321 
L 108 152.910861 
L 118.8 153.658493 
L 129.6 154.085042 
L 140.4 155.0888 
L 151.2 154.027609 
L 162 154.042153 
L 172.8 155.306495 
L 183.6 154.027839 
L 194.4 154.06676 
L 205.2 153.858038 
L 216 166.127705 
L 226.8 174.141173 
L 237.6 175.435828 
L 248.4 174.30553 
L 259.2 161.102829 
L 270 190.516078 
L 280.8 203.769776 
L 291.6 208.848577 
L 302.4 210.57056 
L 313.2 208.509541 
L 324 205.025452 
L 334.8 205.289025 
L 345.6 209.241515 
L 356.4 217.045921 
L 367.2 222.204472 
L 378 223.968548 
L 388.8 225.868467 
" clip-path="url(#p578ad35024)" style="fill: none; stroke: #d62728; stroke-width: 1.5; stroke-linecap: square"/>
   </g>
   <g id="line2d_79">
    <path d="M 32.4 244.649315 
L 43.2 240.34549 
L 54 231.427861 
L 64.8 217.268116 
L 75.6 200.413571 
L 86.4 181.694248 
L 97.2 166.010979 
L 108 156.271474 
L 118.8 149.511751 
L 129.6 157.217172 
L 140.4 160.050502 
L 151.2 161.500795 
L 162 162.809587 
L 172.8 164.164706 
L 183.6 165.828657 
L 194.4 167.686166 
L 205.2 163.61517 
L 216 161.307716 
L 226.8 159.132554 
L 237.6 158.397823 
L 248.4 156.656941 
L 259.2 131.252814 
L 270 144.177113 
L 280.8 155.68653 
L 291.6 162.819574 
L 302.4 166.895685 
L 313.2 166.693676 
L 324 163.758245 
L 334.8 166.490929 
L 345.6 185.816156 
L 356.4 209.275383 
L 367.2 221.170699 
" clip-path="url(#p578ad35024)" style="fill: none; stroke: #9467bd; stroke-width: 1.5; stroke-linecap: square"/>
   </g>
   <g id="line2d_80">
    <path d="M 32.4 244.651297 
L 43.2 240.771813 
L 54 231.836001 
L 64.8 218.528526 
L 75.6 203.2828 
L 86.4 187.565628 
L 97.2 175.084802 
L 108 166.968588 
L 118.8 162.382547 
L 129.6 162.963772 
L 140.4 163.345803 
L 151.2 163.64289 
L 162 163.978745 
L 172.8 165.067885 
L 183.6 166.491781 
L 194.4 168.376167 
L 205.2 163.950108 
L 216 161.567507 
L 226.8 159.336483 
L 237.6 158.524917 
L 248.4 156.64997 
L 259.2 131.046048 
L 270 143.784503 
L 280.8 155.520002 
L 291.6 163.029013 
L 302.4 166.951177 
L 313.2 166.199539 
L 324 162.682721 
L 334.8 164.930999 
L 345.6 182.257264 
L 356.4 205.916737 
L 367.2 218.7188 
L 378 223.48025 
L 388.8 226.008442 
" clip-path="url(#p578ad35024)" style="fill: none; stroke: #8c564b; stroke-width: 1.5; stroke-linecap: square"/>
   </g>
   <g id="line2d_81">
    <path d="M 40.905091 -1 
L 43.2 57.373793 
L 54 101.731667 
L 64.8 121.450395 
L 75.6 130.392632 
L 86.4 134.607268 
L 97.2 136.660776 
L 108 138.102632 
L 118.8 139.403679 
L 129.6 138.548359 
L 140.4 138.442934 
L 151.2 138.55308 
L 162 138.591789 
L 172.8 138.887301 
L 183.6 138.735585 
L 194.4 141.219035 
L 205.2 139.508194 
L 216 141.064362 
L 226.8 140.963617 
L 237.6 141.371807 
L 248.4 140.279129 
L 259.2 132.768781 
L 270 144.135319 
L 280.8 155.605648 
L 291.6 163.067362 
L 302.4 166.593922 
L 313.2 166.66836 
L 324 163.558097 
L 334.8 166.518118 
L 345.6 184.895065 
L 356.4 209.093856 
L 367.2 221.398676 
L 378 223.466914 
L 388.8 226.228943 
" clip-path="url(#p578ad35024)" style="fill: none; stroke: #e377c2; stroke-width: 1.5; stroke-linecap: square"/>
   </g>
   <g id="line2d_82">
    <path d="M 32.4 143.28 
L 43.2 143.28 
L 54 143.28 
L 64.8 143.28 
L 75.6 143.28 
L 86.4 143.28 
L 97.2 143.28 
L 108 143.28 
L 118.8 143.28 
L 129.6 143.28 
L 140.4 143.28 
L 151.2 143.28 
L 162 143.28 
L 172.8 143.28 
L 183.6 143.28 
L 194.4 143.28 
L 205.2 143.28 
L 216 143.28 
L 226.8 143.28 
L 237.6 143.28 
L 248.4 143.28 
L 259.2 143.28 
L 270 143.28 
L 280.8 143.28 
L 291.6 143.28 
L 302.4 143.28 
L 313.2 143.28 
L 324 143.28 
L 334.8 143.28 
L 345.6 143.28 
L 356.4 143.28 
L 367.2 143.28 
L 378 143.28 
L 388.8 143.28 
" clip-path="url(#p578ad35024)" style="fill: none; stroke: #7f7f7f; stroke-width: 1.5; stroke-linecap: square"/>
   </g>
   <g id="line2d_83">
    <path d="M 32.4 214.587799 
L 43.2 202.066758 
L 54 185.762069 
L 64.8 183.201923 
L 75.6 185.230341 
L 86.4 188.7767 
L 97.2 134.324049 
L 108 121.286272 
L 118.8 113.831146 
L 129.6 109.453413 
L 140.4 106.935047 
L 151.2 106.22983 
L 162 105.260319 
L 172.8 107.808855 
L 183.6 111.221465 
L 194.4 111.381314 
L 205.2 105.503833 
L 216 104.680284 
L 226.8 103.434288 
L 237.6 102.880839 
L 248.4 150.251078 
L 259.2 118.863135 
L 270 121.826237 
L 280.8 122.317503 
L 291.6 119.017267 
L 302.4 113.766419 
L 313.2 124.947026 
L 324 119.525097 
L 334.8 107.644074 
L 345.6 105.921098 
L 356.4 123.083323 
L 367.2 114.694078 
L 378 86.095831 
L 388.8 100.840744 
" clip-path="url(#p578ad35024)" style="fill: none; stroke: #bcbd22; stroke-width: 1.5; stroke-linecap: square"/>
   </g>
   <g id="line2d_84">
    <path d="M 32.4 187.978995 
L 43.2 188.369599 
L 54 179.723852 
L 64.8 180.678654 
L 75.6 184.783797 
L 86.4 190.492173 
L 97.2 135.110257 
L 108 120.592036 
L 118.8 113.564737 
L 129.6 111.654135 
L 140.4 106.808991 
L 151.2 105.59322 
L 162 105.404905 
L 172.8 106.118887 
L 183.6 108.613924 
L 194.4 111.546544 
L 205.2 105.629912 
L 216 101.353836 
L 226.8 103.52745 
L 237.6 104.069889 
L 248.4 102.346885 
L 259.2 74.830022 
L 270 62.238292 
L 280.8 62.221796 
L 291.6 61.803856 
L 302.4 66.437565 
L 313.2 65.608586 
L 324 57.176775 
L 334.8 57.362738 
L 345.6 59.371654 
L 356.4 59.159297 
L 367.2 62.24509 
L 378 57.677 
L 388.8 58.21712 
" clip-path="url(#p578ad35024)" style="fill: none; stroke: #17becf; stroke-width: 1.5; stroke-linecap: square"/>
   </g>
   <g id="patch_3">
    <path d="M 54 252 
L 54 34.56 
" style="fill: none; stroke: #000000; stroke-width: 0.8; stroke-linejoin: miter; stroke-linecap: square"/>
   </g>
   <g id="patch_4">
    <path d="M 388.8 252 
L 388.8 34.56 
" style="fill: none; stroke: #000000; stroke-width: 0.8; stroke-linejoin: miter; stroke-linecap: square"/>
   </g>
   <g id="patch_5">
    <path d="M 54 252 
L 388.8 252 
" style="fill: none; stroke: #000000; stroke-width: 0.8; stroke-linejoin: miter; stroke-linecap: square"/>
   </g>
   <g id="patch_6">
    <path d="M 54 34.56 
L 388.8 34.56 
" style="fill: none; stroke: #000000; stroke-width: 0.8; stroke-linejoin: miter; stroke-linecap: square"/>
   </g>
   <g id="legend_1">
    <g id="patch_7">
     <path d="M 412.54 191.844375 
L 608.8275 191.844375 
Q 610.8275 191.844375 610.8275 189.844375 
L 610.8275 41.56 
Q 610.8275 39.56 608.8275 39.56 
L 412.54 39.56 
Q 410.54 39.56 410.54 41.56 
L 410.54 189.844375 
Q 410.54 191.844375 412.54 191.844375 
z
" style="fill: #ffffff; opacity: 0.8; stroke: #cccccc; stroke-linejoin: miter"/>
    </g>
    <g id="line2d_85">
     <path d="M 414.54 47.658437 
L 424.54 47.658437 
L 433 47.658437 
" style="fill: none; stroke: #1f77b4; stroke-width: 1.5; stroke-linecap: square"/>
    </g>
    <g id="text_40">
     <!-- std::shuffle -->
     <g transform="translate(442.54 51.158437)scale(0.1 -0.1)">
      <defs>
       <path id="DejaVuSans-73" d="M 2834 3397 
L 2834 2853 
Q 2591 2978 2328 3040 
Q 2066 3103 1784 3103 
Q 1356 3103 1142 2972 
Q 928 2841 928 2578 
Q 928 2378 1081 2264 
Q 1234 2150 1697 2047 
L 1894 2003 
Q 2506 1872 2764 1633 
Q 3022 1394 3022 966 
Q 3022 478 2636 193 
Q 2250 -91 1575 -91 
Q 1294 -91 989 -36 
Q 684 19 347 128 
L 347 722 
Q 666 556 975 473 
Q 1284 391 1588 391 
Q 1994 391 2212 530 
Q 2431 669 2431 922 
Q 2431 1156 2273 1281 
Q 2116 1406 1581 1522 
L 1381 1569 
Q 847 1681 609 1914 
Q 372 2147 372 2553 
Q 372 3047 722 3315 
Q 1072 3584 1716 3584 
Q 2034 3584 2315 3537 
Q 2597 3491 2834 3397 
z
" transform="scale(0.015625)"/>
       <path id="DejaVuSans-74" d="M 1172 4494 
L 1172 3500 
L 2356 3500 
L 2356 3053 
L 1172 3053 
L 1172 1153 
Q 1172 725 1289 603 
Q 1406 481 1766 481 
L 2356 481 
L 2356 0 
L 1766 0 
Q 1100 0 847 248 
Q 594 497 594 1153 
L 594 3053 
L 172 3053 
L 172 3500 
L 594 3500 
L 594 4494 
L 1172 4494 
z
" transform="scale(0.015625)"/>
       <path id="DejaVuSans-3a" d="M 750 794 
L 1409 794 
L 1409 0 
L 750 0 
L 750 794 
z
M 750 3309 
L 1409 3309 
L 1409 2516 
L 750 2516 
L 750 3309 
z
" transform="scale(0.015625)"/>
       <path id="DejaVuSans-68" d="M 3513 2113 
L 3513 0 
L 2938 0 
L 2938 2094 
Q 2938 2591 2744 2837 
Q 2550 3084 2163 3084 
Q 1697 3084 1428 2787 
Q 1159 2491 1159 1978 
L 1159 0 
L 581 0 
L 581 4863 
L 1159 4863 
L 1159 2956 
Q 1366 3272 1645 3428 
Q 1925 3584 2291 3584 
Q 2894 3584 3203 3211 
Q 3513 2838 3513 2113 
z
" transform="scale(0.015625)"/>
       <path id="DejaVuSans-66" d="M 2375 4863 
L 2375 4384 
L 1825 4384 
Q 1516 4384 1395 4259 
Q 1275 4134 1275 3809 
L 1275 3500 
L 2222 3500 
L 2222 3053 
L 1275 3053 
L 1275 0 
L 697 0 
L 697 3053 
L 147 3053 
L 147 3500 
L 697 3500 
L 697 3744 
Q 697 4328 969 4595 
Q 1241 4863 1831 4863 
L 2375 4863 
z
" transform="scale(0.015625)"/>
       <path id="DejaVuSans-6c" d="M 603 4863 
L 1178 4863 
L 1178 0 
L 603 0 
L 603 4863 
z
" transform="scale(0.015625)"/>
      </defs>
      <use xlink:href="#DejaVuSans-73"/>
      <use xlink:href="#DejaVuSans-74" x="52.099609"/>
      <use xlink:href="#DejaVuSans-64" x="91.308594"/>
      <use xlink:href="#DejaVuSans-3a" x="154.785156"/>
      <use xlink:href="#DejaVuSans-3a" x="188.476562"/>
      <use xlink:href="#DejaVuSans-73" x="222.167969"/>
      <use xlink:href="#DejaVuSans-68" x="274.267578"/>
      <use xlink:href="#DejaVuSans-75" x="337.646484"/>
      <use xlink:href="#DejaVuSans-66" x="401.025391"/>
      <use xlink:href="#DejaVuSans-66" x="436.230469"/>
      <use xlink:href="#DejaVuSans-6c" x="471.435547"/>
      <use xlink:href="#DejaVuSans-65" x="499.21875"/>
     </g>
    </g>
    <g id="line2d_86">
     <path d="M 414.54 62.336563 
L 424.54 62.336563 
L 433 62.336563 
" style="fill: none; stroke: #ff7f0e; stroke-width: 1.5; stroke-linecap: square"/>
    </g>
    <g id="text_41">
     <!-- fisher_yates_shuffle -->
     <g transform="translate(442.54 65.836563)scale(0.1 -0.1)">
      <defs>
       <path id="DejaVuSans-5f" d="M 3263 -1063 
L 3263 -1509 
L -63 -1509 
L -63 -1063 
L 3263 -1063 
z
" transform="scale(0.015625)"/>
       <path id="DejaVuSans-79" d="M 2059 -325 
Q 1816 -950 1584 -1140 
Q 1353 -1331 966 -1331 
L 506 -1331 
L 506 -850 
L 844 -850 
Q 1081 -850 1212 -737 
Q 1344 -625 1503 -206 
L 1606 56 
L 191 3500 
L 800 3500 
L 1894 763 
L 2988 3500 
L 3597 3500 
L 2059 -325 
z
" transform="scale(0.015625)"/>
      </defs>
      <use xlink:href="#DejaVuSans-66"/>
      <use xlink:href="#DejaVuSans-69" x="35.205078"/>
      <use xlink:href="#DejaVuSans-73" x="62.988281"/>
      <use xlink:href="#DejaVuSans-68" x="115.087891"/>
      <use xlink:href="#DejaVuSans-65" x="178.466797"/>
      <use xlink:href="#DejaVuSans-72" x="239.990234"/>
      <use xlink:href="#DejaVuSans-5f" x="281.103516"/>
      <use xlink:href="#DejaVuSans-79" x="331.103516"/>
      <use xlink:href="#DejaVuSans-61" x="390.283203"/>
      <use xlink:href="#DejaVuSans-74" x="451.5625"/>
      <use xlink:href="#DejaVuSans-65" x="490.771484"/>
      <use xlink:href="#DejaVuSans-73" x="552.294922"/>
      <use xlink:href="#DejaVuSans-5f" x="604.394531"/>
      <use xlink:href="#DejaVuSans-73" x="654.394531"/>
      <use xlink:href="#DejaVuSans-68" x="706.494141"/>
      <use xlink:href="#DejaVuSans-75" x="769.873047"/>
      <use xlink:href="#DejaVuSans-66" x="833.251953"/>
      <use xlink:href="#DejaVuSans-66" x="868.457031"/>
      <use xlink:href="#DejaVuSans-6c" x="903.662109"/>
      <use xlink:href="#DejaVuSans-65" x="931.445312"/>
     </g>
    </g>
    <g id="line2d_87">
     <path d="M 414.54 77.292812 
L 424.54 77.292812 
L 433 77.292812 
" style="fill: none; stroke: #2ca02c; stroke-width: 1.5; stroke-linecap: square"/>
    </g>
    <g id="text_42">
     <!-- fisher_yates_shuffle_32 -->
     <g transform="translate(442.54 80.792812)scale(0.1 -0.1)">
      <use xlink:href="#DejaVuSans-66"/>
      <use xlink:href="#DejaVuSans-69" x="35.205078"/>
      <use xlink:href="#DejaVuSans-73" x="62.988281"/>
      <use xlink:href="#DejaVuSans-68" x="115.087891"/>
      <use xlink:href="#DejaVuSans-65" x="178.466797"/>
      <use xlink:href="#DejaVuSans-72" x="239.990234"/>
      <use xlink:href="#DejaVuSans-5f" x="281.103516"/>
      <use xlink:href="#DejaVuSans-79" x="331.103516"/>
      <use xlink:href="#DejaVuSans-61" x="390.283203"/>
      <use xlink:href="#DejaVuSans-74" x="451.5625"/>
      <use xlink:href="#DejaVuSans-65" x="490.771484"/>
      <use xlink:href="#DejaVuSans-73" x="552.294922"/>
      <use xlink:href="#DejaVuSans-5f" x="604.394531"/>
      <use xlink:href="#DejaVuSans-73" x="654.394531"/>
      <use xlink:href="#DejaVuSans-68" x="706.494141"/>
      <use xlink:href="#DejaVuSans-75" x="769.873047"/>
      <use xlink:href="#DejaVuSans-66" x="833.251953"/>
      <use xlink:href="#DejaVuSans-66" x="868.457031"/>
      <use xlink:href="#DejaVuSans-6c" x="903.662109"/>
      <use xlink:href="#DejaVuSans-65" x="931.445312"/>
      <use xlink:href="#DejaVuSans-5f" x="992.96875"/>
      <use xlink:href="#DejaVuSans-33" x="1042.96875"/>
      <use xlink:href="#DejaVuSans-32" x="1106.591797"/>
     </g>
    </g>
    <g id="line2d_88">
     <path d="M 414.54 92.249063 
L 424.54 92.249063 
L 433 92.249063 
" style="fill: none; stroke: #d62728; stroke-width: 1.5; stroke-linecap: square"/>
    </g>
    <g id="text_43">
     <!-- fisher_yates_shuffle_64 -->
     <g transform="translate(442.54 95.749063)scale(0.1 -0.1)">
      <use xlink:href="#DejaVuSans-66"/>
      <use xlink:href="#DejaVuSans-69" x="35.205078"/>
      <use xlink:href="#DejaVuSans-73" x="62.988281"/>
      <use xlink:href="#DejaVuSans-68" x="115.087891"/>
      <use xlink:href="#DejaVuSans-65" x="178.466797"/>
      <use xlink:href="#DejaVuSans-72" x="239.990234"/>
      <use xlink:href="#DejaVuSans-5f" x="281.103516"/>
      <use xlink:href="#DejaVuSans-79" x="331.103516"/>
      <use xlink:href="#DejaVuSans-61" x="390.283203"/>
      <use xlink:href="#DejaVuSans-74" x="451.5625"/>
      <use xlink:href="#DejaVuSans-65" x="490.771484"/>
      <use xlink:href="#DejaVuSans-73" x="552.294922"/>
      <use xlink:href="#DejaVuSans-5f" x="604.394531"/>
      <use xlink:href="#DejaVuSans-73" x="654.394531"/>
      <use xlink:href="#DejaVuSans-68" x="706.494141"/>
      <use xlink:href="#DejaVuSans-75" x="769.873047"/>
      <use xlink:href="#DejaVuSans-66" x="833.251953"/>
      <use xlink:href="#DejaVuSans-66" x="868.457031"/>
      <use xlink:href="#DejaVuSans-6c" x="903.662109"/>
      <use xlink:href="#DejaVuSans-65" x="931.445312"/>
      <use xlink:href="#DejaVuSans-5f" x="992.96875"/>
      <use xlink:href="#DejaVuSans-36" x="1042.96875"/>
      <use xlink:href="#DejaVuSans-34" x="1106.591797"/>
     </g>
    </g>
    <g id="line2d_89">
     <path d="M 414.54 107.205312 
L 424.54 107.205312 
L 433 107.205312 
" style="fill: none; stroke: #9467bd; stroke-width: 1.5; stroke-linecap: square"/>
    </g>
    <g id="text_44">
     <!-- buffered_fisher_yates_shuffle_32 -->
     <g transform="translate(442.54 110.705312)scale(0.1 -0.1)">
      <use xlink:href="#DejaVuSans-62"/>
      <use xlink:href="#DejaVuSans-75" x="63.476562"/>
      <use xlink:href="#DejaVuSans-66" x="126.855469"/>
      <use xlink:href="#DejaVuSans-66" x="162.060547"/>
      <use xlink:href="#DejaVuSans-65" x="197.265625"/>
      <use xlink:href="#DejaVuSans-72" x="258.789062"/>
      <use xlink:href="#DejaVuSans-65" x="297.652344"/>
      <use xlink:href="#DejaVuSans-64" x="359.175781"/>
      <use xlink:href="#DejaVuSans-5f" x="422.652344"/>
      <use xlink:href="#DejaVuSans-66" x="472.652344"/>
      <use xlink:href="#DejaVuSans-69" x="507.857422"/>
      <use xlink:href="#DejaVuSans-73" x="535.640625"/>
      <use xlink:href="#DejaVuSans-68" x="587.740234"/>
      <use xlink:href="#DejaVuSans-65" x="651.119141"/>
      <use xlink:href="#DejaVuSans-72" x="712.642578"/>
      <use xlink:href="#DejaVuSans-5f" x="753.755859"/>
      <use xlink:href="#DejaVuSans-79" x="803.755859"/>
      <use xlink:href="#DejaVuSans-61" x="862.935547"/>
      <use xlink:href="#DejaVuSans-74" x="924.214844"/>
      <use xlink:href="#DejaVuSans-65" x="963.423828"/>
      <use xlink:href="#DejaVuSans-73" x="1024.947266"/>
      <use xlink:href="#DejaVuSans-5f" x="1077.046875"/>
      <use xlink:href="#DejaVuSans-73" x="1127.046875"/>
      <use xlink:href="#DejaVuSans-68" x="1179.146484"/>
      <use xlink:href="#DejaVuSans-75" x="1242.525391"/>
      <use xlink:href="#DejaVuSans-66" x="1305.904297"/>
      <use xlink:href="#DejaVuSans-66" x="1341.109375"/>
      <use xlink:href="#DejaVuSans-6c" x="1376.314453"/>
      <use xlink:href="#DejaVuSans-65" x="1404.097656"/>
      <use xlink:href="#DejaVuSans-5f" x="1465.621094"/>
      <use xlink:href="#DejaVuSans-33" x="1515.621094"/>
      <use xlink:href="#DejaVuSans-32" x="1579.244141"/>
     </g>
    </g>
    <g id="line2d_90">
     <path d="M 414.54 122.161563 
L 424.54 122.161563 
L 433 122.161563 
" style="fill: none; stroke: #8c564b; stroke-width: 1.5; stroke-linecap: square"/>
    </g>
    <g id="text_45">
     <!-- buffered_fisher_yates_shuffle_64 -->
     <g transform="translate(442.54 125.661563)scale(0.1 -0.1)">
      <use xlink:href="#DejaVuSans-62"/>
      <use xlink:href="#DejaVuSans-75" x="63.476562"/>
      <use xlink:href="#DejaVuSans-66" x="126.855469"/>
      <use xlink:href="#DejaVuSans-66" x="162.060547"/>
      <use xlink:href="#DejaVuSans-65" x="197.265625"/>
      <use xlink:href="#DejaVuSans-72" x="258.789062"/>
      <use xlink:href="#DejaVuSans-65" x="297.652344"/>
      <use xlink:href="#DejaVuSans-64" x="359.175781"/>
      <use xlink:href="#DejaVuSans-5f" x="422.652344"/>
      <use xlink:href="#DejaVuSans-66" x="472.652344"/>
      <use xlink:href="#DejaVuSans-69" x="507.857422"/>
      <use xlink:href="#DejaVuSans-73" x="535.640625"/>
      <use xlink:href="#DejaVuSans-68" x="587.740234"/>
      <use xlink:href="#DejaVuSans-65" x="651.119141"/>
      <use xlink:href="#DejaVuSans-72" x="712.642578"/>
      <use xlink:href="#DejaVuSans-5f" x="753.755859"/>
      <use xlink:href="#DejaVuSans-79" x="803.755859"/>
      <use xlink:href="#DejaVuSans-61" x="862.935547"/>
      <use xlink:href="#DejaVuSans-74" x="924.214844"/>
      <use xlink:href="#DejaVuSans-65" x="963.423828"/>
      <use xlink:href="#DejaVuSans-73" x="1024.947266"/>
      <use xlink:href="#DejaVuSans-5f" x="1077.046875"/>
      <use xlink:href="#DejaVuSans-73" x="1127.046875"/>
      <use xlink:href="#DejaVuSans-68" x="1179.146484"/>
      <use xlink:href="#DejaVuSans-75" x="1242.525391"/>
      <use xlink:href="#DejaVuSans-66" x="1305.904297"/>
      <use xlink:href="#DejaVuSans-66" x="1341.109375"/>
      <use xlink:href="#DejaVuSans-6c" x="1376.314453"/>
      <use xlink:href="#DejaVuSans-65" x="1404.097656"/>
      <use xlink:href="#DejaVuSans-5f" x="1465.621094"/>
      <use xlink:href="#DejaVuSans-36" x="1515.621094"/>
      <use xlink:href="#DejaVuSans-34" x="1579.244141"/>
     </g>
    </g>
    <g id="line2d_91">
     <path d="M 414.54 137.117813 
L 424.54 137.117813 
L 433 137.117813 
" style="fill: none; stroke: #e377c2; stroke-width: 1.5; stroke-linecap: square"/>
    </g>
    <g id="text_46">
     <!-- buffered_fisher_yates_shuffle -->
     <g transform="translate(442.54 140.617813)scale(0.1 -0.1)">
      <use xlink:href="#DejaVuSans-62"/>
      <use xlink:href="#DejaVuSans-75" x="63.476562"/>
      <use xlink:href="#DejaVuSans-66" x="126.855469"/>
      <use xlink:href="#DejaVuSans-66" x="162.060547"/>
      <use xlink:href="#DejaVuSans-65" x="197.265625"/>
      <use xlink:href="#DejaVuSans-72" x="258.789062"/>
      <use xlink:href="#DejaVuSans-65" x="297.652344"/>
      <use xlink:href="#DejaVuSans-64" x="359.175781"/>
      <use xlink:href="#DejaVuSans-5f" x="422.652344"/>
      <use xlink:href="#DejaVuSans-66" x="472.652344"/>
      <use xlink:href="#DejaVuSans-69" x="507.857422"/>
      <use xlink:href="#DejaVuSans-73" x="535.640625"/>
      <use xlink:href="#DejaVuSans-68" x="587.740234"/>
      <use xlink:href="#DejaVuSans-65" x="651.119141"/>
      <use xlink:href="#DejaVuSans-72" x="712.642578"/>
      <use xlink:href="#DejaVuSans-5f" x="753.755859"/>
      <use xlink:href="#DejaVuSans-79" x="803.755859"/>
      <use xlink:href="#DejaVuSans-61" x="862.935547"/>
      <use xlink:href="#DejaVuSans-74" x="924.214844"/>
      <use xlink:href="#DejaVuSans-65" x="963.423828"/>
      <use xlink:href="#DejaVuSans-73" x="1024.947266"/>
      <use xlink:href="#DejaVuSans-5f" x="1077.046875"/>
      <use xlink:href="#DejaVuSans-73" x="1127.046875"/>
      <use xlink:href="#DejaVuSans-68" x="1179.146484"/>
      <use xlink:href="#DejaVuSans-75" x="1242.525391"/>
      <use xlink:href="#DejaVuSans-66" x="1305.904297"/>
      <use xlink:href="#DejaVuSans-66" x="1341.109375"/>
      <use xlink:href="#DejaVuSans-6c" x="1376.314453"/>
      <use xlink:href="#DejaVuSans-65" x="1404.097656"/>
     </g>
    </g>
    <g id="line2d_92">
     <path d="M 414.54 152.074062 
L 424.54 152.074062 
L 433 152.074062 
" style="fill: none; stroke: #7f7f7f; stroke-width: 1.5; stroke-linecap: square"/>
    </g>
    <g id="text_47">
     <!-- inplace_scatter_shuffle -->
     <g transform="translate(442.54 155.574062)scale(0.1 -0.1)">
      <defs>
       <path id="DejaVuSans-63" d="M 3122 3366 
L 3122 2828 
Q 2878 2963 2633 3030 
Q 2388 3097 2138 3097 
Q 1578 3097 1268 2742 
Q 959 2388 959 1747 
Q 959 1106 1268 751 
Q 1578 397 2138 397 
Q 2388 397 2633 464 
Q 2878 531 3122 666 
L 3122 134 
Q 2881 22 2623 -34 
Q 2366 -91 2075 -91 
Q 1284 -91 818 406 
Q 353 903 353 1747 
Q 353 2603 823 3093 
Q 1294 3584 2113 3584 
Q 2378 3584 2631 3529 
Q 2884 3475 3122 3366 
z
" transform="scale(0.015625)"/>
      </defs>
      <use xlink:href="#DejaVuSans-69"/>
      <use xlink:href="#DejaVuSans-6e" x="27.783203"/>
      <use xlink:href="#DejaVuSans-70" x="91.162109"/>
      <use xlink:href="#DejaVuSans-6c" x="154.638672"/>
      <use xlink:href="#DejaVuSans-61" x="182.421875"/>
      <use xlink:href="#DejaVuSans-63" x="243.701172"/>
      <use xlink:href="#DejaVuSans-65" x="298.681641"/>
      <use xlink:href="#DejaVuSans-5f" x="360.205078"/>
      <use xlink:href="#DejaVuSans-73" x="410.205078"/>
      <use xlink:href="#DejaVuSans-63" x="462.304688"/>
      <use xlink:href="#DejaVuSans-61" x="517.285156"/>
      <use xlink:href="#DejaVuSans-74" x="578.564453"/>
      <use xlink:href="#DejaVuSans-74" x="617.773438"/>
      <use xlink:href="#DejaVuSans-65" x="656.982422"/>
      <use xlink:href="#DejaVuSans-72" x="718.505859"/>
      <use xlink:href="#DejaVuSans-5f" x="759.619141"/>
      <use xlink:href="#DejaVuSans-73" x="809.619141"/>
      <use xlink:href="#DejaVuSans-68" x="861.71875"/>
      <use xlink:href="#DejaVuSans-75" x="925.097656"/>
      <use xlink:href="#DejaVuSans-66" x="988.476562"/>
      <use xlink:href="#DejaVuSans-66" x="1023.681641"/>
      <use xlink:href="#DejaVuSans-6c" x="1058.886719"/>
      <use xlink:href="#DejaVuSans-65" x="1086.669922"/>
     </g>
    </g>
    <g id="line2d_93">
     <path d="M 414.54 167.030312 
L 424.54 167.030312 
L 433 167.030312 
" style="fill: none; stroke: #bcbd22; stroke-width: 1.5; stroke-linecap: square"/>
    </g>
    <g id="text_48">
     <!-- seq_shuffle (Standardwerte) -->
     <g transform="translate(442.54 170.530312)scale(0.1 -0.1)">
      <defs>
       <path id="DejaVuSans-71" d="M 947 1747 
Q 947 1113 1208 752 
Q 1469 391 1925 391 
Q 2381 391 2643 752 
Q 2906 1113 2906 1747 
Q 2906 2381 2643 2742 
Q 2381 3103 1925 3103 
Q 1469 3103 1208 2742 
Q 947 2381 947 1747 
z
M 2906 525 
Q 2725 213 2448 61 
Q 2172 -91 1784 -91 
Q 1150 -91 751 415 
Q 353 922 353 1747 
Q 353 2572 751 3078 
Q 1150 3584 1784 3584 
Q 2172 3584 2448 3432 
Q 2725 3281 2906 2969 
L 2906 3500 
L 3481 3500 
L 3481 -1331 
L 2906 -1331 
L 2906 525 
z
" transform="scale(0.015625)"/>
       <path id="DejaVuSans-20" transform="scale(0.015625)"/>
       <path id="DejaVuSans-28" d="M 1984 4856 
Q 1566 4138 1362 3434 
Q 1159 2731 1159 2009 
Q 1159 1288 1364 580 
Q 1569 -128 1984 -844 
L 1484 -844 
Q 1016 -109 783 600 
Q 550 1309 550 2009 
Q 550 2706 781 3412 
Q 1013 4119 1484 4856 
L 1984 4856 
z
" transform="scale(0.015625)"/>
       <path id="DejaVuSans-77" d="M 269 3500 
L 844 3500 
L 1563 769 
L 2278 3500 
L 2956 3500 
L 3675 769 
L 4391 3500 
L 4966 3500 
L 4050 0 
L 3372 0 
L 2619 2869 
L 1863 0 
L 1184 0 
L 269 3500 
z
" transform="scale(0.015625)"/>
       <path id="DejaVuSans-29" d="M 513 4856 
L 1013 4856 
Q 1481 4119 1714 3412 
Q 1947 2706 1947 2009 
Q 1947 1309 1714 600 
Q 1481 -109 1013 -844 
L 513 -844 
Q 928 -128 1133 580 
Q 1338 1288 1338 2009 
Q 1338 2731 1133 3434 
Q 928 4138 513 4856 
z
" transform="scale(0.015625)"/>
      </defs>
      <use xlink:href="#DejaVuSans-73"/>
      <use xlink:href="#DejaVuSans-65" x="52.099609"/>
      <use xlink:href="#DejaVuSans-71" x="113.623047"/>
      <use xlink:href="#DejaVuSans-5f" x="177.099609"/>
      <use xlink:href="#DejaVuSans-73" x="227.099609"/>
      <use xlink:href="#DejaVuSans-68" x="279.199219"/>
      <use xlink:href="#DejaVuSans-75" x="342.578125"/>
      <use xlink:href="#DejaVuSans-66" x="405.957031"/>
      <use xlink:href="#DejaVuSans-66" x="441.162109"/>
      <use xlink:href="#DejaVuSans-6c" x="476.367188"/>
      <use xlink:href="#DejaVuSans-65" x="504.150391"/>
      <use xlink:href="#DejaVuSans-20" x="565.673828"/>
      <use xlink:href="#DejaVuSans-28" x="597.460938"/>
      <use xlink:href="#DejaVuSans-53" x="636.474609"/>
      <use xlink:href="#DejaVuSans-74" x="699.951172"/>
      <use xlink:href="#DejaVuSans-61" x="739.160156"/>
      <use xlink:href="#DejaVuSans-6e" x="800.439453"/>
      <use xlink:href="#DejaVuSans-64" x="863.818359"/>
      <use xlink:href="#DejaVuSans-61" x="927.294922"/>
      <use xlink:href="#DejaVuSans-72" x="988.574219"/>
      <use xlink:href="#DejaVuSans-64" x="1027.9375"/>
      <use xlink:href="#DejaVuSans-77" x="1091.414062"/>
      <use xlink:href="#DejaVuSans-65" x="1173.201172"/>
      <use xlink:href="#DejaVuSans-72" x="1234.724609"/>
      <use xlink:href="#DejaVuSans-74" x="1275.837891"/>
      <use xlink:href="#DejaVuSans-65" x="1315.046875"/>
      <use xlink:href="#DejaVuSans-29" x="1376.570312"/>
     </g>
    </g>
    <g id="line2d_94">
     <path d="M 414.54 181.986562 
L 424.54 181.986562 
L 433 181.986562 
" style="fill: none; stroke: #17becf; stroke-width: 1.5; stroke-linecap: square"/>
    </g>
    <g id="text_49">
     <!-- seq_shuffle (gleiche Werte) -->
     <g transform="translate(442.54 185.486562)scale(0.1 -0.1)">
      <defs>
       <path id="DejaVuSans-57" d="M 213 4666 
L 850 4666 
L 1831 722 
L 2809 4666 
L 3519 4666 
L 4500 722 
L 5478 4666 
L 6119 4666 
L 4947 0 
L 4153 0 
L 3169 4050 
L 2175 0 
L 1381 0 
L 213 4666 
z
" transform="scale(0.015625)"/>
      </defs>
      <use xlink:href="#DejaVuSans-73"/>
      <use xlink:href="#DejaVuSans-65" x="52.099609"/>
      <use xlink:href="#DejaVuSans-71" x="113.623047"/>
      <use xlink:href="#DejaVuSans-5f" x="177.099609"/>
      <use xlink:href="#DejaVuSans-73" x="227.099609"/>
      <use xlink:href="#DejaVuSans-68" x="279.199219"/>
      <use xlink:href="#DejaVuSans-75" x="342.578125"/>
      <use xlink:href="#DejaVuSans-66" x="405.957031"/>
      <use xlink:href="#DejaVuSans-66" x="441.162109"/>
      <use xlink:href="#DejaVuSans-6c" x="476.367188"/>
      <use xlink:href="#DejaVuSans-65" x="504.150391"/>
      <use xlink:href="#DejaVuSans-20" x="565.673828"/>
      <use xlink:href="#DejaVuSans-28" x="597.460938"/>
      <use xlink:href="#DejaVuSans-67" x="636.474609"/>
      <use xlink:href="#DejaVuSans-6c" x="699.951172"/>
      <use xlink:href="#DejaVuSans-65" x="727.734375"/>
      <use xlink:href="#DejaVuSans-69" x="789.257812"/>
      <use xlink:href="#DejaVuSans-63" x="817.041016"/>
      <use xlink:href="#DejaVuSans-68" x="872.021484"/>
      <use xlink:href="#DejaVuSans-65" x="935.400391"/>
      <use xlink:href="#DejaVuSans-20" x="996.923828"/>
      <use xlink:href="#DejaVuSans-57" x="1028.710938"/>
      <use xlink:href="#DejaVuSans-65" x="1121.712891"/>
      <use xlink:href="#DejaVuSans-72" x="1183.236328"/>
      <use xlink:href="#DejaVuSans-74" x="1224.349609"/>
      <use xlink:href="#DejaVuSans-65" x="1263.558594"/>
      <use xlink:href="#DejaVuSans-29" x="1325.082031"/>
     </g>
    </g>
   </g>
  </g>
 </g>
 <defs>
  <clipPath id="p578ad35024">
   <rect x="54" y="34.56" width="334.8" height="217.44"/>
  </clipPath>
 </defs>
</svg>
