<?xml version="1.0" encoding="utf-8" standalone="no"?>
<!DOCTYPE svg PUBLIC "-//W3C//DTD SVG 1.1//EN"
  "http://www.w3.org/Graphics/SVG/1.1/DTD/svg11.dtd">
<svg xmlns:xlink="http://www.w3.org/1999/xlink" width="432pt" height="288pt" viewBox="0 0 432 288" xmlns="http://www.w3.org/2000/svg" version="1.1">
 <metadata>
  <rdf:RDF xmlns:dc="http://purl.org/dc/elements/1.1/" xmlns:cc="http://creativecommons.org/ns#" xmlns:rdf="http://www.w3.org/1999/02/22-rdf-syntax-ns#">
   <cc:Work>
    <dc:type rdf:resource="http://purl.org/dc/dcmitype/StillImage"/>
    <dc:date>2024-01-17T09:11:22.654410</dc:date>
    <dc:format>image/svg+xml</dc:format>
    <dc:creator>
     <cc:Agent>
      <dc:title>Matplotlib v3.5.1, https://matplotlib.org/</dc:title>
     </cc:Agent>
    </dc:creator>
   </cc:Work>
  </rdf:RDF>
 </metadata>
 <defs>
  <style type="text/css">*{stroke-linejoin: round; stroke-linecap: butt}</style>
 </defs>
 <g id="figure_1">
  <g id="patch_1">
   <path d="M 0 288 
L 432 288 
L 432 0 
L 0 0 
L 0 288 
z
" style="fill: none"/>
  </g>
  <g id="axes_1">
   <g id="patch_2">
    <path d="M 54 252 
L 388.8 252 
L 388.8 34.56 
L 54 34.56 
z
" style="fill: #ffffff"/>
   </g>
   <g id="matplotlib.axis_1">
    <g id="xtick_1">
     <g id="line2d_1">
      <path d="M 54 252 
L 54 34.56 
" clip-path="url(#p0340a35f11)" style="fill: none; stroke: #b0b0b0; stroke-width: 0.8; stroke-linecap: square"/>
     </g>
     <g id="line2d_2">
      <defs>
       <path id="mdcb129e7b0" d="M 0 0 
L 0 3.5 
" style="stroke: #000000; stroke-width: 0.8"/>
      </defs>
      <g>
       <use xlink:href="#mdcb129e7b0" x="54" y="252" style="stroke: #000000; stroke-width: 0.8"/>
      </g>
     </g>
     <g id="text_1">
      <!-- $\mathdefault{2^{2}}$ -->
      <g transform="translate(48.4 266.598437)scale(0.1 -0.1)">
       <defs>
        <path id="DejaVuSans-32" d="M 1228 531 
L 3431 531 
L 3431 0 
L 469 0 
L 469 531 
Q 828 903 1448 1529 
Q 2069 2156 2228 2338 
Q 2531 2678 2651 2914 
Q 2772 3150 2772 3378 
Q 2772 3750 2511 3984 
Q 2250 4219 1831 4219 
Q 1534 4219 1204 4116 
Q 875 4013 500 3803 
L 500 4441 
Q 881 4594 1212 4672 
Q 1544 4750 1819 4750 
Q 2544 4750 2975 4387 
Q 3406 4025 3406 3419 
Q 3406 3131 3298 2873 
Q 3191 2616 2906 2266 
Q 2828 2175 2409 1742 
Q 1991 1309 1228 531 
z
" transform="scale(0.015625)"/>
       </defs>
       <use xlink:href="#DejaVuSans-32" transform="translate(0 0.765625)"/>
       <use xlink:href="#DejaVuSans-32" transform="translate(64.580078 39.046875)scale(0.7)"/>
      </g>
     </g>
    </g>
    <g id="xtick_2">
     <g id="line2d_3">
      <path d="M 75.6 252 
L 75.6 34.56 
" clip-path="url(#p0340a35f11)" style="fill: none; stroke: #b0b0b0; stroke-width: 0.8; stroke-linecap: square"/>
     </g>
     <g id="line2d_4">
      <g>
       <use xlink:href="#mdcb129e7b0" x="75.6" y="252" style="stroke: #000000; stroke-width: 0.8"/>
      </g>
     </g>
     <g id="text_2">
      <!-- $\mathdefault{2^{4}}$ -->
      <g transform="translate(70 266.598437)scale(0.1 -0.1)">
       <defs>
        <path id="DejaVuSans-34" d="M 2419 4116 
L 825 1625 
L 2419 1625 
L 2419 4116 
z
M 2253 4666 
L 3047 4666 
L 3047 1625 
L 3713 1625 
L 3713 1100 
L 3047 1100 
L 3047 0 
L 2419 0 
L 2419 1100 
L 313 1100 
L 313 1709 
L 2253 4666 
z
" transform="scale(0.015625)"/>
       </defs>
       <use xlink:href="#DejaVuSans-32" transform="translate(0 0.684375)"/>
       <use xlink:href="#DejaVuSans-34" transform="translate(64.580078 38.965625)scale(0.7)"/>
      </g>
     </g>
    </g>
    <g id="xtick_3">
     <g id="line2d_5">
      <path d="M 97.2 252 
L 97.2 34.56 
" clip-path="url(#p0340a35f11)" style="fill: none; stroke: #b0b0b0; stroke-width: 0.8; stroke-linecap: square"/>
     </g>
     <g id="line2d_6">
      <g>
       <use xlink:href="#mdcb129e7b0" x="97.2" y="252" style="stroke: #000000; stroke-width: 0.8"/>
      </g>
     </g>
     <g id="text_3">
      <!-- $\mathdefault{2^{6}}$ -->
      <g transform="translate(91.6 266.598437)scale(0.1 -0.1)">
       <defs>
        <path id="DejaVuSans-36" d="M 2113 2584 
Q 1688 2584 1439 2293 
Q 1191 2003 1191 1497 
Q 1191 994 1439 701 
Q 1688 409 2113 409 
Q 2538 409 2786 701 
Q 3034 994 3034 1497 
Q 3034 2003 2786 2293 
Q 2538 2584 2113 2584 
z
M 3366 4563 
L 3366 3988 
Q 3128 4100 2886 4159 
Q 2644 4219 2406 4219 
Q 1781 4219 1451 3797 
Q 1122 3375 1075 2522 
Q 1259 2794 1537 2939 
Q 1816 3084 2150 3084 
Q 2853 3084 3261 2657 
Q 3669 2231 3669 1497 
Q 3669 778 3244 343 
Q 2819 -91 2113 -91 
Q 1303 -91 875 529 
Q 447 1150 447 2328 
Q 447 3434 972 4092 
Q 1497 4750 2381 4750 
Q 2619 4750 2861 4703 
Q 3103 4656 3366 4563 
z
" transform="scale(0.015625)"/>
       </defs>
       <use xlink:href="#DejaVuSans-32" transform="translate(0 0.765625)"/>
       <use xlink:href="#DejaVuSans-36" transform="translate(64.580078 39.046875)scale(0.7)"/>
      </g>
     </g>
    </g>
    <g id="xtick_4">
     <g id="line2d_7">
      <path d="M 118.8 252 
L 118.8 34.56 
" clip-path="url(#p0340a35f11)" style="fill: none; stroke: #b0b0b0; stroke-width: 0.8; stroke-linecap: square"/>
     </g>
     <g id="line2d_8">
      <g>
       <use xlink:href="#mdcb129e7b0" x="118.8" y="252" style="stroke: #000000; stroke-width: 0.8"/>
      </g>
     </g>
     <g id="text_4">
      <!-- $\mathdefault{2^{8}}$ -->
      <g transform="translate(113.2 266.598437)scale(0.1 -0.1)">
       <defs>
        <path id="DejaVuSans-38" d="M 2034 2216 
Q 1584 2216 1326 1975 
Q 1069 1734 1069 1313 
Q 1069 891 1326 650 
Q 1584 409 2034 409 
Q 2484 409 2743 651 
Q 3003 894 3003 1313 
Q 3003 1734 2745 1975 
Q 2488 2216 2034 2216 
z
M 1403 2484 
Q 997 2584 770 2862 
Q 544 3141 544 3541 
Q 544 4100 942 4425 
Q 1341 4750 2034 4750 
Q 2731 4750 3128 4425 
Q 3525 4100 3525 3541 
Q 3525 3141 3298 2862 
Q 3072 2584 2669 2484 
Q 3125 2378 3379 2068 
Q 3634 1759 3634 1313 
Q 3634 634 3220 271 
Q 2806 -91 2034 -91 
Q 1263 -91 848 271 
Q 434 634 434 1313 
Q 434 1759 690 2068 
Q 947 2378 1403 2484 
z
M 1172 3481 
Q 1172 3119 1398 2916 
Q 1625 2713 2034 2713 
Q 2441 2713 2670 2916 
Q 2900 3119 2900 3481 
Q 2900 3844 2670 4047 
Q 2441 4250 2034 4250 
Q 1625 4250 1398 4047 
Q 1172 3844 1172 3481 
z
" transform="scale(0.015625)"/>
       </defs>
       <use xlink:href="#DejaVuSans-32" transform="translate(0 0.765625)"/>
       <use xlink:href="#DejaVuSans-38" transform="translate(64.580078 39.046875)scale(0.7)"/>
      </g>
     </g>
    </g>
    <g id="xtick_5">
     <g id="line2d_9">
      <path d="M 140.4 252 
L 140.4 34.56 
" clip-path="url(#p0340a35f11)" style="fill: none; stroke: #b0b0b0; stroke-width: 0.8; stroke-linecap: square"/>
     </g>
     <g id="line2d_10">
      <g>
       <use xlink:href="#mdcb129e7b0" x="140.4" y="252" style="stroke: #000000; stroke-width: 0.8"/>
      </g>
     </g>
     <g id="text_5">
      <!-- $\mathdefault{2^{10}}$ -->
      <g transform="translate(132.55 266.598437)scale(0.1 -0.1)">
       <defs>
        <path id="DejaVuSans-31" d="M 794 531 
L 1825 531 
L 1825 4091 
L 703 3866 
L 703 4441 
L 1819 4666 
L 2450 4666 
L 2450 531 
L 3481 531 
L 3481 0 
L 794 0 
L 794 531 
z
" transform="scale(0.015625)"/>
        <path id="DejaVuSans-30" d="M 2034 4250 
Q 1547 4250 1301 3770 
Q 1056 3291 1056 2328 
Q 1056 1369 1301 889 
Q 1547 409 2034 409 
Q 2525 409 2770 889 
Q 3016 1369 3016 2328 
Q 3016 3291 2770 3770 
Q 2525 4250 2034 4250 
z
M 2034 4750 
Q 2819 4750 3233 4129 
Q 3647 3509 3647 2328 
Q 3647 1150 3233 529 
Q 2819 -91 2034 -91 
Q 1250 -91 836 529 
Q 422 1150 422 2328 
Q 422 3509 836 4129 
Q 1250 4750 2034 4750 
z
" transform="scale(0.015625)"/>
       </defs>
       <use xlink:href="#DejaVuSans-32" transform="translate(0 0.765625)"/>
       <use xlink:href="#DejaVuSans-31" transform="translate(64.580078 39.046875)scale(0.7)"/>
       <use xlink:href="#DejaVuSans-30" transform="translate(109.116211 39.046875)scale(0.7)"/>
      </g>
     </g>
    </g>
    <g id="xtick_6">
     <g id="line2d_11">
      <path d="M 162 252 
L 162 34.56 
" clip-path="url(#p0340a35f11)" style="fill: none; stroke: #b0b0b0; stroke-width: 0.8; stroke-linecap: square"/>
     </g>
     <g id="line2d_12">
      <g>
       <use xlink:href="#mdcb129e7b0" x="162" y="252" style="stroke: #000000; stroke-width: 0.8"/>
      </g>
     </g>
     <g id="text_6">
      <!-- $\mathdefault{2^{12}}$ -->
      <g transform="translate(154.15 266.598437)scale(0.1 -0.1)">
       <use xlink:href="#DejaVuSans-32" transform="translate(0 0.765625)"/>
       <use xlink:href="#DejaVuSans-31" transform="translate(64.580078 39.046875)scale(0.7)"/>
       <use xlink:href="#DejaVuSans-32" transform="translate(109.116211 39.046875)scale(0.7)"/>
      </g>
     </g>
    </g>
    <g id="xtick_7">
     <g id="line2d_13">
      <path d="M 183.6 252 
L 183.6 34.56 
" clip-path="url(#p0340a35f11)" style="fill: none; stroke: #b0b0b0; stroke-width: 0.8; stroke-linecap: square"/>
     </g>
     <g id="line2d_14">
      <g>
       <use xlink:href="#mdcb129e7b0" x="183.6" y="252" style="stroke: #000000; stroke-width: 0.8"/>
      </g>
     </g>
     <g id="text_7">
      <!-- $\mathdefault{2^{14}}$ -->
      <g transform="translate(175.75 266.598437)scale(0.1 -0.1)">
       <use xlink:href="#DejaVuSans-32" transform="translate(0 0.684375)"/>
       <use xlink:href="#DejaVuSans-31" transform="translate(64.580078 38.965625)scale(0.7)"/>
       <use xlink:href="#DejaVuSans-34" transform="translate(109.116211 38.965625)scale(0.7)"/>
      </g>
     </g>
    </g>
    <g id="xtick_8">
     <g id="line2d_15">
      <path d="M 205.2 252 
L 205.2 34.56 
" clip-path="url(#p0340a35f11)" style="fill: none; stroke: #b0b0b0; stroke-width: 0.8; stroke-linecap: square"/>
     </g>
     <g id="line2d_16">
      <g>
       <use xlink:href="#mdcb129e7b0" x="205.2" y="252" style="stroke: #000000; stroke-width: 0.8"/>
      </g>
     </g>
     <g id="text_8">
      <!-- $\mathdefault{2^{16}}$ -->
      <g transform="translate(197.35 266.598437)scale(0.1 -0.1)">
       <use xlink:href="#DejaVuSans-32" transform="translate(0 0.765625)"/>
       <use xlink:href="#DejaVuSans-31" transform="translate(64.580078 39.046875)scale(0.7)"/>
       <use xlink:href="#DejaVuSans-36" transform="translate(109.116211 39.046875)scale(0.7)"/>
      </g>
     </g>
    </g>
    <g id="xtick_9">
     <g id="line2d_17">
      <path d="M 226.8 252 
L 226.8 34.56 
" clip-path="url(#p0340a35f11)" style="fill: none; stroke: #b0b0b0; stroke-width: 0.8; stroke-linecap: square"/>
     </g>
     <g id="line2d_18">
      <g>
       <use xlink:href="#mdcb129e7b0" x="226.8" y="252" style="stroke: #000000; stroke-width: 0.8"/>
      </g>
     </g>
     <g id="text_9">
      <!-- $\mathdefault{2^{18}}$ -->
      <g transform="translate(218.95 266.598437)scale(0.1 -0.1)">
       <use xlink:href="#DejaVuSans-32" transform="translate(0 0.765625)"/>
       <use xlink:href="#DejaVuSans-31" transform="translate(64.580078 39.046875)scale(0.7)"/>
       <use xlink:href="#DejaVuSans-38" transform="translate(109.116211 39.046875)scale(0.7)"/>
      </g>
     </g>
    </g>
    <g id="xtick_10">
     <g id="line2d_19">
      <path d="M 248.4 252 
L 248.4 34.56 
" clip-path="url(#p0340a35f11)" style="fill: none; stroke: #b0b0b0; stroke-width: 0.8; stroke-linecap: square"/>
     </g>
     <g id="line2d_20">
      <g>
       <use xlink:href="#mdcb129e7b0" x="248.4" y="252" style="stroke: #000000; stroke-width: 0.8"/>
      </g>
     </g>
     <g id="text_10">
      <!-- $\mathdefault{2^{20}}$ -->
      <g transform="translate(240.55 266.598437)scale(0.1 -0.1)">
       <use xlink:href="#DejaVuSans-32" transform="translate(0 0.765625)"/>
       <use xlink:href="#DejaVuSans-32" transform="translate(64.580078 39.046875)scale(0.7)"/>
       <use xlink:href="#DejaVuSans-30" transform="translate(109.116211 39.046875)scale(0.7)"/>
      </g>
     </g>
    </g>
    <g id="xtick_11">
     <g id="line2d_21">
      <path d="M 270 252 
L 270 34.56 
" clip-path="url(#p0340a35f11)" style="fill: none; stroke: #b0b0b0; stroke-width: 0.8; stroke-linecap: square"/>
     </g>
     <g id="line2d_22">
      <g>
       <use xlink:href="#mdcb129e7b0" x="270" y="252" style="stroke: #000000; stroke-width: 0.8"/>
      </g>
     </g>
     <g id="text_11">
      <!-- $\mathdefault{2^{22}}$ -->
      <g transform="translate(262.15 266.598437)scale(0.1 -0.1)">
       <use xlink:href="#DejaVuSans-32" transform="translate(0 0.765625)"/>
       <use xlink:href="#DejaVuSans-32" transform="translate(64.580078 39.046875)scale(0.7)"/>
       <use xlink:href="#DejaVuSans-32" transform="translate(109.116211 39.046875)scale(0.7)"/>
      </g>
     </g>
    </g>
    <g id="xtick_12">
     <g id="line2d_23">
      <path d="M 291.6 252 
L 291.6 34.56 
" clip-path="url(#p0340a35f11)" style="fill: none; stroke: #b0b0b0; stroke-width: 0.8; stroke-linecap: square"/>
     </g>
     <g id="line2d_24">
      <g>
       <use xlink:href="#mdcb129e7b0" x="291.6" y="252" style="stroke: #000000; stroke-width: 0.8"/>
      </g>
     </g>
     <g id="text_12">
      <!-- $\mathdefault{2^{24}}$ -->
      <g transform="translate(283.75 266.598437)scale(0.1 -0.1)">
       <use xlink:href="#DejaVuSans-32" transform="translate(0 0.765625)"/>
       <use xlink:href="#DejaVuSans-32" transform="translate(64.580078 39.046875)scale(0.7)"/>
       <use xlink:href="#DejaVuSans-34" transform="translate(109.116211 39.046875)scale(0.7)"/>
      </g>
     </g>
    </g>
    <g id="xtick_13">
     <g id="line2d_25">
      <path d="M 313.2 252 
L 313.2 34.56 
" clip-path="url(#p0340a35f11)" style="fill: none; stroke: #b0b0b0; stroke-width: 0.8; stroke-linecap: square"/>
     </g>
     <g id="line2d_26">
      <g>
       <use xlink:href="#mdcb129e7b0" x="313.2" y="252" style="stroke: #000000; stroke-width: 0.8"/>
      </g>
     </g>
     <g id="text_13">
      <!-- $\mathdefault{2^{26}}$ -->
      <g transform="translate(305.35 266.598437)scale(0.1 -0.1)">
       <use xlink:href="#DejaVuSans-32" transform="translate(0 0.765625)"/>
       <use xlink:href="#DejaVuSans-32" transform="translate(64.580078 39.046875)scale(0.7)"/>
       <use xlink:href="#DejaVuSans-36" transform="translate(109.116211 39.046875)scale(0.7)"/>
      </g>
     </g>
    </g>
    <g id="xtick_14">
     <g id="line2d_27">
      <path d="M 334.8 252 
L 334.8 34.56 
" clip-path="url(#p0340a35f11)" style="fill: none; stroke: #b0b0b0; stroke-width: 0.8; stroke-linecap: square"/>
     </g>
     <g id="line2d_28">
      <g>
       <use xlink:href="#mdcb129e7b0" x="334.8" y="252" style="stroke: #000000; stroke-width: 0.8"/>
      </g>
     </g>
     <g id="text_14">
      <!-- $\mathdefault{2^{28}}$ -->
      <g transform="translate(326.95 266.598437)scale(0.1 -0.1)">
       <use xlink:href="#DejaVuSans-32" transform="translate(0 0.765625)"/>
       <use xlink:href="#DejaVuSans-32" transform="translate(64.580078 39.046875)scale(0.7)"/>
       <use xlink:href="#DejaVuSans-38" transform="translate(109.116211 39.046875)scale(0.7)"/>
      </g>
     </g>
    </g>
    <g id="xtick_15">
     <g id="line2d_29">
      <path d="M 356.4 252 
L 356.4 34.56 
" clip-path="url(#p0340a35f11)" style="fill: none; stroke: #b0b0b0; stroke-width: 0.8; stroke-linecap: square"/>
     </g>
     <g id="line2d_30">
      <g>
       <use xlink:href="#mdcb129e7b0" x="356.4" y="252" style="stroke: #000000; stroke-width: 0.8"/>
      </g>
     </g>
     <g id="text_15">
      <!-- $\mathdefault{2^{30}}$ -->
      <g transform="translate(348.55 266.598437)scale(0.1 -0.1)">
       <defs>
        <path id="DejaVuSans-33" d="M 2597 2516 
Q 3050 2419 3304 2112 
Q 3559 1806 3559 1356 
Q 3559 666 3084 287 
Q 2609 -91 1734 -91 
Q 1441 -91 1130 -33 
Q 819 25 488 141 
L 488 750 
Q 750 597 1062 519 
Q 1375 441 1716 441 
Q 2309 441 2620 675 
Q 2931 909 2931 1356 
Q 2931 1769 2642 2001 
Q 2353 2234 1838 2234 
L 1294 2234 
L 1294 2753 
L 1863 2753 
Q 2328 2753 2575 2939 
Q 2822 3125 2822 3475 
Q 2822 3834 2567 4026 
Q 2313 4219 1838 4219 
Q 1578 4219 1281 4162 
Q 984 4106 628 3988 
L 628 4550 
Q 988 4650 1302 4700 
Q 1616 4750 1894 4750 
Q 2613 4750 3031 4423 
Q 3450 4097 3450 3541 
Q 3450 3153 3228 2886 
Q 3006 2619 2597 2516 
z
" transform="scale(0.015625)"/>
       </defs>
       <use xlink:href="#DejaVuSans-32" transform="translate(0 0.765625)"/>
       <use xlink:href="#DejaVuSans-33" transform="translate(64.580078 39.046875)scale(0.7)"/>
       <use xlink:href="#DejaVuSans-30" transform="translate(109.116211 39.046875)scale(0.7)"/>
      </g>
     </g>
    </g>
    <g id="xtick_16">
     <g id="line2d_31">
      <path d="M 378 252 
L 378 34.56 
" clip-path="url(#p0340a35f11)" style="fill: none; stroke: #b0b0b0; stroke-width: 0.8; stroke-linecap: square"/>
     </g>
     <g id="line2d_32">
      <g>
       <use xlink:href="#mdcb129e7b0" x="378" y="252" style="stroke: #000000; stroke-width: 0.8"/>
      </g>
     </g>
     <g id="text_16">
      <!-- $\mathdefault{2^{32}}$ -->
      <g transform="translate(370.15 266.598437)scale(0.1 -0.1)">
       <use xlink:href="#DejaVuSans-32" transform="translate(0 0.765625)"/>
       <use xlink:href="#DejaVuSans-33" transform="translate(64.580078 39.046875)scale(0.7)"/>
       <use xlink:href="#DejaVuSans-32" transform="translate(109.116211 39.046875)scale(0.7)"/>
      </g>
     </g>
    </g>
    <g id="text_17">
     <!-- Eingabegröße -->
     <g transform="translate(186.791406 280.276563)scale(0.1 -0.1)">
      <defs>
       <path id="DejaVuSans-45" d="M 628 4666 
L 3578 4666 
L 3578 4134 
L 1259 4134 
L 1259 2753 
L 3481 2753 
L 3481 2222 
L 1259 2222 
L 1259 531 
L 3634 531 
L 3634 0 
L 628 0 
L 628 4666 
z
" transform="scale(0.015625)"/>
       <path id="DejaVuSans-69" d="M 603 3500 
L 1178 3500 
L 1178 0 
L 603 0 
L 603 3500 
z
M 603 4863 
L 1178 4863 
L 1178 4134 
L 603 4134 
L 603 4863 
z
" transform="scale(0.015625)"/>
       <path id="DejaVuSans-6e" d="M 3513 2113 
L 3513 0 
L 2938 0 
L 2938 2094 
Q 2938 2591 2744 2837 
Q 2550 3084 2163 3084 
Q 1697 3084 1428 2787 
Q 1159 2491 1159 1978 
L 1159 0 
L 581 0 
L 581 3500 
L 1159 3500 
L 1159 2956 
Q 1366 3272 1645 3428 
Q 1925 3584 2291 3584 
Q 2894 3584 3203 3211 
Q 3513 2838 3513 2113 
z
" transform="scale(0.015625)"/>
       <path id="DejaVuSans-67" d="M 2906 1791 
Q 2906 2416 2648 2759 
Q 2391 3103 1925 3103 
Q 1463 3103 1205 2759 
Q 947 2416 947 1791 
Q 947 1169 1205 825 
Q 1463 481 1925 481 
Q 2391 481 2648 825 
Q 2906 1169 2906 1791 
z
M 3481 434 
Q 3481 -459 3084 -895 
Q 2688 -1331 1869 -1331 
Q 1566 -1331 1297 -1286 
Q 1028 -1241 775 -1147 
L 775 -588 
Q 1028 -725 1275 -790 
Q 1522 -856 1778 -856 
Q 2344 -856 2625 -561 
Q 2906 -266 2906 331 
L 2906 616 
Q 2728 306 2450 153 
Q 2172 0 1784 0 
Q 1141 0 747 490 
Q 353 981 353 1791 
Q 353 2603 747 3093 
Q 1141 3584 1784 3584 
Q 2172 3584 2450 3431 
Q 2728 3278 2906 2969 
L 2906 3500 
L 3481 3500 
L 3481 434 
z
" transform="scale(0.015625)"/>
       <path id="DejaVuSans-61" d="M 2194 1759 
Q 1497 1759 1228 1600 
Q 959 1441 959 1056 
Q 959 750 1161 570 
Q 1363 391 1709 391 
Q 2188 391 2477 730 
Q 2766 1069 2766 1631 
L 2766 1759 
L 2194 1759 
z
M 3341 1997 
L 3341 0 
L 2766 0 
L 2766 531 
Q 2569 213 2275 61 
Q 1981 -91 1556 -91 
Q 1019 -91 701 211 
Q 384 513 384 1019 
Q 384 1609 779 1909 
Q 1175 2209 1959 2209 
L 2766 2209 
L 2766 2266 
Q 2766 2663 2505 2880 
Q 2244 3097 1772 3097 
Q 1472 3097 1187 3025 
Q 903 2953 641 2809 
L 641 3341 
Q 956 3463 1253 3523 
Q 1550 3584 1831 3584 
Q 2591 3584 2966 3190 
Q 3341 2797 3341 1997 
z
" transform="scale(0.015625)"/>
       <path id="DejaVuSans-62" d="M 3116 1747 
Q 3116 2381 2855 2742 
Q 2594 3103 2138 3103 
Q 1681 3103 1420 2742 
Q 1159 2381 1159 1747 
Q 1159 1113 1420 752 
Q 1681 391 2138 391 
Q 2594 391 2855 752 
Q 3116 1113 3116 1747 
z
M 1159 2969 
Q 1341 3281 1617 3432 
Q 1894 3584 2278 3584 
Q 2916 3584 3314 3078 
Q 3713 2572 3713 1747 
Q 3713 922 3314 415 
Q 2916 -91 2278 -91 
Q 1894 -91 1617 61 
Q 1341 213 1159 525 
L 1159 0 
L 581 0 
L 581 4863 
L 1159 4863 
L 1159 2969 
z
" transform="scale(0.015625)"/>
       <path id="DejaVuSans-65" d="M 3597 1894 
L 3597 1613 
L 953 1613 
Q 991 1019 1311 708 
Q 1631 397 2203 397 
Q 2534 397 2845 478 
Q 3156 559 3463 722 
L 3463 178 
Q 3153 47 2828 -22 
Q 2503 -91 2169 -91 
Q 1331 -91 842 396 
Q 353 884 353 1716 
Q 353 2575 817 3079 
Q 1281 3584 2069 3584 
Q 2775 3584 3186 3129 
Q 3597 2675 3597 1894 
z
M 3022 2063 
Q 3016 2534 2758 2815 
Q 2500 3097 2075 3097 
Q 1594 3097 1305 2825 
Q 1016 2553 972 2059 
L 3022 2063 
z
" transform="scale(0.015625)"/>
       <path id="DejaVuSans-72" d="M 2631 2963 
Q 2534 3019 2420 3045 
Q 2306 3072 2169 3072 
Q 1681 3072 1420 2755 
Q 1159 2438 1159 1844 
L 1159 0 
L 581 0 
L 581 3500 
L 1159 3500 
L 1159 2956 
Q 1341 3275 1631 3429 
Q 1922 3584 2338 3584 
Q 2397 3584 2469 3576 
Q 2541 3569 2628 3553 
L 2631 2963 
z
" transform="scale(0.015625)"/>
       <path id="DejaVuSans-f6" d="M 1959 3097 
Q 1497 3097 1228 2736 
Q 959 2375 959 1747 
Q 959 1119 1226 758 
Q 1494 397 1959 397 
Q 2419 397 2687 759 
Q 2956 1122 2956 1747 
Q 2956 2369 2687 2733 
Q 2419 3097 1959 3097 
z
M 1959 3584 
Q 2709 3584 3137 3096 
Q 3566 2609 3566 1747 
Q 3566 888 3137 398 
Q 2709 -91 1959 -91 
Q 1206 -91 779 398 
Q 353 888 353 1747 
Q 353 2609 779 3096 
Q 1206 3584 1959 3584 
z
M 2254 4850 
L 2888 4850 
L 2888 4219 
L 2254 4219 
L 2254 4850 
z
M 1032 4850 
L 1666 4850 
L 1666 4219 
L 1032 4219 
L 1032 4850 
z
" transform="scale(0.015625)"/>
       <path id="DejaVuSans-df" d="M 581 3553 
Q 581 4178 954 4520 
Q 1328 4863 2009 4863 
Q 2659 4863 3001 4500 
Q 3344 4138 3353 3438 
Q 2881 3413 2618 3233 
Q 2356 3053 2356 2753 
Q 2356 2606 2447 2479 
Q 2538 2353 2741 2222 
L 2919 2106 
Q 3438 1775 3588 1553 
Q 3738 1331 3738 1019 
Q 3738 481 3386 195 
Q 3034 -91 2375 -91 
Q 2175 -91 1962 -52 
Q 1750 -13 1522 63 
L 1522 575 
Q 1772 481 1990 436 
Q 2209 391 2413 391 
Q 2775 391 2962 539 
Q 3150 688 3150 972 
Q 3150 1169 3058 1300 
Q 2966 1431 2650 1625 
L 2363 1797 
Q 2063 1981 1927 2192 
Q 1791 2403 1791 2688 
Q 1791 3084 2052 3353 
Q 2313 3622 2784 3713 
Q 2759 4034 2554 4209 
Q 2350 4384 1997 4384 
Q 1591 4384 1378 4167 
Q 1166 3950 1166 3541 
L 1166 0 
L 581 0 
L 581 3553 
z
" transform="scale(0.015625)"/>
      </defs>
      <use xlink:href="#DejaVuSans-45"/>
      <use xlink:href="#DejaVuSans-69" x="63.183594"/>
      <use xlink:href="#DejaVuSans-6e" x="90.966797"/>
      <use xlink:href="#DejaVuSans-67" x="154.345703"/>
      <use xlink:href="#DejaVuSans-61" x="217.822266"/>
      <use xlink:href="#DejaVuSans-62" x="279.101562"/>
      <use xlink:href="#DejaVuSans-65" x="342.578125"/>
      <use xlink:href="#DejaVuSans-67" x="404.101562"/>
      <use xlink:href="#DejaVuSans-72" x="467.578125"/>
      <use xlink:href="#DejaVuSans-f6" x="506.441406"/>
      <use xlink:href="#DejaVuSans-df" x="567.623047"/>
      <use xlink:href="#DejaVuSans-65" x="630.611328"/>
     </g>
    </g>
   </g>
   <g id="matplotlib.axis_2">
    <g id="ytick_1">
     <g id="line2d_33">
      <path d="M 54 252 
L 388.8 252 
" clip-path="url(#p0340a35f11)" style="fill: none; stroke: #b0b0b0; stroke-width: 0.8; stroke-linecap: square"/>
     </g>
     <g id="line2d_34">
      <defs>
       <path id="m85483313bf" d="M 0 0 
L -3.5 0 
" style="stroke: #000000; stroke-width: 0.8"/>
      </defs>
      <g>
       <use xlink:href="#m85483313bf" x="54" y="252" style="stroke: #000000; stroke-width: 0.8"/>
      </g>
     </g>
     <g id="text_18">
      <!-- $\mathdefault{10^{0}}$ -->
      <g transform="translate(29.4 255.799219)scale(0.1 -0.1)">
       <use xlink:href="#DejaVuSans-31" transform="translate(0 0.765625)"/>
       <use xlink:href="#DejaVuSans-30" transform="translate(63.623047 0.765625)"/>
       <use xlink:href="#DejaVuSans-30" transform="translate(128.203125 39.046875)scale(0.7)"/>
      </g>
     </g>
    </g>
    <g id="ytick_2">
     <g id="line2d_35">
      <path d="M 54 104.794752 
L 388.8 104.794752 
" clip-path="url(#p0340a35f11)" style="fill: none; stroke: #b0b0b0; stroke-width: 0.8; stroke-linecap: square"/>
     </g>
     <g id="line2d_36">
      <g>
       <use xlink:href="#m85483313bf" x="54" y="104.794752" style="stroke: #000000; stroke-width: 0.8"/>
      </g>
     </g>
     <g id="text_19">
      <!-- $\mathdefault{10^{1}}$ -->
      <g transform="translate(29.4 108.593971)scale(0.1 -0.1)">
       <use xlink:href="#DejaVuSans-31" transform="translate(0 0.684375)"/>
       <use xlink:href="#DejaVuSans-30" transform="translate(63.623047 0.684375)"/>
       <use xlink:href="#DejaVuSans-31" transform="translate(128.203125 38.965625)scale(0.7)"/>
      </g>
     </g>
    </g>
    <g id="ytick_3">
     <g id="line2d_37">
      <path d="M 54 207.686805 
L 388.8 207.686805 
" clip-path="url(#p0340a35f11)" style="fill: none; stroke: #b0b0b0; stroke-width: 0.8; stroke-linecap: square"/>
     </g>
     <g id="line2d_38">
      <defs>
       <path id="m0aaf526f04" d="M 0 0 
L -2 0 
" style="stroke: #000000; stroke-width: 0.6"/>
      </defs>
      <g>
       <use xlink:href="#m0aaf526f04" x="54" y="207.686805" style="stroke: #000000; stroke-width: 0.6"/>
      </g>
     </g>
    </g>
    <g id="ytick_4">
     <g id="line2d_39">
      <path d="M 54 181.765248 
L 388.8 181.765248 
" clip-path="url(#p0340a35f11)" style="fill: none; stroke: #b0b0b0; stroke-width: 0.8; stroke-linecap: square"/>
     </g>
     <g id="line2d_40">
      <g>
       <use xlink:href="#m0aaf526f04" x="54" y="181.765248" style="stroke: #000000; stroke-width: 0.6"/>
      </g>
     </g>
    </g>
    <g id="ytick_5">
     <g id="line2d_41">
      <path d="M 54 163.37361 
L 388.8 163.37361 
" clip-path="url(#p0340a35f11)" style="fill: none; stroke: #b0b0b0; stroke-width: 0.8; stroke-linecap: square"/>
     </g>
     <g id="line2d_42">
      <g>
       <use xlink:href="#m0aaf526f04" x="54" y="163.37361" style="stroke: #000000; stroke-width: 0.6"/>
      </g>
     </g>
    </g>
    <g id="ytick_6">
     <g id="line2d_43">
      <path d="M 54 149.107947 
L 388.8 149.107947 
" clip-path="url(#p0340a35f11)" style="fill: none; stroke: #b0b0b0; stroke-width: 0.8; stroke-linecap: square"/>
     </g>
     <g id="line2d_44">
      <g>
       <use xlink:href="#m0aaf526f04" x="54" y="149.107947" style="stroke: #000000; stroke-width: 0.6"/>
      </g>
     </g>
    </g>
    <g id="ytick_7">
     <g id="line2d_45">
      <path d="M 54 137.452053 
L 388.8 137.452053 
" clip-path="url(#p0340a35f11)" style="fill: none; stroke: #b0b0b0; stroke-width: 0.8; stroke-linecap: square"/>
     </g>
     <g id="line2d_46">
      <g>
       <use xlink:href="#m0aaf526f04" x="54" y="137.452053" style="stroke: #000000; stroke-width: 0.6"/>
      </g>
     </g>
    </g>
    <g id="ytick_8">
     <g id="line2d_47">
      <path d="M 54 127.597134 
L 388.8 127.597134 
" clip-path="url(#p0340a35f11)" style="fill: none; stroke: #b0b0b0; stroke-width: 0.8; stroke-linecap: square"/>
     </g>
     <g id="line2d_48">
      <g>
       <use xlink:href="#m0aaf526f04" x="54" y="127.597134" style="stroke: #000000; stroke-width: 0.6"/>
      </g>
     </g>
    </g>
    <g id="ytick_9">
     <g id="line2d_49">
      <path d="M 54 119.060415 
L 388.8 119.060415 
" clip-path="url(#p0340a35f11)" style="fill: none; stroke: #b0b0b0; stroke-width: 0.8; stroke-linecap: square"/>
     </g>
     <g id="line2d_50">
      <g>
       <use xlink:href="#m0aaf526f04" x="54" y="119.060415" style="stroke: #000000; stroke-width: 0.6"/>
      </g>
     </g>
    </g>
    <g id="ytick_10">
     <g id="line2d_51">
      <path d="M 54 111.530495 
L 388.8 111.530495 
" clip-path="url(#p0340a35f11)" style="fill: none; stroke: #b0b0b0; stroke-width: 0.8; stroke-linecap: square"/>
     </g>
     <g id="line2d_52">
      <g>
       <use xlink:href="#m0aaf526f04" x="54" y="111.530495" style="stroke: #000000; stroke-width: 0.6"/>
      </g>
     </g>
    </g>
    <g id="ytick_11">
     <g id="line2d_53">
      <path d="M 54 60.481557 
L 388.8 60.481557 
" clip-path="url(#p0340a35f11)" style="fill: none; stroke: #b0b0b0; stroke-width: 0.8; stroke-linecap: square"/>
     </g>
     <g id="line2d_54">
      <g>
       <use xlink:href="#m0aaf526f04" x="54" y="60.481557" style="stroke: #000000; stroke-width: 0.6"/>
      </g>
     </g>
    </g>
    <g id="ytick_12">
     <g id="line2d_55">
      <path d="M 54 34.56 
L 388.8 34.56 
" clip-path="url(#p0340a35f11)" style="fill: none; stroke: #b0b0b0; stroke-width: 0.8; stroke-linecap: square"/>
     </g>
     <g id="line2d_56">
      <g>
       <use xlink:href="#m0aaf526f04" x="54" y="34.56" style="stroke: #000000; stroke-width: 0.6"/>
      </g>
     </g>
    </g>
    <g id="text_20">
     <!-- Laufzeit pro Element [ns] -->
     <g transform="translate(23.320312 206.428438)rotate(-90)scale(0.1 -0.1)">
      <defs>
       <path id="DejaVuSans-4c" d="M 628 4666 
L 1259 4666 
L 1259 531 
L 3531 531 
L 3531 0 
L 628 0 
L 628 4666 
z
" transform="scale(0.015625)"/>
       <path id="DejaVuSans-75" d="M 544 1381 
L 544 3500 
L 1119 3500 
L 1119 1403 
Q 1119 906 1312 657 
Q 1506 409 1894 409 
Q 2359 409 2629 706 
Q 2900 1003 2900 1516 
L 2900 3500 
L 3475 3500 
L 3475 0 
L 2900 0 
L 2900 538 
Q 2691 219 2414 64 
Q 2138 -91 1772 -91 
Q 1169 -91 856 284 
Q 544 659 544 1381 
z
M 1991 3584 
L 1991 3584 
z
" transform="scale(0.015625)"/>
       <path id="DejaVuSans-66" d="M 2375 4863 
L 2375 4384 
L 1825 4384 
Q 1516 4384 1395 4259 
Q 1275 4134 1275 3809 
L 1275 3500 
L 2222 3500 
L 2222 3053 
L 1275 3053 
L 1275 0 
L 697 0 
L 697 3053 
L 147 3053 
L 147 3500 
L 697 3500 
L 697 3744 
Q 697 4328 969 4595 
Q 1241 4863 1831 4863 
L 2375 4863 
z
" transform="scale(0.015625)"/>
       <path id="DejaVuSans-7a" d="M 353 3500 
L 3084 3500 
L 3084 2975 
L 922 459 
L 3084 459 
L 3084 0 
L 275 0 
L 275 525 
L 2438 3041 
L 353 3041 
L 353 3500 
z
" transform="scale(0.015625)"/>
       <path id="DejaVuSans-74" d="M 1172 4494 
L 1172 3500 
L 2356 3500 
L 2356 3053 
L 1172 3053 
L 1172 1153 
Q 1172 725 1289 603 
Q 1406 481 1766 481 
L 2356 481 
L 2356 0 
L 1766 0 
Q 1100 0 847 248 
Q 594 497 594 1153 
L 594 3053 
L 172 3053 
L 172 3500 
L 594 3500 
L 594 4494 
L 1172 4494 
z
" transform="scale(0.015625)"/>
       <path id="DejaVuSans-20" transform="scale(0.015625)"/>
       <path id="DejaVuSans-70" d="M 1159 525 
L 1159 -1331 
L 581 -1331 
L 581 3500 
L 1159 3500 
L 1159 2969 
Q 1341 3281 1617 3432 
Q 1894 3584 2278 3584 
Q 2916 3584 3314 3078 
Q 3713 2572 3713 1747 
Q 3713 922 3314 415 
Q 2916 -91 2278 -91 
Q 1894 -91 1617 61 
Q 1341 213 1159 525 
z
M 3116 1747 
Q 3116 2381 2855 2742 
Q 2594 3103 2138 3103 
Q 1681 3103 1420 2742 
Q 1159 2381 1159 1747 
Q 1159 1113 1420 752 
Q 1681 391 2138 391 
Q 2594 391 2855 752 
Q 3116 1113 3116 1747 
z
" transform="scale(0.015625)"/>
       <path id="DejaVuSans-6f" d="M 1959 3097 
Q 1497 3097 1228 2736 
Q 959 2375 959 1747 
Q 959 1119 1226 758 
Q 1494 397 1959 397 
Q 2419 397 2687 759 
Q 2956 1122 2956 1747 
Q 2956 2369 2687 2733 
Q 2419 3097 1959 3097 
z
M 1959 3584 
Q 2709 3584 3137 3096 
Q 3566 2609 3566 1747 
Q 3566 888 3137 398 
Q 2709 -91 1959 -91 
Q 1206 -91 779 398 
Q 353 888 353 1747 
Q 353 2609 779 3096 
Q 1206 3584 1959 3584 
z
" transform="scale(0.015625)"/>
       <path id="DejaVuSans-6c" d="M 603 4863 
L 1178 4863 
L 1178 0 
L 603 0 
L 603 4863 
z
" transform="scale(0.015625)"/>
       <path id="DejaVuSans-6d" d="M 3328 2828 
Q 3544 3216 3844 3400 
Q 4144 3584 4550 3584 
Q 5097 3584 5394 3201 
Q 5691 2819 5691 2113 
L 5691 0 
L 5113 0 
L 5113 2094 
Q 5113 2597 4934 2840 
Q 4756 3084 4391 3084 
Q 3944 3084 3684 2787 
Q 3425 2491 3425 1978 
L 3425 0 
L 2847 0 
L 2847 2094 
Q 2847 2600 2669 2842 
Q 2491 3084 2119 3084 
Q 1678 3084 1418 2786 
Q 1159 2488 1159 1978 
L 1159 0 
L 581 0 
L 581 3500 
L 1159 3500 
L 1159 2956 
Q 1356 3278 1631 3431 
Q 1906 3584 2284 3584 
Q 2666 3584 2933 3390 
Q 3200 3197 3328 2828 
z
" transform="scale(0.015625)"/>
       <path id="DejaVuSans-5b" d="M 550 4863 
L 1875 4863 
L 1875 4416 
L 1125 4416 
L 1125 -397 
L 1875 -397 
L 1875 -844 
L 550 -844 
L 550 4863 
z
" transform="scale(0.015625)"/>
       <path id="DejaVuSans-73" d="M 2834 3397 
L 2834 2853 
Q 2591 2978 2328 3040 
Q 2066 3103 1784 3103 
Q 1356 3103 1142 2972 
Q 928 2841 928 2578 
Q 928 2378 1081 2264 
Q 1234 2150 1697 2047 
L 1894 2003 
Q 2506 1872 2764 1633 
Q 3022 1394 3022 966 
Q 3022 478 2636 193 
Q 2250 -91 1575 -91 
Q 1294 -91 989 -36 
Q 684 19 347 128 
L 347 722 
Q 666 556 975 473 
Q 1284 391 1588 391 
Q 1994 391 2212 530 
Q 2431 669 2431 922 
Q 2431 1156 2273 1281 
Q 2116 1406 1581 1522 
L 1381 1569 
Q 847 1681 609 1914 
Q 372 2147 372 2553 
Q 372 3047 722 3315 
Q 1072 3584 1716 3584 
Q 2034 3584 2315 3537 
Q 2597 3491 2834 3397 
z
" transform="scale(0.015625)"/>
       <path id="DejaVuSans-5d" d="M 1947 4863 
L 1947 -844 
L 622 -844 
L 622 -397 
L 1369 -397 
L 1369 4416 
L 622 4416 
L 622 4863 
L 1947 4863 
z
" transform="scale(0.015625)"/>
      </defs>
      <use xlink:href="#DejaVuSans-4c"/>
      <use xlink:href="#DejaVuSans-61" x="55.712891"/>
      <use xlink:href="#DejaVuSans-75" x="116.992188"/>
      <use xlink:href="#DejaVuSans-66" x="180.371094"/>
      <use xlink:href="#DejaVuSans-7a" x="215.576172"/>
      <use xlink:href="#DejaVuSans-65" x="268.066406"/>
      <use xlink:href="#DejaVuSans-69" x="329.589844"/>
      <use xlink:href="#DejaVuSans-74" x="357.373047"/>
      <use xlink:href="#DejaVuSans-20" x="396.582031"/>
      <use xlink:href="#DejaVuSans-70" x="428.369141"/>
      <use xlink:href="#DejaVuSans-72" x="491.845703"/>
      <use xlink:href="#DejaVuSans-6f" x="530.708984"/>
      <use xlink:href="#DejaVuSans-20" x="591.890625"/>
      <use xlink:href="#DejaVuSans-45" x="623.677734"/>
      <use xlink:href="#DejaVuSans-6c" x="686.861328"/>
      <use xlink:href="#DejaVuSans-65" x="714.644531"/>
      <use xlink:href="#DejaVuSans-6d" x="776.167969"/>
      <use xlink:href="#DejaVuSans-65" x="873.580078"/>
      <use xlink:href="#DejaVuSans-6e" x="935.103516"/>
      <use xlink:href="#DejaVuSans-74" x="998.482422"/>
      <use xlink:href="#DejaVuSans-20" x="1037.691406"/>
      <use xlink:href="#DejaVuSans-5b" x="1069.478516"/>
      <use xlink:href="#DejaVuSans-6e" x="1108.492188"/>
      <use xlink:href="#DejaVuSans-73" x="1171.871094"/>
      <use xlink:href="#DejaVuSans-5d" x="1223.970703"/>
     </g>
    </g>
   </g>
   <g id="line2d_57">
    <path d="M 32.4 181.895726 
L 43.2 175.825695 
L 54 190.966959 
L 64.8 192.417747 
L 75.6 194.231492 
L 86.4 195.746027 
L 97.2 194.017228 
L 108 195.187833 
L 118.8 195.553774 
L 129.6 195.987662 
L 140.4 196.469109 
L 151.2 196.542753 
L 162 196.191138 
L 172.8 109.804799 
L 183.6 121.269249 
L 194.4 130.612328 
L 205.2 137.774585 
L 216 104.177006 
L 226.8 94.511317 
L 237.6 104.467061 
L 248.4 111.255235 
L 259.2 113.995329 
L 270 84.449242 
L 280.8 76.506283 
L 291.6 84.106278 
L 302.4 88.428904 
L 313.2 91.865659 
L 324 72.778377 
L 334.8 66.363289 
L 345.6 72.26604 
L 356.4 75.387501 
L 367.2 77.504257 
L 378 61.350784 
L 388.8 55.848108 
" clip-path="url(#p0340a35f11)" style="fill: none; stroke: #1f77b4; stroke-width: 1.5; stroke-linecap: square"/>
   </g>
   <g id="line2d_58">
    <path d="M 32.4 181.949249 
L 43.2 192.339003 
L 54 193.303705 
L 64.8 193.035494 
L 75.6 194.63292 
L 86.4 195.841376 
L 97.2 194.023321 
L 108 195.182789 
L 118.8 195.973168 
L 129.6 195.69948 
L 140.4 196.464327 
L 151.2 196.513534 
L 162 196.669258 
L 172.8 196.306451 
L 183.6 121.266792 
L 194.4 130.928494 
L 205.2 137.851896 
L 216 144.913165 
L 226.8 116.515176 
L 237.6 103.938021 
L 248.4 111.435791 
L 259.2 113.698406 
L 270 112.723278 
L 280.8 91.867637 
L 291.6 83.812285 
L 302.4 88.262672 
L 313.2 91.67858 
L 324 94.482667 
L 334.8 79.265365 
L 345.6 72.063307 
L 356.4 75.219378 
L 367.2 77.496142 
L 378 79.000667 
L 388.8 66.942425 
" clip-path="url(#p0340a35f11)" style="fill: none; stroke: #ff7f0e; stroke-width: 1.5; stroke-linecap: square"/>
   </g>
   <g id="line2d_59">
    <path d="M 32.4 181.90488 
L 43.2 192.221056 
L 54 192.993472 
L 64.8 192.748117 
L 75.6 195.189283 
L 86.4 195.832008 
L 97.2 193.911611 
L 108 194.794494 
L 118.8 196.005944 
L 129.6 196.320937 
L 140.4 196.458979 
L 151.2 196.601351 
L 162 196.596695 
L 172.8 196.319452 
L 183.6 193.959275 
L 194.4 130.300698 
L 205.2 137.3655 
L 216 144.994387 
L 226.8 150.141045 
L 237.6 123.832555 
L 248.4 111.52932 
L 259.2 111.862203 
L 270 112.132785 
L 280.8 113.64016 
L 291.6 97.48535 
L 302.4 88.183778 
L 313.2 91.70517 
L 324 94.66227 
L 334.8 96.006971 
L 345.6 83.185855 
L 356.4 75.27532 
L 367.2 77.417818 
L 378 78.9015 
L 388.8 80.423321 
" clip-path="url(#p0340a35f11)" style="fill: none; stroke: #2ca02c; stroke-width: 1.5; stroke-linecap: square"/>
   </g>
   <g id="line2d_60">
    <path d="M 32.4 181.873814 
L 43.2 192.310092 
L 54 193.271616 
L 64.8 192.741162 
L 75.6 195.204887 
L 86.4 195.830384 
L 97.2 193.715438 
L 108 195.123117 
L 118.8 195.775171 
L 129.6 196.282724 
L 140.4 196.383183 
L 151.2 196.388548 
L 162 196.696895 
L 172.8 196.374377 
L 183.6 196.056966 
L 194.4 196.23107 
L 205.2 137.723087 
L 216 144.481034 
L 226.8 150.314286 
L 237.6 151.384206 
L 248.4 128.062852 
L 259.2 113.564989 
L 270 112.32484 
L 280.8 113.686093 
L 291.6 114.113938 
L 302.4 99.051457 
L 313.2 91.444477 
L 324 94.176377 
L 334.8 95.9584 
L 345.6 96.085227 
L 356.4 84.069617 
L 367.2 77.343142 
L 378 79.017267 
L 388.8 80.284205 
" clip-path="url(#p0340a35f11)" style="fill: none; stroke: #d62728; stroke-width: 1.5; stroke-linecap: square"/>
   </g>
   <g id="line2d_61">
    <path d="M 32.4 181.983568 
L 43.2 192.390214 
L 54 193.398869 
L 64.8 193.353971 
L 75.6 195.263455 
L 86.4 195.879345 
L 97.2 194.04039 
L 108 195.275345 
L 118.8 196.05467 
L 129.6 196.30782 
L 140.4 196.401264 
L 151.2 196.574403 
L 162 196.786437 
L 172.8 196.476283 
L 183.6 196.285268 
L 194.4 196.805733 
L 205.2 192.665888 
L 216 144.992239 
L 226.8 150.462154 
L 237.6 151.430958 
L 248.4 151.360621 
L 259.2 124.591488 
L 270 112.288484 
L 280.8 113.532272 
L 291.6 114.20953 
L 302.4 111.828054 
L 313.2 99.275791 
L 324 94.814132 
L 334.8 96.126631 
L 345.6 96.356845 
L 356.4 94.202644 
L 367.2 84.070729 
L 378 79.004263 
L 388.8 80.368718 
" clip-path="url(#p0340a35f11)" style="fill: none; stroke: #9467bd; stroke-width: 1.5; stroke-linecap: square"/>
   </g>
   <g id="line2d_62">
    <path d="M 32.4 181.764408 
L 43.2 191.51326 
L 54 193.38158 
L 64.8 192.730616 
L 75.6 195.123845 
L 86.4 195.855976 
L 97.2 193.908174 
L 108 195.157732 
L 118.8 195.99369 
L 129.6 196.115978 
L 140.4 196.442137 
L 151.2 196.608433 
L 162 196.256915 
L 172.8 196.413136 
L 183.6 195.942784 
L 194.4 196.687446 
L 205.2 193.318771 
L 216 187.581825 
L 226.8 150.216249 
L 237.6 151.471072 
L 248.4 151.240183 
L 259.2 137.621814 
L 270 117.256205 
L 280.8 113.474746 
L 291.6 114.179399 
L 302.4 111.60556 
L 313.2 107.369018 
L 324 98.405356 
L 334.8 95.999641 
L 345.6 96.261752 
L 356.4 94.075858 
L 367.2 90.680986 
L 378 82.223031 
L 388.8 80.416908 
" clip-path="url(#p0340a35f11)" style="fill: none; stroke: #8c564b; stroke-width: 1.5; stroke-linecap: square"/>
   </g>
   <g id="line2d_63">
    <path d="M 32.4 181.170626 
L 43.2 191.831377 
L 54 193.305331 
L 64.8 193.410545 
L 75.6 195.250287 
L 86.4 195.718873 
L 97.2 193.70483 
L 108 195.162011 
L 118.8 195.967013 
L 129.6 196.258898 
L 140.4 196.451076 
L 151.2 196.238396 
L 162 196.246549 
L 172.8 196.414481 
L 183.6 195.668556 
L 194.4 196.681519 
L 205.2 194.459072 
L 216 187.917244 
L 226.8 183.703458 
L 237.6 151.376005 
L 248.4 151.435446 
L 259.2 137.688866 
L 270 121.738004 
L 280.8 115.28164 
L 291.6 114.57191 
L 302.4 111.668637 
L 313.2 107.395732 
L 324 101.958877 
L 334.8 97.311082 
L 345.6 96.290433 
L 356.4 93.929807 
L 367.2 90.430513 
L 378 84.974798 
L 388.8 81.046745 
" clip-path="url(#p0340a35f11)" style="fill: none; stroke: #e377c2; stroke-width: 1.5; stroke-linecap: square"/>
   </g>
   <g id="line2d_64">
    <path d="M 32.4 181.989583 
L 43.2 192.356184 
L 54 193.202505 
L 64.8 193.559493 
L 75.6 195.235926 
L 86.4 195.820435 
L 97.2 193.964258 
L 108 195.114635 
L 118.8 195.73059 
L 129.6 196.345152 
L 140.4 196.523998 
L 151.2 196.592048 
L 162 196.754711 
L 172.8 196.161282 
L 183.6 196.29592 
L 194.4 196.59526 
L 205.2 192.401854 
L 216 186.930147 
L 226.8 183.227884 
L 237.6 180.950574 
L 248.4 151.77536 
L 259.2 137.54662 
L 270 121.3208 
L 280.8 116.860964 
L 291.6 114.385648 
L 302.4 111.570941 
L 313.2 107.445467 
L 324 101.662336 
L 334.8 98.579855 
L 345.6 96.087527 
L 356.4 94.037376 
L 367.2 90.543422 
L 378 85.168249 
L 388.8 82.287835 
" clip-path="url(#p0340a35f11)" style="fill: none; stroke: #7f7f7f; stroke-width: 1.5; stroke-linecap: square"/>
   </g>
   <g id="line2d_65">
    <path d="M 32.4 182.031484 
L 43.2 192.412126 
L 54 193.038885 
L 64.8 193.337024 
L 75.6 195.296418 
L 86.4 195.921155 
L 97.2 194.149478 
L 108 195.234035 
L 118.8 195.583946 
L 129.6 196.25987 
L 140.4 196.443996 
L 151.2 196.666296 
L 162 196.717524 
L 172.8 196.353271 
L 183.6 196.416102 
L 194.4 196.928715 
L 205.2 194.451857 
L 216 187.848847 
L 226.8 183.748969 
L 237.6 181.213635 
L 248.4 178.572131 
L 259.2 138.105269 
L 270 122.193659 
L 280.8 117.073502 
L 291.6 114.306231 
L 302.4 111.414548 
L 313.2 107.458682 
L 324 101.731262 
L 334.8 98.889476 
L 345.6 96.055652 
L 356.4 93.495005 
L 367.2 90.563723 
L 378 85.048754 
L 388.8 82.201165 
" clip-path="url(#p0340a35f11)" style="fill: none; stroke: #bcbd22; stroke-width: 1.5; stroke-linecap: square"/>
   </g>
   <g id="line2d_66">
    <path d="M 32.4 175.90005 
L 43.2 188.519265 
L 54 192.087179 
L 64.8 192.825685 
L 75.6 194.12114 
L 86.4 195.27478 
L 97.2 193.622846 
L 108 194.923824 
L 118.8 195.573819 
L 129.6 195.797777 
L 140.4 196.470317 
L 151.2 196.478654 
L 162 196.678722 
L 172.8 196.226124 
L 183.6 196.455537 
L 194.4 195.741084 
L 205.2 192.772297 
L 216 187.156782 
L 226.8 183.054518 
L 237.6 180.994044 
L 248.4 179.157953 
L 259.2 142.885492 
L 270 121.558995 
L 280.8 116.980059 
L 291.6 114.610987 
L 302.4 113.897213 
L 313.2 110.173169 
L 324 101.774257 
L 334.8 98.692817 
L 345.6 96.284176 
L 356.4 95.131078 
L 367.2 92.584032 
L 378 85.277303 
L 388.8 82.418634 
" clip-path="url(#p0340a35f11)" style="fill: none; stroke: #17becf; stroke-width: 1.5; stroke-linecap: square"/>
   </g>
   <g id="patch_3">
    <path d="M 54 252 
L 54 34.56 
" style="fill: none; stroke: #000000; stroke-width: 0.8; stroke-linejoin: miter; stroke-linecap: square"/>
   </g>
   <g id="patch_4">
    <path d="M 388.8 252 
L 388.8 34.56 
" style="fill: none; stroke: #000000; stroke-width: 0.8; stroke-linejoin: miter; stroke-linecap: square"/>
   </g>
   <g id="patch_5">
    <path d="M 54 252 
L 388.8 252 
" style="fill: none; stroke: #000000; stroke-width: 0.8; stroke-linejoin: miter; stroke-linecap: square"/>
   </g>
   <g id="patch_6">
    <path d="M 54 34.56 
L 388.8 34.56 
" style="fill: none; stroke: #000000; stroke-width: 0.8; stroke-linejoin: miter; stroke-linecap: square"/>
   </g>
   <g id="legend_1">
    <g id="patch_7">
     <path d="M 412.54 192.1225 
L 607.074375 192.1225 
Q 609.074375 192.1225 609.074375 190.1225 
L 609.074375 41.56 
Q 609.074375 39.56 607.074375 39.56 
L 412.54 39.56 
Q 410.54 39.56 410.54 41.56 
L 410.54 190.1225 
Q 410.54 192.1225 412.54 192.1225 
z
" style="fill: #ffffff; opacity: 0.8; stroke: #cccccc; stroke-linejoin: miter"/>
    </g>
    <g id="line2d_67">
     <path d="M 414.54 47.658437 
L 424.54 47.658437 
L 433 47.658437 
" style="fill: none; stroke: #1f77b4; stroke-width: 1.5; stroke-linecap: square"/>
    </g>
    <g id="text_21">
     <!-- inplace_scatter_shuffle 4096 -->
     <g transform="translate(442.54 51.158437)scale(0.1 -0.1)">
      <defs>
       <path id="DejaVuSans-63" d="M 3122 3366 
L 3122 2828 
Q 2878 2963 2633 3030 
Q 2388 3097 2138 3097 
Q 1578 3097 1268 2742 
Q 959 2388 959 1747 
Q 959 1106 1268 751 
Q 1578 397 2138 397 
Q 2388 397 2633 464 
Q 2878 531 3122 666 
L 3122 134 
Q 2881 22 2623 -34 
Q 2366 -91 2075 -91 
Q 1284 -91 818 406 
Q 353 903 353 1747 
Q 353 2603 823 3093 
Q 1294 3584 2113 3584 
Q 2378 3584 2631 3529 
Q 2884 3475 3122 3366 
z
" transform="scale(0.015625)"/>
       <path id="DejaVuSans-5f" d="M 3263 -1063 
L 3263 -1509 
L -63 -1509 
L -63 -1063 
L 3263 -1063 
z
" transform="scale(0.015625)"/>
       <path id="DejaVuSans-68" d="M 3513 2113 
L 3513 0 
L 2938 0 
L 2938 2094 
Q 2938 2591 2744 2837 
Q 2550 3084 2163 3084 
Q 1697 3084 1428 2787 
Q 1159 2491 1159 1978 
L 1159 0 
L 581 0 
L 581 4863 
L 1159 4863 
L 1159 2956 
Q 1366 3272 1645 3428 
Q 1925 3584 2291 3584 
Q 2894 3584 3203 3211 
Q 3513 2838 3513 2113 
z
" transform="scale(0.015625)"/>
       <path id="DejaVuSans-39" d="M 703 97 
L 703 672 
Q 941 559 1184 500 
Q 1428 441 1663 441 
Q 2288 441 2617 861 
Q 2947 1281 2994 2138 
Q 2813 1869 2534 1725 
Q 2256 1581 1919 1581 
Q 1219 1581 811 2004 
Q 403 2428 403 3163 
Q 403 3881 828 4315 
Q 1253 4750 1959 4750 
Q 2769 4750 3195 4129 
Q 3622 3509 3622 2328 
Q 3622 1225 3098 567 
Q 2575 -91 1691 -91 
Q 1453 -91 1209 -44 
Q 966 3 703 97 
z
M 1959 2075 
Q 2384 2075 2632 2365 
Q 2881 2656 2881 3163 
Q 2881 3666 2632 3958 
Q 2384 4250 1959 4250 
Q 1534 4250 1286 3958 
Q 1038 3666 1038 3163 
Q 1038 2656 1286 2365 
Q 1534 2075 1959 2075 
z
" transform="scale(0.015625)"/>
      </defs>
      <use xlink:href="#DejaVuSans-69"/>
      <use xlink:href="#DejaVuSans-6e" x="27.783203"/>
      <use xlink:href="#DejaVuSans-70" x="91.162109"/>
      <use xlink:href="#DejaVuSans-6c" x="154.638672"/>
      <use xlink:href="#DejaVuSans-61" x="182.421875"/>
      <use xlink:href="#DejaVuSans-63" x="243.701172"/>
      <use xlink:href="#DejaVuSans-65" x="298.681641"/>
      <use xlink:href="#DejaVuSans-5f" x="360.205078"/>
      <use xlink:href="#DejaVuSans-73" x="410.205078"/>
      <use xlink:href="#DejaVuSans-63" x="462.304688"/>
      <use xlink:href="#DejaVuSans-61" x="517.285156"/>
      <use xlink:href="#DejaVuSans-74" x="578.564453"/>
      <use xlink:href="#DejaVuSans-74" x="617.773438"/>
      <use xlink:href="#DejaVuSans-65" x="656.982422"/>
      <use xlink:href="#DejaVuSans-72" x="718.505859"/>
      <use xlink:href="#DejaVuSans-5f" x="759.619141"/>
      <use xlink:href="#DejaVuSans-73" x="809.619141"/>
      <use xlink:href="#DejaVuSans-68" x="861.71875"/>
      <use xlink:href="#DejaVuSans-75" x="925.097656"/>
      <use xlink:href="#DejaVuSans-66" x="988.476562"/>
      <use xlink:href="#DejaVuSans-66" x="1023.681641"/>
      <use xlink:href="#DejaVuSans-6c" x="1058.886719"/>
      <use xlink:href="#DejaVuSans-65" x="1086.669922"/>
      <use xlink:href="#DejaVuSans-20" x="1148.193359"/>
      <use xlink:href="#DejaVuSans-34" x="1179.980469"/>
      <use xlink:href="#DejaVuSans-30" x="1243.603516"/>
      <use xlink:href="#DejaVuSans-39" x="1307.226562"/>
      <use xlink:href="#DejaVuSans-36" x="1370.849609"/>
     </g>
    </g>
    <g id="line2d_68">
     <path d="M 414.54 62.614688 
L 424.54 62.614688 
L 433 62.614688 
" style="fill: none; stroke: #ff7f0e; stroke-width: 1.5; stroke-linecap: square"/>
    </g>
    <g id="text_22">
     <!-- inplace_scatter_shuffle 8192 -->
     <g transform="translate(442.54 66.114688)scale(0.1 -0.1)">
      <use xlink:href="#DejaVuSans-69"/>
      <use xlink:href="#DejaVuSans-6e" x="27.783203"/>
      <use xlink:href="#DejaVuSans-70" x="91.162109"/>
      <use xlink:href="#DejaVuSans-6c" x="154.638672"/>
      <use xlink:href="#DejaVuSans-61" x="182.421875"/>
      <use xlink:href="#DejaVuSans-63" x="243.701172"/>
      <use xlink:href="#DejaVuSans-65" x="298.681641"/>
      <use xlink:href="#DejaVuSans-5f" x="360.205078"/>
      <use xlink:href="#DejaVuSans-73" x="410.205078"/>
      <use xlink:href="#DejaVuSans-63" x="462.304688"/>
      <use xlink:href="#DejaVuSans-61" x="517.285156"/>
      <use xlink:href="#DejaVuSans-74" x="578.564453"/>
      <use xlink:href="#DejaVuSans-74" x="617.773438"/>
      <use xlink:href="#DejaVuSans-65" x="656.982422"/>
      <use xlink:href="#DejaVuSans-72" x="718.505859"/>
      <use xlink:href="#DejaVuSans-5f" x="759.619141"/>
      <use xlink:href="#DejaVuSans-73" x="809.619141"/>
      <use xlink:href="#DejaVuSans-68" x="861.71875"/>
      <use xlink:href="#DejaVuSans-75" x="925.097656"/>
      <use xlink:href="#DejaVuSans-66" x="988.476562"/>
      <use xlink:href="#DejaVuSans-66" x="1023.681641"/>
      <use xlink:href="#DejaVuSans-6c" x="1058.886719"/>
      <use xlink:href="#DejaVuSans-65" x="1086.669922"/>
      <use xlink:href="#DejaVuSans-20" x="1148.193359"/>
      <use xlink:href="#DejaVuSans-38" x="1179.980469"/>
      <use xlink:href="#DejaVuSans-31" x="1243.603516"/>
      <use xlink:href="#DejaVuSans-39" x="1307.226562"/>
      <use xlink:href="#DejaVuSans-32" x="1370.849609"/>
     </g>
    </g>
    <g id="line2d_69">
     <path d="M 414.54 77.570938 
L 424.54 77.570938 
L 433 77.570938 
" style="fill: none; stroke: #2ca02c; stroke-width: 1.5; stroke-linecap: square"/>
    </g>
    <g id="text_23">
     <!-- inplace_scatter_shuffle 16384 -->
     <g transform="translate(442.54 81.070938)scale(0.1 -0.1)">
      <use xlink:href="#DejaVuSans-69"/>
      <use xlink:href="#DejaVuSans-6e" x="27.783203"/>
      <use xlink:href="#DejaVuSans-70" x="91.162109"/>
      <use xlink:href="#DejaVuSans-6c" x="154.638672"/>
      <use xlink:href="#DejaVuSans-61" x="182.421875"/>
      <use xlink:href="#DejaVuSans-63" x="243.701172"/>
      <use xlink:href="#DejaVuSans-65" x="298.681641"/>
      <use xlink:href="#DejaVuSans-5f" x="360.205078"/>
      <use xlink:href="#DejaVuSans-73" x="410.205078"/>
      <use xlink:href="#DejaVuSans-63" x="462.304688"/>
      <use xlink:href="#DejaVuSans-61" x="517.285156"/>
      <use xlink:href="#DejaVuSans-74" x="578.564453"/>
      <use xlink:href="#DejaVuSans-74" x="617.773438"/>
      <use xlink:href="#DejaVuSans-65" x="656.982422"/>
      <use xlink:href="#DejaVuSans-72" x="718.505859"/>
      <use xlink:href="#DejaVuSans-5f" x="759.619141"/>
      <use xlink:href="#DejaVuSans-73" x="809.619141"/>
      <use xlink:href="#DejaVuSans-68" x="861.71875"/>
      <use xlink:href="#DejaVuSans-75" x="925.097656"/>
      <use xlink:href="#DejaVuSans-66" x="988.476562"/>
      <use xlink:href="#DejaVuSans-66" x="1023.681641"/>
      <use xlink:href="#DejaVuSans-6c" x="1058.886719"/>
      <use xlink:href="#DejaVuSans-65" x="1086.669922"/>
      <use xlink:href="#DejaVuSans-20" x="1148.193359"/>
      <use xlink:href="#DejaVuSans-31" x="1179.980469"/>
      <use xlink:href="#DejaVuSans-36" x="1243.603516"/>
      <use xlink:href="#DejaVuSans-33" x="1307.226562"/>
      <use xlink:href="#DejaVuSans-38" x="1370.849609"/>
      <use xlink:href="#DejaVuSans-34" x="1434.472656"/>
     </g>
    </g>
    <g id="line2d_70">
     <path d="M 414.54 92.527188 
L 424.54 92.527188 
L 433 92.527188 
" style="fill: none; stroke: #d62728; stroke-width: 1.5; stroke-linecap: square"/>
    </g>
    <g id="text_24">
     <!-- inplace_scatter_shuffle 32768 -->
     <g transform="translate(442.54 96.027188)scale(0.1 -0.1)">
      <defs>
       <path id="DejaVuSans-37" d="M 525 4666 
L 3525 4666 
L 3525 4397 
L 1831 0 
L 1172 0 
L 2766 4134 
L 525 4134 
L 525 4666 
z
" transform="scale(0.015625)"/>
      </defs>
      <use xlink:href="#DejaVuSans-69"/>
      <use xlink:href="#DejaVuSans-6e" x="27.783203"/>
      <use xlink:href="#DejaVuSans-70" x="91.162109"/>
      <use xlink:href="#DejaVuSans-6c" x="154.638672"/>
      <use xlink:href="#DejaVuSans-61" x="182.421875"/>
      <use xlink:href="#DejaVuSans-63" x="243.701172"/>
      <use xlink:href="#DejaVuSans-65" x="298.681641"/>
      <use xlink:href="#DejaVuSans-5f" x="360.205078"/>
      <use xlink:href="#DejaVuSans-73" x="410.205078"/>
      <use xlink:href="#DejaVuSans-63" x="462.304688"/>
      <use xlink:href="#DejaVuSans-61" x="517.285156"/>
      <use xlink:href="#DejaVuSans-74" x="578.564453"/>
      <use xlink:href="#DejaVuSans-74" x="617.773438"/>
      <use xlink:href="#DejaVuSans-65" x="656.982422"/>
      <use xlink:href="#DejaVuSans-72" x="718.505859"/>
      <use xlink:href="#DejaVuSans-5f" x="759.619141"/>
      <use xlink:href="#DejaVuSans-73" x="809.619141"/>
      <use xlink:href="#DejaVuSans-68" x="861.71875"/>
      <use xlink:href="#DejaVuSans-75" x="925.097656"/>
      <use xlink:href="#DejaVuSans-66" x="988.476562"/>
      <use xlink:href="#DejaVuSans-66" x="1023.681641"/>
      <use xlink:href="#DejaVuSans-6c" x="1058.886719"/>
      <use xlink:href="#DejaVuSans-65" x="1086.669922"/>
      <use xlink:href="#DejaVuSans-20" x="1148.193359"/>
      <use xlink:href="#DejaVuSans-33" x="1179.980469"/>
      <use xlink:href="#DejaVuSans-32" x="1243.603516"/>
      <use xlink:href="#DejaVuSans-37" x="1307.226562"/>
      <use xlink:href="#DejaVuSans-36" x="1370.849609"/>
      <use xlink:href="#DejaVuSans-38" x="1434.472656"/>
     </g>
    </g>
    <g id="line2d_71">
     <path d="M 414.54 107.483438 
L 424.54 107.483438 
L 433 107.483438 
" style="fill: none; stroke: #9467bd; stroke-width: 1.5; stroke-linecap: square"/>
    </g>
    <g id="text_25">
     <!-- inplace_scatter_shuffle 65536 -->
     <g transform="translate(442.54 110.983438)scale(0.1 -0.1)">
      <defs>
       <path id="DejaVuSans-35" d="M 691 4666 
L 3169 4666 
L 3169 4134 
L 1269 4134 
L 1269 2991 
Q 1406 3038 1543 3061 
Q 1681 3084 1819 3084 
Q 2600 3084 3056 2656 
Q 3513 2228 3513 1497 
Q 3513 744 3044 326 
Q 2575 -91 1722 -91 
Q 1428 -91 1123 -41 
Q 819 9 494 109 
L 494 744 
Q 775 591 1075 516 
Q 1375 441 1709 441 
Q 2250 441 2565 725 
Q 2881 1009 2881 1497 
Q 2881 1984 2565 2268 
Q 2250 2553 1709 2553 
Q 1456 2553 1204 2497 
Q 953 2441 691 2322 
L 691 4666 
z
" transform="scale(0.015625)"/>
      </defs>
      <use xlink:href="#DejaVuSans-69"/>
      <use xlink:href="#DejaVuSans-6e" x="27.783203"/>
      <use xlink:href="#DejaVuSans-70" x="91.162109"/>
      <use xlink:href="#DejaVuSans-6c" x="154.638672"/>
      <use xlink:href="#DejaVuSans-61" x="182.421875"/>
      <use xlink:href="#DejaVuSans-63" x="243.701172"/>
      <use xlink:href="#DejaVuSans-65" x="298.681641"/>
      <use xlink:href="#DejaVuSans-5f" x="360.205078"/>
      <use xlink:href="#DejaVuSans-73" x="410.205078"/>
      <use xlink:href="#DejaVuSans-63" x="462.304688"/>
      <use xlink:href="#DejaVuSans-61" x="517.285156"/>
      <use xlink:href="#DejaVuSans-74" x="578.564453"/>
      <use xlink:href="#DejaVuSans-74" x="617.773438"/>
      <use xlink:href="#DejaVuSans-65" x="656.982422"/>
      <use xlink:href="#DejaVuSans-72" x="718.505859"/>
      <use xlink:href="#DejaVuSans-5f" x="759.619141"/>
      <use xlink:href="#DejaVuSans-73" x="809.619141"/>
      <use xlink:href="#DejaVuSans-68" x="861.71875"/>
      <use xlink:href="#DejaVuSans-75" x="925.097656"/>
      <use xlink:href="#DejaVuSans-66" x="988.476562"/>
      <use xlink:href="#DejaVuSans-66" x="1023.681641"/>
      <use xlink:href="#DejaVuSans-6c" x="1058.886719"/>
      <use xlink:href="#DejaVuSans-65" x="1086.669922"/>
      <use xlink:href="#DejaVuSans-20" x="1148.193359"/>
      <use xlink:href="#DejaVuSans-36" x="1179.980469"/>
      <use xlink:href="#DejaVuSans-35" x="1243.603516"/>
      <use xlink:href="#DejaVuSans-35" x="1307.226562"/>
      <use xlink:href="#DejaVuSans-33" x="1370.849609"/>
      <use xlink:href="#DejaVuSans-36" x="1434.472656"/>
     </g>
    </g>
    <g id="line2d_72">
     <path d="M 414.54 122.439687 
L 424.54 122.439687 
L 433 122.439687 
" style="fill: none; stroke: #8c564b; stroke-width: 1.5; stroke-linecap: square"/>
    </g>
    <g id="text_26">
     <!-- inplace_scatter_shuffle 131072 -->
     <g transform="translate(442.54 125.939687)scale(0.1 -0.1)">
      <use xlink:href="#DejaVuSans-69"/>
      <use xlink:href="#DejaVuSans-6e" x="27.783203"/>
      <use xlink:href="#DejaVuSans-70" x="91.162109"/>
      <use xlink:href="#DejaVuSans-6c" x="154.638672"/>
      <use xlink:href="#DejaVuSans-61" x="182.421875"/>
      <use xlink:href="#DejaVuSans-63" x="243.701172"/>
      <use xlink:href="#DejaVuSans-65" x="298.681641"/>
      <use xlink:href="#DejaVuSans-5f" x="360.205078"/>
      <use xlink:href="#DejaVuSans-73" x="410.205078"/>
      <use xlink:href="#DejaVuSans-63" x="462.304688"/>
      <use xlink:href="#DejaVuSans-61" x="517.285156"/>
      <use xlink:href="#DejaVuSans-74" x="578.564453"/>
      <use xlink:href="#DejaVuSans-74" x="617.773438"/>
      <use xlink:href="#DejaVuSans-65" x="656.982422"/>
      <use xlink:href="#DejaVuSans-72" x="718.505859"/>
      <use xlink:href="#DejaVuSans-5f" x="759.619141"/>
      <use xlink:href="#DejaVuSans-73" x="809.619141"/>
      <use xlink:href="#DejaVuSans-68" x="861.71875"/>
      <use xlink:href="#DejaVuSans-75" x="925.097656"/>
      <use xlink:href="#DejaVuSans-66" x="988.476562"/>
      <use xlink:href="#DejaVuSans-66" x="1023.681641"/>
      <use xlink:href="#DejaVuSans-6c" x="1058.886719"/>
      <use xlink:href="#DejaVuSans-65" x="1086.669922"/>
      <use xlink:href="#DejaVuSans-20" x="1148.193359"/>
      <use xlink:href="#DejaVuSans-31" x="1179.980469"/>
      <use xlink:href="#DejaVuSans-33" x="1243.603516"/>
      <use xlink:href="#DejaVuSans-31" x="1307.226562"/>
      <use xlink:href="#DejaVuSans-30" x="1370.849609"/>
      <use xlink:href="#DejaVuSans-37" x="1434.472656"/>
      <use xlink:href="#DejaVuSans-32" x="1498.095703"/>
     </g>
    </g>
    <g id="line2d_73">
     <path d="M 414.54 137.395938 
L 424.54 137.395938 
L 433 137.395938 
" style="fill: none; stroke: #e377c2; stroke-width: 1.5; stroke-linecap: square"/>
    </g>
    <g id="text_27">
     <!-- inplace_scatter_shuffle 262144 -->
     <g transform="translate(442.54 140.895938)scale(0.1 -0.1)">
      <use xlink:href="#DejaVuSans-69"/>
      <use xlink:href="#DejaVuSans-6e" x="27.783203"/>
      <use xlink:href="#DejaVuSans-70" x="91.162109"/>
      <use xlink:href="#DejaVuSans-6c" x="154.638672"/>
      <use xlink:href="#DejaVuSans-61" x="182.421875"/>
      <use xlink:href="#DejaVuSans-63" x="243.701172"/>
      <use xlink:href="#DejaVuSans-65" x="298.681641"/>
      <use xlink:href="#DejaVuSans-5f" x="360.205078"/>
      <use xlink:href="#DejaVuSans-73" x="410.205078"/>
      <use xlink:href="#DejaVuSans-63" x="462.304688"/>
      <use xlink:href="#DejaVuSans-61" x="517.285156"/>
      <use xlink:href="#DejaVuSans-74" x="578.564453"/>
      <use xlink:href="#DejaVuSans-74" x="617.773438"/>
      <use xlink:href="#DejaVuSans-65" x="656.982422"/>
      <use xlink:href="#DejaVuSans-72" x="718.505859"/>
      <use xlink:href="#DejaVuSans-5f" x="759.619141"/>
      <use xlink:href="#DejaVuSans-73" x="809.619141"/>
      <use xlink:href="#DejaVuSans-68" x="861.71875"/>
      <use xlink:href="#DejaVuSans-75" x="925.097656"/>
      <use xlink:href="#DejaVuSans-66" x="988.476562"/>
      <use xlink:href="#DejaVuSans-66" x="1023.681641"/>
      <use xlink:href="#DejaVuSans-6c" x="1058.886719"/>
      <use xlink:href="#DejaVuSans-65" x="1086.669922"/>
      <use xlink:href="#DejaVuSans-20" x="1148.193359"/>
      <use xlink:href="#DejaVuSans-32" x="1179.980469"/>
      <use xlink:href="#DejaVuSans-36" x="1243.603516"/>
      <use xlink:href="#DejaVuSans-32" x="1307.226562"/>
      <use xlink:href="#DejaVuSans-31" x="1370.849609"/>
      <use xlink:href="#DejaVuSans-34" x="1434.472656"/>
      <use xlink:href="#DejaVuSans-34" x="1498.095703"/>
     </g>
    </g>
    <g id="line2d_74">
     <path d="M 414.54 152.352188 
L 424.54 152.352188 
L 433 152.352188 
" style="fill: none; stroke: #7f7f7f; stroke-width: 1.5; stroke-linecap: square"/>
    </g>
    <g id="text_28">
     <!-- inplace_scatter_shuffle 524288 -->
     <g transform="translate(442.54 155.852188)scale(0.1 -0.1)">
      <use xlink:href="#DejaVuSans-69"/>
      <use xlink:href="#DejaVuSans-6e" x="27.783203"/>
      <use xlink:href="#DejaVuSans-70" x="91.162109"/>
      <use xlink:href="#DejaVuSans-6c" x="154.638672"/>
      <use xlink:href="#DejaVuSans-61" x="182.421875"/>
      <use xlink:href="#DejaVuSans-63" x="243.701172"/>
      <use xlink:href="#DejaVuSans-65" x="298.681641"/>
      <use xlink:href="#DejaVuSans-5f" x="360.205078"/>
      <use xlink:href="#DejaVuSans-73" x="410.205078"/>
      <use xlink:href="#DejaVuSans-63" x="462.304688"/>
      <use xlink:href="#DejaVuSans-61" x="517.285156"/>
      <use xlink:href="#DejaVuSans-74" x="578.564453"/>
      <use xlink:href="#DejaVuSans-74" x="617.773438"/>
      <use xlink:href="#DejaVuSans-65" x="656.982422"/>
      <use xlink:href="#DejaVuSans-72" x="718.505859"/>
      <use xlink:href="#DejaVuSans-5f" x="759.619141"/>
      <use xlink:href="#DejaVuSans-73" x="809.619141"/>
      <use xlink:href="#DejaVuSans-68" x="861.71875"/>
      <use xlink:href="#DejaVuSans-75" x="925.097656"/>
      <use xlink:href="#DejaVuSans-66" x="988.476562"/>
      <use xlink:href="#DejaVuSans-66" x="1023.681641"/>
      <use xlink:href="#DejaVuSans-6c" x="1058.886719"/>
      <use xlink:href="#DejaVuSans-65" x="1086.669922"/>
      <use xlink:href="#DejaVuSans-20" x="1148.193359"/>
      <use xlink:href="#DejaVuSans-35" x="1179.980469"/>
      <use xlink:href="#DejaVuSans-32" x="1243.603516"/>
      <use xlink:href="#DejaVuSans-34" x="1307.226562"/>
      <use xlink:href="#DejaVuSans-32" x="1370.849609"/>
      <use xlink:href="#DejaVuSans-38" x="1434.472656"/>
      <use xlink:href="#DejaVuSans-38" x="1498.095703"/>
     </g>
    </g>
    <g id="line2d_75">
     <path d="M 414.54 167.308437 
L 424.54 167.308437 
L 433 167.308437 
" style="fill: none; stroke: #bcbd22; stroke-width: 1.5; stroke-linecap: square"/>
    </g>
    <g id="text_29">
     <!-- inplace_scatter_shuffle 1048576 -->
     <g transform="translate(442.54 170.808437)scale(0.1 -0.1)">
      <use xlink:href="#DejaVuSans-69"/>
      <use xlink:href="#DejaVuSans-6e" x="27.783203"/>
      <use xlink:href="#DejaVuSans-70" x="91.162109"/>
      <use xlink:href="#DejaVuSans-6c" x="154.638672"/>
      <use xlink:href="#DejaVuSans-61" x="182.421875"/>
      <use xlink:href="#DejaVuSans-63" x="243.701172"/>
      <use xlink:href="#DejaVuSans-65" x="298.681641"/>
      <use xlink:href="#DejaVuSans-5f" x="360.205078"/>
      <use xlink:href="#DejaVuSans-73" x="410.205078"/>
      <use xlink:href="#DejaVuSans-63" x="462.304688"/>
      <use xlink:href="#DejaVuSans-61" x="517.285156"/>
      <use xlink:href="#DejaVuSans-74" x="578.564453"/>
      <use xlink:href="#DejaVuSans-74" x="617.773438"/>
      <use xlink:href="#DejaVuSans-65" x="656.982422"/>
      <use xlink:href="#DejaVuSans-72" x="718.505859"/>
      <use xlink:href="#DejaVuSans-5f" x="759.619141"/>
      <use xlink:href="#DejaVuSans-73" x="809.619141"/>
      <use xlink:href="#DejaVuSans-68" x="861.71875"/>
      <use xlink:href="#DejaVuSans-75" x="925.097656"/>
      <use xlink:href="#DejaVuSans-66" x="988.476562"/>
      <use xlink:href="#DejaVuSans-66" x="1023.681641"/>
      <use xlink:href="#DejaVuSans-6c" x="1058.886719"/>
      <use xlink:href="#DejaVuSans-65" x="1086.669922"/>
      <use xlink:href="#DejaVuSans-20" x="1148.193359"/>
      <use xlink:href="#DejaVuSans-31" x="1179.980469"/>
      <use xlink:href="#DejaVuSans-30" x="1243.603516"/>
      <use xlink:href="#DejaVuSans-34" x="1307.226562"/>
      <use xlink:href="#DejaVuSans-38" x="1370.849609"/>
      <use xlink:href="#DejaVuSans-35" x="1434.472656"/>
      <use xlink:href="#DejaVuSans-37" x="1498.095703"/>
      <use xlink:href="#DejaVuSans-36" x="1561.71875"/>
     </g>
    </g>
    <g id="line2d_76">
     <path d="M 414.54 182.264687 
L 424.54 182.264687 
L 433 182.264687 
" style="fill: none; stroke: #17becf; stroke-width: 1.5; stroke-linecap: square"/>
    </g>
    <g id="text_30">
     <!-- inplace_scatter_shuffle 2097152 -->
     <g transform="translate(442.54 185.764687)scale(0.1 -0.1)">
      <use xlink:href="#DejaVuSans-69"/>
      <use xlink:href="#DejaVuSans-6e" x="27.783203"/>
      <use xlink:href="#DejaVuSans-70" x="91.162109"/>
      <use xlink:href="#DejaVuSans-6c" x="154.638672"/>
      <use xlink:href="#DejaVuSans-61" x="182.421875"/>
      <use xlink:href="#DejaVuSans-63" x="243.701172"/>
      <use xlink:href="#DejaVuSans-65" x="298.681641"/>
      <use xlink:href="#DejaVuSans-5f" x="360.205078"/>
      <use xlink:href="#DejaVuSans-73" x="410.205078"/>
      <use xlink:href="#DejaVuSans-63" x="462.304688"/>
      <use xlink:href="#DejaVuSans-61" x="517.285156"/>
      <use xlink:href="#DejaVuSans-74" x="578.564453"/>
      <use xlink:href="#DejaVuSans-74" x="617.773438"/>
      <use xlink:href="#DejaVuSans-65" x="656.982422"/>
      <use xlink:href="#DejaVuSans-72" x="718.505859"/>
      <use xlink:href="#DejaVuSans-5f" x="759.619141"/>
      <use xlink:href="#DejaVuSans-73" x="809.619141"/>
      <use xlink:href="#DejaVuSans-68" x="861.71875"/>
      <use xlink:href="#DejaVuSans-75" x="925.097656"/>
      <use xlink:href="#DejaVuSans-66" x="988.476562"/>
      <use xlink:href="#DejaVuSans-66" x="1023.681641"/>
      <use xlink:href="#DejaVuSans-6c" x="1058.886719"/>
      <use xlink:href="#DejaVuSans-65" x="1086.669922"/>
      <use xlink:href="#DejaVuSans-20" x="1148.193359"/>
      <use xlink:href="#DejaVuSans-32" x="1179.980469"/>
      <use xlink:href="#DejaVuSans-30" x="1243.603516"/>
      <use xlink:href="#DejaVuSans-39" x="1307.226562"/>
      <use xlink:href="#DejaVuSans-37" x="1370.849609"/>
      <use xlink:href="#DejaVuSans-31" x="1434.472656"/>
      <use xlink:href="#DejaVuSans-35" x="1498.095703"/>
      <use xlink:href="#DejaVuSans-32" x="1561.71875"/>
     </g>
    </g>
   </g>
  </g>
 </g>
 <defs>
  <clipPath id="p0340a35f11">
   <rect x="54" y="34.56" width="334.8" height="217.44"/>
  </clipPath>
 </defs>
</svg>
